<svg id="Layer_1" enable-background="new 0 0 135 135" height="512" viewBox="0 0 135 135" width="512" xmlns="http://www.w3.org/2000/svg"><g id="Event_Reminder"><g><g><g><g><g><path d="m19.1209412 21.8970432c5.4907761.7072201 11.1063213.4345837 16.5027657-.8012123-.9514122 6.1541004 5.6354523 11.7875919 11.8060799 10.9500294 6.1706276-.8375607 10.8406296-6.7760086 11.4972343-12.968504 4.9438095.019331 9.8876152.0386639 14.8314247.0579967-2.3066254 3.0565681.6321945 7.5176048 4.1214676 9.0949612 6.7789688 3.0644798 15.719986-.1973572 18.933136-6.9071293 5.7594452.6156235 11.5188904 1.2312508 17.2783356 1.8468761.2716141 6.0651226.9416199 12.1123714 2.0042496 18.0898533-17.1319809 1.2840462-34.2639542 2.5680923-51.3959351 3.8521347-4.9103928.3680344-9.8291054.7363281-14.7525444.6519585-4.2499847-.0728264-8.4915695-.4829979-12.7435074-.4679337-2.7707863.0098152-10.0106602 2.4463921-12.2125092 1.4303589-2.6037884-1.2015076-2.5905914-8.048069-3.085743-10.5816956-.9281502-4.7492255-1.8563003-9.4984492-2.7844543-14.2476939z" fill="#ffcb05"/></g></g><g><g><path d="m42.809166 5.1409926c-3.1422119 3.5692792-5.9434357 7.6275821-6.9707794 12.2706223s.0222015 9.9666786 3.5814819 13.1202126c3.4013863 3.0136395 8.7111588 3.4956532 12.7499008 1.4123783s6.683857-6.4873905 6.9478035-11.024107-1.7378578-9.0839567-5.0403824-12.2056198c-1.8720932-1.7695689-4.2072372-3.1336679-6.7596626-3.4818544-2.5524216-.3481865-5.3212013.4277387-7.0508881 2.33674" fill="#fff"/></g></g><g><g><path d="m79.693161 3.4254582c-3.1422119 3.569279-5.9434357 7.6275816-6.9707794 12.2706223s.0222015 9.9666777 3.5814819 13.1202135c3.4013901 3.0136395 8.7111588 3.4956532 12.7499008 1.4123764 4.0387344-2.0832748 6.6838608-6.4873886 6.9477997-11.0241051.2639465-4.5367155-1.737854-9.0839567-5.0403824-12.2056198-1.8720932-1.7695689-4.2072372-3.1336679-6.7596588-3.4818544s-5.3212051.4277387-7.0508881 2.33674" fill="#fff"/></g></g></g><g><path d="m126.8684006 93.0873871c-.4898682-3.4902344-1.8007813-10.2539063-4.1071777-23.5571289-2.4576721-14.1479263-4.1018295-24.4128685-5.0146484-30.0034142.0615234-.0997276.0559845-.2933006-.0644531-.3945313-2.2606583-13.8429375-2.5687714-15.5568295-2.7941895-15.5292969-.2709961.033638.191185 6.2491341 1.2087402 15.2490234-9.6161194-.437912-83.618782 5.2177773-92.1670532 6.6152344-3.1220722-15.6480732-5.1385479-22.4584274-5.3435669-22.4140625-.5070114.1106777 3.1635532 17.3551826 8.1036377 52.133297 1.2880249 9.0673828 2.1427612 15.4692383 2.7683716 20.003418-.3128433-1.0395737-.9294891-.7743073-7.8026733.3378906-1.3306885.2119141-2.4532471.3823242-2.4859619.7041016-.032959.3134766 1.0655518.7246094 2.4855957.9326172 1.4156494.2192383 3.133667.1953125 4.2043457.0273438.9048405-.1404648 3.5086765-.6311111 3.6628418-1.5371094.3880005 2.8027344.6860962 4.859375.944458 6.3569336.1989746 1.2080078.3654785 2.0546875.5101318 2.6508789-.3143921.1044922-.4273682.2041016-.4630737.3032227-.0418701-.1137695-.1074829-.2368164-.2300415-.3847656-.4083252-.5146484-1.3226318-1.2641602-3.1855469-2.8461914-1.0228271-.8603516-2.7127686-2.1953125-4.2843018-3.1743164-1.0653687-.6733398-2.0695801-1.1142578-2.6582031-1.2451172-.0407715-.2475586-.1610107-.4648438-.6729736-.5981445-.6306152-.1459961-1.8306885-.2456055-4.2508545.112793-1.3282471.1835938-3.4163818.8686523-4.9291992 1.7783203-.8154297.4667969-1.4903564.9462891-1.9295654 1.3369141.2018433-.9023438.4835205-2.5405273.8161621-4.7197266.5093994-3.4213867 1.1331787-8.1591797 1.7427979-13.3969727 1.1842041-10.4682617 2.5917969-22.9116173 3.4866943-30.8227501 2.3222675-19.5675316 4.1876717-28.0139313 3.6401367-29.2646484 1.5142136.1499157 6.5256557.0795898 9.9039917.0795898.1723728 1.0061646-.0152187 2.0038528-.1907959 3.1811523-.7986317-.1423244-1.4664288.1296368-1.9215698.7011719-.0622559.0844727-.09729.1733398-.1477661.2597656l-.1300659-.0200195c-.0733299.3124371-.5329342.9940014-.1593018 1.9868164.5309505 1.4181938 2.1823845 1.8078327 3.3543701.9257813 1.1961021-.893322 1.1377392-2.6145897-.1221313-3.4912109.7022648-1.0681267 1.1579514-2.2559414 1.2045288-3.5537109 1.6570854-.0105171 3.1858025-.0200195 4.8545532-.0200195.4401894 12.5400543 14.1094704 16.1130867 21.460022 8.5400391 2.0822182-2.1239033 3.5469055-4.9580231 4.0299683-8.4599609 4.0600014.0600586 8.0000038.1201172 11.6000404.1899414 2.1744919 13.6298332 20.5234451 14.1019745 24.7199707.7001953 3.5083618.1201172 6.387207.2299805 8.7365723.3100586-.0501099.3173828-.1141357.6123047-.1817017.8798828-.1002045.012495-.6527328-.1067696-1.2842407.3408203-1.0074768.7223358-1.1461258 2.1144905-.4293213 2.8754883.8934631.9917698 2.3682632.8670197 3.0687256.0141602l.1676025-.2036133c.0140152-.1419926.284256-.6458988-.0299683-1.355957-.0386963-.4139175-.157135-.7959232-.5097046-1.1665039-.0195313-.0209961-.0494385-.0317383-.0704346-.0517578.2592773-.3320313.5275269-.7539063.7388306-1.2827148 1.3193359.037468 3.0593491.0889053 4.3036499.1000977 4.6699829.0698242 4.8800049-.2001953 4.8999634-.5200195.0200195-.3198242-.1499634-.6201172-4.7999878-1.1201172-2.5026932-.231966-3.7824554-.3291378-4.0470581-.3515625.0133591-3.9312038-4.6051865-5.8898058-6.7233276-2.8193359-.4687958.6996098-.6863556 1.6350346-.3500366 2.3408203-.9398804-.0595703-1.9396973-.1098633-2.9995728-.1699219.9084702-6.0562239-2.0878296-12.2064085-6.8399658-15.6396484-8.0783731-5.807757-14.2831308.5013337-12.9400064.95996-1.8371964 2.1871686-3.3824921 4.5898509-4.3900146 7.1899409v.0097656c-.0010376.0024414-.0015869.0043945-.0026245.0068359-.6428146-1.3952513-4.1383743-3.4090557-7.9545898-2.8305664-3.1077003.4459238-5.5307045 2.4312201-5.9127235 3.5239258h-.000061c-1.9109268-4.5575151-6.3861008-8.83529-11.2300415-9.4702148-5.1033745-.7197354-8.3343697 2.8342299-7.3999634 3.2900391-4.0237694 4.7944579-4.8238869 8.572113-4.9523926 8.8085938-2.3809929-1.7476835-9.9232788-5.0350266-12.8444214-6.2041025-.3516846-.1508789-.6959229-.2504883-.9976807-.2495117-.5992432-.0229492-1.1652832.347168-1.3963623.7954102-.3606377.6254225-.5538025 2.9769735-.53479 3.6948242.026123.9863281.3032227 1.078125.6171875 1.1376953.3140869.0595703.6055908.0751953.9909668-.8330078.4113827-.969183.6361923-2.171833.7116699-2.3100586.0061646-.0043945.0112915-.0068359.0166016-.0092773.7145863.4608088 10.5861931 4.1617785 13.2891235 4.5200205-.2799683 1.0693359-.4598999 2.2094727-.5198975 3.3994141-1.7476196.0800781-3.4151611.1601563-4.963501.2495117-.7631245-3.5754147-4.6358337-4.50844-6.3533325-1.9384766-.4546375.6897411-.6675072 1.6071129-.2880859 2.3486328-.4105549.0343819-4.2187996.2982159-5.2606201.5195313-.0144653-.0039063-.0289917-.0078125-.0438232-.0107422-.3133545-.0620117-.6252441.027832-1.5455322 3.71875-.8665771 3.6953125-2.4224854 11.0039063-4.1398926 25.4765625-.9587402 7.9282227-2.0170898 20.4287071-2.8168945 30.9355431-.394043 5.2539063-.7509766 10.0112305-1.0093994 13.4575195-.1813965 2.5371094-.2802734 4.3583984-.2563477 5.1542969-.1555176.1821289-.2330322.3291016-.1903076.4106445.1519775.2944336 1.4953613-.1289063 3.0944824-.5766602 1.5964355-.4819336 3.442749-.828125 4.6602783-1.0004883 2.2193604-.3300781 3.4213867-.4970703 4.0043945-.7661133.2210693-.0947266.3423462-.1967773.4284058-.3017578.4025269.453125 1.0527954 1.0712891 1.7647095 1.7978516 1.2467041 1.2553711 2.7479248 2.7680664 3.8044434 3.6572266 1.9182129 1.6313477 3.1290283 2.2763672 3.8041992 2.4609375.6901855.1767578.8503418-.0649414 1.0112305-.3408203.0661621-.1132813.1147461-.2290039.1321411-.3564453.0734253.0966797.2521362.1835938.6759644.2519531.1968384.5185547.352478.5424805.5112305.5249023.1384277-.0151367.2677002-.0600586.3504028-.4355469.7092896.0473633 1.7313232.0717773 3.2194214.0644531 4.2492676-.0517578 12.2859497-.2929688 27.3726807-1.4448242-.9664917 2.8676758-2.5822754 10.09375-3.2669678 13.9272461-1.5904541 8.9038086-1.1136475 9.1811523-.484375 9.293457s1.1726074.0170898 2.7630615-8.8862305c.7001343-3.9194336 1.7147827-11.5029297 1.7606812-14.3930664 19.9183846-1.5380554 41.6823921-4.2206879 56.6787758-6.6943359 2.9793701-.5004883 5.126709-.902832 6.0892944-1.1474609.2620239.5371094.4302368.5478516.5977173.5117188.3126217-.0664055.5662838-.2666008.0493161-3.7509758zm-24.8212891-73.379879c1.2118988-1.1733818 2.721756.0135021 3.1340332 1.3735352-.1004715-.0066757-4.1769409-.2774792-3.9176636-.2602539.2337647-.2481957.3733902-.6956807.7836304-1.1132813zm-80.0997963-7.2573252c.0008545 0 .00177-.0009766.0026245-.0014648.012207-.0058594.0317383.0019531.0397949.0141602-.03125-.0112305-.0384521-.0122071-.0424194-.0126954zm56.3473549-6.9096675h.0099487c9.1548691-5.1227932 19.4832764 7.5712161 15.7900391 17.1298828-3.7395706 10.3869362-18.2147064 10.7928658-20.7300415-1.1396484-1.1177826-5.8953347 1.5260086-11.0807424 4.9300537-15.9902344zm-13.2160644 6.8598628c4.2006607-.1493073 6.5488586 2.1982965 7.3868408 1.6791992-.0006714.0004883 0 .0009766-.0007935.0009766-.5800171 1.7001953-.9199829 3.6601572-.8699951 5.7001963-3.5200195-.0302734-7.3600464-.0400391-11.3100014-.0200195-.0400391-2.090332-.5300293-4.0102549-1.210022-5.6801767-.0006714-.0024414-.00177-.0039063-.0024414-.0063477.5884362.0028133 2.7638016-1.5844126 6.0064126-1.6738282zm-23.6739541-5.1396479c.0100098 0 .0100098-.0102539.0100098-.0102539 3.6138611-1.982758 7.3132515-1.3796945 10.5999756 1.1201167 6.5047684 4.9799137 8.1791954 14.4565115 2.5200195 20.3901367-6.4513702 6.7649345-18.5382423 3.2870903-18.3000488-8.4501953.0608864-4.8351403 2.4190826-9.0822211 5.1700439-13.0498042zm-16.2998046 12.6997075c.8591537-.8834476 1.9009476-.2658978 2.4754639.7597656.0036011.0068359.0059204.0141602.0094604.0209961-.7985916.0429306-2.0167503.1188164-3.1000977.1894531.1857624-.3296814.2548847-.5852966.6151734-.9702148zm94.9085731 76.6206016c-59.6534843 6.0906982-75.0127563 6.441124-84.7905273 7.4560547-1.3777466.1333008-2.3501587.2529297-3.0437012.3642578.005188-.6049805-.0192261-1.4291992-.0860596-2.5732422-.6963596-10.5585403-3.5596066-33.1930084-8.0998535-56.0405235 6.0508423.1582031 41.3904457-1.7744141 58.6488075-2.9301758 22.6641235-1.5166016 30.7337036-2.2807617 33.5914307-2.8076172 1.2447205 10.7709503 2.9365387 22.3323822 4.24646 29.8735313 2.3132324 13.3422852 3.8840332 20.0834961 4.7856445 23.496582.3609619 1.324707.6280518 2.1420898.8389282 2.6474609-1.0282631.0312502-3.168827.2192384-6.0911293.513672z"/><path d="m109.9880295 11.7773314c.393158.6106901.3764801 2.4788914.6298828 3.5131836.2329102.9877939.5301514 1.012208.84729.9975595.3212891-.0146484.6025391-.0683594.7893066-1.0273447.0888672-.484375.1928711-1.1801758.1951904-2.3256836-.0386963-.5834961.0057373-1.3012695-.5145264-2.3203125-1.3041458-2.2275963-4.8011169-1.4350615-7.1654053-.375-3.3464737 1.4502373-7.8411255 5.0263634-7.5871582 5.4433594.2475359.405921 11.0179979-5.6641674 12.8054201-3.9057617z"/><path d="m78.9146652 20.2905159c-.1171265.907011.1859818 1.8665714.9699707 2.5800781.9552078.8637257 1.9492264.5819645 2.0499878.5898438 1.6886368 0 2.6463547-1.7274685 2.3300171-3.3999023-.3259888-1.7608967-1.8727722-2.79496-3.1599731-2.6298828-1.3870621-.1354447-2.5744553 1.322071-2.1900025 2.8598632z"/><path d="m47.6446419 24.2504768c1.2787247.5961666 2.9257011.0738888 3.6900024-1.8198242.4174347-.974205.5547867-2.5178909.1799927-3.6098633-.4542465-1.3623409-1.7619781-2.0177631-3.0499878-1.7202148-1.8154984.0396042-3.2765961 1.7605839-2.8900146 4.1899414.1490783 1.1199055.9150733 2.4148502 2.0700073 2.9599609zm.7000122-2.199707c.289978.0297852.5999756 0 .9199829-.1000977-.2728577.3973237-.5930862.4674206-.9199829.1000977zm-.0800171-2.5703125c.210022-.1298828.4000244-.1098633.4299927-.0898438.110302 0 .1858215.4391384 0 .5297852-.2600098 0-.5100098.0102539-.7600098.0205078-.0100098 0-.0199585-.0102539-.0199585-.0102539.0694428-.1855602.1760635-.3552303.3499756-.4501953z"/><path d="m69.7095871 33.2773323c-.3168945-.0493164-.6046143-.0571289-.8973389.4589844-.4674149.7875443-.9082794 3.0638275-2.7108154 2.6513672-2.0139847-.4873199-2.8703117-3.4156036-3.4093056-3.1899414-.1499023.0517578-.1970215.4042969-.1467285.9545898.2921486 2.8565445 2.3261604 4.6832314 4.4895058 4.5195313 2.2591171-.1802559 3.7010803-2.7586975 3.3929443-4.6733398-.1153564-.6181642-.4035644-.6723634-.7182617-.7211915z"/><path d="m64.4620285 80.3588715c-.012085.3139648 1.4501953.6650391 3.2946777.7724609 1.8414307.1206055 4.0444336-.0463867 5.4154053-.3144531 2.5046387-.4858398 3.7106934-1.0273438 4.2801514-1.40625.5665283-.3969727.4986572-.6787109.4005127-.9829102s-.2154541-.5708008-.8800049-.5820313c-.6433716-.0268555-1.7902222.2211914-3.973999.6469727.4019165-4.7343674-.4304199-18.3758163-1.2296143-22.0849571.8422241-1.6196289.5508423-1.8862305.1741943-2.1352539-.5332031-.3525391-1.0238037-.550293-3.81604 3.671875-1.5300293 2.3134766-4.3813515 7.5644493-3.8481445 7.9169884.5330811.3525391 4.2489014-4.3266563 5.7789307-6.6401329.3626709-.5483398.6696167-1.0288086.9320068-1.4560547-.2905884 3.3979492-.3729858 9.9028282-.2718506 13.4687462.1152954 4.0629883.2842407 6.3330078.4927979 7.6083984-1.1094971.2158203-2.3872681.4599609-3.5430908.6547852-1.7424317.3071289-3.1944581.5375976-3.2059327.8618164z"/><path d="m87.0808029 55.3383675c-2.6966553-1.6254883-4.4350586-1.6699219-5.2420654-1.6923828-.8410645.0458984-.9013672.1933594-.9139404.3520508-.0125732.1591797.0444336.3193359.7818604.5390625.708252.2817383 2.1955566.5615234 4.4602051 2.1591797 1.1074219.8100586 2.3850098 1.9990234 3.5119629 3.7827148 5.1279984 8.1206398.3859253 21.9478722-11.366333 26.3837852-12.004364 4.4955902-24.1661148-3.1631393-25.6342812-14.1030273-.5140381-4.0527344.6853027-8.1884766 2.4953613-11.7104454 1.8226318-3.5444336 4.1992188-6.6206055 6.9576416-8.6518555 1.368042-1.0214844 2.8313026-1.7744141 4.2602577-2.2495117 1.440918-.4521484 2.8621826-.6347656 4.1564941-.6186523 2.6033936.0458984 4.6307373.8720703 5.8553467 1.6552734 1.2388916.7871094 1.7902832 1.4262695 1.8679199 1.3540039.0430908-.0297852-.388916-.78125-1.6020508-1.7373047-1.1970215-.9477539-3.2989502-1.9794922-6.0831299-2.1723633-1.3841553-.0888672-2.9215088.0341797-4.5108643.4624023-1.5841064.453125-3.1834755 1.2050781-4.6961708 2.2529297-3.0438232 2.0859375-5.6451416 5.2714844-7.65271 8.9404297-1.9949951 3.6586914-3.4401855 8.0956993-2.9544678 12.6987267.7789421 6.8147507 5.4861641 12.7037048 11.5352783 15.5263672 9.8589592 4.6106949 22.4395714.9670181 28.5708046-9.4648438 2.3240967-3.9526367 3.1070557-7.9858398 2.9857178-11.3847656-.2280043-5.5003204-2.8470381-9.8507347-6.7828368-12.3217735z"/><path d="m99.0577316 124.078598c.6333008-.0869141 1.1234131-.3276367.0078125-8.4711914-.6113281-4.4624023-2.4365234-13.9682617-3.0698242-13.8813477-.6333008.0864258.1651611 9.7333984.7763672 14.1958008 1.1156006 8.1435547 1.6523437 8.2431641 2.2856445 8.1567383z"/><path d="m104.7819748 122.2421722c-2.1004562.235939-3.9160309 2.0584183-3.7940674 2.2607422.1783066.2992325 2.1069336-1.0470581 3.845459-.9672852.6269531.0336914 1.3659668.3706055 1.7575684.8925781.3918457.503418.3178711 1.0927734-.0965576 1.5170898-.4304199.4560547-1.2984619.7783203-2.1318359.9477539-1.4138184.279747-6.3767929.6714935-8.451416.7890625-.967659.069191-2.4060135.0961075-2.7817383-.8100586-.0586395-.1647415-.0996475-.2386169-.0096436-.4609375.2155533-.458168.5257034-.5967407.6444092-.9428711.0509033-.1455078.1179199-.3027344-.1228027-.4931641-.210083-.1723633-.9713135-.3554688-1.7651367.371582-.5379944.5203018-.749855 1.2387466-.6207275 1.940918.1462402.84375.7315674 1.6513672 1.6542969 2.1445313.944458.503418 2.065918.550293 3.0922852.5161133 2.2328644-.058548 4.1589584-.2296906 5.9580078-.472168 2.1090698-.3242493 4.5096588-.5261688 5.994873-2.2851563 1.7889403-2.1675718-.1365511-5.2022245-3.1729738-4.9487303z"/><path d="m60.2849007 126.4311371c-.2647705.3300781-.3018799.5673828-.2410889.605957.1224365.1181641.7095947-.6064453 1.8665771-.5419922 1.811306.0871964 2.9577141 3.2066345-.9677734 3.7744141-3.415451.5054626-11.6335678-.8206787-12.0515137-1.9013672-.1272316-.2471008.2085838-.7301636.4724121-.9277344 1.0571709-.8236389 3.0263824-.0198517 3.178833-.9550781.0471191-.2939453.1494141-.6464844-1.4077148-1.0981445-4.0617256-.9327621-6.0448189 3.6703796-2.9222412 5.3520508 2.1350937 1.2168274 8.8403206 2.3582306 13.0981445 1.4145508 1.1412354-.2734375 2.4221191-.7651367 3.2064247-1.9238281.7317047-1.0918274.6930923-2.4575272-.0916748-3.5327148-1.0289688-1.4449998-3.1527748-1.4578325-4.1403846-.2661134z"/><path d="m98.459465 76.4501801c-1.2999268-.1928711-2.371582-.0991211-2.4310303.2099609-.0623779.3173828.8588867.7875977 1.9377441 1.3510742 1.0675049.5620117 2.3205566 1.2216797 3.116333 1.6401367 1.447876.7480469 2.1876221 1.1401367 2.6679688 1.2055664.4720459.078125.6606445-.1430664.8482666-.4018555s.3469238-.5004883.0878906-.940918c-.618576-.9899444-3.2043075-2.6434859-6.2271728-3.0639647z"/><path d="m99.4612961 67.8837738c1.2635498-.2001953 2.7318115-.3676758 3.6612549-.4829102 1.6962891-.2119141 2.5703125-.2895508 3.0279541-.5024414.4577637-.1948242.4946289-.4833984.5085449-.8027344s.0129395-.6088867-.4715576-.8334961c-.4814453-.2060547-1.4681396-.3935547-3.3669434-.15625-1.0391846.1274414-2.6368408.5898438-3.8651123 1.2211914-1.2374268.6201172-2.0958252 1.3549805-1.9608154 1.6386719.1378174.2934571 1.2042236.1044922 2.4666748-.0820312z"/><path d="m105.7036057 72.4130707c-1.576416-.3374023-5.0681152-.5546875-5.2019043.0703125s3.1409912 1.855957 4.7174072 2.1933594c2.8770752.6157227 3.0456543.1220703 3.1794434-.5029297s.1821288-1.1445313-2.6949463-1.7607422z"/></g></g><g><g><g><path d="m108.7647552 34.422966c-.3179932.0317383-.5808105.0073242-.8258057-2.4213867-.1342773-1.3310547-.1645508-4.2128906.1534424-4.2451172.3179932-.0317383.8638916 2.7978516.9980469 4.1289063.2449952 2.4287109-.0076904 2.505371-.3256836 2.5375976z" fill="#fff"/></g></g></g><g><g><g><path d="m42.8711967 38.4215012c-.0534668.1503906-.1308594.2768555-.791748.1640625-.6673584-.0825195-1.9069824-.4799805-4.4158936-.8149414-1.3730469-.1860352-3.5559082-.3300781-5.4051514-.2280273-1.8485107.0791016-3.3482666.3398438-3.3901367.1767578-.0406494-.1450195 1.411377-.6953125 3.3065186-.9912109 1.8894043-.3178711 4.1920166-.3017578 5.6328125-.105957 2.6340332.3515625 3.9035645.8979492 4.5257568 1.1850586.6174317.3198241.5914307.463867.5378418.6142577z" fill="#fff"/></g></g></g></g></g></svg>