<svg id="Layer_1" enable-background="new 0 0 135 135" height="512" viewBox="0 0 135 135" width="512" xmlns="http://www.w3.org/2000/svg"><g id="Account_Login"><g><g><g><g><path d="m70.6973419 82.7706757c4.2486801 1.5292969 8.9376984.2737579 13.2735062-.9875031 1.7042542-.4957581 3.4577026-.9967041 5.2252731-.8356628 3.1129303.2836151 5.7888184 2.5708237 8.9079132 2.7757416-4.9131622 1.7210922-10.4107513 3.5775528-15.6331024 3.9775543-1.8924561.1449509-3.0191879-.7082214-4.6241379-1.5546875-2.2643127-1.1942139-4.7409439-2.5085144-7.1494522-3.3754425z" fill="#ffcb05"/></g></g><g><g><path d="m44.6018715 82.8588638c2.8629456.4142456 5.7255211-.5338593 8.4837723-1.4057007 5.4942131-1.7366333 11.0680046-3.2196503 16.6934547-4.4673004 10.4101944-2.3088531 20.9802017-3.8088074 31.5376511-5.3065109-4.393219-1.3476105-8.3264542-4.242485-12.8968353-4.7200394-2.5524826-.2667084-5.1140442.2481766-7.6339798.7342377-7.1665649 1.3823471-14.3722763 2.55159-21.5767212 3.7206039-5.9060326.9583282-11.8120651 1.9166565-17.7181015 2.8749924-1.5024109.243782-3.0048218.4875717-4.5072327.7313538-.7746277.1256943-3.3173561.1019669-3.7637444.7969589-1.0211411 1.5898285 3.0513535 3.1052475 3.8992691 3.6153641 2.3478165 1.4124756 4.7092095 3.0247803 7.4824677 3.4260406z" fill="#ffcb05"/></g></g><g><g><path d="m32.4120445 35.1259346c-.84618-2.4394951-.9339638-5.2654209.1870461-7.5758476.806942-1.6631279 2.1750298-2.9517384 3.6686935-3.9388943 3.3705864-2.2276039 7.5983047-3.0519505 11.4240036-1.9346352s7.1461868 4.2530136 8.3788719 8.2682228.2044792 8.7901249-2.7367401 11.6247921c-3.2019119 3.0859184-7.9894905 3.5416718-12.238369 2.7184982-4.1378898-.8016853-7.2762756-5.1051482-8.683506-9.162136z" fill="#ffcb05"/></g></g><g><g><path d="m43.3238869 24.3142872c-2.0850868-.1781197-4.1480942 1.5543537-4.3225784 3.6397514s1.5821609 4.1407795 3.6700172 4.2828083c2.0878601.1420326 4.1106071-1.6669273 4.1912804-3.7580547s-1.8073463-4.0540848-3.9000053-4.0444298" fill="#fff"/></g></g><g><path d="m12.4820719 77.4529343c.1475334-.0200195-.382741-4.6372528-.4660645-5.3725586-1.2161331-10.7361832-6.3058839-49.9323311-6.7624507-52.2487793-.2617798-1.3985538-.8221626-4.1895914-.2023926-5.4550791-.0205078-.0410156.4897461-.3527832 1.0443115-.465332 1.5055213-.3847113 2.3598561-.3495283 13.4232178-1.0917969 13.5788517-.8741064 35.5012054-1.9929104 35.6157227-1.9975586 17.3957977-.6231642 21.079483-.9825125 21.1022949-.9829102.8345947-.0307617 1.5845947.1264648 1.8144531.3745117.9029465.6788254 1.1925735 5.4220667 3.5019531 21.7609863.2986679 2.2479134 4.3090134 28.3304367 5.4352417 30.2609863-7.2274323-1.5502167-95.5900345 16.40448-68.3959351 12.5119629 7.6353073-1.0917892 20.3995724-3.2672806 41.3837891-6.755127 22.9354782-3.8570328 28.3194656-4.5075493 27.3597412-5.5957031.9169006-.5094833-2.4781647-20.8666878-3.6696777-30.7114258-2.2451477-17.5606594-2.3656006-19.5707664-3.0841064-21.5561523-.5132828-1.335433-1.2132263-2.133882-2.743042-2.4536133-1.7268982-.3553886-.4204025.0144615-22.803833.8408203-2.0559082.0883789-4.1972656.2365723-6.4146729.3605957-16.9214606 1.0137407-12.1189818.723961-21.575561 1.3005372-2.5341797.1601563-5.0946045.3823242-7.6749268.5744629-2.5784912.2004395-5.1741953.4020996-7.7728281.6040039-8.0565529.5954037-9.7861881.5454607-8.1247559 8.8244638.4112549 1.923584.6256106 3.9711914.944092 5.9455566 1.6317967 10.9836236 5.2053927 35.0833474 7.0361327 46.0307618.123209.7367096.8817282 5.3164063 1.0292969 5.2963868z"/><path d="m132.0129547 77.2524948c-.1358032-.4711914-.2511597-.6740723-.3364258-.7614746.0390625-.1530762-.0257568-.3186035-2.0532227-.9763184-3.0296783-.9992828-8.6103134-2.4737625-38.2631836-11.3723145-14.5587082-4.2933502 25.9412003 9.9160004 38.9770508 12.3518066-4.7696915.502037-26.4520111 5.5031891-32.4603271 6.878418-1.3151016-.9631271-8.9171371-3.4971924-9.9142456-3.4418945-.2620392-.6778107-3.1712799.3961105-14.0425415 2.3393555-1.84729.3361816-3.4296875.6096191-4.0777588.7929688-.1337891-.0102539-.2182617.0002441-.2314453.0390625-.0026245.0078125.0117188.0217285.0164795.0322266-.2038956.0865707-.0763168.1180038.1477051.1411133.9183578.6410904 8.1434174 3.912941 9.4572144 4.4101563-8.9895325 2.0649567-12.8360748 2.6864471-17.5824585 3.4890137-1.1136475.1894531-2.1495361.4509277-3.175293.6481934-2.637001.5127487-3.579567.3708344-5.8190918-.4106445-4.3718071-1.5714874-19.4536324-9.8717194-36.770874-15.3222656-2.9705944-.9077682-3.0161905-.7597656-.1602783.4379883 31.0174865 13.0307996 34.7184066 17.1337049 39.6574706 17.5622556 5.9336319.4033051 72.8449402-14.9092636 76.1586304-17.0031738.082077.6800613.0262756 1.2797699-.2770386 1.9475098-.5155029 1.0875931-1.4347992 1.4957352-2.5935059 1.7570801-12.1779022 2.6968002-52.2454681 12.9658203-63.5926514 15.6953125-2.3457985.5435791-7.6614189 1.8072586-9.7978516 1.5683594-9.5019569-.6497803-29.6253529-14.5395966-40.7840576-18.829834-.7324219-.2875977-1.3101807-.4868164-1.7045898-.6137695-.3936768-.1291504-.6033936-.1879883-.6102295-.1691895-.0418549.1133575 2.7881422 1.0430603 8.1872568 3.9118652 8.8872433 4.7234955 26.398119 16.0267868 34.8300781 16.6872559 3.3705254.3938522 12.0602188-1.5946808 73.6690674-17.4558105 1.3300171-.3472595 2.4620972-.9365387 2.9919434-2.2978516.341796-.9218751.2491446-1.6098634.1541739-2.0354005zm-51.5257568 10.1425781c-.2959595-.3244629-1.2008057-.8837891-3.6899414-2.0217285-1.482605-.6962891-4.2287598-1.6506348-5.8639526-2.0839844 6.5660019-.1961746 16.5574646-2.3373795 17.017395-3.1843262.9030533.76474 6.0528564 2.8988266 8.3381348 3.6313477-2.9314576.6723633-13.4354478 3.1100617-15.8016358 3.6586914z"/><path d="m88.5750885 66.1943893c-.0302734-.1582031-.1673584-.2753906-2.9272461.1347656-22.41325 3.3969345-35.6661148 6.5010757-41.159668 7.5336914-4.5201378.8613892-9.7750816 1.7911377-12.7226543 2.4868164-1.4052296.3321533-1.4551678.4199066.0413818.2297363 15.0643559-2.1108322 16.8885632-2.6402588 24.7808819-4.0949707 16.1148987-2.8901215 28.5317307-4.9531708 31.4407959-5.9255371 2.4685364 1.5470047 8.0740204 3.9775543 11.977478 4.7900391-6.1750565.7212219-47.5561714 9.6364441-54.5936279 11.4597168-.7081909-1.2281342-14.4421825-6.2174301-14.5636578-5.9462891-.0644531.1437988 1.4232159.9741211 3.3118877 1.8867188 2.3797569 1.1565552 8.4140701 3.7702179 10.2851563 4.3286133-.4815979.1547928-.2065125.1439438.2925415.0803223.5265503.1274414.6134644.0358887.6744995-.0964355 5.3219299-.8194504 55.0876389-10.4342804 55.7042847-11.5361328.5378418.0356445.5964355-.0844727.631897-.223877.1282883-.5020676-.9610672-.7141266-5.2207031-2.1450195-2.9854279-.9982147-6.9563599-2.4685364-8.0213623-2.8112793.0739135-.0583497.0768432-.1054688.0681152-.150879z"/><path d="m13.6894693 18.1450729c-2.5912046.1940308-3.5697737.2552567-4.2244263.3417969-.0756645-.25634-.1047373-.2524376-.100647.0151367-.3413982.0513859-.3162746.0796604.0025024.1010742.1118164 2.6555176 2.8930054 22.3937988 4.34552 31.9216309 2.8422861 18.6435547 3.1578379 18.9943848 3.4738779 18.9460449.315918-.0480957.5125732-.4770508-2.3297129-19.1206055-1.4480591-9.4987793-4.6592407-29.0751953-5.3570557-31.7392578 5.4441299.24403 28.3429947-.9265079 40.6958008-1.9365234 2.0077896-.16366 22.1675568-1.8550901 24.0197754-2.638917.0130539.950345.7697906 5.9606638 1.4525146 10.729249 4.0963287 28.9894867 4.42379 32.0304832 4.8798218 33.8532715-4.8799286-.826252-71.8789444 11.5595245-61.9381714 10.3562012.7722168-.0939941 1.887207-.2456055 3.2624512-.4472656 2.7503662-.4033203 6.543457-.9987793 10.7279034-1.6787109 46.0598145-7.5514069 47.186615-7.4610748 48.0355835-7.9165039.118103.3632813.2043457.392334.2907104.3820801 1.4578018-.1726952-5.2588425-41.5836754-6.6245728-45.3220215 1.8433392-1.1368371-11.2953746.8794593-60.6118753 4.1533202z"/><path d="m71.8309479 114.9883347c-2.3507004-1.7607727-6.2109146-3.0947876-9.0163574-3.5541992-3.6753311-.6026993-7.3344269.2217712-9.7766113 3.0161133-6.5757217-2.5785522-17.6700745 5.4603958-24.7996807.4750977-1.3112793-.9018555-2.5615234-2.3574219-2.5585938-4.0600586.1004429-2.8699417 3.7670689-4.2124786 5.4000244-7.0197754.921133-1.6178284.9559116-3.3170776-.3483887-4.5795898-1.6832962-1.6100235-4.4509392-1.7179031-6.7686768-1.4987793-3.0694237.2891769-6.0960732 1.1200943-8.8135996.4250488-1.9801245-.4861069-4.0927658-1.7447968-4.0274658-3.7338867.0501471-1.7402573 1.709878-3.4559479 3.0145264-4.595459 1.8481445-1.5859375 3.8408213-2.607666 5.5734873-3.2521973 3.4973145-1.2880859 5.8837891-1.2224121 5.8620605-1.3554688-.0029755-.0813065-1.3681087-.0072098-1.6368408.0158691-3.6453819.3251877-7.2983093 1.7173996-10.2149668 4.0964355-1.5345716 1.2810364-3.274313 3.054718-3.3759766 5.0605469-.137167 2.4111328 2.2145691 3.9935608 4.5865479 4.630127 4.3282785 1.179451 9.5006533-1.2412338 13.3586435.0354004 1.2131615.3903656 2.3713188 1.1992416 2.3492432 2.4885254-.0089016 2.357666-2.9543762 4.0822449-4.5323486 5.8139648-1.1986237 1.2950821-1.5061092 2.3567581-1.583252 3.4418945-.0345249 2.9552917 3.2139206 6.327095 7.8636456 6.7734375 7.3679085.7322998 14.3894234-3.8425293 20.2821045-2.7067871-2.1511078 2.8241196-2.0931969 6.2260361-.5148926 8.213623 2.3128319 3.0565872 9.4454765 4.3167572 9.5389404 3.6923828.0652351-.4313507-2.4666367-.5874252-5.5374756-2.0424805-1.1149788-.5290298-2.4122162-1.2963181-3.1468506-2.2878418-1.4404526-1.8906326-1.1858444-5.1977234 1.2059326-7.6113281 4.0646248-.1887817 5.4838028.9097443 5.7724609.1875.0592041-.1484375.1043701-.2861328-.1768799-.5043945-.7463493-.5249863-2.4884949-.9703827-4.4475708-.6320801 1.8510628-1.2661591 4.3278198-1.9023209 7.803833-1.2636719-2.9549866 1.9601974-5.0373116 5.7966461-4.9758911 8.9919434.0515137.5996094.1945801.6264648.3540039.6367188 1.0162086.0654068.0017433-4.0913315 5.2455444-9.5078125 1.5253906.3322754 3.1156006.8513184 4.6698608 1.4963379 3.547142 1.4809952 5.7170639 4.0519104 6.5689697 6.4753418.7147751 2.0418396.2449112 3.7698517-1.6081543 4.9680176-2.0431366 1.2720566-4.8784409 1.1976624-7.2921143 1.2348633-2.7362061-.0007324-4.4230957-.2307129-4.4356689-.1411133-.0305939.2048492 5.7224503.9910965 9.2995605.4780273 4.4168701-.6975555 5.9246521-3.6319962 4.8841553-6.8208008-.6881025-2.0998687-2.307945-4.1889572-4.0452878-5.4794921z"/><path d="m43.1175079 24.2310104c-.2823486-.0620117-.8408813-.0947266-1.5841675.1452637-1.0545654.331543-2.5219727 1.3959961-2.8979492 3.2421875-.3768311 1.8483887.7644043 3.9150391 2.5067139 4.7490234.8603516.4436035 1.8843994.5305176 2.7403564.3217773.8602295-.2062988 1.5703125-.6403809 2.0820313-1.119873.9423828-.8757324 1.4219971-2.0058594 1.4609375-3.0263672.0338135-1.029541-.3122559-1.8632813-.7092285-2.467041-1.100235-1.6388988-2.8721619-2.1284961-3.5986939-1.8449707zm2.0603638 6.4892578c-.762207.7407227-2.2200928 1.3354492-3.5784912.6838379-1.3592529-.5822754-2.3709717-2.2050781-2.15625-3.6538086.1894531-1.4790039 1.3538818-2.5446777 2.2574463-2.9555664.5271606-.251709.972168-.3383789 1.263916-.3859863-.0004272.0085449-.0018311.0168457-.0018311.0256348-.0002441.079834.0146484.1567383.1606445.2341309.1437988.078125.4240723.1450195.904541.3652344.4581299.232666 1.1937256.6289063 1.7855225 1.6098633.2874756.4824219.5170898 1.1149902.4794922 1.8435059-.0401611.7209471-.3916015 1.5588377-1.1149902 2.2331541z"/><path d="m43.4980621 34.8667526c-1.2791748.354248-2.4829102 1.1228027-3.331543 2.0407715-.8686523.9064941-1.3695068 1.9455566-1.5949707 2.7141113-.2215576.7773438-.2015381 1.2785645-.1347656 1.2880859.0899658.0163574.2224121-.4489746.5546875-1.1247559.3360596-.6704102.8989258-1.5522461 1.7469482-2.2919922.8302002-.7526855 1.9278564-1.3464355 3.0264893-1.59375 1.0969238-.2644043 2.1671143-.1530762 2.9608154.0461426 1.4620361.3781738 2.413208 1.0874023 3.0556641 1.6494141.6452637.5766602.9871826 1.0612793 1.2294922 1.3793945.4658203.652832.5854492.6594238.7435303.5930176.1356201-.0551758.3005371-.1477051-.0316162-.9968262-.1776123-.4150391-.4984131-1.0290527-1.2023926-1.7446289-.7016602-.6975098-1.7895508-1.5559082-3.5117188-2.0026855-.9313964-.2373046-2.2303466-.3315429-3.5106201.0437012z"/><path d="m40.9394684 20.7898483c-.2487793.0397949-.6077881.1293945-1.0645752.2714844-.9093018.2851563-2.2086182.8208008-3.6124268 1.8234863-1.3898926 1.0012207-2.8995361 2.480957-3.9676514 4.5275879-2.4497356 4.6034927-1.4937305 10.6749573 2.175293 14.6882324.9512939 1.0456543 2.1730957 1.9228516 3.4768066 2.4621582 1.282959.5664063 2.6246338.9838867 3.9925537 1.2075195 2.7683105.4770508 5.5136719-.092041 7.8027344-1.0563965 2.2996826-.9929199 4.2093506-2.4697266 5.3531494-4.255127 1.0234375-1.6279297 1.4041748-3.4177246 1.4942627-5.041748.0869141-1.6367188-.1019287-3.1481934-.3797607-4.5283203-.571167-2.7663574-1.6824951-5.0385742-3.0483398-6.6650391-2.7437897-3.3432217-7.4992943-4.9634857-11.208374-3.5026855-.4678955.2299805-.4720459.3120117-.4442139.3867188.1207314.3226509 1.2916641-.3491516 3.7612305-.0966797 2.577179.2737942 5.2318649 1.5909252 7.0656738 3.8876953 1.2253418 1.5029297 2.2375488 3.6044922 2.7631836 6.2172852.2558594 1.3068848.425415 2.7341309.3409424 4.2363281-.0858154 1.4938965-.4393311 3.0842285-1.3223877 4.4870605-.9615479 1.5158691-2.7105713 2.9133301-4.8250732 3.8334961-2.1208496.9084473-4.6606445 1.4562988-7.1861572 1.0439453-1.2692871-.1923828-2.5394287-.5698242-3.7528076-1.0869141-1.2213135-.4899902-2.2806396-1.2333984-3.1838379-2.1862793-1.7971191-1.9042969-2.9475098-4.3955078-3.3131084-6.8632813-.3758545-2.4768066.0480957-4.9296875 1.0159893-6.8764648.9564209-1.9645996 2.3552246-3.4355469 3.6595459-4.458252 2.6671143-2.0471191 4.8492432-2.3657227 4.7896729-2.498291-.0046389-.0195311-.1356203-.0043944-.3823244.0424806z"/><path d="m26.482317 56.1841354c.0512695.1459961.8101807.043457 1.6994629-.2805176.3450317-.1208496.6993408-.282959 1.0427856-.454834.1118164 2.4228516.27771 2.4924316.619812 2.5019531.2853394.0097656.628479-.0380859.5401001-2.4177246 1.9152203 1.0332031 2.0980206.8513184 2.2457867.5839844.1506348-.2727051.2139893-.5258789-1.7972393-1.651123 1.8236675-1.3691406 1.6922588-1.621582 1.5168438-1.8618164-.1888428-.2580566-.3966656-.3759766-2.2269268.9555664-.0657349-.3208008-.1381226-.6408691-.2231445-.9389648-.2524414-.9030762-.565918-1.6003418-.7196045-1.5644531-.1574707.036377-.1290283.7880859-.0882568 1.6960449.0137939.2800293.0281982.5727539.0425415.8649902-3.2450581-1.4686737-3.23312-.9316864-.3925171.9311523-.3057861.2138672-.6195068.4289551-.9217529.6210938-.7462159.487793-1.3935548.8601074-1.3378907 1.0146484z"/><path d="m44.9143219 54.3523483c.1506348-.2727051.2139893-.5258789-1.7972412-1.651123 1.8236694-1.3691406 1.6922607-1.621582 1.5168457-1.8615723-.1888428-.2583008-.3966675-.3762207-2.2269287.9553223-.0657349-.3208008-.1381226-.640625-.2231445-.9389648-.2524414-.9030762-.565918-1.6003418-.7196045-1.5644531-.1574707.036377-.1290283.7880859-.0882568 1.6960449.0137329.2800293.0281372.5725098.0424805.8649902-1.1559448-.5231934-2.3738403-.984375-2.4764404-.798584-.1054077.190918.9954834 1.0158691 2.0840454 1.7297363-.3058472.2141113-.6195679.4291992-.921814.6210938-.7462158.487793-1.3935547.8601074-1.3378906 1.0146484.0512695.1459961.8101807.043457 1.6994629-.2805176.3450317-.1208496.6992798-.282959 1.0427246-.454834.1118164 2.4228516.277771 2.4924316.619873 2.5019531.2853394.0097656.628479-.0380859.5401001-2.4177246 1.9152831 1.0332032 2.0980224.8513184 2.2457885.5839844z"/><path d="m57.2522125 49.0269089c-.1888428-.2583008-.3966675-.3764648-2.2269287.9555664-.0657349-.3208008-.1381226-.6408691-.2231445-.9389648-.2524414-.9030762-.565918-1.6005859-.7196045-1.5646973-.1574707.036377-.1290283.7880859-.0881348 1.6962891.0137329.2800293.0280762.5725098.0424194.8649902-1.1560059-.5234375-2.3738403-.9846191-2.4765015-.7988281-.1054077.190918.9955444 1.0158691 2.0841064 1.7297363-.3058472.2141113-.6195068.4289551-.9217529.6210938-.7463379.4880371-1.3936768.8601074-1.3380127 1.0148926.0512695.1459961.8103027.043457 1.6994629-.2805176.3450928-.1208496.6994019-.2832031 1.0428467-.454834.1116943 2.4228516.2776489 2.4924316.619751 2.501709.2853394.0100098.628479-.0383301.5402222-2.4177246 1.9151611 1.0332031 2.0979004.8513184 2.2456665.5839844.1506348-.2727051.2139282-.5258789-1.7971802-1.651123 1.8236695-1.3688966 1.6921998-1.6213381 1.5167847-1.8615724z"/><path d="m63.7522125 50.8303757c.0513916.1459961.8103027.043457 1.699585-.2807617.3450317-.1208496.6992798-.282959 1.0427246-.454834.1118164 2.4228516.277771 2.4926758.619873 2.5019531.2852173.0097656.628479-.0380859.5401001-2.4177246 1.9152832 1.0332031 2.0980225.8513184 2.2457886.5839844.1505127-.2727051.2139282-.5258789-1.7973022-1.651123 1.8236694-1.3688965 1.6923218-1.6213379 1.5169067-1.8615723-.1889648-.2583008-.3968506-.3762207-2.2269897.9555664-.0657349-.3210449-.1381226-.6408691-.2232056-.9389648-.2523193-.9033203-.5657959-1.6005859-.7194824-1.5646973-.1575928.036377-.1290283.7880859-.0882568 1.6960449.0137329.2800293.0280762.5727539.0424805.8649902-1.1559448-.5231934-2.3737793-.984375-2.4764404-.798584-.1055298.190918.9954224 1.0158691 2.0840454 1.7297363-.3058472.2138672-.6195679.4289551-.921814.6210938-.7462159.4880371-1.3935548.8601074-1.3380128 1.0148926z"/><path d="m88.0626373 23.9546432c.8283691-1.7543945.6114502-1.9016113.3223877-2.0380859-.2889404-.1364746-.5406494-.2104492-1.3688965 1.5437012-.4539795.9611816-1.1937256 3.1347656-.9046631 3.2712402.2889405.1364746 1.4973145-1.8156738 1.9511719-2.7768555z"/><path d="m87.8265533 29.1875534c.083252.1396484.772583-.1088867 1.6098633-.3798828 2.0764847-.6917591 4.0483017-1.1186428 4.4951172-1.3608398.2950439-.1491699.2905273-.2946777.2689209-.453125-.0216064-.1582031-.0517578-.3000488-.3936768-.3557129-.8496552-.1139011-2.9318008.3222294-4.7148438 1.4272461-.7906493.480957-1.3464354.9880371-1.2653808 1.1223144z"/><path d="m88.4104156 33.4207077c-.0823975.3088379 2.0119629 1.1352539 3.019043 1.4038086 1.8377686.4899902 1.9429932.25 2.0252686-.0588379.0823975-.3088379.1107178-.5695801-1.7270508-1.0595703-1.0070801-.2685547-3.2349854-.5942383-3.3172608-.2854004z"/><path d="m111.7711334 68.1650925c3.4195557 1.1835938 3.5758057.963623 3.6802979.6616211.1046143-.302002.1177979-.5717773-3.3017578-1.7553711-1.8737793-.6484375-5.9797363-1.7954102-6.0842285-1.4934082-.1046143.3020019 3.8319091 1.9387207 5.7056884 2.5871582z"/><path d="m112.9460602 65.0403366c1.2918701.4614258 1.4060059.2270508 1.5134277-.0739746.1075439-.3007813.1677246-.5544434-1.1241455-1.0158691-.7078857-.2529297-2.3140869-.5512695-2.4215088-.2504883-.1075439.3010254 1.3243408 1.0876465 2.0322266 1.340332z"/></g></g><g><g><g><path d="m52.833374 32.9267883c-.1560059.034668-.3005371.0522461-.467041-.1999512-.1762695-.2495117-.3505859-.7736797-.7443848-1.7766094-.2149658-.5500488-.5571289-1.4155273-.8869629-2.1428223-.3223877-.729248-.6152344-1.3291016-.4873047-1.4294434.1226807-.0974121.6567383.338623 1.1849365 1.0014648.5332031.6567383 1.0308838 1.5437012 1.2641602 2.1413574.4282227 1.0913086.4881592 1.699461.4648438 2.0131817-.0330811.3178713-.1723633.3581545-.3282471.3928224z" fill="#fff"/></g></g></g><g><g><g><path d="m53.4873047 35.4306946c-.3104248.0761719-.5632324.1330566-.6230469-.1101074-.0327148-.1333008.1486816-.480957.4589844-.557373.3104248-.0761719.6323242.1479492.6650391.2810059.0596923.2431639-.1906739.3100585-.5009766.3864745z" fill="#fff"/></g></g></g><g><g><g><path d="m87.8590088 69.9187317c-.1335449.2905273-.2670898.5141602-1.4769287-.0422363-.6628418-.3049316-1.9772949-1.1948242-1.84375-1.4851074s1.6645508.1286621 2.3273926.4335938c1.2098388.5563964 1.126831.8034667.9932861 1.0937499z" fill="#fff"/></g></g></g><g><g><g><path d="m90.0245361 71.4214172c-.1429443.2858887-.2664795.513916-.6308594.3317871-.199585-.0998535-.512085-.5458984-.3691406-.8317871.1428223-.2858887.6871338-.3032227.8868408-.2036133.3642579.1823731.2559815.4177247.1131592.7036133z" fill="#fff"/></g></g></g></g></g></svg>