<svg id="Layer_1" enable-background="new 0 0 135 135" height="512" viewBox="0 0 135 135" width="512" xmlns="http://www.w3.org/2000/svg"><g id="Growth"><g><g><g><path d="m34.401413 59.3511887c1.3207932.6295547 2.782917-1.1973381 2.2687378-2.5671768s-2.156723-1.9915009-3.6191254-1.9445496c-.2691269-3.8987274-.5382538-7.797451-.8073807-11.6961746 2.7467651-1.2558479 6.0753708-2.4857559 8.625248-.867115 1.9685478 1.2496147 2.6705818 3.7388611 3.2190781 6.0051079 1.6255798 6.7164764 3.2511597 13.4329529 4.8767395 20.1494293.1861343.7690659.3648148 1.61483.0101547 2.3221588-.3982353.7942505-1.3259811 1.141098-2.170063 1.4184875-2.8325043.9308395-8.110466 4.2800598-9.6769485.4024811-.7661133-1.8963928-.9249725-4.199913-1.3235664-6.1962891-.1795084-.8990784-.7221185-6.7189216-1.4028741-7.0263595z" fill="#ffcb05"/></g></g><g><path d="m26.5879364 58.6470718c2.2097168-.3200684 4.1970825-.5473633 5.527771-.7424316.4547844 2.054863 3.4257278 15.2348557 4.7420044 16.9178467-.1149902.1886673-.1907921.3248749-.213562.6186523-.0356445.1864014.0958252.6196289.2263794.7663574.4506416.6112671.9673042.6405716 1.2057495.7374268 2.8067665.5757446 14.3062134-3.2639694 15.0257568-5.4534912.2421112-.7468033-.4112663-1.3003693-1.0007324-1.0563965-.1771278-1.7406693-1.5773125-6.403511-4.211792-18.4971924-1.9845886-9.0793915-2.2333336-11.2394409-3.2348633-11.0877686-.12146.0184326-.2366943.0465088-.3319092.1563721-1.7969551-1.1570816-4.3333397-1.6098557-6.4771118-1.5407715-3.4644051.0863953-6.7502327 1.7406273-8.0229492 3.3153076-.511673.6819458-.3527393.9054527-.0787354 1.2039795-.6964607.3150978-.3054066 1.7006035 2.1913452 13.1010742-5.0479698-.4110451-12.4269505.3427086-17.3988647 1.1665039-11.0076904 1.8740235-11.1261596 2.4080811-11.0327758 3.0402833.0934448.6328125.4384155 1.1115723 11.4072266-.7559814 3.0037841-.4975586 7.7014159-1.3380127 11.6770629-1.8897706zm3.9150391-14.4718017c1.3819866-.3360176 4.6174316-2.9804955 10.6800537-2.7324219 1.1768799.0428467 2.2149048.2297363 2.9230347.3262939-.5256577 5.9995461 5.3106461 25.5258789 7.7034912 28.9318848-.0291138.0717773-.0327759.1398926-.0181885.2038574-.0358276.0073242-.1147461.0458984-.2056885.0882568-5.9130249-.7816238-13.1478539 1.8898239-14.512085 3.5318604.0082397-1.6560135-2.0334435-13.3002281-2.328064-14.9301758.3450317.0578613.8002319-.0671387 1.1019897-.4727783.3839111-.5180664.4429321-1.1112061.4331665-1.5804443-.0480576-1.7944374-1.7544289-3.0338554-2.4164429-2.4812012-.4305342-2.0322723-2.0210436-9.280899-3.3612669-10.8851318z"/><path d="m56.1884613 83.5370865c-.0234375-.12854-.0595703-.2493896-.1757813-.3477783.3672829-.5221024-1.0627861-2.0428085-1.6807861-2.3972168-.0300293-.2983398-.4345703-.5263672-6.4645996-.40979-3.1765747.0614014-9.6692505.4047852-10.7277222.7076416-.1294556-.3193359-.2373047-.4030762-2.8248291.2012939-.7264404.1630859-1.8827515.4584961-2.8418579.8068848-.9622192.3436279-1.6882324.770874-1.6292725.918335v.0001221c.0023193.0059814.0129395.008667.0175171.0135498-.0187988.0046387-.0319824.010498-.0469971.0159912-.5420589-.7208328.0905247 4.5139008.3999023 8.3134766.4265137 4.5858154.5282593 10.022583.581665 13.5158691.2206421 12.769165.8486938 13.0421143 1.4612427 13.010376.6645508-.0328369 1.0737915-.2889404.8530273-13.0609131-.1452789-9.7381516-2.1198158-19.0651474-3.1351929-21.472168 1.2297287.7064819 6.4255142 2.2595367 11.4544678 2.6381836 5.6498566.4312897 12.0215759-.71418 14.0236206-1.581665-.3581543 1.4360352-.8156128 3.9963379-1.2090454 6.9414063-.6253662 4.5540771-1.0836792 9.9855957-1.3476563 13.4197998-.4968987 6.5756912-.8348083 10.4922791-.6501465 12.008667-1.4302711-.3172531-9.9662666-.6679993-14.8352661-.1325684-2.7562866.28479-4.9285278.9301758-4.8722534 1.2392578.0551147.3203125 2.2452393.2595215 4.9263306.3967285 3.366394.1488037 15.5265083 1.242691 15.6213379-.6293945 1.9447403-.8122177 2.7007446-24.2198563 2.7879639-26.1567383.1361084-3.2954102.2703857-6.1385498.2123413-7.4825439.145569-.1667482.1307375-.319092.1019899-.4768068zm-9.9156494.1759033c-7.9892006.4852142-11.6186485-.4652252-15.4961548-.6975098 1.0123653-.13414 6.4488945-.7796402 6.4004517-1.7613525 1.7216148.3792267 14.851017.4540787 16.7883301-.0872803.106617.4418716.4399338 1.2041092.9049072 1.7965088-1.7225571-.0099029-3.5353089.3682633-8.5975342.7496338z"/><path d="m96.049057 55.4358902c.3635864-.7154045-3.6362762-4.0417442-3.956665-3.7235107-.2582855.2564812 1.5701218 2.5353355 2.7538452 3.5419922-1.8478851-.0192146-4.0679626.3146133-9.5253296.6077881-11.0555954.6163559-20.1331482-.9828987-18.1904297.0083008-.1751404.5027084.2296829 3.4371147.7611694 15.017334.9690781 22.7214279.7105713 48.0723038 2.5149536 47.9835205.6420288-.0314941 1.1001587-.5001221.5283813-23.5251465-.2648392-9.3805542-1.1372147-26.2842484-2.7285767-35.2076416-.3827515-2.2797852-.7530518-3.7939453-.9462891-4.2070313 2.4561157 1.095665 11.0462265 2.6423264 18.1695557 2.2429199 2.4894409-.1340103 7.8157806-.5735474 10.1245117-1.503418-2.1924133 10.1564941-5.3394089 58.2795486-5.0534668 61.1152344-1.2687454-.3192902-9.9289169-.7052536-14.9403076-.1541748-2.7562256.284668-4.9284668.9300537-4.8722534 1.2392578.0551758.3203125 2.2453003.2593994 4.9263306.3966064 2.6815186.1186523 5.8808594.3597412 7.94104.4125977 3.7577515.1105957 5.7211914-.0775146 6.6983032-.3237305.8708496-.2270508.9830322-.4813232.9844971-.7585449 2.4041824-1.9394073 4.7681732-60.324852 4.7449951-62.1335449.3613892-.223877.3587646-.4182129.3268433-.6212158-.0242919-.1546631-.0635985-.2996826-.2611083-.4075928z"/><path d="m105.8766937 81.8310318c-.2578964-10.2229004-1.5535965-51.1039505-3.861145-61.0545654-.2473755-1.1967773-.4193115-1.8480225-.4979248-1.8336182-.3483276.0704746.4619141 1.9561539 1.0957642 23.9517822 1.1328125 35.0670776 1.161911 76.3476486 2.9866943 76.2791748.568428-.0214691 1.1605225-.2129974.2766113-37.3427734z"/><path d="m131.5036469 18.9816666c-.0205688-.2105713-.0743408-.4041748-.5165405-.5338135-.1290283-.1569824-.2844849-.333252-.4994507-.5528564-.612915-.6260986-2.1135254-1.7885742-2.3418579-1.5649414-.1868896.1829834.5337524 1.2313232 1.1384277 1.951416-2.7966995-.0369473-12.0903854.6506138-20.4542847.5905762-3.927063-.0037842-7.1331787-.1153564-7.1715088.2115479-.0374146.3074951 3.118103.9970703 7.0803833 1.4227295 8.2616425.939558 19.0457382.2890835 22.0175171-.7615967-.7139435 4.0863819-1.561264 19.0318146-1.7926636 23.1954346-.320343 5.7162628-3.5385056 70.9398651-3.2016602 75.1688232-1.7732315-.4990005-11.0677032-.6078796-15.0081177-.1745605-2.7562866.28479-4.9285278.9301758-4.8722534 1.2393799.0551147.3203125 2.2452393.2593994 4.9262695.3966064 4.4836273.1983948 15.6920166 1.231369 15.6223145-.7227783 2.5101471-3.0938492 4.0707703-71.7966232 4.1689453-75.8414307.1783905-8.0782776.5182648-21.427866.4286499-23.3701172.4796754-.2226563.4974366-.4326173.4758302-.654419z"/><path d="m32.1192474 78.3040543c.1050415-.118042-.5273438-.8773193-1.404541-1.7169189-.8735352-.8426514-1.9983521-1.7510986-2.75354-2.2712402-2.7789307-1.8710938-3.0180664-1.6066895-3.1682129-1.3527832-.2884045.4815063.3435669.8425522 5.4085083 4.2614746.9920044.6630858 1.8105469 1.2003173 1.9177856 1.0794677z"/><path d="m19.2562714 77.6266861c-4.6135864-1.4945068-4.789856-1.2791748-4.8883667-.9752197-.0985107.3040771-.0818481.5819092 4.5316772 2.0762939 2.5280151.8189697 8.0330811 2.3299561 8.1315918 2.0258789s-5.2468872-2.3079834-7.7749023-3.1269531z"/><path d="m57.8688202 69.7148209c-.2718506-.1679688-.5246582-.2518311-2.0736084 2.2548828-.8487549 1.3736572-2.4497681 4.4575195-2.1779175 4.6254883.2719116.1680908 2.3137817-2.6434326 3.1625366-4.0170898 1.5488892-2.506714 1.3609009-2.6953126 1.0889893-2.8632813z"/><path d="m62.0607758 75.812355c-1.3683472.9400635-4.1582031 3.1710205-3.9771729 3.4344482.1809692.2634277 3.2642212-1.5404053 4.6325684-2.4804688 2.4971924-1.7155762 2.40271-1.9649658 2.2217407-2.2283936-.1809693-.2635496-.3799439-.4411619-2.8771362 1.2744142z"/><path d="m18.6586761 85.3614273c-2.9282961.3284225-3.7313948.225563-3.7421265.7561035-.0031738.159668.0113525.3045654.5049438.4144287.4916992.0950928 1.4734497.1918945 3.3720093-.0209961 2.8992176-.3202972 6.3081093-1.7471237 6.1886597-2.0621338v-.0001221c-.0954799-.2556304-2.0922507.4441682-6.3234863.9127198z"/><path d="m66.7325287 55.2007828c.0593643.3716393 3.6345139-.1065102 5.7581177-.7922363 2.263855-.7637939 2.8898926-1.1733398 3.024292-1.4420166 1.5288696.1275635 7.2719116-.0953369 10.1593018-.1568604 6.5067368-.1867828 6.1521683-.3967819 6.2260742-.6994629-.0006714-.2988281-.1303711-.6334229-6.2666016-.4572754-2.8945923.0618896-8.5917969.6669922-10.1152954 1.0559082-.0027466-.006958-.005249-.0141602-.0081177-.0209961-.1331787-.3233643-.2614136-.4309082-3.3707275.6177979-4.1878662 1.3489952-5.4385529 1.6988335-5.4071045 1.8950195l.000061.0001221h-.000061z"/><path d="m106.9626923 17.2350845c3.0725098-1.2404785 3.0397949-1.5065918 2.920166-1.8029785-.1196899-.2963867-.2808838-.5107422-3.3534546.7296143-1.6835938.6796875-5.199707 2.37854-5.0800171 2.6749268.1196289.2963867 3.8297119-.9219971 5.5133057-1.6015626z"/><path d="m110.3489227 15.4585953c.0090942.2893066 7.6849976.5490723 11.2536011.7467041 6.5166626.3122559 6.668457.1450195 6.6931152-.1959229.0222168-.2965088-.0895996-.6463623-6.6450806-.9604492-3.5949707-.1988525-11.3105469.0598145-11.3017578.409668h.0001221c-.000061 0-.000061 0-.0001221 0z"/><path d="m119.9169159 35.7951431c-.4104385-.0136452-3.2629547 65.6376953-2.1872559 65.6734619.319458.0106202 2.6294861-65.6587562 2.1872559-65.6734619z"/><path d="m83.6301727 90.3272476c.0302658-.9722366.3537369-16.280777-.0715332-16.3022461-.4320908-.0214767-1.0632172 15.557373-1.0854492 16.2716064-.2943115 9.4560547-.0413208 9.6564941.2782593 9.6606445s.5848389-.1905517.8787231-9.6300048z"/><path d="m43.4272308 105.9947281c.1540527-.0424805.288147-.1015625.2722168-.5736084.0001411-.369133-.6031685-3.7951965-.6351929-6.8601074-.0252075-1.2875977.0282593-2.3485107-.1334839-2.3775635-.3500748-.0662537-1.0908318 3.4605865-.7686157 6.258667.2084351 1.8410645.5380249 2.7423096.7441406 3.1809082.2232056.4366455.3668824.4140625.5209351.3717041z"/></g><g><g><g><path d="m42.4004974 61.0231705c-.3106079.0753174-.583313.0501709-1.5827637-4.0723877-.5476074-2.2590332-1.4710693-7.1679688-1.1604004-7.2431641.3106079-.0753174 1.7376099 4.7114258 2.2852783 6.970459.9993897 4.1225586.7684937 4.2697754.4578858 4.3450928z" fill="#fff"/></g></g></g><g><g><g><path d="m44.114975 67.5381851c-.3032227.1010742-.5568237.1595459-.9316406-.9648438-.2053223-.6160889-.4002686-2.0201416-.0970459-2.1212158s.9896851 1.1391602 1.1950684 1.755249c.3747558 1.1242677.1368407 1.2297364-.1663819 1.3308106z" fill="#fff"/></g></g></g></g></g></svg>