<svg id="Layer_1" enable-background="new 0 0 135 135" height="512" viewBox="0 0 135 135" width="512" xmlns="http://www.w3.org/2000/svg"><g id="Snare_Drum"><g><g><g><g><path d="m47.9394569 67.1572571c-.0717773-.1425781-.0975342-.2995605.4293213-.7111816.526001-.4135742 1.6009521-1.092041 3.7840576-2.175293 2.1843262-1.0756836 5.4909668-2.5473633 10.5793457-4.1870117 5.0909386-1.5893555 12.0030479-3.3718262 21.3736534-4.0717773 1.3444824-.0834961 2.8182373-.0803223 4.4147949.3366699.791626.21875 1.6320801.5512695 2.3945313 1.1633301.7633057.612793 1.3624268 1.5290527 1.6010742 2.5366211.2554932 1.0239258.0826416 2.125-.2935791 3.03125-.3892822.9084473-.9445801 1.6865234-1.5693359 2.3684082-.628418.6772461-1.3276367 1.2836914-2.0738525 1.8105469-.7370605.4816895-1.4498291 1.019043-2.2318115 1.454834-6.1444092 3.7697754-13.6119385 5.4782715-20.3081055 6.2814941-3.3749962.3894043-6.5605431.6108398-9.5159874.7011719-1.4848633.020752-2.9371338-.0756836-4.2625732-.4401855-1.321167-.3669434-2.4971924-.9921875-3.3337402-1.8828125-1.6107178-1.8034668-1.7591553-3.9523926-1.314209-5.1706543.4691162-1.2646484 1.2342529-1.5700684 1.2359619-1.5270996.088501.0776367-.5249023.512207-.7871094 1.654541-.2617188 1.0927734.0461426 2.9770508 1.5101318 4.4138184.7191162.6772461 1.7720947 1.1796875 2.9564209 1.4418945 1.1922607.2636719 2.5308838.2976074 3.9510498.217041 2.8579102-.2084961 6.0544434-.545166 9.3400841-1.029541 6.557251-.9919434 13.7097168-2.8349609 19.4106445-6.4763184.7297363-.4208984 1.3864746-.9377441 2.0714111-1.3974609.6405029-.4660645 1.2139893-.9841309 1.7132568-1.5354004.494751-.5517578.8892822-1.1479492 1.1333008-1.734375.227417-.5898438.2943115-1.1484375.1627197-1.6525879-.1380615-.5161133-.4193115-.9511719-.8300781-1.2824707-.4171143-.3325195-.9720459-.5661621-1.5592041-.7224121-1.1875-.3081055-2.4760742-.3300781-3.6569824-.2509766-9.1323242.6826172-15.8983154 2.3588867-20.9096642 3.8022461-5.0101318 1.4931641-8.3128662 2.7780762-10.5437012 3.645752-2.2293701.8747559-3.3996582 1.3215332-4.0428467 1.484375-.644409.1606444-.757202.0463865-.8289794-.0964357z"/></g></g></g><g><g><g><path d="m68.2452698 124.3285904c.8575745 1.2256165 1.7657776 2.4836197 3.0975266 3.2552643 1.3566055.7860489 3.0035553.9797287 4.5960388 1.0812149 8.0097809.510437 16.1499863-.8777847 23.4505997-3.9992371.9324341-.3986664 1.9096146-.8759613 2.3918915-1.7216263.563652-.9883499.2979202-2.1929016.0185623-3.2820053-2.8898087-11.2661057-5.7796097-22.5322037-8.6694183-33.7983093-.1097946-.4280472-.1651459-.9852905.2427979-1.2052917-3.9978333 1.0962753-7.9956665 2.192543-11.9934998 3.2888184 1.2475662-.355835 1.3765335 1.7565994.4587402 2.6227951-2.4462967 2.3087845-7.0851135 2.0150299-9.1757813-.5810623-5.4402771.5959778-10.898571 1.0621567-16.3654404 1.383049-7.8990707.4636536-7.6892815.9825668-4.0524902 7.4731674 4.8907775 8.7285995 10.2304229 17.2368163 16.000473 25.4832229z" fill="#ffcb05"/></g></g><g><g><path d="m83.3380432 58.9981232c1.7959366-.0189323 3.646225.0249939 5.3007507.6222534s3.0853653 1.8712425 3.1891479 3.3820343c.1412659 2.0565872-2.0517349 3.6318512-4.1133347 4.7287979-9.4841385 5.046402-20.8626175 7.5403442-32.0986633 7.035408-1.8760033-.0843048-3.8075829-.2649536-5.4555664-1.031868-2.3865395-1.110611-3.9624519-3.8855591-1.5007362-5.7989197 1.4772797-1.148201 3.1444092-2.028511 4.8433151-2.8123856 9.3410378-4.3099669 19.5685998-6.0171164 29.8350869-6.1253203z" fill="#ffcb05"/></g></g><g><path d="m120.5459213 56.4550552c-1.6716309-.7165527-3.0048828-.7312012-3.109375-.4677734-.2220078.5322533 2.7346649 1.5408325 3.5170898 3.4448242.2479248.5783691.2697754 1.1047363.1976318 1.4228516-.2854233 1.2495461-1.6054001.9293442-2.2329102 1.3596191-.3601074-2.1225586-.671875-3.432373-.8927002-4.2163086-.3354492-1.1523438-.4998779-1.2119141-.6573486-1.1843262-.0162354.0029297-.0319824.0078125-.0476074.0136719-1.124588-2.9179382-4.2837982-4.9440765-7.1566162-6.2194824-3.7763672-1.6530762-9.2497559-3.0026855-16.7375488-3.4523926-.3244324-2.4998627-2.4850998-4.1718254-4.8660889-4.5654297 13.2660217-27.897995 16.8774948-33.3960915 18.5686035-37.1166992.9659424-2.0488284.7645264-2.2768557.4899902-2.4404299s-.5683594-.2351074-1.9020996 1.6127932c-5.3967285 7.6992326-13.9114838 24.8591537-18.1188965 37.8486328-1.2671127-.0280418-1.9175873.2231064-3.0467529.7155762-.0442429.0701294-.1771317.644043-.1947021.7224121-1.3451691.6529961-2.302742 1.866745-2.6467285 3.251709-9.0670242.5246925-18.4377747 2.1183472-27.5810547 4.6777344-1.5639114-2.7313576-5.3554268-3.5042458-7.5026855-2.5366211-.5865211.2491226-.5084534.2147827-.786499.3369141-.0441704.0697708-.1773262.6443634-.1948242.7224121-.4407539.2139587-.5261765.2998505-.6263428.3676758-5.2617188-5.0969238-13.5253906-12.7158203-18.3876953-17.0336914-13.944458-12.3825684-14.5800781-12.2539063-15.0045166-11.7758789-.4244385.4777832-.4769287 1.1242676 13.4675293 13.5068359 4.8302002 4.2893066 13.2935791 11.5273438 18.9764404 16.1540527-1.0722923 1.2402306-1.398056 2.7160988-1.1132813 4.0153809-4.0542259 1.6121979-8.152565 3.48909-12.0856934 5.9299316-6.2276382 3.8903961-13.7055798 10.1434631-11.4609375 17.1293945.463623 1.3193359 1.2441406 2.4641113 2.1800537 3.4265137-.071167-.0200195-.1466064-.0285645-.2241211-.0368652-.2611084-.0368652-.4732666.0012207-.711792.1345215-.6650391-1.4719238-1.0482178-2.2753906-1.1137695-2.2495117-.0605469.0239258.2084961.901123.7746582 2.4716797-.6296024.4390335-1.4064598.6915817-2.0531006.2722168-.7658691-.4600143-1.3800335-1.7047043-.9223633-3.1103516.4260254-1.3649902 1.5394287-2.2773438 1.3615723-2.5500488-.0756836-.1328125-.4689941-.1074219-1.0227051.1657715-.5491943.2685547-1.2658691.7993164-1.8078613 1.6623535-2.394208 3.8455734 1.9554977 8.2289429 5.1732178 5.5219727 8.1132069 21.374733 15.0060692 28.5834198 22.9815674 37.7539063 1.0325928 1.1672363 2.0842285 2.3671875 3.230957 3.5209961 5.1863213 5.2222519 9.9370918 6.1154251 18.3620605 6.35009 14.7576447.2779694 26.7911301-1.1268311 42.4310303-9.2824631 4.0473557-2.1566925 6.89151-4.6130829 8.6756592-8.8796387 2.3295822-5.5808411 3.5069809-21.4254379 3.6595459-27.4289551.205574-7.6499939-.0993042-15.3393326-1.2426758-22.8129883 1.4280167.8157425 3.8139496-.0591393 4.2808838-2.3081055.3670121-1.7097207-.7133483-3.8954468-2.8771972-4.8444825zm-88.4665527 7.0546875c3.8727074-2.3913803 7.9493408-4.2427979 11.9538574-5.826416 2.1835823 2.5311852 6.4282875 3.0553246 8.9857178.5419922 1.1056175-1.071106 1.7892151-2.5578384 1.7375488-4.1508789 8.6645355-2.4444885 17.83181-4.1027603 26.9580078-4.7194824.3789597 1.4010811 1.4280014 2.5471458 2.7208252 3.2368164 3.5626907 1.94981 7.8100281.3007584 8.8312988-3.4042969 6.5707932.2959633 16.4682083 1.5675468 21.3863525 5.888916 1.7600632 1.5547867 2.240387 3.0374832 2.5053711 3.4379883.0366211.5712891.1062012 1.3278809.2043457 2.3591309-.6762009 4.1042175-4.656868 7.7936783-8.0439453 10.1794434-14.1304473 10.1143722-39.4247054 15.7470702-57.4464111 16.1047363-8.9330406.1991196-27.5258026-.9939575-30.366333-9.1828613-1.7515793-5.723465 5.4626522-11.2993088 10.5733643-14.465088zm80.4605713 7.7597657c.2527771 2.004837-.5799942 3.2769775-1.4492188 3.6767578-1.0987549.5864258-3.0742874.1639404-3.9846191-1.2470703 2.3850708-1.5567627 3.8814468-2.7600098 5.107666-3.8747559.0989914.5142746.2153244.7266541.3261719 1.4450684zm-32.0976563 13.529541c-.0080566.0661621-.0125732.126709-.0238037.197998-.6209412 3.7180099-4.2935638 4.5797653-6.9488525 2.1245117-.25354-.2373047-.4389648-.4394531-.5859375-.5651855.6453857-.130127 1.291748-.2595215 1.9300537-.3972168 1.9110107-.4174805 3.7878418-.873291 5.62854-1.3601074zm-41.5334472 3.7724609c-.2464752.3955078-.2977333.5860291-.6047363.9916992-.9339142 1.2201004-2.1389694 1.4948807-2.9719238 1.1972656-.9796066-.322876-1.9396935-1.5272141-1.9912109-3.1328125 1.8361815.4123536 3.6977538.7160645 5.567871.9438477zm26.7524414 41.4052658c-7.4064674-.1179504-12.155941-.7000122-17.149292-5.5859299-1.1085205-1.0822754-2.1560059-2.2392578-3.2124023-3.3959961-8.8090363-9.8085251-13.544363-14.0029831-23.8475342-37.0170898.3332176-.4169998.6465244-1.0530014.4633789-1.552002 2.7670898 2.6240387 6.9514618 4.1202164 10.6228027 5.0161133-.4310341.783699-.4403458 1.8273392-.1778564 2.6748047.2808838.9890137 1.0006104 2.0166016 2.0716553 2.5773926 1.8628349 1.0239182 4.5498161.2489853 5.7253418-2.0751953.2740631-.5612411.4503098-1.2744446.2988281-1.8803711 2.8327637.2736816 5.6810303.3986816 8.5219727.3908691.0860596 1.3671875.9417725 5.612793 2.5551758 10.5095215 4.877182 14.8352966 14.0361786 27.8437424 17.4763184 30.3522873-1.1127931.0002442-2.228882-.0056152-3.3483888-.0144043zm52.5921631-43.6325607c-.2115402 5.5404282-1.5088272 21.5352097-3.652832 26.6174316-1.5780182 3.7284012-4.0196381 5.7963486-7.6412354 7.7255859-1.1921387.611084-2.4562988 1.234375-3.7735596 1.8522949-.2203293-11.2957153-9.1846848-41.9910507-10.3918457-41.6086426-.1000137.031456 8.6913986 41.1891632 9.0429688 42.2304688-10.19944 4.5946426-20.4369965 6.7545395-31.8533936 6.8278732.7346649-1.4216309-8.7462006-10.7829361-16.9127197-30.9118576-1.8713379-4.6020508-3.1466064-8.6289063-3.7408447-9.9543457.8649902-.0056152 1.7294922-.0180664 2.592041-.0466309 7.0574951-.2155762 14.0087891-1.1320801 20.6081543-2.4472656-.03125.2016602.0048828.5422363.1907959.9938965.7559814 1.8058319 3.1513901 3.2242432 5.5487061 2.8059082 2.2693405-.3524094 4.2537308-2.5123596 4.2784424-5.3144531-.0013428-.331543-.0406494-.6101074-.0921631-.8657227 9.4055176-2.6513672 17.6955566-6.1599121 23.9150391-10.0769043.0013428.0075684.0002441.0126953.001709.0202637.3435135 1.9328461 3.0774994 3.5763168 5.4903564 2.7421875 1.34729-.4533691 2.1567383-1.5219727 2.5322266-2.3796387 1.0820389-2.5619049.0295334-5.1015701-1.1417236-5.7275391 1.8428497-1.8588715 3.6087036-4.1396637 4.2312012-6.6679688.7741545 8.1814882 1.1308592 14.9048616.7686766 24.1850588z"/><path d="m55.1888657 39.0207291c.4608154-.4428711-3.5917969-5.4057617-5.6541748-7.5507813-3.763916-3.9150391-4.2161865-3.6376953-4.6768799-3.1945801-.4608154.4428711-.7557373.8840332 3.0081787 4.7988281 2.0625 2.1452637 6.8620605 6.3896485 7.322876 5.9465333z"/><path d="m64.2754135 36.9018326c.6342773-.0788574.1437988-8.2404785-.3243408-12.013916-.8543701-6.8862305-1.3865967-6.9663086-2.020874-6.8876953-.6343994.0786133-1.1307373.2866211-.2763672 7.1728516.4682617 3.7734374 1.9871826 11.807373 2.621582 11.7287597z"/><path d="m79.9641342 28.3290787c2.3620605-5.9501953 1.9299316-6.2658691 1.3356934-6.501709-.5941162-.2358398-1.1251221-.3027344-3.4871826 5.6477051-1.2941895 3.260498-3.59021 10.4489746-2.9960938 10.6848145s3.8533936-6.5703126 5.147583-9.8308106z"/></g></g></g></g></svg>