<svg id="Layer_1" enable-background="new 0 0 135 135" height="512" viewBox="0 0 135 135" width="512" xmlns="http://www.w3.org/2000/svg"><g id="Revenue"><g><g><g><g><path d="m98.8599777 128.8238678c3.3105011 1.1419983 7.2601318.6848755 9.938858-1.5315018 2.6787262-2.2163849 3.7608719-6.2407837 2.1673126-9.2958145-.7575684-1.4523392-2.0586395-2.6268997-3.6007004-3.2505875-3.475441-1.4056549-10.3274002-1.1758575-12.678093 2.1842422-3.1705473 4.5320054-.9325713 10.1324616 4.1726228 11.8936616z" fill="#ffcb05"/></g></g><g><g><path d="m28.4438648 126.2787094c3.3104992 1.1419907 7.2601299.6848679 9.9388561-1.5315094s3.7608757-6.2407761 2.1673126-9.2958145c-.7575645-1.4523392-2.0586395-2.6268921-3.6006966-3.2505798-3.4754448-1.4056549-10.3274021-1.1758652-12.6780968 2.1842346-3.1705493 4.5320129-.9325732 10.1324692 4.1726247 11.8936691z" fill="#ffcb05"/></g></g><g><g><g><path d="m30.617487 37.6797485c.5944405-.7346535 1.6590939-1.9716721 1.8022175-2.9359207.1262398-.8504753-.8025036-1.9373856-1.7685966-1.915226-.6872902.0157661-1.8530388 1.2074318-1.8745975 1.860817-.0158769.4811516 2.0442236 2.7391434 1.8409766 2.9903297z" fill="#ffcb05"/></g></g><g><g><path d="m89.5332489 16.9414024c.5944366-.7346554 1.6590881-1.9716721 1.8022156-2.9359217.126236-.8504772-.8025055-1.9373865-1.7686005-1.915225-.6872864.0157661-1.853035 1.2074299-1.8745956 1.860815-.0158768.4811517 2.0442276 2.7391435 1.8409805 2.9903317z" fill="#ffcb05"/></g></g><g><g><path d="m104.4271469 55.6844063c.5944443-.7346573 1.6590958-1.9716721 1.8022232-2.9359207.126236-.8504791-.8025055-1.9373894-1.7686005-1.915226-.6872864.0157661-1.853035 1.207428-1.8745956 1.8608131-.0158768.4811516 2.04422 2.7391434 1.8409729 2.9903336z" fill="#ffcb05"/></g></g><g><g><path d="m81.7768784 58.469223c-3.2218781-6.3556862-10.4945374-14.0438423-18.1212006-14.6933899-7.4631348-.6356163-15.3830719 3.6633949-19.2296028 9.8166847-2.8005524 4.4800377-3.7609062 9.9209442-4.1665878 15.0914116-.6203613 7.9065933 1.7856216 16.3573303 7.8297539 21.6494064 2.4524345 2.1472778 5.3958244 3.7008972 8.4449348 4.9162064 3.243515 1.2927933 6.742115 2.2333908 10.223774 1.8560791 5.5443802-.6008453 10.2328796-4.490387 13.2685471-9.0631409 5.7530059-8.6660079 6.442604-20.3170318 1.7503814-29.5732574z" fill="#ffcb05"/></g></g></g><g><path d="m60.6339684 85.7868347c-3.4796524-.4054871-6.2088928-2.6612549-7.3830566-5.3291016-1.0372429-2.5413742-.4565392-3.7015305-1.0930176-3.8330078-.15625-.0327148-.3105469-.0351563-.5378418.5170898-1.3380508 3.8294678 2.317028 10.054512 9.0273438 10.8251953.0770264 6.5068359.4597168 6.7133789.9047852 6.7211914.4448242.0083008.8342285-.1835938 1.144165-6.6640625 5.6340675-.313797 11.1545143-4.4042816 11.060421-9.9726563-.0151367-2.4575195-1.2214355-5.1625977-3.4250488-7.0898438-2.1635056-1.9101486-4.4094467-2.5179443-7.2036095-2.8696289.0213623-5.2431679-.0080566-11.2211952-.0998535-16.0551796 2.3852272.0541267 4.3045464.8730469 5.4846153 1.9394531.7336426.6640625 1.0114746 1.1723633 1.1030273 1.1220703.050293-.0175781-.0849609-.6132813-.7678223-1.4467773-1.0292435-1.2515411-3.0533447-2.4202347-5.8410606-2.6508789-.2297935-10.584549-.6938057-11.290062-1.3427734-.0258789-8.5421448.3730888-12.5559883 10.7131424-8.6049805 15.7412148 1.8349113 2.353775 4.906105 2.8757629 7.8128662 3.25-.0579834 1.9916992-.1031494 3.8325195-.1312256 5.3989258-.0788575 4.4057618-.1112061 7.7963868-.1069336 10.4218751zm2.4819335-15.5151367c2.2480354.3475723 3.9956703.8367462 5.7067833 2.3828125 4.0758133 3.6476517 3.4824524 9.5075226-2.3984375 12.1674805-1.2376709.5664063-2.47192.8764648-3.6347618.9887695.1416359-3.7833557.2869301-9.9827118.326416-15.5390625zm-8.5605468-4.7583008c-3.1460419-3.7411842-.2818108-12.5351028 7.0454102-13.4077187-.2597656 4.7480469-.498291 10.5849609-.6635742 15.741703-2.2474214-.2466201-4.9367066-.5856017-6.381836-2.3339843z"/><path d="m28.3409977 34.8771629c1.1039467 1.5020447 1.4402828 2.5306091 1.9505615 3.9853516-.0683594.7875977.0311279 1.2578125.1170654 1.5014648.1293945.3144531.2741699.3081055.4331055.2924805.54776-.0554466.3671551-.5839539.6782227-2.2827148.4429131-2.4507103 1.3365803-3.5754547 1.1210957-3.7563477-.1159668-.1010742-.6975117.347168-1.2128925 1.09375-.2454834.3442383-.4589844.7519531-.6335449 1.1577148-.3332729-.7898216-1.0213966-1.7477379-1.9123535-2.4091797.7907734-.7409325 1.4030552-1.8456879 1.6184082-3.163084.4647007 1.2589588 1.3861465 2.7572384 2.411623 3.4438457.3586426.2143555.4677734.1186523.5791016.0043945.1115723-.1147461.1987305-.2324219.0109863-.5712891-.2278328-.472023-1.7782059-2.2723026-2.6801777-4.8652325-.3596191-.984375-.5407715-1.8422852-.7062988-1.8330078-.0622559.0024414-.1162109.1606445-.1479492.4160156-.1442871-.2270508-.2724609-.3481445-.3249512-.3178711-.1533203.0717773.109375.9160156.0595703 1.9458008-.0271912 1.404047-.5813351 3.0356388-1.7904053 4.447752-.1356907 0-.1148586-.004673-.0904541.105957-.1018066.1186523-.1845703.2167969-.2382813.3037109-.2304688.2973633-.1696777.4326172-.0810547.5654297.2035655.3039477.5232563.129616.838623-.0649412z"/><path d="m86.9054489 15.2287273c.0693359-.0356445.1590576-.0864258.2572021-.1474609 1.1610031 1.5816936 1.5025635 2.7073727 1.9503174 3.9858398-.0683594.7871094.0311279 1.2578125.1171875 1.5014648.1293945.3144531.2741699.3076172.4331055.2919922.5464478-.0537224.3674393-.5857906.6782227-2.2822266.1066895-.5908203.3305664-1.5136719.630127-2.2768555.2858887-.765625.6171875-1.3740234.4909668-1.4794922-.1162109-.1010742-.6975098.3466797-1.2128906 1.09375-.2456055.3442383-.4592285.7519531-.633667 1.1577148-.3304672-.784729-1.0169296-1.7443333-1.9124756-2.4091797.8063507-.7555304 1.4062653-1.8638201 1.6186523-3.1630859.1914063.5185547.4106445.9941406.6203613 1.3442383.8044434 1.3525391 1.4528809 1.8725586 1.7910156 2.0991211.3588867.2143555.4680176.1186523.5793457.0043945.1115723-.1142578.1984863-.2324219.0109863-.5712891-.1699219-.3520508-.6564941-.8955078-1.3808594-2.1137695-.3974609-.6660156-.9543457-1.7592773-1.2993164-2.7514648-.3598633-.9838867-.5407715-1.8422856-.7062988-1.83252-.0623779.0024414-.1162109.1601563-.1479492.4155278-.1442871-.2270513-.2724609-.348145-.3249512-.3178716-.1533203.0717773.1091309.9165044.0595703 1.9462895-.0200195 1.0336914-.3903809 2.1865234-.7304688 2.8564453-.4060059.8056641-.7873535 1.2729492-1.0600586 1.5913086-.1354904 0-.1148376-.0051594-.090332.105957-.1019287.1181641-.1846924.2167969-.2385254.3037109-.2304688.296875-.1694336.4321289-.0808105.5649414s.1750489.249512.581543.0825198z"/><path d="m101.8937302 53.6886864c.0693359-.0356445.1589355-.0859375.256958-.1469727 1.1642075 1.5860596 1.5027466 2.708683 1.9505615 3.9853516-.0684814.7875977.0310059 1.2578125.1169434 1.5014648.1296387.3144531.2744141.3081055.4333496.2919922.79953-.0786018.1615982-1.6381378 1.3081055-4.559082.2858887-.765625.6174316-1.3740234.4912109-1.4794922-.1162109-.1010742-.6977539.347168-1.2131348 1.09375-.2454834.3442383-.4588623.7519531-.6333008 1.1577148-.3320923-.7872658-1.0206375-1.7477531-1.9124756-2.4091797.7914429-.7412949 1.402916-1.8456879 1.6185303-3.1630859.4644089 1.2589607 1.3859863 2.7572937 2.411377 3.4438477.3588867.2143555.4677734.1186523.5793457.0039063.5739899-.5890923-1.4094772-1.814003-2.6694336-5.4360352-.389801-1.0670052-.7112961-2.5728302-.854126-1.4169922-.144165-.2275391-.272583-.3481445-.3250732-.3183594-.3091888.1457329 1.0388641 3.1547432-1.730835 6.3945313-.1376114-.0016632-.1139603-.0011063-.0904541.1054688-.1018066.1181641-.1845703.2167969-.2382813.3037109-.2304688.2973633-.1696777.4326172-.0810547.5654297.0886231.1323241.1750489.2490234.5817872.0820312z"/><path d="m112.3168259 116.0270691c-.9533463-1.5668793-2.2534943-2.6066895-3.2541504-3.0136719.977478-.1985321 5.5905457-1.2927399 6.5036621-1.5356445 2.4941406-.6855469 4.8393555-1.5698242 6.7414551-3.0429688 5.2478714-3.9676437 3.4572144-10.9987793-1.8847656-14.1323242-1.1965332-.6806641-2.3303223-1.0224609-3.3300781-1.2636719-2.9129791-.6573257-7.3054504-.840744-8.0900879-.5917969 1.8105545-8.4977646-1.6711502-16.9931946-6.0632324-24.4702148-8.4961472-14.2502899-14.2273407-20.7000618-20.1293945-27.2807655-7.347908-8.0597267-8.9674301-11.0585613-10.6679688-13.2187481.1822357-.3558903.1679535-.4719772.1938477-.6103516.0877686.3144531.364502.8867188.826416 1.6357422 3.8983459 6.0625286 7.5579376 4.456789 9.7675781 4.3657207 2.5064774-.2190323 4.3804169 2.0296669 5.7929688 4.1230469 1.0618668 1.576313 2.3345718 3.573597 3.9597168 4.565918.6518555.394043 1.0639648.4711914 1.2998047.4492188.2380371-.0234375.3178711-.1533203.3928223-.2944336.1674805-.3022461.1782227-.5229492-.651123-1.4174805-2.322197-2.7167473-3.0645447-5.1805801-5.3916016-7.4545898-1.5366592-1.5029259-3.4250565-2.3645496-5.5844727-2.0971661-3.0187225.3539562-4.319313 1.7662106-8.876709-2.7963867-.7746582-.7900391-1.2929688-1.3193359-1.4870605-1.3442383.006958-.1176758-.0061035-.2143555-.019165-.3110352.3326416-.1674805.8624268-.6108398 1.7799072-1.6362305 3.4620972-4.090126 5.8194733-10.1474352 6.0388184-13.203125.0991211-1.2475586-.1594238-2.8574219-1.269043-4.101563-.5791016-.6787109-1.5888672-1.284668-2.6687012-1.3325195-2.8348465-.2086773-4.4728699 2.3665166-7.2397461 1.6577148-2.2873688-.5678315-4.5855484-2.9341402-7.1430626-4.1181641-2.6099205-1.2036405-5.565979-1.1397059-8.2294922-.0800781-1.53125.6318357-2.7436523 1.5288084-3.6013184 2.4145505-1.5 1.5761719-1.8977051 2.9780278-1.9052734 3.3320317-.2882919-.1681814-.9480171-.5200415-1.0201416-.1948242-1.5628891-1.4372401-6.0196838-2.2965889-7.5418701-.1298828-.4782715.6630859-.6938477 1.5581055-.6140137 2.2783203.0005302 1.675271 1.0989799 3.1686897 2.0075684 4.4516602 2.6050453 3.6004887 5.6030846 7.7920761 9.3041992 10.7910156-.1712608.5565948.230999 1.1753559.6875 1.496582.1218262.0883789.2507324.1660156.3748779.2480469-3.0660248 6.9017696-4.8631706 10.9203358-13.6654053 20.3725567-4.7785645 5.1186523-10.3291035 10.5917969-14.6000996 16.6494179-12.4991789 17.1675797-7.1080332 31.7147598 5.5002441 37.0947266 8.5321407 3.6535187 17.4279728 1.0470581 17.1589375.046875-.287384-1.0621414-7.7917595 1.8629379-16.2985859-1.9985352-11.3450851-5.1285248-16.0012074-17.7513199-4.6135254-33.9194336 4.0390625-5.9365273 9.3945332-11.4668007 14.067873-16.776371 5.4557877-6.2178993 10.7622871-13.2559471 12.6799316-21.3173809 2.1263809 1.3358269 3.1176491 1.6549244 5.776123 2.078125 3.9751167.6179409 5.2282524.4161797 8.7758751-.3544922 1.6240616-.3511486 3.3153458-.4231968 4.8273926-1.3657227 2.5640945 3.9687061 1.1343689 8.5397396 1.270752 13.0249004.2610092 8.5010948 5.9383087 7.5806732 8.8110352 14.4599609 1.2283325 2.9134483 1.6910858 6.1727982 2.1018066 7.9433632.4255371 1.9482422.7092285 2.0092773 1.0310059 1.9755859.3137207-.0332031.6079102-.1347656.5949707-2.1626015-.0202637-1.0146484-.0876465-2.519043-.5119629-4.7475586-1.9705048-9.856884-7.1690521-9.8308372-9.1223145-13.7460938-1.9340973-3.6941338-.3743591-8.775322-1.722168-13.4672832 5.9408188 9.6954136 13.2751694 13.6200695 27.6027832 37.1801758 3.7930527 6.3272934 7.1258011 13.6293106 6.4553223 21.0410156-.6639175 7.1165314-5.0881271 14.0860519-12.4265137 15.3461914-5.2006836.8867569-10.340744-1.0967865-14.8098145-2.5581055.746582-1.019043.5634766-1.2529297.3703613-1.4287109-.6729813-.6197891-1.8458328 1.0372772-5.3103027 3.112793-16.3826485 9.6334381-28.9838638-2.9667816-29.3176231-2.6098633-.1052246.097168.4785156.9902344 1.7084961 2.1967773 5.0166893 4.8605652 13.1050911 7.4590302 20.907711 5.6337891 5.2497025-1.2469635 9.4481888-4.1154861 11.4261475-6.6269531 4.5503464 2.286644 10.1681595 4.2168121 15.2186279 3.5600586 7.141922-.9427261 12.0459747-6.9134979 13.6883545-13.8984375.4908905.3477478 2.6971207.6819 3.3731689.7949219 1.1096191.1987305 2.5856934.4091797 4.4023438.9233398.8999023.265625 1.8852539.6259766 2.8195801 1.2075195 4.0004883 2.5498276 5.6635971 7.8155136 1.5041504 10.9204102-3.1123047 2.3647461-8.2739258 3.0981445-13.8901367 4.3461914-38.2245331 7.6906281-66.9191971.2885437-67.7832031.4155273-8.9321003-1.7409897-29.6954155-6.1452713-33.9216309-14.2563477-1.7558775-3.2873077.1995254-6.6563034 3.7673345-7.6816406 3.2356644-.9270477 6.535965.3815994 6.5935059.1650391.0114746-.0361328-.239502-.1640625-.7419434-.3457031-7.7763334-2.7379355-13.2168375 2.8718057-10.6096173 8.348147 4.3255935 8.9146271 25.902956 13.9664841 35.6240234 15.8632813 5.627533 8.3580551-3.8741074 16.8696289-12.2106953 13.3569336-1.5007324-.6362305-2.8962402-1.671875-3.8371582-3.0283203-1.8338184-2.6300049-2.1283302-6.2312012-.3413086-8.8388672 2.334074-3.5117645 6.2041416-3.3089905 6.2036133-3.5283203.0085449-.0625-.3391113-.2148438-1.0083008-.2539063-.6630859-.0415039-1.6623535.0288086-2.8010254.472168-1.1259766.4462891-2.4084473 1.2446289-3.4348145 2.5410156-1.0432129 1.2773438-1.7409668 3.0859375-1.7910156 5.0048828-.2566166 8.1004105 8.9345245 13.1068726 16.4570332 9.5268555 6.0320473-2.8262711 8.3420372-9.6230469 5.0839844-14.8300781 17.2542572 3.110054 34.4817162 3.658989 51.8840294 1.4916992-2.4495697 1.8019257-3.6452866 4.6879272-3.3041992 7.668457.6704865 6.168457 6.7455521 10.0743408 13.0761719 8.953125 7.4650512-1.3160401 12.3892379-9.366417 8.3020034-16.112793zm-40.9775391-87.6162129c.0161133-.0126953.0380859-.0219727.0537109-.0351563.0113525-.0083008.0197754-.019043.0308838-.027832.0328369.0761719.0725098.1621094.1104736.2456055-.0668945-.0659179-.13208-.1274414-.1950683-.1826172zm.420166-2.8398437c-.7195816.1713295-.6398697.8456421-1.4692383 1.2338867-.9467163.4930649-2.5337753.6567936-3.6164551.8105469.2097168-.9941406.2823486-2.4018555.2124023-3.2246094-.2099609-2.472168-.7307129-2.4799805-1.3676758-2.4257813s-1.1489258.1494141-.9387207 2.6220703c.0725098.8549805.4034424 2.309082.7976074 3.253418-1.8218384.3801708-3.4477234.7631378-5.3859825.737793-2.0872231 0-3.9627457-.2315331-4.8295898-.2915039-1.2711182-.1992188-2.5130615-.7026367-3.4234619-1.0263672-.0041046-.6351089-1.1584892-1.0579453-8.9090576-12.9135742-.5061035-.7641602-.9428711-1.4013672-1.2033691-1.9443359-.2402344-.496582-.3791504-.9282227-.3740234-1.3295898-.1403732-1.0193615.5921898-1.3210363 1.6166992-1.3642578 2.4818687-.0846634 3.9957428.9491253 4.4816895.0712891.2180176.4130859.5499268.9399414.8979492 1.5180664 1.6226997 2.6295109 3.0273933 5.6704044 3.5646973 6.2158203.3535156.3852539.6369629.3193359.9404297.2192383.3034668-.0996094.5739746-.2036133.6027832-.7646484.036377-1.9522705-2.2756996-5.9402494-5.1291504-7.6855469.3418045-.2814083 1.791069-3.2771254 5.8503418-4.5893559 6.7270432-2.0767272 9.2155113 2.809216 13.3164024 4.6386724-1.9887314.9251499-2.9712067 3.2859564-2.5966797 4.2685547.2114258.5035877 1.2391815.6238594 1.6018066.3364258.4252853-.3112011 1.0986557-2.0410252 1.729248-3.2329102.1766357-.3496094.3486328-.671875.4470215-.9418945 4.192482 1.15135 6.7875519-2.9472518 8.612793-.8706055 1.1691895 1.3134766.6472168 3.4077148.1196289 5.1542969-1.8588104 6.2449262-4.9491348 10.0127008-5.5480957 11.5249021zm31.842041 104.3393574c-5.1318207 1.0107117-10.1864395-1.8867645-11.0412598-6.9462891-.270752-1.5722656-.0280762-3.1191406.5913086-4.3662109.6054688-1.2641602 1.527832-2.2099609 2.3937988-2.8525391.2741699-.1972656.5378418-.3564453.7943115-.4995117 4.3552856-.598381 7.7782288-1.223999 11.5559082-1.9951172-.0275574.3904572.474617.6305923 1.5797119 1.925293 4.601906 5.4620666 1.2772523 13.3323059-5.8737792 14.734375z"/><path d="m101.97332 118.0924988c-.7329102.0791016-1.0585938.440918-1.0200195.4829102.0432129.0898438.421875-.1015625 1.027832-.0327148.588623.0395508 1.4228516.3945313 1.9174805 1.1069336.5292969.6948242.4543457 1.6738281-.1340332 2.296875-1.1536789 1.3490677-3.1916428 1.0526505-3.4946289-.9116211-.1691971-1.0190125.2787094-1.6268158.3173828-1.9121094.0136719-.112793-.0290527-.1772461-.081543-.2373047-.5054245-.5830078-2.1577301 1.709259-.7524414 3.8266602 1.6784363 2.4806671 5.5241013.7883072 5.4587402-1.8735352-.0018005-1.6213074-1.7071075-2.9545289-3.2387695-2.7460938z"/><path d="m30.089777 116.9054871c-.2312317-.2633514-.6162701.1027832-.8242188.3828125-1.1248188 1.5745163-.2232876 4.3531342 1.9743652 4.6342773 1.7069263.2483292 3.5998135-1.2579422 3.5561543-3.0634766-.0024071-1.6232147-1.7080345-2.953804-3.2390156-2.746582-.732666.0795898-1.0583496.4414063-1.0197754.4833984.0429688.0893555.421875-.1015625 1.0275879-.0327148.5888691.0395508 1.4230976.3945313 1.9174824 1.1069336.529541.6948242.4543457 1.6733398-.1337891 2.296875-.5578613.6523438-1.4143085.8974609-1.9570332.8081055-1.1067066-.165123-1.9217873-1.4812164-1.4125977-3.0859375.0996095-.284668.2842943-.585228.11084-.7836914z"/><path d="m131.1720581 117.3361511c-.1005859-.1240234-.2165527-.2172852-.8056641.1083984-.6081543.2910156-1.6516113 1.0878906-3.9738846 2.1176758-4.7513657 2.1228867-8.541626 1.791153-8.5612793 2.1176758-.0144043.1474609 1.5358887.425293 3.4758301.2822266 3.1973801-.1867828 7.1149216-1.5733109 9.5529861-3.8647461.4855958-.5102539.4125977-.637207.3120118-.7612305z"/><path d="m123.6791306 126.021698c-1.411377 0-4.4401855.2587891-4.4401855.5786133 0 .3193359 3.0288086.5786133 4.4401855.5786133 2.5759277 0 2.6296387-.2592773 2.6296387-.5786133-.0000001-.3198242-.053711-.5786133-2.6296387-.5786133z"/><path d="m118.8285446 130.7492371c-2.4437561-.3724518-3.3988266-.9803772-3.5488281-.7553711-.0876465.1279297.371582.6201172 1.0837402 1.0463867 1.5189514.9382172 3.4591675 1.1129608 4.3010254.7949219.2883301-.1235352.2841797-.2680664.2712402-.4272461-.0436782-.5373688-.5405426-.4163819-2.1071777-.6586914z"/></g></g><g><g><g><path d="m75.5935974 83.071228c-.1402588-.0761719-.2452393-.1899414.1317139-1.1689453.1037598-.2397461.1967773-.5527344.3319092-.9301758.1435547-.3745117.2974854-.8261719.4499512-1.3754883.3262939-1.0874023.7033691-2.5571289.8598633-4.5488281.0601807-1.0898438.1219482-2.5004883-.041748-3.9931641-.1525879-1.4907227-.480835-3.0532227-.9205322-4.4438477-.4296875-1.3969727-1.0136719-2.5913086-1.4343262-3.4609375-.4539795-.8496094-.7418213-1.3852539-.6724854-1.4355469.0595703-.0439453.4730225.4042969 1.0584717 1.2036133.5510254.8173828 1.2695313 1.9970703 1.8184814 3.4160156.55896 1.4121094.989502 3.0322266 1.2093506 4.5942383.2313232 1.5629883.2020264 3.0571289.1367188 4.2089844-.1655273 2.105957-.5980225 3.6591797-.9996338 4.7890625-.1900635.5708008-.387085 1.034668-.5771484 1.4121094-.1815186.3808594-.3242188.6884766-.4803467.9169922-.5864259.9296876-.7301027.8925782-.8702394.815918z" fill="#fff"/></g></g></g><g><g><g><path d="m28.9476032 124.3627319c-.0617676.1469727-.1230469.2788086-.5108643.2138672-.3577881-.090332-1.1481934-.3457031-2.0925293-1.4907227-.5181885-.6196289-1.0621338-1.8046875-1.1274414-2.8583984-.0927734-1.0576172.225708-1.8579102.3704834-1.8227539.1654053.0288086.1590576.8100586.4344482 1.6743164.2521973.8745117.8062744 1.777832 1.2272949 2.2851563.7696533.9331055 1.3287354 1.2246094 1.5517578 1.4794922.2443849.2285156.2084962.371582.1468507.5190429z" fill="#fff"/></g></g></g><g><g><g><path d="m100.9214783 125.0189819c.0220947.1577148.0413818.3022461-.2655029.4350586-.2894287.0986328-1.0028076.2524414-2.1229248-.2939453-.6097412-.2910156-1.4085693-1.0463867-1.7337646-1.8657227-.3520508-.8173828-.2333984-1.5332031-.0838623-1.5327148.1660156-.0126953.348999.5820313.7939453 1.1254883.4281006.5610352 1.0993652 1.0239258 1.5501709 1.2421875.8286133.4033203 1.303833.3955078 1.5482178.5078125.2499999.081543.2916258.2241211.3137206.3818359z" fill="#fff"/></g></g></g></g></g></svg>