<svg id="Layer_1" enable-background="new 0 0 135 135" height="512" viewBox="0 0 135 135" width="512" xmlns="http://www.w3.org/2000/svg"><g id="Working"><g><g><g><g><path d="m21.3944836 84.0978088c.999155-1.1167145 1.6284809-2.5056992 2.38867-3.7970047 1.3592014-2.3088226 3.1746311-4.3478699 5.3107891-5.9649429.5363293-.4059982 1.1365776-.800621 1.8091412-.8125229.4777908-.0084534.9341183.1785278 1.3822098.3445663 6.3176575 2.3409805 13.3061485.9367142 20.0292549.4975815 19.3317986-1.2626953 34.745121 3.2110291 53.4708214-1.7549438 2.375 6 8.5866318 15.0309677 13.25 19.25-9.3590012-.7028503-20.4049606-.658905-29.7649002.0313721-.7211151.0531845-1.512413.0915222-2.0935516-.3387146-.4003448-.2963791-.6267929-.7647781-.9091034-1.1751633-1.9000473-2.762001-5.9292908-2.6362152-9.2715912-2.3757706-8.4580383.6590805-16.9980736.2589188-25.3574257-1.188179-.9961586-.1724472-2.2411041-.2597275-2.791687.5881729-.3761787.5793076-.231823 1.3383408-.3397522 2.0205841-.2130852 1.3469543-1.4472466 2.3459396-2.7600327 2.7150955s-2.7067375.2364349-4.0662155.1255875c-7.2479057-.5909576-14.4626484.6320953-21.6337757.2142258-1.7772274-.1035614-5.0985117-.9564209-4.6559982-3.4856186.3570345-2.0406342 4.6375063-3.3680039 6.003147-4.8943253z" fill="#ffcb05"/></g></g><g><g><g><path d="m52.2541428 37.0781212c2.6824608-.5464554 4.5178261-3.8250771 5.3730011-7.1156139 1.205616-4.6389809 1.0066223-10.0100288-1.0809593-14.107502-2.0875854-4.0974731-6.2183609-6.5643835-9.9138412-5.2823095-3.3310356 1.1556349-5.8081741 5.1539097-6.3860245 9.4972353-.5778465 4.3433266.5699158 8.8830051 2.6461334 12.4025345 1.1441956 1.9395981 2.607502 3.648243 4.3881912 4.5024986s3.9077759.7459602 5.4562111-.6644096" fill="#fff"/></g></g><g><g><path d="m86.5874786 37.4114571c2.682457-.5464554 4.5178223-3.8250809 5.3729935-7.1156178 1.2056198-4.6389809 1.0066299-10.0100269-1.0809555-14.1075001s-6.2183609-6.5643835-9.9138412-5.2823105c-3.3310318 1.1556349-5.8081741 5.1539097-6.3860245 9.4972363-.5778427 4.3433247.5699158 8.8830051 2.6461334 12.4025326 1.1441956 1.9395981 2.6075058 3.648243 4.3881912 4.5024986s3.9077759.7459602 5.4562149-.6644096" fill="#fff"/></g></g></g></g><g><path d="m97.3650894 57.7747955c-2.8551102-.5445633-4.0708084-3.0229836-6.831543-4.2553711-.8318481-.390625-2.1271362-.6015625-3.3150635-.0678711-1.2250977.5302734-1.96521 1.6318359-2.5411987 2.578125-.574707.9521484-1.1127319 1.972168-1.7758789 2.3901367-.6469727.4228516-1.4199219.3618164-2.3270264-.4204102-1.0791855-.9162788-1.6672516-2.2025604-2.3323975-3.4458008-.4642944-.8149414-1.0077515-1.7304688-1.9116211-2.5810547-1.9173965-1.885807-4.9056549-1.8841476-7.3258667 1.0463867-.8400269.996582-1.442688 2.2084961-2.005188 3.1831055-.5841064.9951172-1.248291 1.9423828-2.0491333 2.4863281-.7833862.5527344-1.7144737.6445313-2.5914268.2407227-2.0156136-.8934937-3.1991997-3.6885414-4.199585-5.2202148-.6653442-1.0336914-1.4890137-2.0644531-2.6102295-2.7255859-2.2879219-1.3929405-5.9237633-.8317566-8.3694458 2.4677734-1.3159981 1.7766876-2.3890533 4.4993477-2.2233276 4.5830078.1995888.1017227 1.4146118-2.3231354 2.9189453-4.0102539 1.8051872-2.0426178 4.7604599-3.2372131 6.8965454-1.7900391.7893066.5195313 1.4301147 1.3618164 1.9939575 2.3339844 1.1155396 1.875 2.0249023 4.6376953 4.7670288 6.09375 1.4731445.7337418 3.1174355.6437607 4.5350914-.2719727 1.2926636-.8476563 2.0747681-2.0083008 2.7564087-3.0830078.6797485-1.125 1.1801758-2.074707 1.8760376-2.8691406 1.5614319-1.8504524 3.0019836-1.7901497 4.0682983-.7724609.5712891.5400391 1.0425415 1.2836914 1.4536743 2.0195313.8051834 1.502655 1.4602661 2.8839226 2.8610229 4.0698242 1.6700363 1.4413223 3.5959549 1.5531082 5.0697632.5566406.727417-.4907227 1.180603-1.105957 1.538147-1.6464844.355896-.5483398.6268921-1.0571289.8883667-1.5083008.5134277-.9042969 1.005249-1.5375977 1.5213013-1.7626953 2.1703491-1.1242142 5.2726364 3.3844948 8.1923828 3.4648438.2985077.0500832.9808426-.0377655 1.2388916-.1982422.4875488-.262207.4471436-.4116211.3951416-.5610352s-.1586302-.2827148-.5620726-.3242187z"/><path d="m105.9941177 16.716692c1.3788452-.4967022 2.5465927-1.4767551 3.2484741-2.911377 4.3832855.887146 7.9992676-2.2124834 8.5140991-5.8664551.1048584-.9575195-.0444336-1.4550781-.1837769-1.6962891-.1420288-.2426758-.2943115-.2456055-.4537964-.2373047-.1594849.0087891-.3112793.0395508-.4470825.253418-.1355591.2119141-.2467041.609375-.5084839 1.3046875-1.1627197 2.8098822-3.4006195 4.5315132-6.3207397 3.9936523.164444-2.6728592-1.2978516-4.8724155-2.7996826-5.5639648-2.7469177-1.2448435-4.8867035 1.8713799-2.2965698 5.1049805.8191986 1.0242252 1.8418198 1.7807217 3.1160889 2.291748-1.211586 2.9953575-4.4835358 3.1682434-4.4804688 3.4133301-.0285034.1240235 1.0089112.4672852 2.6119385-.0864257zm-.1501464-8.1259766c-.1400757-.3730469-.0838623-.7285156-.0631104-.7324219.368042-.3643498 2.0550919.7960901 2.3709106 3.1191406-1.2165298-.642724-2.0404892-1.6419963-2.3078002-2.3867187z"/><path d="m114.6192398 23.7096119c-.3684082.2824707-.734375.532959-1.0720215.713623-1.0752563.5795898-1.8641357.7480469-1.8450317.9223633.0084229.22225 1.8408356.3628502 3.831665-.8083496 3.0835648 2.2860775 7.3573837 1.4054527 9.0397339-1.8439941.3443604-.7485352.3583374-1.1918945.295166-1.4316406-.0639038-.2416992-.2067261-.2944336-.359436-.3413086-.1526489-.046875-.3046265-.0732422-.4918823.0458984-.5454025.348711-1.1914063 1.6762085-3.0343628 2.3652344-1.1400375.396286-2.3727722.3286228-3.569397-.3349609 2.8398743-3.1385021 1.7168655-5.7857685-.5385742-6.0698242-.7584229-.0957032-5.0325546 3.749916-2.2558594 6.7829589zm2.5946655-3.7028809c-.1926117.8606472-.6448898 1.5520496-.9857178 2.0334473-.8094788-.9526176-1.0469055-2.3454552-.3630981-2.8669434.4664154-.3449497 1.1459579-.2515259 1.2911987.0014648.1080323.1337891.1444703.4492188.0576172.8320313z"/><path d="m90.3908463 115.1737213c.4613037-4.6352539.9355469-14.6342773.2994995-14.6977539-.6361084-.0629883-2.1416626 9.8330078-2.6029663 14.4682617-.8417969 8.4594727-.34375 8.6875.2923584 8.7509766.6360473.0634766 1.1693115-.0625 2.0111084-8.5214844z"/><path d="m46.340435 124.9618073c-.5492973.0559464-11.023735 2.2200546-12.4517212 2.0942383-.080101-.0011292-.1444435-.0683975-.1268921-.1811523-.008606-.0024414.0331421-.0942383.0863037-.1865234.462101-.8593903 1.7509766-2.1224518 3.4678345-2.8535156 1.5137939-.6303711 2.7044678-.6308594 2.7213745-.862793.0367432-.1806641-1.18573-.6196289-3.0588379-.2504883-1.6020393.3354874-3.1607971 1.1856537-4.3590088 2.5317383-1.6395226 1.8054657-.7648888 3.565506 1.0043335 3.8735352 1.8376846.3549957 9.6455956-.8693237 13.1952515-2.6000977 1.0811768-.5546875 1.0299683-.8505859.9318237-1.1523438-.0996093-.3061524-.2363891-.5581056-1.4104614-.4125977z"/><path d="m90.2135391 126.2157135c-1.1772461.2387695-2.7501831.7470703-4.1737671.9379883-1.4645996.2084961-2.7143555-.2158203-2.991272-1.4038086-.270607-1.057373.2530823-2.0703735 1.387085-2.4736328.8635254-.3154297 1.510437-.0952148 1.5783691-.2539063.0872803-.1025391-.4968262-.7148438-1.755249-.6293945-3.9451828.3219604-4.2386475 7.1359558 1.9437866 6.8876953 1.2579727-.0552673 2.4629898-.360199 4.5291748-.8085938 8.6499023-1.9868164 8.7148438-2.5332031 8.5717773-3.15625s-.4399413-1.0864257-9.0899047.8999024z"/><path d="m11.2809238 19.478899c.0147095-.0671387-.081604-.1525879-.2279053-.2543945.3004208-.1353226.4965181-.2349548.4321899-.9047852.0028687-.0009766.0083008.0053711.0109863.0039063.4198856-.1423016-.5024471-2.9300146.2971802-6.7900391.1515884-.7037354.2497272-1.1841288.5506592-1.628418.0324678-.0407057.0789404-.1163254.1226807-.140625.0353727-.007369.0560255.0102634.0584717.0307617.0527372.2516575.077549.353303.0933838.5537109.2078428 4.0883665-1.0313053 6.6849213-.3356934 7.25-.5397339.3261719-.5489502.5637207-.5018921.8486328.0491333.3032227.1199341.6245117 1.1780396.5898438 3.543314-.2279358 8.5736446-4.7686558 7.3511353-7.9482422-.4507637-1.1524582-1.7432995-1.7302809-3.0691528-1.1904297-1.0021858.4042797-1.6911221 1.1919546-2.3173218 2.0725098.0840492-1.5567236.0958862-3.4995337-1.3062134-4.260498-1.378377-.7926993-3.1268311.1534939-3.5715942 2.3930664-.228919 1.2680893-.2818375 2.7113876-.0767212 4.2224121-.4234924-.7761641-1.4618044-2.5123768-2.0614624-3.1550293-.5648451-.644372-1.4317737-1.0792379-2.2877197-.8964844-1.501132.2808046-2.5137341 2.2099867-.7335815 5.3037109 1.1457367 1.9881248 3.0402293 3.3908024 4.8021851 3.8500977.9526366.2558594 1.5643919.1948243 1.592346.050293zm6.5960694-7.769043c.4577026-.090332.4168701.0639648.4362793.1289063.1601105.4899664-.5869904 1.5360174-.6622925 1.6513672-1.0301418 1.3607683-1.9918661 2.3226852-3.9041138 3.3469238.2205811-.4155273.4645386-1.0080566.6965942-1.8479004.7207089-1.08144 2.279831-3.0044699 3.4335328-3.2792969zm-11.7556763.9575196c.0149536-.0097656.0335083 0 .0405273.0048828.008728.0078125.0090332.0214844.0090332.0214844 1.2429085 1.4770794 3.2033415 5.0990219 3.6860962 5.7800293-3.1593055-2.0671998-3.9439239-5.348857-3.7356567-5.8063965z"/><path d="m20.6139927 21.9486256c.2223511-.862793-.2191162-1.8164063-.7745361-2.2456055-1.4111614-1.1878147-3.1778812-.7163334-4.0455322-.7734375-.5308228.0019531-.8742065-.105957-.9813843.0234375-.102417.1088867.1155396.5273438.7365723.84375.8643761.4872971 2.3914452.4952736 2.9517212 1.2822266.1471558.2128906.0806274.28125.0491333.3320313-.3631306.4608955-1.5748501.6517658-2.7980957-.2817383-.9006023-.6987343-.9720049-1.2790928-1.7641602-1.1308594-.1397095.0251465-.2919312.0529785-.4073486.1630859-.1277466-.7851563-.3605957-.8737793-.6183472-.9038086-.3170776-.0371094-.6090088-.0273438-.9434204 1.4536133-.1415281.5323982-.1881199 1.5216541-.242981 2.3720703.0672503 2.4501495.2027912 4.5422611 1.2809448 7.7592773 2.0322638 5.6436939 5.5971622 10.4411068 10.873291 13.4423809 1.2069702.6225586 1.9968262.8974609 2.0696411.7646484.0818481-.1464844-.5526733-.6850586-1.56073-1.5083008-4.3444061-3.8628998-6.8718395-7.0511131-9.1881714-13.4365215-1.0423107-3.1101303-1.2685089-5.294117-1.5139771-8.2043457 1.6235448 3.0314446 6.2310888 2.7913552 6.8773805.0480958z"/><path d="m130.7234344 69.4217682c-.3834229-.9448242-1.1671753-1.6347656-1.7666016-1.9575195-1.098381-.6370544-2.5163345-.8857422-3.6611404-.7324219-.817627.1298828-.8606567.4243164-.8899536.7402344-.0296631.3203125-.0092773.6054688.7183838.8876953.9251404.3796768 2.9463272.6770172 3.4699783 1.9697266.2243652.4648438.2645874 1.2626953-.0176392 1.5693359-.3961945.5090942-1.2587891.3088684-1.8040237-.0478516-.670166-.4296875-1.1397705-1.2763672-1.4626465-1.8740234-.4011536-.7480011-.8039474-1.4403076-.8832397-.574707-.5023422-.5702591-.8739243-1.0003815-1.2245483-1.3439941.2201462-.9213409-.3857651-3.6455841-.5985107-4.5695801-.3676758-1.5571289-.892395-3.6220703-1.8772583-6.2919922-.5463257-1.4589844-1.34375-3.3134766-2.4275513-5.1767578-2.048233-3.551342-5.5165482-7.5862083-9.2885742-9.0883789.0388107-6.6369972-.0499496-6.2350731.1799927-9.0717773.3718872-5.1127491.8132935-11.0429516-4.0599976-12.880125-2.4499512-.8601074-4.8399658-.6298828-7.0799561-.5300293-1.7379303.1077633-2.5122223.0700684-4.8600464.0700684-.3200073-1.9899902-.9699707-4.0200195-2.0999756-5.880127-3.2919464-5.3634472-9.6288376-7.1204081-14.0200195-2.4199219-1.7299805 1.8400879-2.6599731 3.9599609-3.1900024 5.8400879-.2199707.8098145-.3699951 1.6101074-.4599609 2.3898926-4.9700317-.0200195-9.8300133-.0297852-14.5300255-.0400391-1.4659767-9.7881842-10.3398819-14.6894169-16.1599731-8.5297852-1.7200317 1.8398438-2.6500244 3.9599609-3.1799927 5.8498535-.2400513.9001465-.4000244 1.7900391-.4900513 2.6398926-6.4276505-.0615425-6.2967682-.3322277-8.1599751-.1398926-4.2104301.5017147-5.2075977 3.5974388-5.4699707 7.3500977-.3059216 7.3346462.3101273 10.3766117.5299683 15.6098614.0300293.6101074.039978 1.2199707.0499878 1.8300781.0172596 1.0000267.1075153 15.3351898.1199951 17.7800293.0100098 1.8798828-.1599731 3.8500977.2000122 5.8300781.3583393 1.951004 1.2365704 3.7507477 2.8699951 4.8898926.0006714.0007324.0012817.0007324.0019531.0014648-.9205322.3544922-2.8268433 1.4411621-4.8746338 2.9758301-2.7749634 2.0507813-5.7823486 4.8232422-7.5928955 6.6606445-6.5578613 6.7402344-6.3043213 7.2109375-5.8601685 7.668457.0552979.0568848.1121826.1096191.1815186.1459961-.0881958.0654297-.1177979.2036133-.1273804.3686523-.0861168.0239944-.0814047.0439835-.0019531.0766602-.0014648.3171387.0762939.7438965.1583862 1.2172852.6846333 3.5988312.3785906 4.2520294 1.6084595 4.3500977.2414551.0192871.4656982.0332031.6600342-.098877.0987549.1628418 2.9000244.6247559 7.4046021 1.2131348 8.0460243.9865417 14.7730122 1.5590973 21.6654682 1.9804688-.2680664.4638672-.465271 2.6855469-.6627808 5.3491211-.2149658 2.9951172-.4527588 6.543457-.5652466 8.8007813-.2034302 4.1186523-.2706299 6.2255859-.1449585 7.315918.1158447 1.0898438.4002075 1.1601563.7185669 1.1889648.3182983.0283203.6101685.012207.9124756-1.0507813.2922974-1.0634766.6202393-3.1757813.8261108-7.34375.1138306-2.2836914.093811-5.8847656-.1101074-8.9047852-.1724854-2.6459961-.4682007-4.8425293-.7516479-5.3422852 40.4012337 2.4454575 75.1675415-2.0502396 77.3007202-3.4343262.725029-.0582886 1.1840515-.1630402 1.0632935-1.7038574-.0584717-.7468262-.5600586-2.1965332-1.1060181-2.5483398.1882324-.1848145.2647705-.4758301-.1793823-1.3759766-.9784775-2.0272751-8.9508972-14.4149475-12.9194336-18.387207.0015869-.0012207.003418-.0019531.0050049-.003418 3.2516785-2.6239014 2.7467041-9.2466965 2.4300537-13.4697266-.4012451-5.4026604-.2300415-3.4084663-.2300415-15.517334 4.8559799 4.1973495 7.1913376 8.0599823 9.546814 14.3522949 1.5513306 4.2021294 2.556282 8.3975296 3.3825073 9.909668-.1483765.1437988-.2247314.4128418-.0777588 1.0078125.5278168 2.0209732 3.8609695 4.7558899 2.3786011 6.5913086-.5084839.5898438-1.0435181.7260742-1.5748291.1240234-.2618408-.3027344-.3935547-.6911621-.4516602-1.0932617.1923981-.6863708.2232819-1.1927109.2227783-1.9111328-.0233459-2.2306366.0659943-2.4232941-.4319458-2.7480469-.1068726-.0737305-.239502-.152832-.4028931-.1381836.6075592-.5574646-.696167-.3801956-1.4902954-.1835938.0841675-.0454102.1677246-.0910645.2421265-.1391602.776062-.4995117 1.0454712-1.0117188.9464722-1.1137695-.1135864-.1303711-.5712891.1147461-1.3045044.2871094-3.2733078.7848663-5.666893-1.8459167-5.0579224-2.8505859.1732712-.280159.4824982-.1054611 1.8818359.5620117 2.9585419 1.4752655 3.833519 2.4197464 4.4634399 1.6835938.2044678-.2387695.3840332-.4892578-.2158203-1.2387695-.3032227-.3710938-.8057861-.8666992-1.647522-1.4760742-.9611816-.6918488-2.8928833-1.8601761-4.1066895-1.9677734-1.9230347-.162796-3.4220352 2.0019913-2.295105 4.1650391 1.0428009 1.9440765 3.449234 3.0332031 5.784668 2.5534668-3.372345 1.6316681-3.5613556 5.669014-.6553345 6.8991699 1.0809479.4524078 2.2236633.2168274 3.0575562-.5935059 1.4516449 3.1610565 6.0463943 1.3064041 5.6525269-2.4680176 2.8099557 1.2264709 5.0839577-1.5753327 3.8662758-4.444336zm-54.6033401-50.7421856c.4400024-1.6098633 1.25-3.4299316 2.6000366-4.9099121 3.2794647-3.7232752 8.0940628-2.146327 10.75 1.9001465 3.2331924 4.8823719 3.2082062 13.2071781.5299683 18.2998028-1.1019211 2.0954742-2.2201843 2.6899796-2.3199463 2.7900391 1.4588547-3.6478767.5639343-9.1996479-3.0400391-12.8300762-.5-.4799805-1.039978-.9499512-1.6300049-1.3598633-1.0599976-.7399902-2.2699585-1.3000488-3.5799561-1.4699707-.6200562-.0800781-1.2600098-.0500488-1.8400269.119873-.039978-.0200195-.0900269-.0200195-.1300049-.0300293-.4799805-.0598145-1.0100098.0100098-1.4500122.2399902-.1400146.0700684-.2600098.1401367-.3800049.2299805.0200195-.3999023.0599976-.7998047.1300049-1.2099609.0800172-.5800782.2000124-1.1699219.3599855-1.7700196zm-.4699707 5.5100098c.0100098-.0700684.0200195-.1298828.0499878-.1999512.0400391-.0800781.1000366-.1599121.1600342-.2399902.2999878-.380127.7699585-.7600098 1.3399658-.9799805.1000366-.0400391.210022-.0700684.3200073-.0998535.1600342.0598145.3400269.1398926.5200195.25.539978.3098145 1.0599976.8198242 1.5999756 1.3498535.7255325.7118263 1.5458298 1.7216587 1.5800171 1.7900391-.039978-.0300293-.0800171-.0500488-.1099854-.0700684 0-.0100098 0-.0100098-.0200195-.0100098-.2370148-.3079205-1.0627747-1.0925159-1.8499756-1.5500488-.6200562-.329834-1.4400024-.6999512-2.5200195-.4299316-.3699951.0900879-.7399902.3000488-1.0300293.5700684-.0199585-.1201173-.0299682-.2500001-.039978-.380127zm7.9799805 9.3500957c-.6901093-.2763786-1.0141144-.4035378-1.7099609-.7900391-1.9442825-1.0798454-3.7124405-2.8921337-4.7600098-5.1599102.6672668-.8586597 2.2033081-.0574036 3.0899658.5898438 1.0048523.6705818 2.8474121 4.288187 3.4100342 5.3701153-.0100098 0-.0200196-.0100098-.0300293-.0100098zm1.3600464 2.3400879c-.3579178 1.0708427-1.3867111.4716873-2.2700195-.2299805.0283661.0142059.3628311.1406822.539978.1899414.3303756.0558243.932579.3131409 1.7300415.0400391zm-3.5200196-11.9902325c2.0120087 1.5011978 3.4539719 3.8173962 4.1400146 6.1801758-.830017-1.8999023-2.368904-4.3533325-4.1400146-6.1801758zm-32.7700157 11.9001446c-.0100098 0-.0100098.0100098-.0199585.0100098-.2365913-.1182938-.6732941-.5522194-.9000244-1.1899414.0700073-.380127.1599731-.7402344.2799683-1.1000977.9472542.2584877 4.0121918-1.2848167 5.1400146-4.459959.1199951-.3798828.3099976-.7600098.2800293-1.5600586-.0300293-.5100098-.2700195-1.0400391-.6900024-1.3798828.5199585-.0300293 1.0499878.0600586 1.5.2597656 0 .2202148-.0100098.4501953-.0499878.670166-.7200318 3.8100586-3.1900025 7.0100079-5.5400391 8.7499981zm1.460022-10.1999493c.6085548-.7855301 1.3641167-1.455698 2.3599854-1.5.676548 0 .9118195.2614937 1.210022.5600586-1.2961808-.1746502-2.5048638.2175007-3.5700074.9399414zm.6699829 4.4499512c-.6593323 1.0905247-1.4373283 1.7893372-2.4699707 2.5400372.939373-2.4842377 2.465023-4.4664001 2.8899536-4.7900372.1100464-.1101074.1400146-.1101074.2300415-.1101074.4099731-.25-.1400146 1.6301269-.6500244 2.3601074zm5.5700073 1.9399414c-.5882111 1.604681-1.7985916 3.8332615-3.2299805 4.5500469 1.4492531-1.2893829 2.6156044-3.0117645 3.2299805-4.5500469zm.2000122-5.7199707c0-.3999023-.0599976-.8300781-.1699829-1.25.448452.1795559.6828423.2601109 1.0099487-.0400391.0700073-.0698242.1400146-.1398926.1700439-.2399902 0 1.6522522-.2191048 3.3989906-.3699951 4.0800781.0454217-.9247627-.1224784-1.7739696-.6400146-2.5500488zm-12.210022-12.8300781c4.4984207-5.0733461 13.02491-.6575441 13.2200317 11.0400391-.0500488-.2299805-.2200317-.5600586-.7000122-1-4.6601601-4.3146496-13.9519424-.0278492-13.1199951 8.3999023-3.1739234-5.6509266-3.7548293-13.700901.5999756-18.4399414zm58.5944787 83.6127911c-51.5013962 3.8557129-87.9488831-.6583939-89.59021-.1970215.6970129-.5671234.6669397-3.3021774-1.0740356-5.1809082 4.7132645.6174774 17.3842621 1.6155624 24.2695942 2.0356445 21.9652748 1.3974838 58.3416023.8311768 76.8143921-.4003906 5.1112061-.3652344 5.3074951-.6616211 5.2976685-.980957-.0006104-.0202637-.0021973-.0405273-.0057373-.0605469.2407837.2004395.4198608.3029785.5656128.3508301-.4081421.5824203-.768364 2.1865387-.4191895 3.3491211-1.8013402-.0413819-4.3677464.2028808-15.8580952 1.0842285zm4.09552-26.7126465c-.75 1.4499512-2.2600098 2.2897949-3.8800049 2.5900879-2.991806.6276245-6.5168152.079834-9.6799927.079834-29.2899857.3857651-30.6080627.6070023-.0100098 1.0100098 1.4899902.0300293 3.0700073.1899414 4.7200317.2800293 1.6499634.0900879 3.3899536.1499023 5.2099609-.1899414 1.3731689-.2443466 2.6389465-.9085922 2.7600098-1.0300293.0014648-.0007324.0026245-.0019531.0040894-.0029297.7073975 1.3878403 5.2219543 9.1739349 7.3633423 12.4443359 3.0635223 4.6981049 3.9547119 5.480484 4.8499756 6.4973145-2.8353806-1.0727463-38.9963837.588501-69.9089966.2983398 1.6609383-1.4330444 2.5166168-3.100708 2.6748657-3.9609375 1.2244263.3649902 3.7906494.8554688 6.8001099 1.2106934 10.7183952 1.3211441 22.3746147.2118607 24.1224327-.9335938.3027954.7463379.9514771 1.6882324 1.4138794 2.1503906 1.3358765 1.3359375 1.7302246.9975586 2.1821899.5454102.4520264-.4516602.7905273-.8461914-.5453491-2.1821289-.7193604-.7194824-2.5952148-1.8862305-3.0889893-1.4978027-1.4686737-.6815567-9.9631195.6174316-23.9708214.2844238-3.0479126-.0561523-5.6797485-.1716309-6.9209595-.1081543-.0795898-.2834473-.2905273-.407959-.5327759-.5241699-.6067505-.2915039-.9933472-.3964844-2.317688 1.7895508-.4054832.6414948-1.3460579 2.3256989-1.7368164 3.2050781-12.8715782-.160965-29.6658249-1.1031647-34.684082-1.0117188-.1697388-.1337891-.3256226-.229248-.4649048-.2819824 1.8047037-.4614182 8.7626209-8.3246078 13.9411621-13.2419434 1.9262695-1.8540039 3.654541-3.3027344 4.2038574-3.963623.0018311.0009766.0036621.0024414.0054932.003418 2.8343906 1.7939682 6.3279552.7800293 9.4799824.7800293 14.1635132-.1508179 32.010006-.1588745 32.010006-1.0500488 0-.9535141-19.6874466-.9023666-32.0299644-.9899902-4.1303329-.0279312-9.5230503 1.7595367-10.580019-4.2800293-.289978-1.6101074-.1400146-3.4299316-.1300049-5.4499512-.0210438-8.2208023.0006256-17.2027283-.0900269-19.6999512-.2075462-5.1073341-.8224716-8.5397263-.5099487-15.4101543.148716-2.7422981.6547699-4.8715496 3.4299927-5.1599121 1.4773731-.1727085 1.3929996.0880508 7.7899799.1499023.0823059 6.4550037 3.5387802 12.4235096 6.8300171 14.5300274.3217316.5363579.8085976.9472885 1.4199829 1.0900879.2399902.1699219.4099731.2299805.460022.1799316.0199585-.0200195.0299683-.0500488.0100098-.0998535.3984146.0590935.824749-.0320892.9599609-.0900879 1.5523605.2301903 3.2206268-.4207993 3.8599854-1.1799316.2400513-.0100098.6300049-.1000977 1.1500244-.3300781 2.6186447-1.1703606 4.2706795-5.1432705 4.9099731-7.9999981.4200439-1.8598633.6600342-3.9499512.5500488-6.1401367 4.5799561-.0097656 9.3200035-.0297852 14.1699791-.0397949-.0100098 1.7199707.2299805 3.3200684.5700073 4.7600098 1.1931534 4.9027691 4.8997421 11.4508686 9.8800049 11.2998028 1.0199585-.0200195 1.7600098-.2998047 2.2600098-.5698242.0099487 0 .0099487-.0100098.0199585-.0100098.0599976.0598145.1300049.0900879.210022.1298828.2700195.1201172.5700073.2199707 1.2000122-.8798828 1.3146667-.3096657 2.6213379-1.7464256 3.3599854-2.9001465 2.0883255-3.2377453 2.8942871-8.0561981 2.6500244-11.8999004 1.3240738-.0073032 2.8833618.0404072 4.7399902-.1098633 2.2199707-.1401367 4.4599609-.2900391 6.289978.3598633 4.5877686 1.6825333 2.729454 9.3339176 2.8200073 14.3100567.1753922 19.2714195.0547028 17.4115982.4899902 22.1999512.2917501 3.225517.7401296 8.1601788-.6900004 11.0400388zm12.9821167 3.5026855c-.1313477.4438477-.3859253.8544922-.6175537.9550781-.1428833.065918-.2254639.0991211-.4672241.0297852-.2249146-.0668945-.5158691-.2832031-.677063-.5546875-.3446655-.4711914-.1676636-1.5327148.4245605-2.2675781.5983963-.8060684 1.539093-1.3375092 2.3068848-1.8330078-.7905884 1.0357742-.6219254 2.5837097-.9696045 3.6704101z"/></g></g></g></svg>