<svg id="Layer_1" enable-background="new 0 0 135 135" height="512" viewBox="0 0 135 135" width="512" xmlns="http://www.w3.org/2000/svg"><g id="Letter"><g><g><g><path d="m74.2008057 92.1776733c1.5808411 0 10.7144165-5.8533859 15.1616516-8.8954773 10.8899002-7.4491501 20.2974091-12.7661819 31.1873093-20.2153244-1.5105438-11.7328987-2.6049805-23.8004456-2.093895-35.6881676.0371857-.8649502-.6872711-1.5724812-1.5482407-1.4816341-5.0605316.5339718-10.5802994.9388733-16.838562 1.4662342-7.286293.6139889-13.1450882.2871647-20.4439392.4337006-14.4367065.2898388-28.8955536-.5154667-43.2099419-2.4137917-.8014832-.1062908-1.5287209.4690075-1.6051025 1.2738914l-2.9615746 40.1164169" fill="#ffcb05"/></g></g><g><path d="m131.5421143 80.6370621c-.0799561-2.3198242-.1499634-4.7399902-.2299805-7.2399902-.1699829-2.4799805.1099854-4.9899902.1199951-7.7199707-.0100098-1.3500977-.0800171-2.7700195-.5-4.1799316-.3499756-1.1201172-.8200073-2.1799316-1.3400269-3.2199707.0700073-.1601563.0300293-.25-.0199585-.3500977-.0499878-.0898438-.1099854-.1699219-.25-.1799316-.0200195-.0600586-.0499878-.1101074-.0800171-.170166-1.3200073-2.5297852-2.8699951-4.9897461-4.6300049-7.3999023-.8599854-1.1899414-1.8699951-2.3901367-2.8699951-3.4799805-.6900024-.7800293-1.3900146-1.5600586-2.0899658-2.3400879-.0500488-.9099121-.1000366-1.8200684-.1400146-2.7299805-.1600342-3.6098633-.210022-7.2399902-.1300049-10.8298359.0200195-.9001465.0499878-1.7900391.0899658-2.6901855l.0200195-.6699219c.0200195-.3601074-.039978-.7700195-.2000122-1.119873-.3099976-.7102051-.9699707-1.2802734-1.75-1.4301758-.3899536-.0898438-.8399658-.0300293-.9899902-.0200195l-.6699829.0600586-1.3300171.1098633c-.8900146.0700684-1.7799683.1501465-2.6599731.2202148-2.9400024.2399902-5.8500366.4799805-8.6900024.7199707-3.3900146-3.8000488-6.8500366-7.6501465-10.3400269-11.5500488-1.1199951-1.2399902-2.2299805-2.5300293-3.4899902-3.75-1.25-1.2099609-2.6799927-2.3598633-4.4000244-3.1098628-1.7099609-.7602539-3.6799927-.9602051-5.5099487-.6901855-1.8400269.2900391-3.5500488.9799805-5.1100464 1.8200679-3.1499634 1.6999512-5.7999878 3.9199219-8.5199585 5.9799805-2.7300415 2.0800781-5.4500122 4.1699219-8.1600342 6.25-2.1300049 1.6401367-4.25 3.2600098-6.3699951 4.8798828-1.0299683-.079834-2.0299683-.1599121-3.0200195-.25-3.7699585-.329834-7.2599487-.7099609-10.5-1.1098633-.4099731-.0500488-.8099976-.1000977-1.2099609-.1499023-.6799927-.1000977-1.4400024.1098633-1.960022.5598145-.539978.4299316-.8699951 1.1799316-.8999634 1.7800293-.0200195.380127-.0500488.7600098-.0800171 1.1401367-.1000366 1.5200195-.2000122 2.9799805-.2999878 4.3798847-.2000122 2.9599609-.3900146 5.6699219-.5500488 8.1499023-.9599609.7700195-1.9299927 1.5302734-2.8799438 2.3000488-1.3200073 1.0400391-2.5200195 2.2102051-3.6700439 3.3601074-2.289978 2.3300781-4.4299927 4.7199707-6.3699951 7.2700195-.4899902.6398926-.9500122 1.3100586-1.3900146 1.9899902-.2199707.3601074-.4299927.6999512-.6300049 1.0998535-.2099609.4101563-.3699951.8300781-.5 1.25-.5099487 1.6901855-.5499878 3.3400879-.5 4.9101563.0400391 1.5698242.210022 3.0698242.3200073 4.5300293.0500488.7199707.0800171 1.4299316.0800171 2.1098633-.0100098.7299805-.0200195 1.4602051-.0299683 2.170166-.0700073 2.8798828-.3000488 5.6699219-.4900513 8.4499512-.3599854 5.5500488-.6799927 10.7700195-.9099731 15.6899414-.2000122 4.4799805-.289978 8.8400879-.2200317 13.0700684.0400391 2.119873.1300049 4.1999512.2600098 6.25.1400146 2.0400391.3099976 4.2199707 1.3000488 6.2797852.5 1.0200195 1.2399902 1.9602051 2.1199951 2.6601563.8800049.7099609 1.8699951 1.2099609 2.8499756 1.5700684 1.9899902.6999512 3.9500122.8999023 5.8099976 1.0598145 3.6900024.2900391 7.25.5500488 10.6900024.7602539 13.7700195.8498535 25.6500244 1.1198654 35.8599854 1.1498947 20.4299927.0100098 34.2200317-.8400803 43.5200195-1.4999924 2.3099976-.1699219 4.4299927-.2900391 6.2700195-.8300781 1.8499756-.4899902 3.3699951-1.5 4.2799683-2.6699219.9199829-1.1601563 1.3200073-2.3300781 1.5800171-3.2900391.25-.9599609.3399658-1.7600098.3999634-2.3901367.1700439-2.5598145-.0499878-2.7397461-.1900024-2.7597656-.1799927-.0200195-.2699585.1899414-.6999512 2.6298828-.1199951.6000977-.2800293 1.3500977-.5700073 2.2099609-.2900391.8601074-.710022 1.8601074-1.5200195 2.7700195-.789978.9199219-2.0100098 1.6899414-3.6599731 2.0800781-1.6500244.4299316-3.6500244.5-5.9899902.6098633-9.2900391.4599609-23.0500488 1.1401367-43.4100342 1.0100098-10.1799927-.0898438-22.0100098-.4099121-35.7199707-1.2800293-3.4300537-.2199707-6.9800415-.4897461-10.6400146-.7797852-1.8099976-.1501465-3.6099854-.3601074-5.2299805-.9401855-.2883911-.1091309-.5765991-.2287598-.8451538-.3676758 2.4101563-1.7314453 6.5631104-4.9604492 13.8303833-10.8430176 4.4680176-3.6166992 11.4146729-9.40625 17.1940918-14.3540039s10.3916016-9.0537109 10.1904297-9.3022461c-.2010498-.2485352-5.1773682 3.4077148-11.2203369 8.0297852s-13.1525879 10.2109375-17.6206055 13.8276367c-7.7476807 6.2714844-11.8117676 9.7121582-13.8999634 11.6484375-.5394287-.4797363-.9891357-1.0393066-1.3088989-1.71875-.7399902-1.5200195-.9400024-3.420166-1.0699463-5.420166-.1200562-2.0100098-.210022-4.0598145-.25-6.1398926-.0700073-4.1699219.0199585-8.4799805.2199707-12.9301758.2299805-4.869873.5499878-10.119873.8900146-15.6298828.1900024-2.7399902.4299927-5.6098633.4799805-8.5500488.0100098-.7299805.0300293-1.4699707.039978-2.2099609 0-.7800293-.0499878-1.5500488-.0999756-2.3000488-.1199951-1.5097656-.2799683-2.9799805-.3300171-4.4399414-.039978-1.1599121-.0100098-2.3100586.2000122-3.3798828.6099854.4599609 1.4100342 1.0200195 2.3599854 1.6799316 2.4000244 1.6699219 5.75 3.9299316 9.460022 6.4199219 7.4099731 4.9699707 16.3099976 10.7600098 22.0900269 14.2700195 10.5299683 6.420166 16.1499634 9.3000488 19.0699463 10.670166 2.9300537 1.3398438 3.1700439 1.1398926 3.3200073.8598633.0900269-.1699219.1400146-.3598633-.5-.8901367.0700073-.0197754.1400146-.0397949.2200317-.0698242.7099609-.25 1.6900024-.7199707 2.9400024-1.3798828 1.3299561-.7102051 2.9400024-1.630127 4.7999878-2.75.0299683-.0200195.0599976-.0400391.0999756-.0600586 1.5599976-.880127 3.2600098-1.8601074 5.0300293-2.920166 7.3800049-4.3798828 15.9799805-9.8498535 21.4299927-13.3498535 9.9299927-6.380127 15.039978-9.5400391 17.5900269-11.2800293.6099854-.4099121 1.0699463-.7399902 1.4199829-1 .4299927.869873.8099976 1.75 1.0999756 2.6398926.3900146 1.2099609.4700317 2.5200195.5 3.8200684.0200195 2.5900879-.2299805 5.25-.0199585 7.7600098.1099854 2.4899902.2199707 4.8999023.3199463 7.2099609.0500488 1.1601563.1100464 2.2900391.1600342 3.3999023.0100098 1.1101074.0299683 2.2001953.0499878 3.2602539.0900269 8.4799805-.0800171 15.3598633-.2199707 20.0998535-.0800171 2.380127-.1400146 4.2199707-.1800537 5.4699707-.039978 1.25-.039978 1.9101563 0 1.9101563.0400391 0 .1200562-.6601563.2400513-1.8901367.1099854-1.25.2599487-3.0898438.3999634-5.4599609.2999878-4.75.6199951-11.6298828.6600342-20.1401367v-3.2597656c-.0400397-1.110108-.0700079-2.2500006-.1000372-3.4101568zm-72.6300049-58.1000996c2.7000122-2.0898438 5.4000244-4.1799316 8.1100464-6.2797852 2.7199707-2.0800781 5.3599854-4.3000488 8.2399902-5.8701172 1.4299927-.7900391 2.9400024-1.3898926 4.4799805-1.6398926 1.539978-.2299805 3.0900269-.0900879 4.5.5300293 2.8599854 1.2299805 5.0300293 3.8798828 7.289978 6.3498535 3.2300415 3.5500488 6.4300537 7.0600586 9.5800171 10.5300293-3.2399902.2900391-6.3499756.4199219-9.3999634.4499512h-9.2000122c-2.9200439.0300293-5.7000122.0600586-8.2999878.0900879-7.25 0-13.8300171-.2600098-19.8099976-.6601563 1.5-1.1699218 3.0099488-2.3298339 4.5099488-3.4999999zm-36.7699585 37.4101582c-1.0900269-.6098633-2.0100098-1.1201172-2.710022-1.4799805.0200195-.0800781.039978-.1601563.0599976-.2299805.3400269-1.1699219 1.2800293-2.4399414 2.1600342-3.6499023 1.8399658-2.4401855 3.9399414-4.8100586 6.1499634-7.0700684 1.1199951-1.1201172 2.25-2.2302246 3.4799805-3.2102051.4300537-.3498535.8600464-.6899414 1.3000488-1.0397949-.3400269 5.4199219-.5900269 9.5898438-.7600098 12.8000488-.2900391 5.3798828-.3500366 8.0598145-.2999878 9.3898926-3.6400147-2.1899414-6.9400025-4.1398925-9.3800049-5.5100097zm32.2699585 19.4799804c-5.6799927-3.4699707-14.5599976-8.8999023-22.1199951-13.5100098.25-1.130127.5900269-3.7399902 1.1600342-9.7199707.3299561-3.5600586.75-8.3000488 1.2600098-14.6401367.0799561-.9599609.1599731-1.9499512.25-2.9897461.1499634-1.9401855.3199463-4.0102539.5-6.2299805.1099854-1.4001484.2199707-2.8601093.3399658-4.3701191.0300293-.3798828.0599976-.7600098.0900269-1.1499023.0199585-.1801758.0499878-.2001953.1199951-.2700195.0799561-.0600586.1499634-.0900879.2699585-.0700684.4000244.0500488.8099976.1101074 1.2200317.1599121 3.2600098.4301758 6.7799683.8300781 10.5700073 1.1801758.1799927.0200195.3599854.0297852.539978.0498047 1.0100098.0900879 2.0300293.1801758 3.0800171.2600098 6.6900024.5300293 14.1699829.8901367 22.5200195.880127 2.5999756-.0300293 5.3899536-.0600586 8.3199463-.0900879 2.9300537-.0200195 6.0100098-.0300293 9.210022-.0400391 3.210022-.0397949 6.5800171-.2099609 9.9700317-.5397949.4299927-.0400391.8499756-.0800781 1.2799683-.1101074.6799927-.0700684 1.3599854-.130127 2.0499878-.1901855 2.3200073-.2197266 4.6799927-.4299316 7.0700073-.6499023.8800049-.0800781 1.7600098-.1599121 2.6500244-.2399902l1.3399658-.119873c.3900146-.0300293 1.0700073-.1101074 1.0200195-.0800781.0999756.0100098.2000122.1000977.2600098.2099609.0200195.0600586.0299683.1000977.0299683.1899414l-.0199585.6801758c-.0300293.9099121-.0500488 1.8198242-.0599976 2.7299805-.0500488 3.6499043.0299683 7.3198261.2399902 10.9699726.0100098.1101074.0100098.2199707.0199585.329834.0400391.7900391.0900269 1.5800781.1400146 2.3601074.1799927 2.75.4200439 5.4699707.710022 8.1799316.1799927 1.7900391.3800049 3.5700684.5999756 5.3300781.2000122 1.5600586.4000244 3.1000977.6000366 4.6298828-2.8600464 1.7001953-6.5300293 3.9602051-11.2700195 7.0102539-5.460022 3.5-13.9099731 9.1799316-21.0499878 13.8999023-6.0300293 4.0200195-11.1699829 7.25-12.5200195 8.3300781-.3900146-.2900391-.9500122-.670166-1.7399902-1.170166-2.7000122-1.7299806-8.1599732-4.8098145-18.6500244-11.1999513zm71.9700317-20.6098632c-1.2000122.5898438-2.8500366 1.4799805-5.1500244 2.8098145-.1499634-1.2897949-.2999878-2.5900879-.4500122-3.8999023-.1799927-1.7600098-.3499756-3.5300293-.5299683-5.3100586-.1799927-1.8999023-.3300171-3.8000488-.4500122-5.7199707.289978.3200684.5800171.6401367.8699951.9599609 1.0400391 1.1101074 1.960022 2.1699219 2.8300171 3.3500977 1.7000122 2.2900391 3.2399902 4.6699219 4.539978 7.0600586-.4199829.159912-.9599609.409912-1.6599731.7499999z"/><path d="m110.9850464 109.3758316c-3.5299072-3.9394531-9.0084229-10.2353516-13.7388916-15.4477539-4.7215576-5.2182617-8.7611084-9.2631836-8.9943848-9.0507813-.2398682.2177734 3.357666 4.6362305 7.7512207 10.1157227 4.4005127 5.4707031 9.6939697 11.949707 13.2536621 15.9223633 6.479126 7.2651367 10.2237549 10.590332 12.1827393 12.2026367 1.9918213 1.5869141 2.2596436 1.4414063 2.4766846 1.206543.2171631-.234375.3372803-.5185547-1.3481445-2.3920898-1.6569825-1.9038087-5.1564942-5.3510743-11.5828858-12.5566407z"/><path d="m61.9521484 48.7471695c1.0899658.079834 2.2399902.0200195 3.3699951-.2199707 1.1499634-.2402344 2.2299805-.6601563 3.25-1.1101074 2.0199585-.8999023 3.9400024-1.8601074 5.7299805-1.8200684 1.7700195.0200195 3.4000244 1.0600586 4.9700317 2.130127 1.5699463 1.0700684 3.1799927 2.2099609 4.9799805 2.6398926 1.6300049.4501953 3.289978.1899414 4.5899658-.2399902 1.3200073-.4299316 2.4000244-1.0100098 3.3800049-1.5200195 1.9500122-1.0500488 3.5300293-1.8200684 4.9000244-2.0300293.6799927-.0898438 1.2999878-.0898438 1.8599854.0300293.5800171.1101074 1.1500244.3100586 1.710022.4802246.5499878.1799316 1.0999756.329834 1.6199951.4099121.5299683.0900879 1.0700073.0900879 1.5.0200195 1.789978-.2800293 2.4699707-1.3601074 2.5499878-1.8300781.1000366-.5100098-.0800171-.5700684-.2199707-.6101074-.1600342-.0598145-.3000488-.0297852-.5599976.170166-.2700195.1799316-.7000122.6098633-1.9200439.6398926-.5899658.0200195-1.289978-.1799316-2.3299561-.6098633-.5300293-.2001953-1.1300049-.4599609-1.8900146-.6601563-.7700195-.1999512-1.6699829-.25-2.6000366-.1599121-1.8699951.2199707-3.7399902 1.1398926-5.6599731 2.1398926-1.9199829.9501953-4.0900269 2.1201172-6.3599854 1.5300293-1.2700195-.2897949-2.6799927-1.2099609-4.2900391-2.2800293-.8199463-.5297852-1.6999512-1.1098633-2.7299805-1.579834-1.0299683-.4802246-2.25-.8200684-3.5-.8100586-2.5499878.0700684-4.6300049 1.3100586-6.539978 2.2199707-.960022.4699707-1.8900146.8701172-2.8400269 1.1098633-.9500122.2402344-1.9299927.3500977-2.8999634.3300781-3.9300537-.0800781-7.3000488-1.8598633-9.6199951-3.1499023-2.3300171-1.3300781-3.7600098-2.2199707-3.8600464-2.0800781-.0799561.1201172 1.1600342 1.25 3.3800049 2.8400879 1.1199951.7900391 2.5 1.6899414 4.1799927 2.4599609 1.670044.7800292 3.6600342 1.4199218 5.8500366 1.5600585z"/><path d="m79.7321167 65.8770523c1.4200439-.75 2.7000122-1.2299805 3.8699951-1.4299316 1.0500488-.1799316 2.0200195-.1298828 2.8200073.1401367.7800293.25 1.5.7998047 2.2800293 1.3598633.7799683.5400391 1.6300049 1.1298828 2.6699829 1.3901367 1.039978.2897949 2.1500244.0698242 2.8800049-.2602539.75-.3198242 1.2999878-.6799316 1.7799683-.9399414.4700317-.2600098.8700562-.4399414 1.2900391-.5800781.8099976-.2597656 1.5100098-.3598633 2.0800171-.3999023 1.1399536-.0600586 1.75.0400391 2.0999756 0 .3499756-.0300293.4299927-.1599121.4899902-.3100586.0499878-.1499023.0900269-.2998047-.210022-.5498047-.2999878-.2299805-.9499512-.6101074-2.3399658-.7700195-.7000122-.0700684-1.5800171-.0700684-2.6500244.1899414-.5299683.1201172-1.1199951.3398438-1.6900024.6098633-.5599976.2700195-1.1099854.5700684-1.6399536.7700195-.5500488.2001953-1 .2600098-1.5300293.1000977-.539978-.1401367-1.1599731-.5400391-1.9000244-1.0900879-.7299805-.5300293-1.6099854-1.2600098-2.8699951-1.6999512-1.2299805-.4199219-2.6099854-.4699707-3.9499512-.2399902-1.4700317.25-3.0500488.880127-4.5300293 1.6999512-1.5.8000488-2.960022 1.7399902-4.5200195 2.3701172-3.0899658 1.2998047-6.9299927 1-10.1199951-.0800781-3.2299805-1.0698242-5.9199829-2.7900391-7.8699951-4-1.9400024-1.2299805-3.1699829-1.9899902-3.2600098-1.8500977-.0999756.1201172.9400024 1.1201172 2.7400513 2.5900879 1.8099976 1.4401855 4.4199829 3.4299316 7.8299561 4.8000488 1.7000122.6699219 3.5900269 1.1699219 5.5599976 1.3200684 1.960022.1499023 4.0300293-.1000977 5.8800049-.7900391 1.8500364-.6901857 3.3900144-1.6301271 4.8099973-2.3500978z"/><path d="m119.0519409 22.5926266c.6286621.1157227 1.697998-2.8305664 1.9588623-4.2470703.4760742-2.5854492-.0236816-2.7333984-.6523438-2.8491211s-1.1481934-.1552734-1.6242676 2.4296875c-.2607421 1.4169922-.310913 4.5507812.3177491 4.6665039z"/><path d="m124.6506958 23.6097164c.9655762-.5913086 1.9530029-1.4604492 2.5018311-2.0795898 1.980957-2.2895508 1.5311279-2.7412109 1.0292969-3.0898438-.5447998-.3837891-.8979492-.5991211-2.7601318 1.5527344-.5178223.5844727-1.2583008 1.5683594-1.8719482 2.4057617-.6015625.8505859-1.1162109 1.5048828-.9685059 1.7871094.1486815.2880859 1.1146239.0332031 2.0694579-.5761719z"/><path d="m125.5488892 27.0462399c-.8343506.3144531-1.4370117.7514648-1.3670654 1.0605469.0704346.3139648.7695313.4506836 1.5678711.5639648.8027344.1069336 1.7022705.2114258 2.2629395.2407227 1.0236816.0532227 1.5299072.0605469 1.84375-.0869141.3085938-.1362305.4061279-.4101563.4921875-.7177734.0859375-.3076172.1605225-.5874023-.1025391-.8720703-.260498-.2705078-.8843994-.5722656-2.1282959-.6357422-.6807862-.0361329-1.7401124.1274413-2.5688477.4472656z"/><path d="m10.2803345 80.2801285c-.6357422-.0668945-1.166748.027832-1.9150391 7.1435547-.4100342 3.8989258-.7746582 12.3203125-.1390381 12.387207.6357422.0668945 2.0311279-8.246582 2.4411621-12.1455078.748291-7.1152344.2485352-7.3183594-.3870849-7.3852539z"/><path d="m4.5151978 87.5599136c-.6391602 0-1.1573486.0512695-1.1573486 2.4946289 0 1.3388672.5181885 4.2119141 1.1573486 4.2119141.6392822 0 1.1574707-2.8730469 1.1574707-4.2119141 0-2.4433593-.5181885-2.4946289-1.1574707-2.4946289z"/></g></g><g><g><g><path d="m97.4233475 54.8591347c-.1580811-.0239258-.2957764-.0834961-.2705078-1.0112305.0024414-.9296875.223877-2.7236328.3659668-6.2539063.0800781-1.934082.1131592-4.9814453-.0068359-7.5498047-.1037598-2.5678711-.3101807-4.6542969-.1461182-4.6806641.151001-.0253906.6461182 2.0273438.961792 4.6132813.3317871 2.5830078.4295654 5.6889648.3477783 7.6586914-.1447754 3.5966797-.5003662 5.4101563-.7116699 6.3222656-.234253.9106446-.3823243.9248048-.5404053.9013673z" fill="#fff"/></g></g></g><g><g><g><path d="m97.1676102 62.8576698c-.3186035-.0258789-.5734863-.0883789-.4127197-2.09375.0880127-1.0991211.5352783-3.4365234.8538818-3.4111328s.3878174 2.4047852.2998047 3.503418c-.1607666 2.0053711-.4223633 2.0268555-.7409668 2.0014648z" fill="#fff"/></g></g></g></g></svg>