<svg height="512" viewBox="0 0 512 512" width="512" xmlns="http://www.w3.org/2000/svg"><g id="Layer_1" data-name="Layer 1"><g fill="#ffdf40"><path d="m330.568 52.783h-149.136c0-24 33.385-43.462 74.568-43.462s74.568 19.459 74.568 43.462z"/><path d="m502.678 256c0 41.183-19.458 74.568-43.461 74.568v-149.136c24.003 0 43.461 33.385 43.461 74.568z"/><path d="m330.568 459.217c0 24-33.385 43.462-74.568 43.462s-74.568-19.459-74.568-43.462z"/><path d="m52.783 181.432v149.136c-24 0-43.461-33.385-43.461-74.568s19.458-74.568 43.461-74.568z"/></g><path d="m102.6 102.6c-84.72 84.72-84.72 222.078 0 306.8s222.078 84.72 306.8 0 84.72-222.078 0-306.8-222.079-84.719-306.8 0zm238.12 238.12a119.814 119.814 0 1 1 0-169.442 119.813 119.813 0 0 1 .001 169.443z" fill="#f5f5f5"/><path d="m62.835 150.263a8.356 8.356 0 0 1 -2.535-11.125 218.767 218.767 0 0 1 78.838-78.838 8.356 8.356 0 0 1 11.125 2.538l56.952 83.707a120.176 120.176 0 0 0 -60.673 60.673zm108.444 190.458a119.49 119.49 0 0 1 -24.737-35.936l-83.707 56.952a8.358 8.358 0 0 0 -2.535 11.125 218.782 218.782 0 0 0 78.838 78.838 8.358 8.358 0 0 0 11.125-2.538l56.952-83.707a119.49 119.49 0 0 1 -35.936-24.734zm201.583-280.421a8.358 8.358 0 0 0 -11.125 2.538l-56.952 83.707a120.176 120.176 0 0 1 60.673 60.673l83.707-56.952a8.358 8.358 0 0 0 2.538-11.125 218.782 218.782 0 0 0 -78.841-78.841zm-7.4 244.488a120.176 120.176 0 0 1 -60.673 60.673l56.952 83.707a8.356 8.356 0 0 0 11.125 2.538 218.782 218.782 0 0 0 78.834-78.844 8.356 8.356 0 0 0 -2.538-11.125z" fill="#ff5959"/><path d="m268.155 472.587a216.386 216.386 0 0 1 -165.555-63.187c-84.72-84.72-84.72-222.078 0-306.8a216.383 216.383 0 0 1 165.556-63.187c-114.102 6.365-204.667 100.894-204.667 216.587s90.565 210.222 204.666 216.587z" fill="#e6e6e6"/><path d="m60.3 139.138a218.775 218.775 0 0 1 78.838-78.838 8.355 8.355 0 0 1 11.124 2.538l8.983 13.2a217.837 217.837 0 0 0 -75.538 88.426l-20.872-14.2a8.356 8.356 0 0 1 -2.535-11.126zm23.41 208.4-20.872 14.2a8.358 8.358 0 0 0 -2.538 11.124 218.782 218.782 0 0 0 78.838 78.838 8.358 8.358 0 0 0 11.125-2.538l8.983-13.2a217.838 217.838 0 0 1 -75.539-88.426z" fill="#e63a57"/><path d="m509.679 256c0-43.1-19.782-77.273-45.686-80.322a221.064 221.064 0 0 0 -9.78-21.807 14.366 14.366 0 0 0 2.661-17.776 225.7 225.7 0 0 0 -80.97-80.97 14.365 14.365 0 0 0 -17.775 2.662 220.83 220.83 0 0 0 -21.807-9.78c-3.049-25.907-37.222-45.686-80.322-45.686s-77.273 19.779-80.322 45.686a221.064 221.064 0 0 0 -21.807 9.78 14.365 14.365 0 0 0 -17.771-2.662 225.7 225.7 0 0 0 -80.974 80.975 14.364 14.364 0 0 0 2.646 17.762 220.939 220.939 0 0 0 -9.754 21.819c-25.909 3.037-45.697 37.209-45.697 80.319s19.779 77.27 45.679 80.322a220.941 220.941 0 0 0 9.784 21.807 14.364 14.364 0 0 0 -2.658 17.771 225.7 225.7 0 0 0 80.97 80.97 14.164 14.164 0 0 0 7.206 1.961 14.429 14.429 0 0 0 10.569-4.622 221.064 221.064 0 0 0 21.807 9.78c3.049 25.9 37.218 45.686 80.322 45.686s77.272-19.782 80.322-45.686a220.83 220.83 0 0 0 21.807-9.78 14.422 14.422 0 0 0 10.568 4.623 14.174 14.174 0 0 0 7.207-1.962 225.693 225.693 0 0 0 80.97-80.97 14.364 14.364 0 0 0 -2.661-17.775 220.83 220.83 0 0 0 9.78-21.807c25.907-3.045 45.686-37.218 45.686-80.318zm-12 0c0 31.822-12.579 59.4-28.94 66.676a223.026 223.026 0 0 0 0-133.352c16.361 7.276 28.94 34.854 28.94 66.676zm-124.811 46.569a126.56 126.56 0 0 0 0-93.138l71.441-48.608c29.928 59.3 29.928 131.055 0 190.353zm-36.389 33.91a113.761 113.761 0 1 1 0-160.958 113.068 113.068 0 0 1 0 160.958zm-80.479 45.335a125.686 125.686 0 0 0 46.609-8.889l48.568 71.385c-59.3 29.926-131.055 29.926-190.354 0l48.568-71.385a125.682 125.682 0 0 0 46.609 8.889zm-188.309-30.638a212.758 212.758 0 0 1 .017-190.341l71.366 48.556a126.651 126.651 0 0 0 0 93.217zm141.739-212.044-48.607-71.441c59.3-29.927 131.054-29.927 190.354 0l-48.608 71.441a126.553 126.553 0 0 0 -93.139 0zm160.389-73.664a213.841 213.841 0 0 1 76.713 76.712 2.355 2.355 0 0 1 -.742 3.122l-77.96 53.043a125.886 125.886 0 0 0 -54.175-54.175l53.045-77.96a2.355 2.355 0 0 1 3.119-.742zm-113.819-51.147c31.822 0 59.4 12.579 66.676 28.94a223.026 223.026 0 0 0 -133.352 0c7.276-16.361 34.854-28.94 66.676-28.94zm-190.532 127.861a213.826 213.826 0 0 1 76.714-76.714 2.354 2.354 0 0 1 3.12.742l53.043 77.96a126.408 126.408 0 0 0 -54.216 54.147l-77.919-53.017a2.352 2.352 0 0 1 -.742-3.118zm-51.147 113.818c0-31.825 12.582-59.4 28.946-66.679a223 223 0 0 0 -.011 133.353c-16.356-7.283-28.935-34.856-28.935-66.674zm127.86 190.532a213.847 213.847 0 0 1 -76.713-76.714 2.352 2.352 0 0 1 .742-3.12l77.919-53.014a126.953 126.953 0 0 0 54.188 54.187l-53.017 77.918a2.354 2.354 0 0 1 -3.119.743zm113.819 51.147c-31.821 0-59.4-12.579-66.676-28.94a223.036 223.036 0 0 0 133.352 0c-7.276 16.361-34.855 28.94-66.676 28.94zm190.532-127.861a213.826 213.826 0 0 1 -76.714 76.714 2.354 2.354 0 0 1 -3.12-.742l-53.014-77.919a126.4 126.4 0 0 0 54.145-54.216l77.961 53.045a2.352 2.352 0 0 1 .742 3.118z"/></g></svg>