<svg id="Layer_1" enable-background="new 0 0 135 135" height="512" viewBox="0 0 135 135" width="512" xmlns="http://www.w3.org/2000/svg"><g id="Online_Chat"><g><g><g><g><g><g><path d="m63.7011337 52.4078178c-.5088959-.0946274-1.0498199-.2108917-1.4135704-.5791473-.3286476-.3327141-.4520874-.8111839-.5594177-1.2663612-2.9806519-12.6407738-1.1281624-24.5903225.8331871-37.4288025 7.1071396-.6289921 11.9068375.0528097 19.0139771-.5761814 3.6493835-.3229752 7.8613968 1.6268139 11.5236282 1.7285433 10.1166229.2810202 15.9348602-1.0537796 26.0446777-1.5191565.4584198-.021102.9455109-.0440874 1.3454437.1809607.564888.317872.7721786 1.0172243.9033432 1.6519966.6956787 3.366724.6646271 6.8356152.6306992 10.2732944-.0897598 9.0952358-.1795197 18.1904659-.2692795 27.2856998-.0063858.6469841-.0396576 1.3628159-.4906387 1.8267555-.4735031.4870987-1.2321014.5189667-1.9114151.5190964-10.4149399.0019341-17.3727951.0038757-27.787735.0058136-1.2453918.0002327-2.5826111.0285988-3.5931244.7565193-.5591125.4027519-.9596634.9820518-1.3832779 1.525528-.9498901 1.2186623-4.9436646 5.6861839-6.7723618 4.9229279-1.8016434-.7519646-.5107422-6.2269363-1.0180817-7.7844849-5.0207137-.5992727-10.0697631-.5883779-15.096054-1.5230017z" fill="#ffcb05"/></g></g><g><g><path d="m72.3271408 30.0709972c-1.70047-.1014366-3.2594833 1.5392818-3.1560898 3.2396297.1033859 1.7003479 1.7568817 3.1203194 3.4591064 3.0547523 1.7022247-.0655708 3.2120056-1.5266418 3.4265366-3.216568s-.8181915-3.4355602-2.3640518-4.1512432c-.7945404-.3678493-1.8207855-.4504642-2.4774857.1286373s-.4964981 1.9232063.365593 2.0761852" fill="#fff"/></g></g><g><g><path d="m89.9006653 29.7829056c-1.7004623-.1014347-3.2594757 1.5392838-3.1560898 3.2396317.1033936 1.7003479 1.7568893 3.1203194 3.4591141 3.0547485 1.7022247-.065567 3.2120056-1.526638 3.4265366-3.2165642s-.8181992-3.4355621-2.3640518-4.1512451c-.7945404-.3678493-1.8207932-.4504642-2.4774857.1286392-.6567001.5791016-.4965057 1.9232044.365593 2.0761852" fill="#fff"/></g></g><g><g><path d="m107.1861038 29.4948158c-1.7004623-.1014366-3.2594757 1.5392818-3.1560898 3.2396317.1033936 1.7003479 1.7568893 3.1203194 3.4591141 3.0547485 1.7022247-.065567 3.2120056-1.526638 3.4265366-3.2165642.2145309-1.6899281-.8181992-3.4355621-2.3640518-4.1512451-.7945404-.3678493-1.8207932-.4504642-2.4774857.1286373-.6567001.5791035-.4965057 1.9232063.365593 2.0761852" fill="#fff"/></g></g></g></g><g><g><g><path d="m64.212616 35.4874268c-.3193359-.0146484-.572998-.1381836-.3273926-5.4814453.1345215-2.9277344.6821289-9.1992188 1.0014648-9.1845703.3192139.0146484.2893066 6.3100586.1546631 9.237793-.2454834 5.3432616-.5095215 5.442871-.8287353 5.4282226z" fill="#fff"/></g></g></g><g><g><g><path d="m65.5221863 48.1534424c-.3197021 0-.5787354-.0253906-.5787354-1.2402344 0-.6650391.2590332-2.0932617.5787354-2.0932617.3195801 0 .5786133 1.4282227.5786133 2.0932617 0 1.2148438-.2590332 1.2402344-.5786133 1.2402344z" fill="#fff"/></g></g></g></g><g><path d="m20.4501305 92.5381775c.5947266 2.4116211.895752 2.4624023 1.2111816 2.4116211 1.1045227-.1776733.110157-4.7175064-1.482666-19.309082-1.9420643-19.0058975-1.6409779-28.5052261-2.0391846-31.8998985 12.0735626-1.3164291 23.3104706-3.0532875 41.3930664-2.7084961.121769 1.2589798.4068718 3.340023.4598389 3.668457-.2169189-.0678711-.6738281-.1152344-1.6789551-.1201172-13.5523949.0110855-44.9485474 4.3146935-33.0031738 3.4399414 28.7121735-2.2986946 33.8254776-2.4960747 34.7315674-2.934082.0182762.100769.9248352 6.2220917 1.7192383 8.28125-.3372803.1435547-.3847656.3574219-.4136963.5908203-.0395508.3168945-.0456543.6079102.713623.9086914.760498.2900391 2.2822304.6450195 5.3605995.7807617 1.6948242.0830078 4.3374023-.1416016 6.4868164-.4311523 2.159668-.2861328 3.9196777-.5629883 3.921875-.8862305.0021973-.315918-1.7756348-.6176758-3.9743652-.75-2.2080078-.1269531-4.7504883-.1665039-6.3508301-.2460938-2.5070801-.1102104-4.5263557-.2449379-5.4226112-.0600586 0-.0009766 0-.0014648 0-.0024414.0611572-1.588253-.5190125-6.7698898-.8299561-14.4296875-.5918579-14.8623066.1215248-25.0807915-.5198975-27.0097656 1.9683838.1201172 7.5539589-.0141602 14.1398964-.1020508 31.1542358-.516799 47.2377701 1.2804346 47.3237305-.3256836.0168457-.3193359-.0852051-.6142578-3.0285645-.9741211-9.0710449-1.0230217-27.3504486-1.4866028-44.359375-.3359375-6.8083496.4384766-12.5168495 1.034668-14.2722206 1.4018555-.0012207-.0009766-.0024414-.003418-.00354-.0043945-.0899658-.0698242-.1800537-.0800781-.2800293-.0898438-.3099365-.0200195-.6099854.0498047-.9300537 2.0498047-.289917 2.0102539-.6799316 5.9702148-.6398926 13.75.0200195 3.0600586.2199707 7.3798828.6199951 11.6401367-11.3546219 0-23.5260925 1.0179367-35.3399658 3.3300781-5.867321 1.2508926-5.6808739 1.4437675-5.8312988 1.4907227-.607563-4.8155022-3.1438627 25.3253822 2.3188477 48.8749962z"/><path d="m113.8510132 117.9136658c0-.1362305-.0400391-.2675781-.4907227-.3901367 1.2173004-.3922653.053894-1.9453583-4.3796387-9.4355469-2.3426666-3.9370041-7.1621552-12.4260941-8.9980469-14.4379883-.0217285-.0473633-.0583496-.09375-.1260986-.1376953.0781097-.3770981 1.0460587 2.4092026 2.5860596-18.2299805.3599854-4.9301758.7600098-12.680172 1.0799561-19.1899376.0100098-.1899414.0200195-.3798828.0300293-.5600586 2.3499756.0698242 4.5599365.1201172 6.2698975.1401367 7.6401367.0595703 10.670166-.1103516 11.8701172-.4003906.0012207-.0004883.0019531-.0004883.0030518-.0009766.0947266.1723633.2154541.2124023.3448486.230957.3164063.0454102.6137695.0078125 1.1018066-2.0136719.4399414-2.0239258 1.2038574-6.0366211 1.5539551-13.9970703.0761719-2.1801758.1181641-4.9887695.0112305-7.96875-.1015625-2.9804688-.3288574-6.1293945-.6386719-8.9931641-.6184082-5.730957-1.5703125-10.3027344-1.8725586-10.2602539-.3308105.0444336.0441895 4.6777344.2399902 10.3774414.098877 2.8500977.154541 5.9658203.1384277 8.9052734-.0107422 2.9394531-.1166992 5.7011719-.1914063 7.8476563-.3462982 7.8792725-.8828201 12.1305504-.8736572 14.512207-1.3214111-.2900391-4.4119873-.4995117-11.6671143-.5595703-1.6899414-.0097656-3.869873 0-6.1899414.0302734-.4799805.0097656-.9699707.0200195-1.4599609.0297852-5.3952637.1098633-11.1193848.359375-13.0344238.6889648-.0297852-.0209961-.0610352-.0400391-.0925293-.0585938-.2827148-.1665039-.541748-.2446289-1.3833008.6601563-.416748.4560547-1.0253906 1.1220703-1.9265137 2.1083984-.9160156.9628906-2.1611328 2.2348633-4.0197754 3.605957-.7734375.5639648-1.7407227 1.2158203-2.8469238 1.7666016-.2768555.1362305-.5583496.277832-.8522949.3901367-.0805664.0415039-.0637207.0541992-.1191406.0644531-.0842285.0205078-.1884766-.0854492-.1347656-.2006836.0097656-.0229492-.0024414-.0083008.0258789-.0639648l.1037598-.2036133.1958008-.4111328c.1230469-.2758789.2468262-.5493164.3522949-.8266602.2224121-.5498047.3974609-1.1035156.5490723-1.6396484.2929688-1.0756836.4553223-2.09375.5070801-2.9648438.1086426-1.746582-.1542969-2.8671875-.3364258-2.8598633-.2126465.0024414-.3310547 1.1064453-.7463379 2.6875-.2043457.7905273-.4978027 1.6967773-.8886719 2.6357422-.2004395.4677734-.4162598.9477539-.6694336 1.4194336-.1210938.2382813-.2578125.4711914-.3916016.706543l-.5107422.8325195c-.739502 1.0742188-.1662598 2.6083946 1.0178223 2.9868126.5610352.2304688 1.2487793.0908203 1.8066406-.1513672.3566895-.1132813.6916504-.2568359 1.0205078-.3984375 1.3139648-.5712852 2.4223633-1.2729454 3.2827148-1.9003868 2.064209-1.5239258 3.3635254-2.9541016 4.2680664-4.0800781.8981934-1.1352539 1.395752-1.9853516 1.6726074-2.5917969.2080078-.4643555.2988281-.7788086.3181152-1.0009766 1.3122559.2192383 3.9776611.4194336 7.0625.5991211h.001709c-.8358383 1.6474724-2.0192413 26.9506721-1.9498291 31.0107384-2.6832733-.6915359-67.0292511 1.6213913-68.9768066 2.1254883.0870361-1.0043945-.0993652-4.2329102-.9769287-14.7231445-.9763699-11.7108192-2.5643349-33.2747917-2.3745117-22.6855431.2200737 11.4786568 1.6310158 29.7056618 2.5356445 35.9018517.2868652 1.9208984.4382324 1.984375.5974121 1.9692383.0966797-.0092773.177002-.0424805.2148438-.4189453 1.833149.3976212 66.3299255-.9830475 68.9897461-1.8320313.2108536 5.1372299 2.9903259-29.5485344 2.3410645-31.3281212 1.6495361.090332 3.3985596.1704102 5.1276855.2304688-.0200195.159668-.0400391.3198242-.0600586.4897461-1.0333862 9.0771065-2.7295151 30.2406197-2.75 35.0498009-.0100098 1.5102539.1000977 2.1000977.2700195 2.340332.0037842.0048828.0075684.0078125.0114746.0126953-1.5688477-.3647461-7.3366699-.4794922-28.5825195.1333008-45.0343552 1.3787079-49.1846542 1.4304047-49.1884804 1.7460938-.0002441.0332031.1120605.0673828.2904053.1020508-1.5137939.9438477-8.3989258 8.9345703-11.6468506 12.8764648-3.2365718 3.918457-4.8894038 5.9003906-5.6230464 7.0224609-.742676 1.1113281-.5693359 1.3500977-.3359375 1.5683594s.479248.378418 1.5424805-.4624023c1.0515137-.8481445 2.9353023-2.7001953 6.2019038-6.6552734 3.3989258-4.1254883 9.8919678-13.0859375 10.1473389-14.3041992 10.8334198 1.4962387 73.782074.3839417 77.4613037-1.1928711.713089 2.0410843 4.7034149 10.7163162 7.2939453 15.0712891.9061203 1.5308914 4.3716812 7.2512589 5.8942871 8.1630859-8.1225433-1.3459396-108.5095139-.6145859-108.5112305.2871094 0 .0019531.0063477.0043945.0073242.0063477-.3022461.0605469-.5349123.7700195-.5722659 1.668457-.0471191.921875.1391602 2.0131836.3847659 2.6621094.4462891 1.1870117.8913574 1.6943359 1.2197266 1.8803711.3393555.1835938.5952148.0478516.8735352-.109375.0424805-.0239258.081543-.0493164.1219482-.0737305 1.0821533.1401367 3.5513911.3100586 6.9859614.4912109 4.6989746.2412109 11.192627.5039063 18.3662109.715332 19.9833641.611412 57.5316277 1.0438461 77.3198242-.0175781 5.1520996-.2944336 5.3535156-.5869141 5.3479004-.9067383-.0024414-.1318359-.0460205-.2583008-.4543457-.3701172.2148438-.2128906.3254395-.7509766.4416504-1.3583984.6155973-3.4813994.8602873-4.0384521-.5588335-4.3847655zm-100.4421425 5.4213867c-3.1447754.019043-5.4826655.0610352-6.6918941.1342773.0634766-.0874023.1143799-.1860352.1313477-.3173828.0539551-.3579102-.1088867-.894043-.4892578-1.9057617-.2089844-.5546875-.5981445-1.4086914-.9477539-2.1630859-.276001-.5805664-.5383301-1.0981445-.7922363-1.2919922 5.3321214.8851395 100.7351913 1.8960037 108.3276367.6000977-.8832703 1.4685211-.4994202 4.1723633.447998 5.1547852-3.859982-.5457307-15.3683591-.2987825-99.9858403-.2109376z"/><path d="m75.647644 111.6407166c-.3505936-1.2610474-1.4680786-2.1759644-3.4394531-2.0966797-.9575729.0476303-6.3716888.7923889-13.3576698.7236328-2.5996094-.0053711-5.269043-.1821289-7.8537598-.3569336-2.6903496-.121666-5.2975578.574234-5.8737793 3.1835938-.2263184.9238281.0124512 1.7402344.340332 2.1508789.3295898.4174805.6220703.4921875.657959.4418945.0612793-.0703125-.1137695-.2753906-.2487793-.6660156-.3968201-1.1317215.3915176-2.8439941 1.810791-3.3085938 2.1849098-.7962646 4.6400032.3906021 11.1010742.6870117 2.645752.1445313 5.1445313.1142578 7.0803261.0024414 3.7707748-.2125854 5.6266632-.5808868 6.4624023-.6503906 1.9749985-.1744919 1.3726425 1.1366272 1.737793 3.121582.1621094 1.0439453.6716309 1.6171875.9609375 1.7416992.3093262.1416016.4160156.0297852.5263672-.0844727.3402786-.3508148.0725174-.5530548.1452637-1.777832.0414505-.9266738.2624741-2.0010528-.0498047-3.1118163z"/><path d="m68.8165894 31.7535133c-.9717026 1.7851448-.0830002 4.1992416 2.0439453 5.2197266 2.0015106 1.0113831 4.5490341.1010132 5.755127-1.9887695 1.8246841-3.1048241-.6444626-7.1712246-3.880127-7.3305664-.9233398-.0556641-1.8283691.2856445-2.3518066.9541016-.5172119.7124023-.4644775 1.3408203-.3703613 1.7919922-.4431153.3017577-.8797608.7446288-1.1967774 1.3535155zm1.7197265-.461914c.2735596.2382813.565918.3139648.7080078.2792969.2854004-.0522461.3046875-.2158203.3364258-.3686523.0694199-.3295155-.041153-.3931999.0107422-.7470703.4204102-.2084961.7333984-.265625.7355957-.3842773.0217285-.0600586-.1633301-.1738281-.4929199-.2080078.0021973-.0009766.0046387-.0039063.0068359-.0043945 1.5163269-.635334 3.9057693 1.8512135 2.7941895 4.0209961-.5461807 1.065731-1.7816544 1.77808-3.0124512 1.3320313-.6086426-.215332-1.1591797-.684082-1.4533691-1.2314453-.5427247-.9111331-.1875-2.0014651.3669433-2.6884768z"/><path d="m86.3900757 31.4654274c-1.6359558 3.0054741 1.9857635 6.7905769 5.4240723 5.3125 1.9851379-.8069534 3.1952591-2.8735313 2.9782715-4.8051758-.3332367-2.9702587-2.8336716-4.7659168-4.9543457-4.5991211-.6542969.0493164-1.2727051.3227539-1.6916504.7348633-.4111328.4072266-.5737305.902832-.6098633 1.2724609-.0275879.2768555.0068359.5102539.060791.7246094-.4467774.3017578-.8876953.7460938-1.2072754 1.3598633zm1.7192383-.4609375c.2835007.2487392.7046585.3892746.927002.1831055.0812988-.0761719.0993652-.1733398.1179199-.2734375.0683594-.246582-.0273438-.46875-.0001221-.7412109.4257813-.2133789.7443848-.2705078.7467041-.3901367.0209961-.0585938-.1572266-.1679688-.4726563-.2050781.0050049-.0058594.0073242-.0112305.0126953-.0175781.1027832-.0458984.2524414-.0991211.501709-.0883789 1.623642.073801 3.2117691 2.2737293 2.2661133 4.1196289-.2502441.4887695-.6977539.9633789-1.2453613 1.2304688-2.0677796 1.0174177-4.7141114-1.5121347-2.8540039-3.817383z"/><path d="m105.7194214 36.3965797c3.0464859 1.5408897 6.732048-1.385685 6.3583984-4.7119141-.151123-1.5209961-.9035645-2.6606445-1.737793-3.4116211-.8410645-.7504883-1.8234863-1.1499023-2.7456055-1.1953125-1.6605911-.1001358-3.0764084 1.0473633-2.7220459 2.7460938-2.4798431 1.6887493-1.9327315 5.2400589.847046 6.5727539zm-.3239746-5.6811523c.5703812.4970474 1.1999359.3718967 1.0446777-.5566406-.0100098-.0986328-.0046387-.1782227.0102539-.2797852.4204102-.2084961.7336426-.265625.7358398-.3842773.0214844-.0600586-.1635742-.1743164-.4936523-.2084961.0024414-.0004883.0050049-.0043945.0075684-.0043945.7068253-.2930279 1.5505524.1309204 2.1066895.6621094 1.5690765 1.4952221 1.1254425 3.7690735-.5581055 4.5898438-2.0753479 1.0215949-4.7067719-1.5216867-2.8532715-3.8183595z"/><path d="m13.6051598 44.2100563c.2937012-.5678711-3.880127-3.3100586-5.9360347-4.3735352-3.7517092-1.940918-4.0683594-1.5214844-4.3620605-.9536133s-.4533691 1.0688477 3.2985842 3.0092773c2.0559074 1.0634767 6.7058098 2.8857423 6.999511 2.3178712z"/><path d="m16.3241539 38.5679665c.5537109-.3193359-1.4289551-4.7958984-2.5620117-6.7612305-2.067627-3.5869141-2.5598145-3.402832-3.1137695-3.0839844-.5537109.3193359-.9594727.6533203 1.1083984 4.2402344 1.1330566 1.965332 4.0134277 5.9238281 4.5673828 5.6049805z"/><path d="m22.5990562 36.8370094c.3061523.0693359.942627-1.4033203 1.4094238-3.3198242.4794922-1.9106445.7414551-4.2539063.7412109-5.7451172.003418-2.7241211-.302002-4.0996094-.5664063-4.7773438-.2832031-.6782227-.5732422-.668457-.890625-.6318359s-.6015625.1010742-.737793.7963867c-.1542969.6967773-.1164551 2.0175781-.119873 4.5991211-.0002441 1.4145508.0053711 3.6425781-.048584 5.5410156-.0407713 1.8959962-.1042479 3.4667969.2126466 3.5375977z"/><path d="m131.3070679 53.5088844c-.3098145-.0761719-.6069336-.0927734-1.0532227.7133789-.8495941 1.5352364-1.6053314 3.1833-3.291748 5.0756836-3.0397186 3.2239723-5.1070175 4.3222008-8.895752 5.563961-.8205566.2265625-1.3530273.4018555-1.3481445.5673828.0112839.5078583 6.5527573 1.2096558 11.9699707-4.5893517 1.3117676-1.4716797 2.0349121-2.8027344 2.4719238-3.8334961.3127289-.6942139.6385498-1.8021011.6560059-2.2963867.0769043-1.0346679-.1989746-1.1254882-.5090332-1.2011718z"/><path d="m128.5365601 64.4034119c-.6860352.6943359-1.7895508 2.5488281-1.3347168 2.9980469.4545898.4492188 2.2954102-.6767578 2.9814453-1.3710938 1.251709-1.2666016.9094238-1.6577148.4545898-2.1069298-.4545898-.4492187-.8493652-.7866211-2.1013183.4799767z"/><path d="m47.5026207 44.5855446.1894531-.0327148.1411133-.1757813c.3826561-.475647.3325996-1.1737671-.0754395-1.6079102-.3611183-.3840332-.9391403-.4433708-1.3305664-.1987305-.1921387-.0891533-.825489.5555992-.831543.7958984.2587891.9003907 1.128418 1.354004 1.9069825 1.2192384zm-.9418945-1.2036133c-.0400391-.0102539-.0883789-.0336914-.1376953-.0742188-.0043945-.0048828-.0024414-.0117188-.005127-.0170898.0899658.0493164.1804199.0874023.2680664.1137695.060791.0205078.1408691.0390625.1994629.0776367.0021973.0019531.0014648.0024414.0031738.0043945-.0317383-.0053711-.060791-.003418-.0932617-.0126953-.0788574-.0151366-.2019043-.0874023-.2346191-.0917968z"/><path d="m56.6889 43.0699196c0-.3198242-.0400391-.5786133-1.9528809-.5786133-1.0478516 0-3.2971191.2587891-3.2971191.5786133 0 .3193359 2.2492676.5786133 3.2971191.5786133 1.9128418 0 1.9528809-.2592774 1.9528809-.5786133z"/><path d="m48.1027184 54.9869118c1.3151855-.4306641 2.2436523-.2470703 2.28125-.4306641.0527344-.1132813-.8557129-.6494141-2.4755859-.4492188-3.5772324.4903641-6.1819458 3.9549828-4.9943848 7.8076172 1.2984543 4.1145592 5.7090759 5.9252739 9.4248047 3.767086 2.6912003-1.5449371 3.9851151-4.4934998 3.0063477-7.4912071-.9283867-2.7440948-3.2126236-4.0473938-4.2575684-3.8813477-.2714844.0458984-.3276367.1875-.3769531.3393555-.1582336.4896545.1803627.6201057 1.0056152 1.4311523 2.3898811 2.5468597 2.395195 5.9080429-.5270996 7.5932617-1.1831055.704586-3.1262207 1.0541954-4.671875-.0776367-1.5625916-1.0596504-2.5182571-3.2896194-1.9519043-5.1635742.5344238-1.8603515 2.2595214-3.0561523 3.5373535-3.4448241z"/><path d="m37.6451988 80.9024353c.0381165.8671036 22.9974022.8255234 25.130127-.578125.119873.1772461.255127.2143555.3981934.2260742.1591797.0126953.3115234.0112305.4602051-.2338867.1496582-.2441406.3198242-.7402344.3078613-1.7192383-.0874023-2.7969284-1.5644646-5.4407959-3.5800781-7.2949219-6.411026-5.8779984-17.7002602-3.5635223-23.2514648 5.5151367-.8740234 1.4169922-1.2207031 2.3896484-1.09375 2.4633789.1479492.0878906.7563477-.7241211 1.8188477-1.9287109 1.0529785-1.2055664 2.5910645-2.8027344 4.5612793-4.1469727 7.3721161-5.1393967 17.6418304-3.6455688 20.008667 5.9458008-3.3370096-.9413757-24.7976.8935853-24.7598879 1.7514649z"/></g></g></g></svg>