<svg id="Layer_1" enable-background="new 0 0 135 135" height="512" viewBox="0 0 135 135" width="512" xmlns="http://www.w3.org/2000/svg"><g id="Happy_Mail"><g><g><g><path d="m51.6553192 55.5652847c-1.7661705 6.2036972-.0161133 13.602684 5.1737747 17.4328613 2.1919708 1.617691 4.8222313 2.5263214 7.4536438 3.2315292 3.4806519.9328003 7.0939102 1.5535965 10.6832275 1.2344437 6.5352325-.5810928 12.7200623-4.4989777 15.8995819-10.2381058 3.1795197-5.7391129 3.1948166-13.1463127-.0974655-18.8214912-10.1447295-17.487339-34.0650443-10.5693588-39.1127624 7.1607628z" fill="#ffcb05"/></g></g><g><path d="m126.8463974 55.3262863c-.3883057-3.3144531-.6845703-3.4350586-1.0036621-3.4189453-.2571411.0131836-.4898071.1140137-.5861206 1.9013672-1.3296661-.4065056-13.2043686 8.9959526-14.274292 9.8405762.5715256-3.0813789 1.0654755-17.2757721 1.1879883-20.5368652 3.4020004 3.5594788 12.2935562 10.3183594 12.7582397 9.737793.5284424-.6602287-9.801178-10.7157478-12.673645-12.0195313.1843796-5.0531693 1.3626404-8.5047798.1937866-11.8994141-.9840546-3.0633411-4.2924271-4.510685-7.4470215-4.996582-1.5532227-.2373047-3.1468506-.2783203-4.7614746-.2109375-2.0960083.0788574-4.2512817.3432617-6.4543457.6318359-2.0711899-2.4931412-9.0174103-9.4296236-14.4916992-13.9775391-4.7692871-3.9741206-7.4118652-5.7709956-8.8209229-6.5664058-1.4224854-.8022461-1.6489258-.605957-1.8359375-.3481445-.1369019.1889648-.230957.3867188.1700439.9121094-1.2753906.6809082-3.5757446 2.154541-6.1364784 3.9628901-3.7818604 2.6586914-8.1245117 6.0224609-10.8054199 8.2539063-6.2139893 5.2070313-8.3816528 7.3603516-9.0354614 8.357666-1.8303833-.0109863-3.6630249.0424805-5.4985962.2766113-3.6292114.505024-5.9275551 1.3755093-6.8157959 4.6665039-.3577881 1.3793945-.4006348 2.730957-.3612061 4.0258789.0250854.7495117.0852661 1.4814453.15802 2.2041016-.1766357.0654297-.3929443.1738281-.6764526.3540039-1.0389957.6405296-9.4751835 7.6026154-13.1159668 11.3344727-2.2935791 2.3232422-3.8568115 4.4760742-3.6230469 4.6835938.2424316.21875 2.1975098-1.503418 4.7174072-3.4663086 3.7059441-2.9244614 9.8984203-7.3980522 12.9098511-11.0727539.293457 2.3349609.6834106 4.5283203.5825806 6.6118164-.067091 3.6372757-.4130116 19.1795845-.2320557 22.3037109-4.6173248-3.6513519-13.9273605-11.2340927-16.7661133-13.1386719-.0422564-.1884804-.0821285-.2739449-.1459351-.0942383-.8074484-.5236893-.7508659-.3359642-.0829468.3676758-1.3568535 7.6855583-.3233833 34.8395615-.0458984 42.6308594.5534334 14.6331024.5064316 21.4359207.8174438 24.0678711-1.09375.9665527-1.0223999 1.2045898-.8810425 1.4174805.1271973.1914063.2977295.3337402 1.2600708-.0966797.0714722.0588379.1464233.0698242.2233276.0722656.1506348.0041504.295166-.0246582.4351196-.3933105 4.3972778-2.2808685 17.7685051-11.4129257 35.168396-23.0983887 4.7106934-3.145752 8.7659302-5.840332 10.468811-7.1323242 2.1285477 1.28228 7.7395439 4.5935135 10.0880775 5.3703613-.4777527.5051727-.2554016.4500046.3482056.0996094.44104.0983887.5448608-.0124512.6212769-.1472168.041748-.0737305.0718384-.1516113.0423584-.2602539 2.4773026-1.5846558 6.4856796-4.5537186 8.8304443-6.3168945 1.0718994.944519 41.7322922 29.8062592 47.4989548 31.3818359.0020142.017334.0037842.0378418.0057983.0541992-6.2987213-.7840271-29.0121765 2.7323914-104.7489014 1.2426758-4.9139404-.1196289-7.9589844-.1459961-7.96875.0166016-.0081024.1354752 2.7827492.4832077 7.923584.8833008 48.8194466 3.7167511 105.7245026.2558441 105.5750732-1.7529297-.0099487-.1347656-.0631104-.2607422-.5209961-.3491211.0021362-.0112305.0043335-.0266113.0065308-.0380859.2886963.0317383.3897095-.064209.4639282-.1845703.1026611-.166748.15802-.3491211-.3201904-.8364258 1.8331913-15.9818651-1.0502774-54.4687883-2.3249432-65.3110353zm-63.1734657-45.6933594c2.4000282-2.0454097 4.4992104-3.8171382 5.5222206-4.8122554.0889282.0935059.1790161.1877441.2906494.2966309 1.1647949 1.1357422 3.5964355 3.0981441 8.3233643 7.0366206 8.5083542 7.0541306 12.6807632 10.568243 15.0479736 12.3215332-1.7867432.2360649-3.8315964.5195274-5.6083984.588623-.6352844.019371-31.748661.4426632-33.4875526.3701172-3.1147575-.1378727-5.3305511-.3446064-8.6577759-.4448242 3.6010055-2.5603446 12.5724372-10.28199 18.569519-15.3564453zm-13.6861573 87.5874024c-6.5853271 3.8681641-14.2438965 8.7543945-19.0336914 11.965332-8.2444458 5.5366211-12.6101074 8.6091309-14.8874512 10.3676758 1.1448441-10.9756165-.6569099-37.0065613-1.2321777-49.6303711-.2678299-5.6671677-.49512-14.0293732-.6422729-15.5974121 2.4336624 2.4579697 9.2493076 8.4978943 12.0808716 10.9699707 13.5396881 11.8887253 24.7930107 19.9553833 34.5674438 25.8847656-2.0308838.9802246-6.1506958 3.2607422-10.8527222 6.0400391zm22.1639443-1.0847168c-2.2830124-2.3569641-15.0992546-8.5764999-41.0956459-29.1213379.4028091-2.824852 1.1973267-19.5346909 1.3450317-22.3999023.1704102-2.3178711-.217041-4.7036133-.4484863-7.0961914-.2277832-2.3779297-.4708252-4.9213867.1416016-7.1889648.7353554-2.5401192 2.6069183-2.9980774 5.4592285-3.3295898 5.9544182-.6597443 13.9714279.553545 18.2077637.5200195 33.1318855-.0977173 31.6091652-.0542145 34.6814003-.4013672 3.585083-.4345703 6.8409424-.9726563 9.8918457-1.0932617 3.6035919-.1551304 8.7926102.2697525 10.0072021 3.6694336.9553833 2.6864853-.0766907 6.5387115-.1713867 9.7954102-.0595856 2.7531891-.5516281 22.6799393.0766602 24.7431641-9.9067765 7.8580091-36.5536957 30.4928663-38.0952149 31.9025877zm9.3745727-6.1181641c9.4804535-7.1443329 42.37957-33.6804161 43.6983032-35.3034668-.2037506 8.7980423 1.5444565 22.5763168 3.4349899 65.4592285-1.6725234-1.405075-38.7373275-26.5556716-47.1332931-30.1557617z"/><path d="m95.4192734 60.2501144c.1152344-3.0561523-.4012451-5.8999023-1.2440186-8.4077148-4.6495361-13.8097801-19.2651215-19.626915-27.112915-14.8178711-.6797333.3722992-1.940918 1.4021378-2.215271 2.1313477-9.2673378 2.8483238-16.7027855 12.7144279-15.4563637 23.3120117 1.2027473 10.1642303 10.4128647 19.2607956 20.7794228 20.0756836 12.2705841.9973144 24.7678375-9.1167298 25.2491455-22.2934571zm-25.0816651 20.1669922c-9.3666382-.612114-18.0173874-8.8317261-19.3245888-18.1660156-1.4993668-10.7511559 6.7333679-20.9847565 16.3247108-23.1884766.8284912-.2631836 1.5045166-.3007813 1.9511719-.4140625.8861008-.1796227.9498291-.2660751-.0230713-.2353516-.7551956.0593262-.8493729-.0520172-2.694519.3056641.0974884-.063343.8280334-.4460335 1.09552-.550293.8410645-.3798828 2.0081787-.7739258 3.6105957-.9458008 7.7023468-.8424454 17.3174744 4.9403725 20.7459717 15.3354492.75354 2.2871094 1.2060547 4.862793 1.0947266 7.6015625-.4738998 11.7690126-11.6894455 21.0244065-22.7805176 20.2573243z"/><path d="m63.5684395 49.6944504c-2.5106812-3.2161674-7.9974747-.7163048-7.4958496 3.2211914.3188438 2.8142052 3.1618004 4.1261444 3.5327148 3.1967773 2.2318916.6272316 4.6554146-.7000237 4.9306679-3.1586914.1335449-1.2348633-.269165-2.3940429-.9675331-3.2592773zm-3.934082 4.7011719c-1.1048813-.3569221-1.4682961-1.5769577-1.1749268-2.6860352.6370049-1.115551 2.364418-1.6811218 3.3684082-.5615234.3566895.3930664.6125488 1.0214844.5838623 1.6142578-.0608292 1.4124489-1.6534462 2.017971-2.7773437 1.6333008z"/><path d="m78.6991806 45.1807785c-2.6799316 1.1230469-3.2644043 3.6567383-3.0250244 5.0869141.3224182 2.128334 1.7379303 3.3032112 2.3803711 3.3061523.213501.0004883.3144531-.1137695.4151611-.237793.2231445-.2597656.2786865-.4833984-.144043-1.3139648-.4921951-1.1632309-.7988052-2.2862473-.2032471-3.4013672 1.3676605-2.5794563 4.6393585-1.1468124 4.1279297.8325195-.1293945.5209961-.512085 1.0219727-.958374 1.2636719-.9157028.5061646-1.9057007-.0721283-2.3525391-.9414063-.4008789-.7504883-.1866455-1.3632813-.3466797-1.4370117-.1592331-.0871429-.7344971.6156616-.5091553 1.71875.1177979.5805664.454834 1.2529297 1.1184082 1.7734375 1.4939575 1.2418976 4.0078125.4420547 4.8654785-1.7587891 1.2060625-3.1301612-2.3647688-6.1103782-5.368286-4.8911132z"/><path d="m78.4799423 65.7662277c-.703125-.4697876-1.0818863.2763138-2.6134033 1.171875-3.1682816 1.8075943-6.3410339 1.3575134-8.6461182-.7177734-1.6619873-1.4208984-2.2109375-3.2949219-2.5307617-3.2329102-.1461182.0229492-.2398682.5424805-.0875244 1.3725586.1563721.8208008.5914307 1.9458008 1.4196777 2.9750977 2.6357956 3.3891068 7.4951172 4.0512314 11.0557861 1.3583984.8457031-.6533203 1.2685547-1.2602539 1.4951172-1.6884766.4334717-.8779296.1628419-1.0698242-.0927734-1.2387695z"/><path d="m110.3354111 19.6685715c.3209229-.0458984.4702148-.9941406.684082-2.0893555.201416-1.1015625.4954834-2.3491211.6724854-3.1411133.3206787-1.4458008.5153809-2.1821289.4581299-2.6313477-.0410156-.4428711-.2974854-.5800781-.5904541-.7080078-.2928467-.1274414-.5622559-.2338867-.9250488.0898438-.3438721.3266602-.8343506 1.090332-1.2061768 2.7646484-.2058105.9155273-.2659912 2.4082031-.0457764 3.6245117.2067871 1.2226563.642334 2.1376954.9527588 2.0908204z"/><path d="m123.7204208 18.4449387c4.0163574-3.565918 3.7563477-4.027832 3.3319092-4.5058594-.4243164-.4780273-.8522949-.7910156-4.8687744 2.7749023-2.2008057 1.9536133-6.579834 6.5341797-6.1555176 7.012207.4244385.4780274 5.4914551-3.3271484 7.6923828-5.2812499z"/><path d="m131.2201691 28.6246262c-.4006348-.2451172-1.2449951-.5019531-2.9229736-.4658203-.9183273.0180664-2.3536301.2861328-3.4815598.7358398-1.1348877.4399414-1.9490967 1.0180664-1.8504639 1.3173828.0999756.3076172 1.0556641.2954102 2.1728516.2875977 1.105957-.0092773 2.4012451-.0200195 3.2236252-.0268555 1.4882813-.0322266 2.2536621-.0483398 2.6715088-.222168.4162598-.159668.4763184-.4438477.5189209-.7607422.0427246-.3164062.0699462-.6049804-.3319092-.8652343z"/><path d="m11.7410469 123.6973801c-.3613281-.8071289-.8378906-1.8461914-1.1973877-3.012207-1.4671869-4.6496735-.8255405-7.9671173-1.2979736-8.0712891-.2873535-.0786133-1.0897217 1.9003906-1.1552734 4.5375977-.1136503 4.2125473 1.3895168 8.2793503 3.8597412 11.0966873.471036.5578461 1.2445097 1.2697449 1.6385498 1.4960938.8226318.5063477 1.0354004.3085938 1.2510986.0732422.8143787-.8885804-1.2408047-2.2080995-3.0987549-6.1201249z"/><path d="m5.2233472 124.0259933c-.1263428-1.3212891.0478516-2.4677734-.2573242-2.5932617-.2769775-.1264648-1.0556641.9072266-1.3751221 2.4741211-.7055037 3.4179459.9575901 6.7679825 2.6911621 7.7343826.5488281.2597656.7532959.0537109.9732666-.1777344.2199707-.230957.3953857-.4663086.2193604-.9433594-.1864214-.6699523-2.0107966-3.0667571-2.2513428-6.4941482z"/></g></g></g></svg>