<svg id="Layer_1" enable-background="new 0 0 135 135" height="512" viewBox="0 0 135 135" width="512" xmlns="http://www.w3.org/2000/svg"><g id="Mike"><g><g><g><g><g><path d="m50.8043518 62.6988716c4.1157799-.4001541 8.1365166-1.452343 12.1365891-2.5007591.195385-.0512123.4013405-.1084595.5409775-.2543983.1889763-.1975136.2046509-.4987602.2094116-.7720757.0602608-3.4600029.1205177-6.9200058.1807785-10.3800087-5.6056252-1.2408638-11.4244385-.2329903-17.1501007.1907387-5.1142387.378479-10.2633324.2846489-15.3603878-.2799072.5879402 3.4145241.3228149 9.8302689 3.1853428 12.0739403 3.5487518 2.781536 12.0723342 2.3293571 16.257389 1.92247z" fill="#ffcb05"/></g></g><g><g><path d="m44.025486 90.7779388c.2685394 8.6006775.537075 17.201355.8056145 25.8020325.0186691.5979538.0488586 1.2327728.3875046 1.7259445.4873924.7097931 1.475296.9000702 2.3245163.757988 1.8791275-.3143921 3.3338661-1.9220581 4.0115662-3.7026978s.7174988-3.7306442.7490196-5.6356277c.1381569-8.3492584.273632-16.7425079-.9408531-25.0041122-.1973572-1.3425293-.5075264-2.8127823-1.5904427-3.6300583-4.5888253-3.4631882-5.8086281 7.7099533-5.7469254 9.686531z" fill="#ffcb05"/></g></g></g><g><path d="m32.8235703 60.9495773c1.0089111.5546875 3.7336426 1.5742188 7.1072998 2.2397461 7.2832794 1.4441833 16.0219841 1.1306992 22.8605957-1.6120605-2.2379951 22.0538712-5.1755638 63.2098618-4.4708252 63.2717285.8181839.0718307 8.8113327-75.811676 6.666626-76-.4606934-.0405273-.885498.2355957-2.005127 10.878418-6.9436417 1.3087502-12.4665833 2.8728867-22.8066406 1.8435059-3.4960938-.3430176-6.4160156-.9921875-7.4110107-1.0349121-.3396454-2.3868065-1.3549004-9.3989754-1.9363995-11.7487793 2.0599232 1.4256592 33.4402313.4375954 33.439209-.4553223-.0010071-.882637-30.3550224-1.8038216-33.2675781-.5087891-1.8321095-2.3277893-4.4161453-5.1695404-6.1950684-10.5688477-3.6875172-11.1137085.6628494-24.1934385 15.5688457-31.2922353 2.5508537-.4483938 2.5513802-.4832382 5.2199707-.685791 3.3374214.0061598 1.6326828.0123348 3.9501953.15625 18.2712937 2.2759842 26.8581848 20.2128286 19.1619873 35.8359365-.3583984.6220703-.6439209 1.21875-.9698486 1.7199707-2.6670227 4.1077194-3.9335365 4.79916-3.4685059 5.3435059 1.0085678 1.1778526 11.5898361-8.2646294 9.1757813-23.2170391-2.5153198-16.0667-19.1611138-23.9520835-31.6773682-20.0170909.0838623-.1223145.0814209-.2248535.0516357-.3359375-.0388184-.1550293-.098877-.2958984-.479248-.3283691-.5567131-.0471668-1.671299.1479535-2.395752.3884277-4.8372421 1.3934593-10.3565598 5.3847332-13.9482403 11.5068369-4.0211067 6.9355659-4.4600563 14.6131096-1.7299805 21.479002 1.8617744 4.7172661 4.9783878 8.4884338 7.4370117 10.2277832-.0379639.0512695-.0595703.1040039-.0705566.1577148-.6118927-.7954597 6.1083927 72.4032135 6.3007793 73.8874512.4593506 3.6796875.7581787 3.8095703 1.0771484 3.7883301.3188477-.0209961.5975342-.1879883.5557861-3.9008789-.2442015-15.307724-3.4851339-45.0710678-5.7407224-61.0185547z"/><path d="m55.5129013 126.9298019c.9748535-.4943848 1.5900879-.8964844 1.9714355-1.2211914.7669678-.644043.6567383-.9133301.5029297-1.1933594-.1536865-.2802734-.3319092-.5131836-1.2592773-.2583008-2.916378.8277435-6.2311058 3.0673752-13.2867432 1.7980957-2.567749-.4401855-4.6804199-1.0227051-4.7979736-.6992188-.1652145.436554 4.5086441 2.8744736 8.6569824 3.2214432 2.8426934.2635652 5.707798-.3672789 8.2126465-1.6474685z"/><path d="m50.3876572 115.6299973c-.9006386 2.4288101-3.0061302 3.0142899-4.5576172.7644043-.6744385-.9396973-.9865723-2.2492676-1.1174316-3.5844727-.1619377-1.6783066-.9851875-59.3840675-1.9306641-4.1931152-.0109863 1.4089355-.0812988 2.8317871.0178223 4.3532715.6105881 8.0474625 7.4043007 8.9656525 9.6409912 3.4797363 2.1280212-5.2835159.4417648-23.067276-.1895752-28.730957-.1367188-1.0998535-.3422852-2.1516113-.6901855-3.1022949-1.6192856-4.5586853-6.290638-5.2017365-7.6763916-1.7336426-.2340088.6569824-.1942139 1.1542969-.1235352 1.4619141.1846924.6193848.3929443.5839844.5301514.5490723.1672363-.0388184.262207-.1379395.3706055-.5710449.0690918-.213623.154541-.5134277.3931885-.8874512 1.0023117-1.5052795 2.5216484-1.3166351 3.6138916.0158691.8123779.9262695 1.2790527 2.4543457 1.4628906 4.5073242.3108481 4.0690994 2.020439 23.1338958.2558593 27.6713867z"/><path d="m51.184166 22.7227726c-5.0259552-.3712273-8.6046486 2.4766312-9.2126465 5.9907227-.050415-.0668945-.1138916-.1057129-.1827393-.1352539-.1467285-.0629883-.293335-.1069336-.5620117.2038574-1.3447723 1.7571697-1.0066528 5.953146 2.0883789 8.6401348 4.513485 3.967762 13.0015717 3.4166031 16.4251709-1.546875 3.5792732-5.1443901-.4658775-12.5459805-8.5561523-13.152586z"/><path d="m47.5292587 14.3704767c.1689453-.2607422.3299561-.5354004-.3448486-1.152832-1.7392044-1.5253801-5.7999153-2.3224211-9.2086182-.5866699-1.1748047.5837402-2.2613525 1.4577637-3.048584 2.4091797-1.6252441 1.9165049-1.9206543 3.9455576-1.6269531 4.012208.4908676.1803951 2.4519234-4.5837116 8.2298584-5.0656748 3.5915032-.2797413 5.3243599 1.4301509 5.9991455.383789z"/><path d="m65.9604111 17.5386906c.2381592-.2124023.4509277-.4101563.1484375-1.0239258-1.1216888-2.0589943-5.1150208-3.74792-8.8741455-2.5358896-1.7386475.5551758-2.7601318 1.6276855-2.5811768 1.8686523.1815186.2792978 1.4035645-.1948242 2.9030762-.2636719 4.0816689-.2170315 6.6498947 1.8032484 7.4074707 2.100831.5129394.2302247.7583008.0664063.9963379-.145996z"/><path d="m114.6451035 52.0504074c.9205322-.1469727 1.9439697-.5402832 2.4846191-.7880859 2.0657959-.9013672 2.0081787-1.3410645 1.7747803-1.9624023-.213623-.5732422-.4331055-1.1462402-2.7507324-.1367188-.573616.2653427-3.5027771 2.094799-3.2885742 2.6931152.1064452.2980957.8696288.3430176 1.7799072.1940918z"/><path d="m121.9045029 55.6331711c-.1842041-.2612305-.3659668-.4873047-.7402344-.4836426-.8550415-.0126076-5.0041504 2.3287201-5.456665 2.8395996-.1450195-.3442383-.2998047-.7060547-.4732666-1.1022949-1.3149414-3.0014648-4.6113281-9.2351074-5.1967773-8.9785156-.0566406.0246582-.0783691.1247559-.0837402.2597656-.4394531-.1115723-1.0664063-.1955566-1.8618164-.1506348-1.6364746.0561523-3.9724121.7897949-5.847168 2.6289063-.9326172.9038086-1.7424316 2.0761719-2.1890869 3.4257813-.4044189 1.1738281-.5314941 2.4331055-.430542 3.6433105-1.3818741-.4263229-2.9085541-.2147751-4.2452393.3950195-5.1608887 2.3495026-5.1820145 8.4576111-2.9230957 13.6799316 1.8072433 4.2692566 5.4621353 8.9240341 4.9425049 13.6175003-.1102142.9954376-.4081955 1.9926071-.951416 2.9882126-2.3333511 4.1251373-6.8189011 2.2354889-10.7644043 1.3762207-1.8574219-.4174805-3.9832764-.5310059-6.0742188-.1455078-8.3657532 1.5035934-12.2494431 9.4864426-9.7421875 15.6210938 1.7431183 4.1421051 5.49189 6.1331558 5.3286133 11.5708008-.1298904 7.8376617-7.096077 15.5586166-19.0375977 14.1457596-5.1042175-.590271-8.4404259-2.5236969-8.5544434-2.2993164-.0916672.1681824 3.7004547 2.4021606 8.427002 3.1911621 12.3339081 2.0808868 20.6128006-6.0095596 20.9509277-15.0031815.3323746-6.08741-3.8251877-8.7659454-5.2272949-12.3674316-1.8896713-4.8453064 1.1535721-11.411087 8.2492676-12.6254883 1.7977295-.3093262 3.536377-.2138672 5.1960449.1635742 3.7057037.8116226 8.2264862 2.7210846 11.8632813-.682373 1.5301285-1.4754868 2.3940659-3.6385193 2.5908203-5.8156738.5622406-5.546608-3.32547-10.2588577-5.2404785-14.5847168-1.8853683-4.1609116-2.4140396-9.1379128 1.68396-11.359375 1.1255798-.6134033 2.4334869-.878746 3.7121582-.5698242.8240662 3.8878937 3.7735519 6.9320145 7.8839111 7.4443359 4.0019379.4581528 7.4768448-1.6729202 8.2883301-3.5185547.255127.1540527.4460449.0917969.6422119.0058594.5172119-.2268066.9053955-.5109863-.6644287-4.3486328.3371582.1079102.8601074.1508789 1.4528809.107666 2.3774033-.1504669 4.3022385-1.4315071 4.6696777-2.1977539.16687-.3693849.0068358-.6103516-.1774903-.8715821zm-13.9178467 8.5742187c-3.4123383-.529705-5.673996-3.2118683-6.2106934-6.3027344-.4389648-2.1435547.1949463-4.5144043 1.6573486-6.1328125 1.4123535-1.6630859 3.3449707-2.5559082 4.7810059-2.8618164.7349854-.1779785 1.3459473-.2304688 1.7752686-.2641602.4033356 2.5241814 3.4597855 10.7031784 5.260498 13.4604492-.870552.4148904-3.4716873 2.6292268-7.2634277 2.1010743z"/><path d="m16.101038 18.1204777c-1.4074717-.5576172-2.2044687-.6000977-2.6257334-.5012207-.427002.1108398-.5026855.3903809-.5756836.701416-.2421322 1.035965.1959429 1.2022381 5.0600595 2.9313965.9516602.3283691 1.7755127.6010742 1.9719238.3449707.425089-.5501156-1.8925876-2.7131539-3.8305663-3.4765625z"/><path d="m14.8588495 9.7896662c-.5036621.0776367-.5814209.3569336-.6594238.6665039-.078125.3098145-.1228027.5981445.1973877.9038086.4852543.5175285 2.7072687 1.4001017 4.8338633 3.2487793.8548584.7150879 1.5134277 1.4321299 1.807373 1.2902832.2814941-.1303711.1179199-1.1811523-.5334473-2.3181152-1.3555851-2.4671898-4.1866665-3.9452334-5.6457529-3.7912598z"/><path d="m26.2536259 11.2923517c.5769043-.2756348-.6619873-4.0725098-1.4571533-5.7375488-1.4511719-3.0390623-1.9490967-2.8793943-2.526001-2.6037595-.5767822.2753906-1.0140381.5622559.4371338 3.601074.795166 1.6652832 2.9693603 5.0156249 3.5460205 4.7402343z"/><path d="m28.403162 76.9852219c-.317627.0354004.5053711 9.7658691 1.0087891 14.2868652.9188232 8.2502441 1.1955566 8.394043 1.5131836 8.3588867.317749-.0354004.5560303-.2365723-.362915-8.4870605-.503418-4.520752-1.8413087-14.1940918-2.1590577-14.1586914z"/><path d="m24.6210575 84.2913742c-.3151855.0529785.0028076 3.5227051.2700195 5.1196289.487793 2.9140625.753418 2.932373 1.0687256 2.8796387.3151855-.0527344.5605469-.1564941.072876-3.0708008-.267334-1.5969238-1.0963135-4.9812012-1.4116211-4.9284668z"/></g></g><g><g><g><path d="m47.2650108 105.9652405c-.3192139.0163574-.5829468-.0666504-.8214722-4.6816406-.1306763-2.5288086-.1524048-7.9692383.166748-7.9858398.3192139-.0163574.8584595 5.3972168.9891357 7.9260254.2385255 4.6149901-.0152586 4.7248534-.3344115 4.741455z" fill="#fff"/></g></g></g><g><g><g><path d="m57.9045372 57.9664612c-.6305542.1052246-1.1467285.1599121-1.3896484-1.2973633-.1330566-.798584.0924683-2.5974121.7229614-2.7026367.6304932-.1049805 1.4273071 1.5234375 1.5603638 2.3220215.2428588 1.4572754-.2631836 1.572998-.8936768 1.6779785z" fill="#fff"/></g></g></g></g></g></svg>