<svg id="Layer_1" enable-background="new 0 0 135 135" height="512" viewBox="0 0 135 135" width="512" xmlns="http://www.w3.org/2000/svg"><g id="Folder"><g><g><g><g><path d="m24.7544842 65.6519547c30.7873631-2.8139191 61.7685394-3.9316139 92.7093811-3.3446274-1.6392593 1.4419746-2.0735474 3.6233063-2.4253693 5.6551819-2.5170593 14.5369568-5.0341187 29.0739059-7.5511856 43.6108627-9.4824829 1.0546494-18.9649658 2.1092987-28.4474564 3.1639481-5.1934738.5776291-10.4009705 1.1561127-15.6343117 1.1928177-4.8555107.0340576-9.6975937-.3985062-14.538868-.7324905-6.9544334-.4797516-13.9264183-.756691-20.9010391-.8302917-1.7774124-.0187531-8.5207958.923027-9.6690636-.3491898-1.2477264-1.3824158.6785984-7.285347.9262753-9.0459061 1.8438817-13.1067658 3.6877595-26.2135316 5.5316373-39.3203049z" fill="#ffcb05"/></g></g><g><g><path d="m63.1088753 26.5001221c2.1675682 6.2487221 3.4272118 32.7970695-9.428196 26.4032745-7.890873-3.9246216-4.0749969-20.0609131-2.1260262-26.6338825.728508-2.4569244 2.0140991-5.1948414 4.5143089-5.7571125 1.650238-.3711224 3.4028969.3880615 4.5903511 1.5926247 1.1874543 1.2045612 1.8952218 2.7970275 2.4495622 4.3950958z" fill="#fff"/></g></g><g><g><path d="m89.6183395 26.878828c2.1675644 6.248724 3.4272079 32.7970657-9.4281998 26.4032764-7.8908691-3.9246216-4.0749969-20.0609131-2.1260223-26.6338844.728508-2.4569225 2.0140991-5.1948395 4.5143051-5.7571125 1.650238-.3711224 3.4029007.3880615 4.5903549 1.5926247s1.895218 2.7970276 2.4495621 4.3950958z" fill="#fff"/></g></g><g><path d="m115.2108078 57.2992592c-.6008911-.012207-1.2797852-.0214844-2.0385742-.0270996 1.2899551-2.7498741 1.7006531-9.935421 1.1035767-12.3513184.6574097-.1499023.7076416-.3195801.7076416-.4992676 0-.6101074-.5200195-1.0900879-23.4899902-1.1101074.3800049-4.2600098.0299683-8.0698242-.3699951-10.9299316-.4700317-3.4399395-1.3200073-5.4999981-1.5-5.4999981.1499634-.0600586.2799683-.1501465.2299805-.6799316-.0899658-.5300293-.210022-1.5900879-1.3300171-3.380127-.5700073-.8601074-1.5099487-1.9499512-3.1300049-2.619873-.7999878-.3200684-1.8099976-.5300293-2.9199829-.3200684-1.0999756.1799316-2.2099609.829834-3.039978 1.7399902-1.773056 1.9416924-2.4462128 4.6323013-3.1400146 7.1699219-1.2067795 4.5337048-2.2100677 9.9732952-2 14.6201153-3.0499878.0300293-6.2299805.0800781-9.3699951.1398926.4699707-4.5100098.1099854-8.5500488-.2999878-11.5397949-.4800415-3.4501934-1.3300133-5.510252-1.4999962-5.510252.1400146-.0598145.2699585-.1499023.2199707-.6799316-.9797821-5.7723351-6.8867912-8.4541607-10.4199829-4.579834-1.773098 1.9417343-2.4460258 4.6311588-3.1400146 7.1699219-1.2758293 4.7930851-2.3512154 10.6935482-1.9400024 15.5600567-7.3774796.2480927-7.8760529.456131-8.0386963.4699707.8568687-.6349907-.5917854-4.1280251-2.0133667-12.9333477-.2248535-1.3361816-.4078369-2.5249023-.5877075-3.2788086.3721313-.1416016.4126587-.3183594.4215088-.5078125.0150146-.3193359-.0370483-.6113281-1.6901855-.8945313-7.7457752-1.2254696-23.0948143-.5686855-31.6900635 1.5881348-.0281372-.1030273-.0544434-.1618652-.0783081-.1608887-.0250244.0012207-.0467529.0727539-.0658569.1972656-.0891113.0229492-.1942751.0476074-.2755129.0698242l-.696106.1894531.5339966.3530273c.1384277.0917969.2605591.1687012.3750002.2387695-.0420535 1.0947266-.0404055 2.9999981.0040894 5.4941387.0700684 4.0361328.2683105 9.6069336.5570679 15.7568359 1.6895552 35.9188271 5.8685026 68.1119537 7.6762085 70.3122559-.0439453.0148926-.0737305.0297852-.0736694.0446777.0006952.2568741 9.2379808.6333466 23.6106567.4277344 28.8408241-.3315659 64.7088318-3.3558044 73.3674927-5.3588867.0610352.5634766.2238159.628418.4022827.6582031.227356.0375977.449585.0085449.8071289-1.043457.2350464-.1308594.2504272-.2438965.2377319-.3579102-.0067749-.0610352-.0210571-.1196289-.0712891-.1733398 2.1287003-7.3054504 8.6367722-50.2023849 8.8786621-56.5966835.5919189-.1496582.637207-.3000488.6339722-.4570313-.006657-.319332-.1987957-.6044883-4.8576702-.709957zm-35.6473389-31.6276837c.3999634-1.0600586.8800049-1.9602051 1.4500122-2.6201172 1.7863617-2.0839119 4.4374161-1.3748207 6.1999512.7399902 1.5286636 1.9392738 1.8055878 3.2883949 2.4000244 3.0900879-.1424484.0509186 2.1464767 11.5003948-.4700317 20.4699688-.5156097-7.2232742-8.6455917-10.0994377-12.5499878-6.3701172.2101822-5.3894271 2.1045761-13.0380096 2.9700317-15.3098125zm-27.590023 3.3098145c.5460587-2.0475807 1.1455269-4.7069397 2.5300293-6.3098145 1.7827454-2.08008 4.4328308-1.3811016 6.1999512.7399902 1.5462723 1.9612637 1.7952499 3.2821102 2.4100342 3.0898438-.2202988.0734921 1.2622948 5.7373333.5899658 13.959959-2.5375595-4.0716171-8.7900848-2.702034-10.6899414 1.3200684-1.5334053.7051201-2.7054672 2.6270218-2.4300537 5.0600586-1.3514329-5.0471001.1251296-12.8187408 1.3900146-17.8601055zm57.1967735 85.8420429c-3.7310638-.0689011-14.2227249 1.0820084-35.1569214 2.6120605-36.4390526 2.6779861-55.7034569 2.7133179-61.1671104 3.3339844.6693859-1.7427139-2.0569239-14.2213135-6.6134644-70.3222656-.5039673-6.128418-.9602661-11.6782227-1.2907104-15.6972656-.2005005-2.3132324-.3731079-4.1140118-.5145874-5.2280254.1749878.0856934.2873535.1154785.3217163.0761719.0441895-.0507813-.0504761-.2207031-.2388916-.4697266 4.5401134-.1035023 6.9977608-.5521793 20.1064453-.5854492 7.5643711.0058308 10.0930424.090456 11.8153706-.140625-.8764839 4.6750736.3370819 12.6198292 2.0621948 15.5878887.4533691.7397461.7375488.6782227 1.0415039.5795898.0067749-.0024414.0131836-.0048828.0198975-.0073242.2112427.1999512 3.5169678.3793945 8.4077759.5390625 0 .4303894.3817253 2.507061 1.0599976 4.1298828 1.3033791 3.0113678 3.4727669 4.7894325 6.7400513 5.4902344 2.0024605 1.0837326 4.2552605.8047523 5.7799683-.5 2.2474403-1.8389397 3.1712227-5.9409142 3.2800255-8.7700195 3.2199707.0498047 6.4699707.0898438 9.5899658.1098633-.056366 1.1548233.2565155 2.2918701.8099976 3.2199707.2853241.8874893.716507 1.7795868 1.2600098 2.5600586v.0200195c.9346924 2.6864243 3.7692413 4.2368355 6.4400024 3.8400879 2.7919388.3607597 5.4083176-.9463539 7.039978-4.880127.7317963-1.7586823 1.176506-3.9736786 1.25-4.7099609 14.4561157-.0500488 20.1168213-.2697754 22.3380737-.5598145-.5754013 1.6465683-2.3449631 10.4902534-2.0683594 12.2150879-23.5681992-.0032425-87.3786621 3.2351952-89.2687378 3.6794434-.0874023-.2924805-.2191772-.3352051-.3602905-.3544922-2.0738735-.2813644-8.9894657 59.5325813-8.1189566 59.651371.8632679.1171265 9.3619089-54.891571 8.5141592-59.1525917 6.4492855 1.1028976 91.0278549-1.498745 96.7659912-2.536377-1.8865529 6.5540772-9.4895955 48.5656967-9.8450948 56.2692871z"/><path d="m45.727047 22.0414486c.1618652-.0268555.270813-.355957.3858643-.8173828.6243362-1.9451103 1.1106758-2.9444904 3.19104-4.5498047 1.931942-1.3639164 3.3152809-.9524097 3.406189-2.1196299.0247192-.3178711.0488892-.6088867-.5860596-.8320313-.6828575-.274807-2.4570503-.1396809-4.1572876 1.0620117-2.425663 1.8203459-3.2206802 4.5160913-2.7548218 6.449708.1645508.5424806.3630371.8334962.5150757.807129z"/><path d="m99.1237717 18.9672298c.6700897 1.1337738.7464371 1.6443214 1.526001 1.5488281.3096924-.0371094.6210938-.0786133.6950684-.8022461.1408463-1.7781658-1.5409393-4.7067413-4.4745483-5.630372-.9850464-.3217773-2.0799561-.4042969-3.0339355-.2636719-1.9522095.2641602-3.1245728 1.3632813-2.9459229 1.6098633.2962569.5248661 5.119377-1.6156578 8.2333373 3.5375986z"/><path d="m120.8878098 28.4506283c-.3129272-.0649414-.6004639-.1044922-.8845215.2167969-.2946167.3188477-.55896.9995117-1.0187988 2.3408203-.2512817.7353516-.5935059 1.9135723-.8887939 2.9374981-.2866211 1.0244141-.5097046 1.9057617-.2375488 2.0791016.2662964.1704102.9967651-.4267578 1.6946411-1.3330078.7033081-.8994141 1.3401489-2.1079102 1.6176758-2.9223614.5094604-1.4863281.538269-2.3095703.4301147-2.7446289-.1189576-.4389649-.3999024-.5092774-.7127686-.5742188z"/><path d="m129.8052979 38.6801186c2.2075195-1.2416992 1.9996338-1.7192383 1.6862793-2.2763672-.3134155-.5571289-.6135864-.9829102-2.821167.2587891-1.2096024.6806641-3.5515213 2.5922852-3.2381668 3.1494141.3134155.5571288 3.1633987-.4516603 4.3730545-1.131836z"/><path d="m131.8674316 47.3134193c-.0249023-.6386719-.1027832-1.1542969-2.8634033-1.046875-1.5127029.059082-4.7388382.7036133-4.7139969 1.3422852.0249023.6386719 3.2914429 1.0297852 4.8041458.9711914 2.7606202-.1079102 2.7981568-.6279297 2.7732544-1.2666016z"/><path d="m80.5519333 74.5092239c-19.7163124.3562546-29.2758293-.1969147-29.3143272.3085938-.0244141.3110352 4.9512939.996582 11.1275635 1.4472656 9.0107079.6834106 24.4352531.9494781 33.3198204-.3623047 2.2055054-.3505859 2.2732544-.6450195 2.251709-.9638672-.0698701-1.0340042-3.3251191-.6757202-17.3847657-.4296875z"/><path d="m78.4442673 93.4804153c-8.3002319.2114258-24.9489708 1.0356445-28.836483 1.6660156.3554039-1.152153.4007263-4.2210388.5015259-7.6464844.2151031-9.7115173.3984032-13.985466-.0405884-14.0429688-.6469574-.0867844-2.1053696 8.1458893-2.2730713 13.9697266-.1208496 4.1088867.0717773 6.2070313.289978 7.2700195.2313843 1.0639648.5215454 1.0976563.8410645 1.0898438.1744995-.0043945.3389282-.027832.4835205-.215332 3.4762573.4584961 20.6312218.4387207 29.0929527.2236328 17.2263184-.4384766 17.5733643-.9658203 17.5571289-1.6044922-.0162964-.6391601-.3897095-1.1479491-17.6160278-.7099609z"/><path d="m96.4313889 75.799263c-.3040161-.0693359-.9779053 1.5717773-1.4098511 3.7158203-.9844513 4.6709442-.3844223 9.6323624.5609131 11.6425781.3671265.7211914.6549072.6835938.9667969.6137695.9699783-.2172012.6437988-1.0691757.3086548-5.9921875-.4706879-6.7652282.0789642-9.8693923-.4265137-9.9799804z"/><path d="m60.7733727 89.9525833c.0209961.0288086.019043.0952148.0592651.0932617.2187996-.0114365.6637039-.0360031.8748779-.0898438 1.573349-.2392044 2.8661232-2.1843262 3.603817-3.0585938.6735229-.8085938 1.7677002-1.4780273 2.3115234-1.2265625.7515182.1761551 1.322876 1.9879456 3.4436035 2.0512695 2.8495255.0424576 4.3366089-2.4751358 6.1576538-2.409668 2.2141647.0281677 4.08358 2.3951874 6.5546265 3.2602539 3.5482559 1.2362595 5.8683167-1.4244003 5.4171143-2.8125-.1160278-.3046875-.2703247-.3076172-.4291992-.3100586-.5503616-.0067673-.485199.4519272-1.3069458.9931641-3.2998352 2.0697632-5.8083649-3.41082-10.2307739-3.4458008-3.3108597-.0485229-5.1805954 3.9108353-7.1201172 2.1469727-.5-.4515762-1.048233-1.1139984-2.0054321-1.3320313-1.6091385-.3901443-3.079277.737442-4.0723877 2.0649414-.3745422.5254822-1.7854233 2.9575882-2.5903282 2.8417969-.2134438-.4200821-.2526436-.4909592-.3476563-.7177734-1.5881462-3.6535645-1.660038-2.7396011-.6470947 1.0649414.0752563.3286134.2089843.5747072.3274536.8862306z"/></g></g><g><g><g><path d="m82.919014 48.6521797c-.657959.1123047-1.0758667.1289063-1.4862671-1.0227051-.1245728-.3164063-.2471924-.8491211-.3497925-1.3598633-.0941772-.5087891-.1674805-1.0053711.065918-1.2265625.2290649-.2185059.7640991-.0834961 1.2805786.2958984.5185547.3703613.9782715.9838867 1.1502686 1.4250488.3174438.8063965.2610474 1.2827148.1046143 1.5305176-.1654054.2526856-.4505006.3032228-.7653199.3576661z" fill="#fff"/></g></g></g><g><g><g><path d="m58.6795692 48.6490059c-.2833862-.1474609-.5325928-.296875-.6327515-.565918-.1106567-.2746582-.0528564-.6474609.1043701-1.3508301.0864258-.385498.2816162-.9868164.4473267-1.5581055.1748047-.5639648.3273315-1.1047363.6384888-1.1889648.3034668-.0839844.7366943.3723145.9945068 1.0766602.2675781.6955566.309082 1.6052246.1833496 2.1542969-.225769 1.0065918-.6046143 1.4333496-.8919678 1.5742188-.3026122.1391601-.5598754.0061034-.8433227-.1413575z" fill="#fff"/></g></g></g></g></g></svg>