<svg id="Layer_1" enable-background="new 0 0 135 135" height="512" viewBox="0 0 135 135" width="512" xmlns="http://www.w3.org/2000/svg"><g id="Color_Swatches"><g><g><g><g><path d="m51.7333069 91.0443115c16.9499588 1.0685959 33.900322 2.3311005 50.8612061 3.2064285 7.3168945.3776093 5.5771255.9074707 5.3611145 8.5772095-.1414108 5.0210571-.0187149 11.0037003-.3333359 16-.2776413 4.4162827 2.6086655 9.4823074-1.6605377 12.0335007-5.9934998 3.581604-15.9916458-.32724-22.403595-.7767639-10.9710312-.7691498-21.9420547-1.5382996-32.9130821-2.3074493-9.6186028-.6743393-19.2372055-1.3486786-28.8558083-2.0230103-2.8032913-.1965332-10.0114651.7234802-12.3216915-.777771-3.0119748-1.9572754-2.1673379-7.3164291-1.7886591-10.3866882.6118822-4.9609985 1.2237635-9.9220047 1.8356438-14.8830032.3469553-2.8130493.7084112-6.8931046 2.6860275-9.1272278 2.7278442-3.0816498 5.7693949-1.6806564 9.6965055-1.4162445 9.9423142.6694183 19.8911171 1.2540283 29.8362122 1.8810195z" fill="#fff"/></g></g><g><g><path d="m72.0820007 64.3541565c5.896965 6.4680481 11.7554169 12.9710388 17.6355896 19.4543304 5.1755066 5.7063446 12.6153717 11.6828537 16.1502609 18.4649429 6.2085876 11.9118729-3.8291931 14.6447449-11.5766296 21.7101059-3.2694168 2.9818344-6.0601273 7.8237915-10.9025803 6.6902161-6.798317-1.5914307-11.2687988-11.351387-15.5658188-16.1316299-7.3523331-8.1791382-14.7046661-16.3582764-22.0569954-24.5374069-6.4459915-7.1708755-12.891983-14.3417511-19.3379765-21.512619-1.8786507-2.08992-7.7000713-6.4390831-8.3173218-9.1242104-.8047447-3.5007553 3.5277252-6.7662888 5.9341564-8.7102432 3.8883781-3.1410942 7.7767544-6.2821884 11.6651306-9.4232826 2.2048302-1.7810974 5.3008156-4.4629631 8.2754936-4.6943703 4.1031494-.319191 5.315834 2.8022194 7.955204 5.7221222 6.6821024 7.3923339 13.4278185 14.7282104 20.1414873 22.0920448z" fill="#fff"/></g></g><g><g><path d="m110.4634857 72.7067719c-.3341064 16.9803314-.861908 33.9694443-1.0024414 50.9523239-.0606232 7.3263779-1.275322 8.5807114-8.9472198 8.6968002-5.0224762.076004-9.9636688-1.0021057-14.9689026-1.1002197-4.4241562-.0862732-9.7810287 1.5066071-12.5145798-2.6481934-3.8376083-5.8328857-.365097-15.9908218-.1934662-22.4162216.293663-10.9940338.5873337-21.9880676.8809967-32.9821014.2574692-9.6387711.5149307-19.2775459.7723999-28.916317.0750351-2.8091736-1.156044-9.9707794.2438278-12.3438091 1.8250961-3.093853 7.2157822-2.4819221 10.2995529-2.2364616 4.9828339.3966255 9.9656677.7932491 14.9485016 1.1898708 2.8254242.2248993 6.9172974.4094543 9.2349091 2.2885361 3.1968079 2.5919342 1.9287491 5.6912613 1.8345261 9.6261368-.2385407 9.9619674-.3920822 19.9267501-.5881043 29.889656z" fill="#fff"/></g></g><g><g><path d="m67.9508362 8.9503736c-3.2808762 6.544035-3.9457245 14.3554068-1.8180084 21.359787 1.4870224 4.8952351 5.0931015 9.8780499 10.2019043 10.1514034 3.0724564.1643944 6.0431595-1.4924927 8.0458298-3.8283691 2.0026703-2.3358803 3.1540527-5.2834415 3.9580002-8.2534046 1.3258133-4.89785 1.7758942-10.2186871.0155334-14.9776611-1.7603683-4.7589741-6.1085358-8.7821884-11.1764832-9.0323343-5.067955-.2501459-10.2079926 4.1985664-9.7236557 9.2495193" fill="#fff"/></g></g><g><g><path d="m99.2806778 12.3837805c-3.2808762 6.5440359-3.9457245 14.3554068-1.8180084 21.359787 1.4870224 4.895237 5.0931015 9.8780518 10.2019043 10.1514015 3.0724564.1643944 6.0431595-1.4924889 8.0458298-3.8283691s3.1540527-5.2834396 3.9580002-8.2534027c1.3258133-4.89785 1.7758942-10.218689.0155334-14.977663-1.7603683-4.7589731-6.1085358-8.7821884-11.1764832-9.0323334-5.067955-.2501459-10.2079926 4.198566-9.7236557 9.2495193" fill="#fff"/></g></g><g><g><path d="m54.8247833 50.2338448c5.9888535 5.5234413 11.9777069 11.0468788 17.9665604 16.5703239-8.0245819 8.1820984-15.3774414 17.0227966-21.9603233 26.4039688-4.1490402-4.8085175-18.3607292-16.0769272-14.0962257-23.1708069 2.1224899-3.5306931 7.118782-6.0433998 10.050045-8.9814415.9213561-.9234886 9.0515403-9.8104477 8.0399436-10.8220443z" fill="#ffcb05"/></g></g><g><g><path d="m36.6488991 93.2940369c3.2796555.3538666 6.5593109.7077255 9.8389626 1.0615921.379837.0409775.7729568.0861053 1.1004715.2731781.3538971.2021408.5877075.5447235.8115883.8740997 2.2347679 3.2878418 4.7149315 6.4254913 7.4157677 9.3816833-.0031166 6.7230911.3021164 13.4463043.9145432 20.1442413-5.1796722.2843018-20.1622124 2.068306-21.9080086-3.9486084-.6913644-2.3827895 1.6482466-27.8054351 1.8266753-27.7861861z" fill="#ffcb05"/></g></g><g><path d="m96.3673935 111.3640213c-1.4100342-1.3798828-2.7999268-1.6599121-3.6500244-1.7299805-.6937408-.0392685-1.8276062.069313-1.7005615.7553711-.0013428.0002441-.0025635 0-.0039063 0l.0042725.003418c.0476227.2299881.0871048.3106384.2402344.4213867-2.2215195-.1627426-4.9661865 2.1643829-4.9899902 5.1599121-.0609055 2.5759354 2.0743866 4.9831772 4.6599121 5.5600586 5.2355346 1.3091278 9.833084-5.7779236 5.4400634-10.170166z"/><path d="m102.7473984 8.3740311c-1.8467941 1.1665087-3.3387222 2.8463078-4.0999756 4.9401855-2.3110733 4.201498-3.5359421 10.2222195-2.8299561 16.1499023-3.2937546-.2641907-6.3598862-.5119095-6.4599609-.5200195.829834-2.9199219 1.2698975-5.7399902 1.2999268-8.2700195.0499268-2.4099121-.2800293-4.6999512-.9200439-6.7700195-2.5686874-8.3088112-11.503891-13.3708658-18.3199463-8.9599609-2.0990753 1.313478-3.508873 3.2051568-4.0999756 4.9399419 0 0 0 .0100098-.0100098.0200195-5.4022026 9.8221912-3.4760437 26.6437988 5.8399658 30.7600098.246994 3.6512413.3017273-.0826912-.3499756 24.3300781-.4499512-.4401855-.6899414-.670166-.7199707-.6398926 0 .0598145.2399902.369873.7199707.9599609-1.4884186 57.2071991-.6011581 36.2165451-2.2399902 50.9699707-1.6148529-2.1812668-.0079575-.2657547-20.4499474-23.1201172.9820442-.5000687 2.9358368-2.0359802 3.0599365-2.1599121h.0098877c7.0109787-5.5884399 13.2022362-13.5033188 15.4400597-18.2001953.5699463-1.2998047.3499756-1.4897461.0799561-1.6599121-.2700195-.1699219-.5499268-.2700195-1.4599609.7800293-.9399414 1.0300293-2.4599609 3.2700195-5.7199669 7.4199219-5.4114418 6.9010544-9.310791 10.7728653-10.3300781 11.9599609h-.0100098c-.619873.6801758-1.0898438 1.2302246-1.3398438 1.5700684-.6803551-.7730179-18.4193478-20.5686417-18.5100098-20.6699219 3.7608337-2.3842392 10.7682266-8.5384369 14.2600098-12.0300293 4.0599365-4.0400391 5.9399414-6.2900391 6.8099365-7.5100098.8599854-1.2299805.6800537-1.4699707.4500732-1.6899414-.2399902-.2199707-.4899902-.369873-1.6501465.5700684-1.1699219.9399414-3.2199707 2.9899902-7.2399902 6.9899902-9.4640503 9.4640503-11.9847069 11.9713135-13.0499268 13.2099609-6.8577232-7.6457748-3.8729305-4.1235962-8.5699463-8.670166-.9300537-.8999023-1.8200684-1.8198242-2.4799805-2.75-.3200684-.4697266-.5600586-.9199219-.6401367-1.2897949-.2946491-1.4080772.6944294-2.9371796 1.6600342-4.0200195 1.181221-1.3250275 1.0716839-1.2751122 17.0499268-14.170166 6.3542786-5.1002426 8.6833801-3.5565681 11.2700195-.329834 1.982132 2.5282745 1.9900017 2.3928871 13.4500732 14.7099609 8.6400108 9.1699219 9.2000694 9.3498535 9.4300499 9.130127.8476715-.7778168-17.4529457-20.1467361-21.2900352-25.1101074-3.4476585-4.3479996-6.9529266-5.7702179-14.2099609-.1101074-16.0936603 12.8953814-15.9780998 12.7736315-17.4100342 14.3701166-1.4771652 1.6857033-2.662632 3.7748528-2.2000732 5.9799805.4127502 1.8895798 2.2798309 3.7954636 3.7700195 5.2399902 6.4744396 6.3408127-3.2017632-4.3643074 23.3800049 25.130127-12.7778702-1.1084976-21.1277466-1.4684906-25.2299805-2.0700684-3.8424816-.5268936-7.1318054.1094818-8.9000244 4.4299316-1.3760786 3.2542801-3.9920402 24.8013992-3.8199463 28 .270278 4.3945999 2.1061525 5.8805847 4.9899902 6.5300293 2.501297.4079666 5.6326408.2358246 8.2299805.1599121 2.2404556-.0659561-3.4655104-.3756866 53.9600792 3.5500412 3.199913 2.9863586 8.1214752 1.6724091 12.25 1.7099609 6.0992508.1090393 14.565834 2.1263428 20.4199219.4099121 2.7949448-.7840118 3.6699524-2.7012177 4.0300293-5.5297775.1837463-1.684494.1408157-.9518814.5-35.5800781.0823898-23.8275909.0043564-26.1924362-.9000244-.0200195-.0283051.9655762-.984642 34.4558029-1.1099854 35.4199219-.2868195 2.2062607-.8283691 3.5940018-2.9699707 4.1801682-4.8050995 1.3802032-14.5965729-.5476379-19.9300537-.7001953-4.2945175-.1056976-9.1986313 1.2819214-11.5799561-2-3.8323822-5.1961441-.443161-14.273056-.1000977-24.0698166.0600586-2.2299805.130127-4.4399414.1900635-6.6401367.8299561.1401367 2.5899658.1801758 4.6099854.2399902 6.5093918.1628876 13.547226.7903671 15.0400391.6601563 1.0200195-.0700684 1.1099854-.3500977 1.1499023-.670166.0500488-.3198242.0500488-.6098633-.9399414-.9499512-4.5796051-1.5413666-15.915657-1.1949692-19.8499756.1799316.0225983-.7868042.3618088-12.4552612.5899658-20.4799805 2.8928146.4671478 10.9063644.5949326 13.9000244.5200195 8.5999756-.1899414 8.7700195-.7099609 8.75-1.3498535-.0100098-.6401367-.2000732-1.1501465-8.7999268-.9699707-2.9340515.0532837-10.9608307.535965-13.8300781 1.1098633 1.0440521-35.8540764.9206314-31.7743721.7399902-34.5698242 4.5244522.7502403 10.2843475-2.1327248 13.1500244-10.2202148 2.2569809.1687336 7.2789612.5566635 7.5198975.5700684 1.4908905 7.5046425 6.5736923 14.4383965 13.8601074 13-.0507507 2.4338493-.1220245 13.5054817-.1300049 14.7800293-.0400391 12.6999512.2399902 13.2199707.5599365 13.2199707.8771439.0274277 1.1128922-15.5183907 1.5500488-28.619873 4.647583-1.9455795 7.100174-6.4368477 8.5500488-11.2802734.9099121-3.079834 1.3898926-6.0498047 1.4199219-8.699707.0500488-2.4101563-.2800293-4.7001953-.9199219-6.7700195-2.5688245-8.3070557-11.5193403-13.3605611-18.3200681-8.9602053zm-70.2514611 116.9799804c.6628418-2.998291 1.6137695-15.048584 1.8934326-21.0913086.5863037-12.6669922.0809326-12.9558105-.5576172-12.9853516s-1.168457.2114258-1.7547607 12.8781738c-.2790527 6.0317383-.4450684 18.0839844-.0646973 21.1582031-10.8465595-.78759-10.6319447-.7787247-12.6948242-.7197266-2.3383389.0673523-5.4811583.2598572-7.7600098-.119873-1.7685223-.3277969-2.9105663-1.1006088-3.1201172-4.3898926-.1448326-2.6825104 2.3514147-24.2216568 3.5100098-27.0500488 1.3786736-3.3081436 3.5853186-3.6251373 6.6800537-3.2302246 4.1510029.567955 23.7352486 1.4223175 26.8099365 1.5102539 3.8088379 4.2287598 7.8476563 8.6972656 12.0163574 13.3156738-.3538818.7819824-.6716309 2.8476563-.9661865 8.2529297-.2169189 3.9821777-.2745361 11.8413086.0981445 14.201416-8.8393555-.6401367-17.008667-1.2299805-24.0882568-1.7299805-.0004882-.000244-.0009765.0000002-.0014648-.000244zm39.0214806 2.5400391.1500244.2800217c-4.9801025-.3598557-9.839962-.7099533-14.510006-1.0500412-.0006104 0-.0010986-.0002441-.0015869-.0002441.6271973-2.293457 1.4257813-10.1271973 1.6430664-14.1149902.1833496-3.3654785.2158203-5.4343262.1508789-6.7219238 9.3177834 10.3668365 8.4701576 9.1779709 11.3276329 13.1772461-.2897796 6.0469206 1.1344529 7.9102019 1.2399903 8.4299315zm6.6300049-103.5500488c0-.0097656.0100098-.0097656.0200195-.0200195.0048828-.0024414.0084229-.0024414.0130615-.0048828-.4234085.6086559-.4713058 1.4811611-.4260254 2.2270508-.5068359 2.4308071-.8743134 4.0412178-.7270508 7.3879395.0529861.8645325.0780029 1.7835388.5600586 2.5600586-1.3250275.460022-2.0697784-1.5489311-2.1900635-2.9699707v-.0400391c-.3066253-2.7596551 1.4970857-8.4506112 2.7500001-9.1401368zm.9799805 10.5500488c-.116806-.5173759-.1864166-1.790699-.2000732-2.3498535.0500488-.1101074.1101074-.2402344.170166-.3901367v-.0100098c.0007324-.001709.0012207-.0039063.0019531-.0056152l.3609619 1.0007324 1.0911865-2.4125977c.0084229.0029297.0170898.0061035.0255127.0090332-.2777634 1.3259087-.8314667 3.0433503-1.449707 4.1584473zm3.7399902-4.2099609c.3686295-2.0698204.2947159-4.3749657.0500488-5.6599121 2.2031631 3.3037739 1.4043503 7.7367973-.9500732 10.6999512.7095871-1.5610886.8408203-4.5005856.9000244-5.0400391zm-2.3399658-9.3601075c-1.3699951-.6499023-2.8599854-.8999023-4.1699219-.7197266 2.1999512-.6401367 4.4599609-.0700684 5.8498535.7797852 2.1176605 1.3120213 2.7624512 3.1703796 3.1101074 5.8100586-.2000732-.7600097-2.6027145-4.8117714-4.790039-5.8701172zm-14.9399414 1.9001465c-.2439957-3.6331692.1870041-7.3270855 1.3299561-11.0600586.0034409.1001825-.0153427.453373.0699463.7600098.1500244.6899414.3100586.7099609.4699707.6999512.6884537-.0850725.1165466-1.670846 1.9100342-4.3098145 5.9275131-8.2808228 19.2350311-2.720067 18.9801025 11.329834-.0200195 1.9299316-.3100586 4.1000977-.8500977 6.3901367-.147171-1.8696976-.6334915-3.9767914-1.7299805-5.4802246-2.4128265-3.2969646-7.1998138-4.3616714-10.9099121-2.6799316-5.6715012 2.4651623-8.3071899 9.739975-5.4001465 16.3200684-.7099609-.9699708-3.5713272-7.7743779-3.869873-11.9699708zm4.6599121 12.9499512c-.0770569-.9748917-1.5506668-5.2948399.0600586-9.5898438 0 .4099121.0200195.6098633.0599365.6098633.1942444 0 .0887375-2.2651215 2.5-4.1999512 1.2331696-.9476852 2.6494293-1.4899902 4.1800537-1.4899902-.9100342.4099121-1.6899414 1.119873-2.1899414 1.8999023-1.3954468 2.1124516-1.7990952 5.6680317-1.7200928 8.2001953-.0100098.0197754-.0100098.0297852 0 .0498047-.1675568 1.7116547-.0980682 3.6058617.9200439 5.2600098.4726028 1.260273 1.1490936 2.0862656 1.6999512 2.4899902-1.4898758-.1147155-3.6830368-1.1026611-5.5100097-3.2299804zm27.040039-6.4599609c.196907-.0492249-.1088791-1.2721214.4099121-3.0700684.460083-1.7800293 1.9799805-4.1398926 4.5600586-5.0900879 2.5400391-.9897461 5.8400879-.5 8 1.2102051 2.2299805 1.6899414 3.3900146 4.2700195 3.7199707 6.2600098.25 1.4399414-.2800293 2.9399414-.8599854 4.1899414.973175-7.822813-7.4894333-13.5335484-13.1500244-8.4799805-2.3467712 2.1260185-2.2011566 4.7299805-2.0599365 4.7299805.1199951 0 .0699463-.8901367.7799072-2.1899414 1.2735901-2.2639675 3.7801666-3.5603275 5.8901367-3.5-2.1088638.9499092-3.0276718 3.076395-3.5 5.3198242-.2517395 1.3090496-.4744415 2.8056679-.4100342 4.8000488-.3312607 3.4418831.6928482 4.6543236 1.0198975 5.5300293.0900879.2099609.1800537.4101563.2900391.6201172-2.6312637-2.6358605-4.0649871-6.6846199-4.6899414-10.3300781zm7.8399659 9.0500488c-1.3993301.4664459-2.164566-1.7260094-2.2099609-3.3000488-.0286331-2.0310974.4688416-4.4898148 1.2598877-6.3901367.0946732-.2173233.72052-1.6301842.8901367-1.7998047.0133667.1000538.0862045.4420853.1098633.4899902-.1672363.4206638-.2194443.8099384-.0499268 1.3200684.0200195.0498047.0499268.0898438.0699463.1398926-.5366364 2.3370189-1.189499 7.6743659-.0699463 9.540039zm5.329956-11.4799805c2.2448654 3.3633862 1.3169022 7.9490738-.9399414 10.6899414.1652451-.4131088.3601074-.8606834.5200195-1.9001465 0-.2172928.1131821-.3528671.2299805-1.5898438.1094742-1.09338.0162125-.6834335.1500244-1.6201172.2299805-1.3999022.2724457-4.3314265.039917-5.5798339zm-3.616333 6.5581055c.1552353.2202682.3814163.2781143.6252441.3393555.0471344.1001816.2082672.4427109.1611328.3425293l.1800537-.25c-.3100586 1.0100098-.6900635 2.0600586-1.1400146 2.8898926-.1369858-.5307999-.1867828-1.8056526-.2000732-2.3498535.1201172-.2402345.3389663-.8717957.3736572-.9719239zm7.1864014 6.4318848c-2.3509979 2.2283058-5.4904785 3.3068161-8.5700684 2.1599121.5404816 0 1.0688477-.1141777 1.1600342-.1599121 1.9731598-.0533829 4.4585114-2.3842812 5.7700195-3.8601074v-.0100098c.3734589-.3725433 1.6154709-1.9566612 2.5799561-3.7998047.8655167-1.6227341 1.7087097-4.1079445 1.2900391-5.9902344-.4099121-2.4499512-1.8900146-5.5698242-4.75-7.5698242-5.2885437-3.8175735-13.2767563-1.6021175-14.6199951 4.9699707-.1569901-3.375639.2721939-6.9027596 1.3599854-10.420166.0034027.100091-.0148087.4716587.0700684.7602539.1499023.6899414.3099365.7099609.4699707.699707.6538925-.0399323.161293-1.7576313 1.9099121-4.3098145.630127-.8701172 1.5800781-1.9001465 3.0400391-2.7199707 6.2005463-3.4641194 13.1164551 1.3724833 15.1300049 8 .5500488 1.8100586.8499756 3.8498535.8099365 6.0498047-.0592882 4.7584496-1.8212282 12.5723496-5.6499025 16.2001954z"/><path d="m103.5074081 53.4240799c-.7099533-.4730873-1.125061.3593369-2.8200684 1.4599609-3.5860443 2.2529984-7.1619263 2.0325508-10.039917.1699219-2.0999756-1.2897949-3.1199951-3.199707-3.4200439-3.0598145-.1398926.0500488-.0899658.6298828.2700195 1.4799805.3601074.829834 1.0700684 1.9399414 2.1600342 2.880127 3.3749313 3.0565948 8.5389175 3.2836418 12.2999268.2397461.8901367-.7397461 1.3500977-1.3898926 1.5900879-1.8598633.4799805-.9399414.2199707-1.1401367-.0400391-1.3100586z"/><path d="m101.6474228 60.3640213c-.7354126-.3430176-.9437485.2369614-2.0100098.9702148-1.9951248 1.400219-4.3399963 1.3026695-6.0100098-.4602051-1.1400146-1.1398926-1.3399658-2.619873-1.6600342-2.6398926-.3343887 0-.7601776 1.7794952.3400879 3.6000977 1.7940521 3.1137619 5.9978104 3.720253 8.7299805 1.119873.6199951-.619873.8800049-1.1799316.9899902-1.5600586.209961-.7800292-.1000976-.909912-.3800048-1.0300292z"/><path d="m59.6131248 14.1628494c.5553589-.0915203-.1879234-5.3632698 4.756588-8.7910156 3.097023-2.1230688 5.5197525-1.4827466 5.5775146-2.7302244.0150146-.3100586.0148926-.6291504-.9041748-.8237305-2.3599014-.4462134-6.3598061.9507601-8.5012169 4.2202148-.7497559 1.1206055-1.2749023 2.454102-1.4954834 3.7050786-.479248 2.5388178.2790528 4.5068353.5667725 4.4196771z"/><path d="m128.3572693 13.1687088c-.3640213-1.1201172-1.0008621-2.5810547-2.2452469-4.239502-2.9888687-3.7903814-6.9134064-5.7591887-10.5861816-6.0539551-.9616699-.0334473-1.5480957.0554199-1.5622559.2080078-.0164795.1650391.5313721.3806152 1.3796387.6745605 3.646637 1.4601381 5.9105377 2.7798202 8.9187012 6.5627441 1.1786575 1.5708313 2.1063385 3.4447784 2.6191406 4.8217773.1369629.3381348.274292.607666.3571777.833252.3792725.8937988.677124.9072266.9928055.8603516.3155518-.0466309.5986328-.112793.6077881-1.2026367.0248108-.509941-.209137-1.688733-.4815674-2.4645995z"/><path d="m19.7797508 36.978035c3.6874199 1.7902412 4.5367622 2.4611206 4.8425293 2.1833496.2336426-.2094727-.1861572-1.1193848-.9935303-2.0424805-.793457-.9296875-1.9831543-1.8098145-2.8189697-2.2138672-1.526123-.7434082-2.4228516-.8234863-2.8867188-.7529297-.4736328.0883789-.5549316.3662109-.6340332.6757813-.0792236.3095703-.1286621.5961914.1883545.8991699.3115235.3200684.9973145.6147461 2.3023682 1.2509766z"/><path d="m28.0584373 31.9614334c.928833 1.4291992 1.7102051 2.6079102 2.0098877 2.4870605.2930908-.1176758.0407715-1.5351563-.5374756-3.2019043-.5684814-1.6682129-1.4866943-3.5612793-2.1918945-4.6906738-1.2851563-2.0634766-2.1523438-2.9731445-2.6854248-3.3581543-.5446777-.3781738-.7883301-.2207031-1.0428467-.0275879-.2546387.1931152-.4685059.3903809-.2722168 1.0021973.3215981 1.0714302 2.8741169 4.913477 4.7199707 7.7890625z"/><path d="m36.2890282 30.1613846c.6451035.1543312 1.9164124-3.7564201 1.8439941-6.7126465-.0467529-2.0388184-.3537598-3.0568848-.6221924-3.5454102-.284668-.4885254-.572876-.4589844-.8885498-.4086914-.3155518.050293-.5976563.1203613-.7319336.6394043-.1494141.520752-.114502 1.4814453-.0717773 3.3554688.1445312 5.3641338.0952988 6.5835342.470459 6.671875z"/></g></g><g><g><g><path d="m59.9911461 64.1335297c-.5032959.394043-.9470215.6677246-2.6540527-1.5129356-.9353027-1.1948242-2.534668-4.0783691-2.0313721-4.4724121.503418-.394043 2.9188232 1.8508301 3.854126 3.0456543 1.7070312 2.180664 1.3347168 2.5456542.8312988 2.9396934z" fill="#fff"/></g></g></g><g><g><g><path d="m53.9904137 117.3571625c-.1569824.6196289-.3858643 1.0961914-5.239502-.1342773-2.6595459-.6740723-8.2397461-2.623291-8.0826416-3.2429199.1569824-.6196289 5.9919434.3249512 8.6514893.9992676 4.8536377 1.2302245 4.8277588 1.7583007 4.6706543 2.3779296z" fill="#fff"/></g></g></g></g></g></svg>