<svg id="Layer_1" enable-background="new 0 0 135 135" height="512" viewBox="0 0 135 135" width="512" xmlns="http://www.w3.org/2000/svg"><g id="Clipboard"><g><g><g><g><path d="m16.7410297 36.8348389c10.4568443 24.6858788 18.7435703 52.2093048 22.4220028 78.8507004.1732941 1.2551117 1.3226509 2.1519699 2.5764694 1.9695282 7.2097626-1.0490952 13.7990189-4.9598694 20.5952072-7.7846298 13.1622849-5.4707718 27.5418777-6.9557571 41.8037186-7.9934464 2.3951797-.1742783 4.0074158-2.5268173 3.3078156-4.824173l-21.6780701-71.186615c-.4134521-1.3577099-1.767189-2.2004337-3.166275-1.9619293-21.805027 3.7171249-44.2761269 8.1949253-65.8608704 12.742979" fill="#ffcb05"/></g></g><g><g><path d="m25.6370087 36.3697357c-.4301167-6.4234581 3.75811-12.886261 9.7969246-15.1175213 1.061615-.392252 2.250042-.7225761 2.9039497-1.6463127 1.0622597-1.5005932.1233444-3.5228958-.2722626-5.3183556-.9431267-4.2803507 2.0490799-9.0365973 6.3158569-10.0393438s9.0643044 1.9228134 10.1264801 6.1751862c.5304604 2.1236744.3602829 4.6842546 2.0342484 6.0946493 1.8033752 1.5194302 4.4904251.6900845 6.8421059.5156479 5.2601204-.390173 10.5074043 4.6355667 11.6501503 9.7848587" fill="#fff"/></g></g><g><g><path d="m40.2025795 44.967144c-2.1422768.2673721-3.9470024 2.1953506-4.1035957 4.3485641-.1565971 2.1532097 1.3277245 4.3080292 3.386055 4.9592743s4.4931297-.2400551 5.6714211-2.0490494c1.1782951-1.8089943 1.0201874-4.3736992-.3465347-6.044899-1.3667259-1.6711998-3.8248062-2.3378677-5.8597755-1.6169319" fill="#fff"/></g></g><g><g><path d="m81.6402893 72.937912c-2.0907822-.0385666-3.9678192 1.541069-4.7900467 3.4637756-1.2763443 2.9846039-.1826706 6.794693 2.4823456 8.6479492 2.6650238 1.8532639 6.6175385 1.5522766 8.9712067-.6831512s2.8577957-6.1671982 1.1442337-8.924118c-1.7135544-2.7569275-5.4622726-4.0453491-8.5086441-2.9244003" fill="#fff"/></g></g></g><g><path d="m119.6511993 109.6516113c2.1106186-4.2640076-25.1886215-94.2285461-27.2181396-93.5454102-.100174.0341358 26.493988 93.298233 26.5550537 93.3984375-4.8647308-.0257111-51.3994598 10.5288315-80.619873 19.8486328-2.9443359.9528809-4.9604492 1.6560059-5.6541748 1.984375.0048828-.6679688-.1466064-1.9804688-.6109619-4.6171875-.9217548-4.9931641-2.83008-14.7626953-7.531496-33.6889648-1.3127441-5.1787109-3.0446777-11.8320313-5.0535889-18.8574219-3.642066-12.7749748-7.7996378-25.8529625-12.4949951-38.2182617-1.5373535-3.9692383-2.6094971-6.5117188-2.8869629-6.859375.0008545-.0002441.0014648.0002441.0024414 0 1.9299316.0498047 12.0599365-1.0900879 23.7299805-2.5300293-.8601074 1.3200684-1.4399414 2.6398926-1.8200684 3.8498535-.5 1.630127-.6699219 3.0400391-.6599121 4.0600586-5.6268196 1.2334442-8.6769543 1.955143-8.6500244 2.1699219.0462952.1863136 2.1747627-.1705246 8.6800537-1.4599609.0499268.7700195.1599121 1.1801758.2199707 1.1801758.0999756 0 .0999756-.4599609.1799316-1.2602539.0300293-.2197266.0600586-.4799805.1101074-.75.1398926-.9599609.3999023-2.2099609.9699707-3.6398926 1.6582165-4.1608181 5.0935993-7.6364155 9.6799335-9.0100098 5.0523682-1.7832966 2.5474205-5.8020325 2.3400879-8.1799316-.3000488-2.5500488.9499512-5.2600098 2.9299316-6.8300781 1.9599609-1.6398926 4.5800781-1.8798828 6.7099609-1.0700684 2.1600342.7602539 3.7399902 2.420166 4.4499512 4.0302734 1.054615 2.1700506.3689117 5.692009 2.7900391 7.7299805 2.9304352 2.4596958 6.6923714.0718079 10.1800499.9799805 3.8799057 1.1174889 6.5510178 4.190794 8.3594971 7.8188477-1.3679123-.2634792-7.5523758 1.1712379-17.9584923 3.2475586-.8471603.170229-30.8011227 6.1062508-30.6257343 6.9760742.0631104.3134766 5.3674316-.4389648 11.8961201-1.4282227 6.5279541-.9916992 14.2783203-2.2924805 19.1821289-3.277832 1.4985237-.2990227 17.4515114-3.4829884 17.9278526-4.9260254.0994873.0688477.1890869.0593262.2785645.0395508.1501465-.0300293.2900391-.1000977.2800293-.6799316 0-.1101074-.0100098-.2402344-.0400391-.4001465 7.4427719-1.1972008 7.5010376-1.4916115 8.5-1.1999512.4700928.1599121.8901367.4699707 1.1700439.8898926.248764.3908195 21.8590469 71.4678574 21.8900146 71.5700684.6084824 1.7104187-.2103577 3.3396988-1.5600586 4-1.2636414.6599884-4.8332977.2837906-16.7700195 1.8400879-28.7783737 3.7509079-32.4800835 11.87146-46.8298302 14.3798828-1.0020523.1573334-2.0155907-.5449677-2.1201172-1.8400879-2.9063568-18.4784088-6.7387314-36.03125-14.9299335-58.829834-3.7028599-10.2916946-7.7899418-19.7099609-7.8900146-19.7099609 0 .3391457 3.4060612 8.1886444 7.4599609 19.8598633 10.9196491 31.3875504 13.0787334 51.3296432 14.5000019 58.8000488.1005402 1.6577072 1.5667801 2.8231735 3.1099854 2.6000977 15.5544662-2.8742905 17.9520149-10.479393 46.8400841-14.2099609 12.9687958-1.6500626 15.5201263-1.0634842 17.119873-1.8901367 2.0187302-1.0093613 2.8658218-3.3125305 2.1501465-5.3300781-.0303192-.1000443-21.5701218-71.1888657-22.0400391-71.8598633-.5912552-.8869667-1.6118622-1.5-2.8400879-1.5-.6001968 0-7.8965988 1.3502903-8 1.369873-.4620056-1.5221119-1.3125992-2.9164467-2.3099365-4.1298828 19.3599854-2.8300781 19.7799072-3.3400879 19.7000732-3.880127-.0800781-.5400391-.6401367-.9299316-21.7000732 1.8901367-2.3570251-1.9126568-5.1517105-2.8790007-8.1099815-2.5600586-2.9018288.2876949-5.4371796.9613762-6.2399902-1.8798828-.5032692-1.7371597-.3616295-3.4494028-1.25-5.4001465-.9799805-2.1999512-3.0400391-4.2700195-5.8100586-5.2299805-1.3798828-.4599609-2.9299316-.6999512-4.5100098-.4399414-1.5699463.25-3.0899658.9599609-4.3099365 2.0100098-2.4700928 2.0600586-3.9400635 5.4099121-3.4901123 8.7199707.3565521 2.2762432 1.5817223 4.2688503.4700928 5.5200195-.9782867 1.1010838-4.7631683 1.4063053-8.0899677 5.2800293-13.6201172 2.1098633-25.5900879 4.1098633-25.5900879 4.4699707.0100098.0300293.1000977.0500488.2600098.0500488.0012207.0004883.0019531-.0004883.0031738 0-.0249023.376709.7932129 3.0390625 2.1107178 7.1567383 3.93086 12.5681877 6.7138734 21.4019127 11.2896729 38.4887695 1.8903809 7.0361328 3.5549316 13.6870117 4.8643799 18.8525391 4.6895752 18.8789063 6.8486328 28.5800781 8.1781006 33.4780273 1.2890625 4.9077148 1.6154804 5.0458984 1.9278584 4.9780273.1300049-.0283203.2462158-.0952148.2752686-.519043.7043457-.0688477 2.8173828-.5490723 5.9057617-1.3110352 64.0658338-15.8990401 82.5392988-19.0139159 81.0378415-20.5688476z"/><path d="m44.5284004 9.7463379c-1.8238678.3277702-2.5381889 3.7381544-.2799072 4.9899902 1.5666924.9000187 3.8576698-.1523848 4.2199707-2.0200195.1199951-.6699219-.0799561-1.3498535-.4100342-1.8098145-.6099854-.8300781-1.4799805-1.1201172-2.119873-1.0800781l.1398926-.3400879z"/><path d="m44.1795235 44.8703613c-2.5901718-1.736702-5.4107895-.8283691-5.2293701-.3061523.1752167.507637 2.2267036-.5571327 4.6065674 1.171875 2.3770943 1.7925339 2.4596214 5.5711212.0195313 7.3144531-3.8836555 2.8281021-8.4633636-1.4220047-6.7249756-5.2514648.3510742-.7890625.8898926-1.4003906 1.409668-1.8115234 1.0577393-.8398438 1.9681396-.9145508 1.9416504-1.0205078.0640793-.1922417-2.5960999.0216904-3.9321289 2.546875-1.1446114 2.1078796-.4650307 4.6665306 1.2808838 6.2104492 2.7983246 2.5390282 7.4403419 1.0510979 8.5592041-2.0922852.9424933-2.3665657.2493361-5.2531853-1.9310304-6.7617188z"/><path d="m38.6585274 60.0549316c-1.8648682 1.9736328-2.2904053 4.1835938-2.1466064 4.1923828.2294693.097496 2.4103241-6.1327324 9.2150879-6.1875 1.671875-.0039063 2.9050293.378418 3.7940674.7099609 1.8199539.6985283 2.530941 1.499588 2.8347168 1.1435547.0975342-.112793.1928711-.2661133-.5166016-.9238281-3.2193947-2.8398742-9.4059678-3.0448074-13.1806641 1.0654297z"/><path d="m41.4099922 40.3850098c-.2615967.0634766-.6599121.1235352-1.1433105.2983398-5.7031097 1.7181625-10.7368755 7.5330849-10.7667255 14.1191406-.0250244 2.8745117.9490967 5.8637695 2.7150898 8.3295898 7.9728279 11.2741013 25.6070595 4.0739746 23.9459229-10.1748047-.3458252-3.0585938-1.571167-5.5288086-2.9676514-7.3022461-3.0155144-3.8462219-7.8205032-5.9552574-11.4486084-5.8481445-.5515137.027832-.5925293.1010742-.5964355.1811523-.0282249.5935669 6.5612106.2307243 11.2011719 6.3188477 1.2735596 1.6660156 2.3764648 3.9389648 2.6845703 6.7763672 1.4756927 13.1043091-14.5780792 19.7222977-22.041626 9.4863281-1.6843281-2.2807617-2.6488056-5.0791016-2.6740742-7.7724609-.0696049-4.773777 2.5330753-9.0001183 6.2959003-11.8393555 2.9731789-2.1722107 5.2520866-2.4461212 5.2050781-2.6274414-.0047608-.0190429-.1450196.0000001-.4093018.0546876z"/><path d="m75.4704132 39.0080566c-2.0825424.253376-2.6934891 2.8198891-5.8446045 2.3852539-1.1507797-.1624069-1.528862-.6298714-2.508667-.9101563-.3824463-.1137695-.9189453-.1723633-1.4044189.0629883-1.2531052.569931-.8209305 2.0901299-3.0528526 2.8823242-1.2050781.4287109-2.4604492.3007813-3.3424072.2104492-.8917236-.1049805-1.456665-.1762695-1.4747314-.0947266-.0365219.1657104 4.6351204 2.0905571 7.102169-.5146484 1.092247-1.1914558.6987457-2.1559296 2.6848145-1.1166992 2.2171631 1.2251205 4.7959518.7088203 6.3342285-.8901367 1.4304886-1.4235611 1.8306198-1.2151947 2.3959961-1.3642578.128418-.0258789.1737061-.0883789.2055664-.1621094.0313721-.0722656.0594482-.1459961-.0633545-.265625-.1190187-.1069335-.4335939-.2817382-1.0317384-.2226562z"/><path d="m73.5900421 52.5041504c-3.0933075-.1062469-3.8659515.0962639-6.8275146 2.3886719-1.4962311 1.1769333-3.1986427 2.3431625-5.029171 1.7763672-.675293-.2001953-1.1422119-.5693359-1.3890381-.8789063-.2536621-.3085938-.3397217-.5297852-.3857422-.5136719-.0291748.0068359-.0213623.2573242.1937256.6459961.5624084 1.0488663 2.3257751 1.8396683 4.1892052 1.222168 2.2374039-.6830177 3.7865067-2.6060753 5.8366699-3.3383789 2.4209366-.9217148 4.6797562.7936821 9.7478027-1.3955078 4.2109756-1.8040085 6.8477097-3.6341362 10.1860352-4.1132813.9802551-.1915703 1.640274-.1094322 1.666626-.4335938.0065918-.0795898-.0020752-.1557617-.2246094-.230957-.2215576-.0522461-.6647949-.2036133-1.5185547-.1503906-5.2857208.0756416-10.2642594 5.3494949-16.4454346 5.0214844z"/><path d="m50.2309151 77.5910645c-6.8289566 2.6832962-15.1635704-1.9561996-15.3458252-1.4267578-.0393372.1067734 2.7433662 1.2195511 4.3503418 1.75 12.5148048 4.0800476 14.9288902-2.9658737 19.8331299-5.3066406 3.1700974-1.5153885 6.4440117-.1189346 9.7661095-.8891602 2.1029053-.4360123 3.408287-1.8543625 4.8552246-3.246582 2.5282745-2.500473 3.595108-2.2975159 6.9111328-2.3125 1.1855469-.0043945 2.3929443-.0854492 3.4324951-.5791016 1.050293-.4848633 1.7369385-1.2099609 2.3846436-1.7333984 1.3867569-1.1679573 2.0839691-1.2429695 3.6210938-.9091797 1.1474609.2880859 2.291626.480957 3.1783447.1459961 1.3861313-.4777565 1.7107239-2.0464859 1.0898438-2.7573242-.3812256-.3740234-.4924316-.2387695-.517334-.1933594-.0566406.078125-.0061035.1347656.1384277.4370117.2230988.581337-.0581818 1.4957047-.963623 1.7353516-1.3640671.4103088-3.1469421-.7852478-4.8911133-.4941406-1.8490448.2922974-2.9733124 2.1008873-4.4962158 2.7617188-1.8222198.8544083-4.4845734.1234131-6.8546143.6557617-3.4568481.734848-4.8536682 4.6818161-8.1495361 5.3867188-2.9510574.7368469-6.569252-.6215744-9.9482384 1.0761719-1.1029053.5478516-2.0670166 1.2885742-2.963623 2.0473633-1.7838136 1.5239256-3.4299318 3.1083982-5.4306642 3.8520506z"/><path d="m94.1205597 88.8962402c1.2971191-.2138672 1.2819824-.4741211 1.2299805-.7895508-.0286865-.1745605-.0708008-.3259277-.3146973-.3933105-.5592499-.9917755-3.1357422-4.0315094-4.6837158-5.3137207 2.3739929-5.4471893-1.6207733-11.0050201-7.2454834-10.6875-1.1286621.0976563-1.6789551.3408203-1.939209.4980469-.2635498.1557617-.255127.2329102-.2280273.3081055.1946487.5390167 3.1030731-1.0041656 6.5128174 1.5366211.8485107.6640625 1.7020264 1.6401367 2.1271973 3.0351563.8294067 2.6319656-.0375824 5.8706512-2.4952393 7.5185547-1.5750809 1.0420609-3.7555161 1.4524384-5.8504639.8022461-.0052643-.2505875-.0400238-.2502594-.1262207-.03125-4.6054382-1.5313721-6.0103683-8.103035-2.2459717-11.2299805 1.4763184-1.222168 2.8098145-1.0996094 2.7788086-1.2114258.0070343-.1009064-1.4963913-.2670975-3.0543213.8549805-4.3599396 3.1304779-3.1244812 10.6881409 2.2438965 12.5629883-.871727 3.6174088-1.2918091 8.7560196-1.2526855 9.4101563.0136719.3491211.2010498.7949219.5543213.9619141.3452148.1953125.7880859.1210938 1.1241455-.0961914.5123291-.3530273.7147217-.6889648 1.0118408-1.0214844.2723389-.3398438.520874-.6884766.7427979-1.0405273.0200195-.0239258.0213623-.0151367.0213623-.0151367.0002441.0053711.0007324.0151367.0007324.0151367-.0633316-.1001511.242012.4575958.737915.7514648.9584503.5606918 2.0629044.1933975 2.3369141-.6469727.1490479-.3979492.1414795-.7265625.1484375-.9951172.0106277-1.504303.0497818-5.7143555-.1481934-7.0761719 1.1371841 2.4044418 3.561409 4.9437103 4.8907471 5.6132813.3891602.1835938.491333.0800781.5915527-.0439453.0635986-.0791016.1077881-.1640625.076416-.296875.4983826-.4425354 1.0363388-1.6577454.8878174-2.9318848.5170898.0424803 1.1713867.0173338 1.5665283-.0476076zm-8.9932861 4.0151368c-.0411987.8557053.0760345 1.413208-.2966309 1.5131836-.8766022.1940002-1.2830124-1.5638351-1.6861572-2.5654297-.5373459 1.0646973-.87603 1.9444504-1.7358398 3.0791016-.2351074.2958984-.5203857.6762695-.7189941.8061523-.0333252.0288086-.09729.050293-.1098633-.0664063-.0179443-.1362305-.0026855-.3652344.0010986-.581543.0716858-1.1413651-.1597443-.0550461.5905762-8.6479492 1.4052277.4182739 2.7530746.4777527 4.2980957.0737305-.238823 1.2472076-.3012086 4.8824692-.3422852 6.3891602zm6.1909179-1.5739747c-.0053864-.0061493-2.8650589-2.9107056-3.958374-4.1359863-.3499756-.3869629-.6641846-.7421875-.9176025-1.0085449 1.3224411-.5353546 2.4790192-1.3500671 3.4074707-2.8366699 1.2218857 1.4563599 3.4071503 3.4706726 4.5783691 4.3347168-.7763977.0675735-1.5978088.3261414-2.1403809.5847168-.1054688-.0678711-.2236328-.0566406-.3280029-.0405273-.5498581.0715484-.4737396.2775954-.6414795 3.1022948z"/><path d="m64.9044952 86.4416504c-1.3283653.9804688-3.1473351 2.9360352-5.8315392 1.5341797-1.8241005-.7539368-3.9751205-2.290329-6.2454834-.2006836-1.6812859 1.5923538-2.1047668 3.6228943-5.0512695 4.0234375-2.0944824.293457-3.9998779-.5053711-5.291626-1.0888672-1.3057861-.6113281-2.1092529-1.0336914-2.1525879-.956543-.0350342.0620117.6796875.6098633 1.9456787 1.3564453 1.2475586.7080078 3.2021484 1.7104492 5.5916748 1.5019531 3.3705521-.2799988 4.1757545-2.7311172 5.6741943-4.0458984 1.6403351-1.5154495 3.2807846-.2851715 5.0692139.472168 1.5942497.6903915 2.7826233.8127289 4.3760986.0859375 1.9987144-1.0260239 3.8832436-3.3106308 5.4750938-3.9160156.9664001-.4073868 1.4600677-.2406921 1.5031738-.5581055.0108643-.0791016.0097656-.1552734-.213623-.2368164-1.5562895-.5537415-3.5758665.9745789-4.8489989 2.0288086z"/><path d="m129.3789825 69.315918c.2172852-2.4718781-8.9614105-38.0916672-11.173584-41.6569824.019043-.170166.0021973-.3979492-.0803223-.7270508-.1400146-.4907227-.4490967-1.2158203-1.211792-2.050293-1.7822266-1.905014-4.3836365-2.8220425-6.9204102-2.3085938l.7565918-.3999023c.2919922.0825195.611084.2163086.8607178-.2744141.1112061-.2412109.1575928-.6845703-.0714111-1.1816406-.5192413-1.1421146-2.0169601-1.7549915-3.1677246-1.0673828-1.4173355.8737278-1.1896439 2.9543266.0042725 3.4897461-2.4359665 1.1745625-3.923172 3.4803009-4.1043701 5.5898438-.0697021.8847656.1037598 1.4116211.2486572 1.4121094.1723633.0053711.3126221-.4916992.6256104-1.1943359 1.9114914-4.204977 6.4739151-5.7114964 10.2686768-2.5483398.6361084.5419922.9870605.9956055 1.2593994 1.2890625.1737061.1999512.3167725.3266602.4442139.409668.010498.3613281.074707.8857422.2119141 1.6357422-2.4110794.2724838-7.939888 2.4688187-10.4428711 3.8569336-.2128906-.7407227-.3984375-1.3452148-.5648193-1.8300781-.6793213-2.0415039-.980957-2.0629883-1.2927246-1.9926758-.3118896.0703125-.5751953.2167969-.3026123 2.3583984.7890472 5.7691765 4.1803055 19.4279747 8.4995117 31.0883789 1.8493652 5.0456543 3.6551514 9.114502 4.2194824 9.8242188-.0290527.0004883-.0727539-.0129395-.0859375.0019531-.1580887.1770325.6655197 1.1917572 3.4935303 4.9462891.8011246 1.0345688 2.5893784 3.2688293 3.6401367 4.0512695.1860352.1459961.6147461.4033203.9914551.4931641.0765381.0209961.154541.0170898.2319336.0292969-.6173172.7990952.9008789 3.0894241 1.7233887 2.8305664.7788086-.2444305.7910767-2.8390427-.1289063-3.2734375.8297272-.7370071.8971252-1.7051086 1.2449951-3.3876953 1.6910399-8.4487307 1.3829345-9.2341311.8229979-9.4138186zm-22.1921386-34.6584473c2.6390686-.3570557 8.1697388-1.8226013 10.5252686-3.0854492 2.391655 10.5561943 9.4394531 33.2120667 11.1668701 37.1503906-.043457-.0185547-.0843506-.0371094-.1356201-.0546875-.6186523-.1801758-1.9020996-.3681641-4.2950439.1650391-3.3437271.7320328-6.3561707 3.1617126-6.8183594 4.2280273.0598145-.6821289-1.3129883-5.0393066-2.848999-10.3579102-3.0609056-10.4632568-6.202408-23.0068397-7.5941163-28.0454101zm18.6679687 45.6938477c-.8414154-.2194977-5.4631042-5.5293655-7.770874-7.0141602 1.1002884-.2902069 2.9440308-1.3794708 6.8885498-2.25 1.5456543-.3447266 2.5488281-.4777832 3.199707-.6176758-1.2248001 3.2992401-2.164299 9.8537445-2.3173828 9.881836z"/><path d="m128.855423 41.6789551c-.4605865-1.6782303-2.6915665-9.5636826-3.7521973-11.4594727-1.7861938-3.2109013-4.7367554-3.691433-6.2224121-2.8227539-.3535156.2041016-.4785156.4057617-.4421387.4624023.0844727.1625977.8477783-.2441406 2.0068359.0600586 2.6675873.6421852 3.4746017 3.4439831 4.0483398 5.8710938.5769272 2.413414 1.2743759 5.3870354 2.1293945 8.5014648 2.9511719 10.7514648 3.5125732 10.8388672 4.1289063 10.6699219.6164552-.1694336 1.0544434-.53125-1.8967284-11.2827148z"/><path d="m92.2193146 14.5554199c.315918-.0488281.1435547-2.8598633-.0561523-4.1513672-.3642578-2.3569336-.6279297-2.3666992-.9438477-2.3178711-.3157959.0488281-.564209.1376953-.1999512 2.4946289.199707 1.291504.8841553 4.0234375 1.1999512 3.9746094z"/><path d="m95.5966339 13.0930176c.65625-.7695313 1.3092041-1.7895508 1.6472168-2.4770508.6192627-1.2539063.7885742-1.9580078.8216553-2.3291016.0241699-.3759766-.1081543-.4350586-.2590332-.4882813-.3354492-.1186523-.4770508-.0947266-1.5980225 2.300293-.3205566.6513672-.8266602 1.6767578-1.2889404 2.5341797-.4555664.8598633-.8503418 1.5629883-.7246094 1.6660156.1209717.0996094.7501221-.4311523 1.4017334-1.2060546z"/><path d="m96.9810333 16.3850098c.1121826.2993164 2.6142578-.3623047 3.7376709-.7832031 2.050415-.769043 2.0023193-1.0273438 1.8901367-1.3266602s-.2460938-.5258789-2.2963867.2426758c-1.1235351.4213867-3.4436035 1.5678711-3.3314209 1.8671875z"/><path d="m14.7989063 91.5700684c-.3033447.1005859 2.0618896 8.0522461 3.2786865 11.7192383 2.220459 6.6918945 2.5128174 6.7504883 2.8161621 6.6499023s.5029297-.3222656-1.7176514-7.0146484c-1.2167968-3.6669922-4.0738524-11.4550782-4.3771972-11.3544922z"/><path d="m12.6057911 98.5373535c-.3000488.1103516.4085693 2.7958984.8521729 4.0058594.8094482 2.2075195 1.0697021 2.1645508 1.369751 2.0546875s.5263672-.2456055-.2830811-2.453125c-.4436036-1.2099609-1.638794-3.7172852-1.9388428-3.6074219z"/><path d="m84.2316437 81.1921387c1.0018082-.5381241 1.4691544-1.6503143 1.2233887-2.6264648-.2630692-1.0433884-1.3886719-1.886528-2.6656494-1.628418-1.01091.1864853-1.775116 1.2884445-1.4398193 2.3996582-.4864503 1.4411697 1.3757476 2.6635131 2.88208 1.8552246zm-1.0546875-1.7265625c-.02771.0837402-.1488037.1384277-.2767334.1582031.1100998-.3744125.110733-.3990402.3007813-.559082.0065918.1594238.0241699.1115723.0219727.1289063 0 0 .0023193-.0029297.0128174-.003418.0078125.0048828.0361328-.0063477.0378418.0415039-.0012208.0693359-.0473634.165039-.0966798.2338867z"/></g></g></g></svg>