<svg id="Layer_1" enable-background="new 0 0 135 135" height="512" viewBox="0 0 135 135" width="512" xmlns="http://www.w3.org/2000/svg"><g id="Review"><g><g><g><g><path d="m108.6865463 120.8902435c-2.699028 7.1027069-8.5345306 8.1340179-10.2504807 8.2310333-1.7159576.0970306-3.2779541-.9396057-4.720314-1.913002-1.4423676-.9733887-3.0509415-1.9625244-4.7579575-1.7561035-2.2777328.2754288-4.0558929 2.6190262-6.3477325 2.5425797-4.6251373-.1542816-5.1178131-9.2132263-10.7641525-7.9527359-1.7467499.389946-3.1733856 1.6844635-4.0155029 3.3259964-1.4082413 2.7450638-4.3577347 7.3022461-7.8003616 6.2355347-3.3698578-1.0441589-3.6732674-8.566597-8.523098-6.119545-1.3327866.6724777-2.2457581 1.93396-3.2265587 3.0593872-.9808197 1.1254578-2.2069054 2.2130966-3.6965828 2.3106766-2.2241096.1457062-4.1027641-1.9512711-6.3311462-1.904274-2.7759933.0585403-4.3465767 3.2157211-6.7937527 4.5275345-2.5346985 1.3587494-6.0732689.3088226-7.4567299-2.2124634-.7307434-1.331749-1.0045681-3.068573-2.3180027-3.8317337-1.0260487-.5961838-2.3599167-.3434143-3.3879814.2492828-1.0280666.5926971-1.8487129 1.4789276-2.7659607 2.2318344-1.7073841 1.401474-4.0034714 2.3685913-6.1207781 1.7390594-5.4697056-1.6262665-.5299864-9.438179.8272638-12.5871506 4.4556856-10.3376694 8.9113712-20.6753464 13.3670559-31.0130157 2.7911835-6.475853 5.582365-12.9516983 8.3735542-19.4275589 4.0152645.7810516 5.5401096 7.1026993 6.9606533 10.22789 1.7592163 3.8702774.5437431 12.770195-.4261627 16.9044418-2.3648338 10.0801239-3.1752815 16.4839935-5.5401115 26.5641174l39.0648766-20.4557877c9.4294738 7.5813066 27.8426055 15.7680055 36.6499633 21.0240022z" fill="#ffcb05"/></g></g><g><g><path d="m56.1954842 41.4573326c-.122364-.0563469-.2445717-.1119576-.3666344-.1667061-.6991577-.3136139-1.4609451-.6370125-2.2423096-.534996-.7813644.1020203-1.4763336.8526077-1.1004944 1.4437981-.6886749-.5939865-1.4703369-1.1376648-2.3945465-1.4174957-.9242134-.2798309-2.0139732-.2615509-2.8252792.207386-.8113022.4689369-1.2328796 1.44133-.8021698 2.1906471-.7987747-.6283684-1.658226-1.2567635-2.7088013-1.498333s-2.3416176.0225639-2.8620377.835083c-.4223404.6593933-.2246513 1.516674.3122025 2.1128502.850872.9449005 2.2820778 1.1941338 3.5216064 1.5868645 3.2364693 1.0254402 6.2207069 2.4318924 9.5323334 3.341774 4.4917984 1.2341347 10.9286423 1.8631172 15.6464233 2.0018883 10.9728928.3227654 20.8053055-1.1900711 29.8083572-6.5321808 1.2628479-.7493324 2.5951309-2.102066 1.7621994-3.2032318-.5232239-.6917229-1.7102051-.8241119-2.6041565-.5097351-.893959.3143768-1.5574036.9621735-2.1681976 1.5999222 1.0268402-.2766571 1.1953735-1.6171494.4233627-2.2557297-.7720184-.6385765-2.0552521-.6229668-3.0175781-.2115402-.962326.4114304-1.6781769 1.1359177-2.3656769 1.8408356.9391479.0378609.8465881-1.411129-.055336-1.6368523s-1.8008652.2966385-2.5654068.7618141c-4.6968689 2.8577347-10.5176392 5.0251236-16.2817841 5.0750198-2.9020004.0251198-5.4388046-.4023056-8.2391357-1.0465393-2.8563307-.6571122-5.7818335-2.7757645-8.4069403-3.9845429z" fill="#ffcb05"/></g></g><g><g><path d="m99.7461929 45.0128288c-1.1900024-.1699829-2.3900146-.3399658-3.6100464-.5199585-1.5199585-.2200317-3.0599976-.4400024-4.6099854-.6600342-.539978-.0799561-1.3399658-.1900024-1.5599976-.2299805-.2399902-.6099854-.4899902-1.2200317-.7299805-1.8300171-.0499878-.1099854-.0900269-.2199707-.1400146-.3399658.0100098-.0100098.0200195-.0100098.0300293-.0200195.7599487-.460022 1.6599731-.9899902 2.5599976-.7600098.4799805.1199951.7299805.5800171.7199707.9799805.5-.4699707 1.0400391-.8999634 1.7000122-1.1899414.9699707-.4100342 2.25-.4200439 3.0200195.2199707.4400024.3599854.5700073.960022.4099731 1.460022.3900146-.3400269.8300171-.6300049 1.3400269-.8099976.8899536-.3099976 2.0799561-.1800537 2.5999756.5099487.8200074 1.0900269-.4799804 2.4400025-1.7299804 3.1900025z" fill="#ffcb05"/></g></g><g><g><path d="m64.1806641 54.8396873c-.8322334.9237633-1.6870689 1.8859901-2.0649529 3.0705376-.6189499 1.9402008.1589241 4.0486183.157795 6.075161-.0001831.3300819.4312401.4481697.6015587.1654243 1.545414-2.5655594 3.2066841-5.0842209 5.468235-7.0291748.9994736-.8595619 2.1057205-1.5968018 3.0373077-2.5295105.6297455-.6305122 1.2069855-1.4673195 1.0477982-2.3441277-.169548-.9339333-1.1524887-1.5419693-2.0996704-1.6038895-2.9353104-.1918906-4.4105988 2.2670327-6.1480713 4.1955796z" fill="#ffcb05"/></g></g><g><g><path d="m77.4481125 53.458992c.6731491 1.0453873 1.3624268 2.1323624 1.5452499 3.3622131.2994461 2.0143967-.8068085 3.9705925-1.1310272 5.9710312-.0528107.3258324-.4975891.373127-.6203079.0667076-1.1135178-2.7803764-2.3489075-5.533062-4.2688904-7.8158493-.8485184-1.0088615-1.8220673-1.9141312-2.591835-2.9842949-.5203629-.7234306-.95578-1.6420517-.6579056-2.4819336.3172836-.8946037 1.3850861-1.336956 2.3299255-1.2460175 2.9280472.2818185 3.9894562 2.9456864 5.3947907 5.1281434z" fill="#ffcb05"/></g></g><g><g><g><path d="m25.1135044 104.0810699c.3096619.0791016.5244751.2849731-1.2068787 7.0634766-.9487 3.7143555-3.2356873 11.6213379-3.5453491 11.5422363s1.4752502-8.1143188 2.4239502-11.8286743c1.7313538-6.7785034 2.0185852-6.8561401 2.3282776-6.7770386z" fill="#fff"/></g></g></g><g><g><g><path d="m63.3708 47.2508659c.0090942.1594849.0077515.3044434-.3537598.4225464-.3566589.0962524-1.1019287.2180786-2.4943237-.0839844-.7615967-.1622925-1.9082336-.6355591-2.7333984-1.2375488-.8366089-.5905762-1.3464355-1.2433472-1.2438049-1.3573608.1080017-.125.7832031.2817383 1.6466675.6449585.8597412.3778687 1.9118347.6763306 2.5874939.8214722 1.2341003.2680054 1.8841858.2816772 2.2187805.3942261.3365478.0922851.3632202.236206.3723449.3956908z" fill="#fff"/></g></g></g></g><g><g fill="none"><path d="m76.0611954 79.7550201c-.6281738-.3999023-1.4693604-.71698-2.1715698-.9229736-1.817627-.5483398-3.8821411-.4956665-5.071106.9246216-1.2037354 1.4235229-.1778564 3.0352783-.0864258 3.3763428.0372314.1179199.0325317.2132568.0115356.3012695 4.3206787 2.1016846 8.5228271-.0593872 8.6099854-1.9175415.0072632-.0109253.0049438-.0145874.0036621-.0187378.0085449.0070801.0340576.015625.1261597.0148926.1537476.0018921.3118286-.0270386.4650269-.0865479l-.6120605-.0647583c-.0368043-.5696411-.5852662-1.1727295-1.2752076-1.6065674z"/><path d="m41.3361626 77.5128326c-.0791016-.0786133-.1245117-.1229248-.1481323-.1451416.0895996.0949707.1325073.1412964.1469727.1575928-.0001222-.0020752.0015868-.0116577.0011596-.0124512z"/><path d="m125.7161636 51.0128288c-1.2050171-.1700439-4.7116089-.6647949-4.8200073-.6799927-3.6567383-.5327148-1.1203003-.1567383-17.5826416-2.5042725-.1487427.9285278-1.0124512 3.4284668-1.5828857 6.463562-2.0203857 10.6370888.4094849 18.1503944.7208862 20.6993446 5.2634277-5.4287109 15.4542847-15.8528481 23.2946777-23.8986244.0199585-.0200195.0199585-.0599976-.0100098-.0700073z"/><path d="m72.4264297 19.4464226c2.7243652.1269531 4.2756958-1.3964233 4.6472778-1.6209106-.8440552-2.0873404-4.5896606-11.37323-4.8675537-12.0726318h-.0099487c-.8775024 2.114563-3.7040405 8.9200439-4.7173462 11.3515015.3818359.0785522.7453003.2737427 1.0393677.5744629 1.0419922 1.064453 2.4663086 1.7089842 3.9082031 1.767578z"/></g><path d="m41.1880302 77.367691c-.0822754-.0773315.1079712.121521.1467896.1593628 0-.0003662.0001831-.0014648.0001831-.00177-.0144653-.0162964-.057373-.0626221-.1469727-.1575928z"/><path d="m126.2461929 48.8528557c-.8959351-.1286621-3.2268677-.4602051-5.0300293-.7299805-13.1617432-1.909729-4.734436-.6738892-21.4699707-3.1100464-.0100098.0100098-.0200195.0100098-.0300293.0200195-1.1099854.6600342-2.2399902 1.2600098-3.3800049 1.7999878 2.2445679.3206787 4.4261475.6318359 6.5761719.9384766-1.3897095 1.8191528-3.3910522 6.6147461-4.0339966 12.2433472-.8452148 7.0761757 1.0019531 13.8143349 2.3659058 15.7675819-.4171753-.1541138-2.6991577.4641113-5.4927979 1.1382446-8.3244019 2.0595703-14.4042969 2.8277588-16.4290161 3.5026855-.5893555-2.0405884-2.7401733-3.2094116-4.7755127-3.8106689-5.0393066-1.5281372-8.6089478 1.574707-8.1798706 4.7561035-1.046875-.2164307-2.8167076-.456604-4.8073692-.7659302-7.6343384-1.1409912-14.3283691-2.8189697-16.34552-3.1564331 1.9689941-3.965271 2.9991455-13.5427284.0280151-22.8175087-1.2792969-4.0099487-3.0637817-6.9145508-3.3256226-6.7788086-.3098755.145874.9161377 3.2450562 1.7445679 7.2023926 2.4516602 11.6175575.135376 19.5425453.1410522 22.2751503-.3833008.0342407-.5209961.1663208-.5938721.3314819.0316162-.2771606.0153809-.5597534-.0921021-.8161011-.2249146-.4818726-.3520508-.4953613-.5599976-.75-.0970459-.1019897-2.5361328-2.6640015-2.3800049-2.5-22.8208635-23.958866-21.9049699-22.9991492-22.0200212-23.1199988-.1099854-.0599976-.0299683-.2000122.0800171-.1699829 32.3842163-4.1849365 27.3355122-3.5350342 27.9099751-3.6099854-2.3782959-.8605347-3.4036255-.911499-4.4099731-1.6100464-26.505312 3.5338745-24.7819843 3.1721191-25.3900166 3.6100464-.7510376.5006104-1.0857544 1.6680908-.2199707 2.6299438 19.9091815 20.6416665 24.2748431 25.2105752 25.0618304 26.0448647.0236206.0222168.0690308.0665283.1481323.1451416.0004272.0007935-.0012817.010376-.0011597.0124512 0 .0003052-.0001831.0014038-.0001831.00177.0090942.378418-4.1611328 18.5706787-8.5986328 38.5958252-.7108765 3.1337891-.7965107 3.375-.6600342 3.8699951.2165527.8118896 1.2770996 1.4313354 2.4100342.8200073 35.0467491-19.1983643 35.6331749-19.5339966 36.8599815-20.2000122.2200317-.1600342.4199829-.1699829.6099854-.0599976 14.6452026 8.0093994 37.3796997 20.4906006 37.4900513 20.2699585 0-.3081055-28.6324463-16.4880371-37.0200195-21.25-.4899902-.3099976-1.1799927-.2299805-1.6099854.0700073-.6021729.3096313-1.2209473.6607056-3.1900024 1.7000122-.3309937.1782227-33.3386192 17.8358154-33.4399986 17.8900146-.1199951.0800171-.2900391.1400146-.4200439.039978-.2158813-.1295166-.5893555 2.0095825 9.3638306-41.1532593.3112793 1.2998047 9.5903931 3.9440918 18.2857056 4.1135254 2.1673584.0548706 4.0537071-.0405273 5.0928307-.2009888.7546997 2.3666992 4.8664551 4.6558228 8.9533081 3.5261841 1.838623-.5187988 3.6239624-1.7119751 3.9553833-3.5844116 2.00177.2322998 5.939209-.4499512 7.9088135-.8408813 2.3468628-.4633179 5.9782104-1.4890137 8.9179688-2.6515503 2.8294678-1.1001587 4.9983521-2.2614746 5.0673828-2.6101074.0439453.0576782.0879517.1156006.1277466.1577759-.631958.6478271-1.2039795 1.0963745-1.0529785 2.0537109 1.3123779 5.998291 7.9316406 36.3014526 9.6700439 42.1100464.1900024.3599854-.2300415.5-.3500366.5199585-.824585.1456299.3983154.8625488.960022.0200195.2241211-.3737183.3453979-.2435913-1.5499878-9.9100342-3.6792603-18.9537354-6.859314-32.7911987-6.6900024-32.9599609.2316284-.2399902 2.1552124-2.1764526 2.7000122-2.7300415.5012817-.5092773.5969849-.6068726.5372925-.5466919-1.0280151 1.0422363-.1320801.1332397 0 0 1.4039307-1.4232788 6.3977051-6.4873657 21.8327026-22.1432533 1.1182325-1.0788573.7110669-3.1701048-1.2500003-3.5900267zm-48.7627563 32.660038c-.0921021.0007324-.1176147-.0078125-.1261597-.0148926.0012817.0041504.0036011.0078125-.0036621.0187378-.0871582 1.8581543-4.2893066 4.0192261-8.6099854 1.9175415.0209961-.0880127.0256958-.1833496-.0115356-.3012695-.0914307-.3410645-1.1173096-1.9528198.0864258-3.3763428 1.1889648-1.4202881 3.253479-1.4729614 5.071106-.9246216.7022095.2059937 1.543396.5230713 2.1715698.9229736.6899414.4338379 1.2384033 1.0369263 1.2752075 1.6065674l.6120605.0647583c-.1531982.0595093-.3112793.08844-.4650268.0865479zm24.9680786-6.5214234c-.3114014-2.5489502-2.741272-10.0622559-.7208862-20.6993446.5704346-3.0350952 1.4341431-5.5350342 1.5828857-6.463562 16.4623413 2.3475342 13.9259033 1.9715576 17.5826416 2.5042725.1083984.0151978 3.6149902.5099487 4.8200073.6799927l.0200195.0100098c.0299683.0100098.0299683.0499878.0100098.0700073-7.840393 8.0457763-18.03125 18.4699134-23.2946777 23.8986243z"/><path d="m105.6634903 74.5861359c-.1320801.1332397-1.0280151 1.0422363 0 0z"/><path d="m47.1481133 22.6632195c-.5428467 8.2243652 4.3727417 12.8779297 10.1591797 12.8779297.0214844 0 .0430298-.0023804.0645142-.0025024-.7463989 1.8037109-1.4971313 3.6185913-2.2556152 5.4542236.4338989.1561279 1.449585.6217041 2.0299683.9299927l.0500488-.1099854c.4899902-1.1700439.9699707-2.3200073 1.4499512-3.4800415.4348145-1.041748.8667603-2.0776367 1.2965088-3.109314 3.6328125-.8644409 7.0245934-3.4571533 8.7977257-7.1853027.7490234-1.5751953 1.8066406-2.6855469 2.9780273-3.125 3.906189-1.4630737 4.5090942 3.3291016 6.7797852 5.8173828 1.5362549 1.6831665 3.3566284 2.940918 5.2907104 3.7081909 1.1212158 2.7730713 2.2221069 5.4988403 3.2872314 8.144043.6900024-.3699951 1.3700562-.7600098 2.0200195-1.1499634-.8180542-2.0380859-1.6646729-4.1290894-2.5184326-6.2432861 6.5403442.9020996 11.442749-4.0684204 10.6768188-10.2460938-.0688477-.5595703-.1342773-1.0869141-.0649414-1.5605469.1053467-.7166138.1854248-.5795898 1.0102539-.6835938.2783203-.0361328.519043-.1875.6777344-.4257813.4324951-.6487427-.0291748-1.2762451-.2329102-2.2705078-.1352539-.4824219-.2695313-.9638672-.3984375-1.4365234-.1376953-.5068359-.5751953-.8671875-1.0644531-.8759766-3.1962891-.0576172-6.3886719-.0644531-9.4755859-.0712891-2.6688843-.0050049-5.4291382-.0170898-8.2387085-.0553589-5.9240113-14.6774894-5.5026856-13.7224723-5.7613526-13.9810782-.539978-.6399536-1.6099854-.8599854-2.3999634-.4500122-.9945679.4972534-.9987183 1.3485105-1.3800049 2.0800169-1.586731 3.8353887-3.2408447 7.834229-4.9510498 11.954895-5.899044.2718506-10.6842613.2474365-17.6146202.348999-.5576172.0087891-1.0742188.4375-1.1958008.9716797-.3238525 1.1445307-2.227478 4.3262324.9833985 4.1748042zm25.0480918-16.9103389h.0099487c.2778931.6994019 4.0234985 9.9852905 4.8675537 12.0726318-.371582.2244873-1.9229126 1.7478638-4.6472778 1.6209106-1.4418945-.0585938-2.8662109-.703125-3.9082031-1.7675781-.2940674-.3007202-.6575317-.4959106-1.0393677-.5744629 1.0133057-2.431457 3.8398438-9.2369384 4.7173462-11.3515014z"/><g><g><g><path d="m88.0130081 19.2408562c.2574158.1893921.4257202.3978271-1.5047913 3.0212402-1.0578613 1.4375-3.5367126 4.3688354-3.7941284 4.1794434-.2574158-.1894531 1.8040771-3.4279785 2.861908-4.8654785 1.9305115-2.6233521 2.1795654-2.5246583 2.4370117-2.3352051z" fill="#fff"/></g></g></g><g><g><g><path d="m57.3388176 20.0023308c.270752.1698608.4592285.3569946-1.0254211 2.7241821-.8135376 1.2970581-2.7788696 3.9430542-3.0496521 3.7732544-.270752-.1698608 1.2556152-3.0911255 2.0691223-4.3882446 1.4846496-2.3671265 1.7351989-2.2789917 2.0059509-2.1091919z" fill="#fff"/></g></g></g><path d="m76.7737808 36.6771965c-.5467529-.0463867-2.3373413.8469849-3.6708984 1.3546143-.7058105.2825928-1.3598022.5048218-1.3922119.8266602v.000061c-.0338135.3120117.6328735.6814575 1.5491943.8025513 2.0449829.3033447 4.0818481-.7607422 4.4574585-1.6463623.138855-.3595581-.0332031-.5924683-.2258911-.8473511-.192688-.2548218-.383728-.4739991-.7176514-.4901734z"/><path d="m109.4327774 87.4369659c-.3157349.0496216.6504517 7.866272 1.2199097 11.4899292 1.0392456 6.6129761 1.3169556 6.7109985 1.6326904 6.661377s.5499268-.2280884-.4893188-6.8410645c-.5694581-3.6236572-2.0475464-11.3598632-2.3632813-11.3102417z"/><path d="m114.3722305 91.9859161c-.3135376.0619507-.2470093 1.7358398-.0975952 2.4924316.2727051 1.3807373.5325928 1.359436.8461304 1.2974854s.5620117-.1409912.2893066-1.5217896c-.149414-.7565917-.7242431-2.330078-1.0378418-2.2681274z"/></g></g></g></svg>