<svg id="Layer_1" enable-background="new 0 0 135 135" height="512" viewBox="0 0 135 135" width="512" xmlns="http://www.w3.org/2000/svg"><g id="Table_Lamp"><g><g><g><g><path d="m48.722126 22.969389c-2.0767326-2.2808933-4.2028503-4.9588757-4.0541458-8.0399742.1173477-2.4314365 1.6602135-4.5665216 3.4107933-6.2580051 2.0848274-2.0144496 4.6994019-3.680346 7.5936241-3.8476758 4.974453-.2876 9.0670433 3.7762704 11.9685936 7.8270593 2.9015579 4.050787 5.6592865 8.6791954 10.2817535 10.5394955-1.6090851-.6475716-7.0236053 4.6237373-8.0726166 5.6792488-2.472374 2.4876842-3.7832565 5.7668877-6.003994 8.2804375-5.6480216-2.9575617-10.8526954-9.4893648-15.1240081-14.180586z" fill="#ffcb05"/></g></g><g><g><path d="m83.3983536 54.2577591c.4577484 1.1649704 1.5926285 1.9775352 2.8099136 2.2689552 1.2172775.2914238 2.5051727.1182404 3.7022858-.247303 2.7354584-.8352776 5.2016373-2.7737579 6.2936554-5.4172287 1.0920105-2.6434708.6104965-5.9680939-1.4626083-7.9385452" fill="#ffcb05"/></g></g><g><g><path d="m59.0149498 111.0382462c-.5558662-2.0783234-1.1167068-4.2184982-.8610153-6.3546219.0819511-.6846771.2531242-1.3720093.620697-1.9554367.8354301-1.3260193 2.5561638-1.8715591 4.1175957-1.7366409.5091133.0439911 1.0064316.1474915 1.4944077.2907028 1.8194351.5339584 2.9303207 2.3732224 2.6365738 4.2464981-.3018723 1.9250641-.8232422 3.815773-1.5534897 5.6223831" fill="#ffcb05"/></g></g><g><path d="m101.3425751 50.6628418c2.5831299-2.9873047 5.3378906-6.59375 7.8739014-11.0898438.692627-1.2314453 1.3964844-2.5751953 2.0616455-4.03125.1739502-.3598633.3275146-.7358398.4951172-1.1098633l.1239014-.2827148.0634766-.1459961.0961914-.2773438c.1086426-.3862305.1157227-.8085938.0118408-1.2036133-.206543-.7915039-.8122559-1.4160156-1.5788574-1.6630859-.0819092-.0283203-.1750488-.0314941-.2634277-.0488281-.0686035-.0778809-.1296997-.1499023-.2111816-.2373047-.2751465-.3129883-.6629639-.644043-1.1467285-1.0546875-.4777832-.4194336-1.0749512-.8852539-1.824707-1.390625-1.480835-1.0317383-3.5443115-2.2875977-6.4869385-3.4819336-1.6202393-.6245117-3.7420654-1.3564453-6.0731201-1.8120117-2.3258057-.4682617-4.8309326-.7138672-7.1141357-.7119141-2.2860107-.0117188-4.3376465.2817383-5.7947998.5625-.749939.168457-1.3400879.3312988-1.7357788.470459-.2293091-.4509277-.8449097-1.2692871-2.2758179-2.8762207-1.305542-1.4663086-3.2877197-3.5869141-6.2680664-6.6777353-1.4973145-1.5380859-3.2373047-3.3256836-5.2592773-5.402832-1.0142822-1.0244141-2.0983925-2.1835938-3.4790077-3.2939453-1.3649902-1.0913084-3.130127-2.1806638-5.3204346-2.4580076-2.3886719-.3251953-5.0783691.4838867-7.3447266 2.0029294-2.2731934 1.5366211-4.3261719 3.6323242-5.793457 6.3095703-.713501 1.3442383-1.2352295 2.8691406-1.3494873 4.4838867-.1079102 1.6176767.2469482 3.2612314.9160156 4.6762705 1.3479004 2.8603516 3.5526123 4.9165039 5.5235596 6.7944336.8788452.8286133 1.74823 1.6213379 2.6044922 2.3857422-.2341309.0461426-.5697021.2043457-.9168701.5771484-.5116577.5473633-.8942871 1.5361328-.8001709 2.6582031-.5230713.3613281-1.227356.9116211-2.1755371 1.7563477-1.5445557 1.3862305-3.7325439 3.5874023-6.3876953 7.3076172-2.5797119 3.7358398-5.6965332 9.0820313-7.6235352 16.8999023-1.067749 4.2685547-1.6668701 9.9067383-1.6265869 15.8422852.0114746 5.9423828.6124268 12.1621094 1.0823975 17.8208008.4954834 5.6577148.8001709 10.7724609.847168 14.4848633.0101318.9287109.0194092 1.7685547.0275879 2.5068359-.0089111.737793-.0166016 1.3735352-.0228271 1.894043-.0008545 1.0415039.034668 1.6240234.1142578 1.6318359.0794678.0078125.1993408-.5600586.3509521-1.597168.0736084-.5185547.1645508-1.1542969.2451172-1.8945313.0546875-.7426758.1169434-1.5874023.1856689-2.5214844.2312012-3.7407227.1730957-8.9257813-.114624-14.612793-.2628174-5.6850586-.6889648-11.8857422-.5828857-17.7011719.0778809-5.8154297.723877-11.2314453 1.7436523-15.309082 1.8376465-7.4570313 4.7553711-12.5932617 7.135498-16.2421875 2.4520264-3.6323242 4.4310303-5.8632813 5.7811279-7.3500977.5718994-.6257324 1.0249023-1.1188965 1.3886108-1.5214844.4265137.9697266 1.1403198 1.7924805 1.8311157 2.4316406.9030762.8164063 1.7045898 1.4716797 2.5218506 1.9814453.1482544.0913086.2994995.1733398.4511108.253418-.2739868.2131348-.5728149.4501953-.9102173.7241211-1.498291 1.2641602-3.7496338 3.1274414-6.6280518 6.4189453-1.416626 1.6582031-2.9857178 3.703125-4.3748779 6.3642578-1.3947754 2.6547852-2.5218506 5.9282227-3.1445313 9.722168-.7324219 4.1611328-.8178711 9.5571289-.5311279 15.1728516.2727051 5.6123047.6044922 11.5327148.9248047 16.9521484.322876 5.4165039.6450195 10.3203125.9263916 13.8681641.130249 1.642334.2512207 2.9772949.3600464 3.954834-.0528564.0666504-.0484619.1323242-.0479126.1882324.0012207.0683594.0202637.1225586.0886841.1689453.1091309.9116211.2045288 1.4243164.2809448 1.4213867.0720215-.0029297.1235352-.4731445.1589966-1.2927246.1077271.0183105.2304688.0361328.3860474.0544434.1918945.0366211.4143066.0874023.6105957.2177734.2061768.1293945.3776855.3540039.3487549.5532227-.0228271.2231445-.2315674.5541992-.7315674.7163086-.5024414.1674805-1.2844238.2685547-2.0924072.3334961-1.7956543.1655273-4.7724609-.1611328-7.1900635-.5131836-.565918-.1108398-1.0092773-.3330078-1.2371826-.7109375-.237793-.3642578-.2149658-.7856445.0109863-.9790039.2342529-.21875.5548096-.253418.7294922-.199707.1876221.0483398.2678223.1611328.3078613.1352539.0273438-.0068359.0268555-.1816406-.2047119-.3442383-.2233887-.15625-.6693115-.2260742-1.105957.050293-.4857159.2841797-.6141338 1.0708008-.3067608 1.6450195.2720928.6157227.9638653 1.0288086 1.60742 1.1972656 1.2884521.3081055 2.5952148.5366211 3.9163818.7202148 1.3049316.1772461 2.5675049.2202148 3.5505371.1538086.9099121-.0810547 1.6495361-.1616211 2.4088135-.425293.7640381-.2626953 1.4060059-.9697266 1.4033203-1.7504883.0042725-.3911133-.1590576-.7358398-.3500977-.9589844-.1932373-.2285156-.4083252-.3710938-.6120605-.4692383-.4193115-.1967773-.7729492-.1992188-1.0253906-.1894531-.1621094.019043-.2883911.0415039-.4001465.0646973.0259399-.965332.0377197-2.2341309.0356445-3.7780762-.0010376-.8190918-.0061646-1.717041-.0140991-2.6689453.9812012-.0202637 3.2397461-.1901855 6.3675537-.2102051 2.4000244 0 5.3300171.130127 8.5400391.6000977.0299683 1.6799316.4699707 3.079834.8200073 4.0700684.2199707.579834.4099731 1.0297852.5699463 1.3098145-1.0299683-.1398926-1.7699585-.2099609-1.7999878-.0898438-.039978.1499023 1.1099854.5998535 2.5800171 1.0197754 1.4699707.4301758 3.3200073.6801758 4.5200195.6000977 2.1900063-.119873 3.2500038-.6899414 3.7199745-.9899902.4799805-.329834.4199829-.4799805.3499756-.619873-.0799561-.1501465-.1699829-.25-.6799927-.130127-.2199707.0400391-.539978.1398926-1 .2399902.0900269-.1298828.2000122-.2998047.3099976-.5.2600098-.4899902.5800171-1.1899414.9000244-2.2299805.6799927.2600098 1.3599854.5400391 2 .8500977 1.4199829.6999512 2.8099976 1.6599121 3.2600098 2.8798828.2199707.630127.2199707 1.1401367-.0900269 1.7001953-.2999878.5498047-.8399658 1.0898438-1.4599609 1.5598145-1.25.9401855-2.75 1.6398926-4.2800293 2.3400879-5.9400063 2.7600098-12.3100014 3.0300293-17.1300087 2.9299316-4.4299927-.119873-8.3699951-.5400391-11.8099976-.8498535-3.3699951-.3200684-6.1499615-1.0200195-7.9400005-2.4501953-1.8599854-1.3898926-2.9099731-3.2199707-2.8800049-4.5600586.0200195-1.3598633 1.0400391-2.2397461 1.8699951-2.8498535.8800049-.5900879 1.6799927-.9299316 2.2800293-1.1999512.6099834-.2600098 1.0299664-.4501953 1.3200054-.6000977.5700073-.3000488.5700073-.4599609.5299683-.6201172-.039978-.1499023-.1300049-.2897949-.7799683-.25-.3300171.0200195-.7900372.0800781-1.4800396.25-.6799927.170166-1.5899658.4001465-2.7199707 1.0200195-.289978.1501465-.5700073.3500977-.8699951.5800781-.1500244.1201172-.3099976.2299805-.460022.3601074-.1400146.1499023-.289978.3098145-.4400024.4699707-.5700073.6499023-1.1199951 1.6098633-1.1599731 2.7600098-.039978.6486816.0599365 1.3178711.2692261 1.9665527-.0875244.197998-.1849976.4321289-.3008423.737793-.3084717.8413086-.7480469 2.0732422-1.020874 3.6943359-.2590332 1.6030273-.3239746 3.690918.6049671 5.8056641.4554577 1.0473633 1.2448864 2.0693359 2.2564831 2.8183594 1.0047607.7578125 2.1629639 1.2832031 3.3222656 1.734375 2.3144512.8637695 4.7808819 1.6499023 7.3281231 2.2358398 2.5487061.5688477 5.1589355.9624023 7.7119141 1.1743164 2.5546875.203125 5.0463867.1855469 7.3590088.0693359 2.3092041-.1645508 4.4440918-.4033203 6.2852783-.7612305 3.3682861-.609375 6.2592812-1.4526367 8.741581-2.3237305.6173096-.2280273 1.2130127-.4482422 1.7879639-.6601563.6313477-.2451172 1.1932373-.5419922 1.7110596-.8427734 1.03479-.6074219 1.9152832-1.2631836 2.6853027-1.965332.7564697-.6826172 1.4508057-1.5058594 1.8493652-2.4003906.3981934-.8774414.5571289-1.7265625.605957-2.480957.0893555-1.519043-.2165527-2.6899414-.4973145-3.5634766-.6072998-1.7475586-1.1304932-2.5073242-1.4232178-2.902832-.0699463-.0874023-.1298828-.1477051-.1856689-.1967773.0297852-.0400391.0595703-.0893555.0794067-.138916.2600098-.4799805.4100342-1.0600586.4299927-1.6501465-.0100098-.5998535-.1099854-1.1499023-.3200073-1.6499023-.4199829-1.0200195-1.1399536-1.7800293-1.8899536-2.3798828-.7600098-.5800781-1.5700073-1.0300293-2.3800049-1.4001465-.7900391-.3498535-1.5700073-.6499023-2.3500366-.9199219v-.0100098c.0400391-.1999512.0800171-.4199219.1199951-.6401367.0500488-.2700195.0700073-.5498047.0700073-.8498535-.0100098-1.170166-.4799805-2.5600586-1.6499634-3.6101074-.3099976-.2900391-.7000122-.5400391-1.1400146-.7399902-.2200317-.1098633-.4500122-.1899414-.6900024-.2600098-.210022-.0600586-.4299927-.119873-.6500244-.1599121-.8899574-.1899414-1.9699745-.25-3.0100136.0200195-1.0299683.25-2.0999756.8200684-2.8199463 1.7700195-.5100098.6799316-.7400513 1.4299316-.8500366 2.1398926-3.2799683-.3300781-6.2399902-.3100586-8.6499634-.1599121-2.1600342.1398926-3.8900146.3898926-5.0800171.5900879-.5396729.1098633-.9694824.1999512-1.2694092.2700195-.027832-3.1362305-.0901489-6.9138184-.1752319-10.9790039-.137085-5.4223633-.2871094-11.3569336-.4287109-16.9599609-.168457-5.5820313-.0107422-10.7851563.682251-14.7148438.5904541-3.5908203 1.62146-6.6098633 2.8780518-9.0683594 1.2532959-2.4667969 2.6879883-4.4174805 3.9949951-6.0341797 2.6568604-3.2143555 4.7578125-5.1801758 6.0965576-6.5795898.5404663-.5444336.968689-.9904785 1.3118286-1.3625488.0930786.0212402.1869507.0483398.2791138.0637207.7597656.1333008 1.4832764.0268555 2.0124512-.1611328 1.088623-.3925781 1.6538086-1.0874023 1.8638916-1.6035156.111084-.279541.1403809-.4968262.130127-.6655273 1.2225952.8852539 2.1967773 1.5432129 2.8421021 1.9404297-.0292969.2373047-.0199585.3933105.0404663.4179688.0664673.0290527.1763954-.0603027.3115273-.2099609.3093872.1762695.5029907.2629395.5292969.2275391.0287476-.0385742-.1060181-.1948242-.3546753-.4372559.5508423-.7165527 1.475769-2.2631836 2.7158813-3.9216309 1.6844482-2.3867188 4.0992432-4.7988281 5.7991943-6.0976563 3.0910645-2.4003906 5.0097656-3.1157227 5.8745117-3.7226563.7092285-.4267578.8339233-.6987305.8068848-.9428711.1191406.0073242.1871948-.0410156.2473145-.1005859.0414429-.0410156.0780029-.0856934.0949707-.1479492.4140625.0131836 1.0048218 0 1.7279053-.0234375 1.4530029-.0019531 3.444458-.0395508 5.6237793.1777344 2.1777344.203125 4.5324707.6015625 6.7078857 1.1552734 2.1809082.5415039 4.154541 1.2924805 5.6810303 1.8789063 2.7702637 1.1240234 4.7373047 2.2480469 6.1970215 3.1269531.7391357.4287109 1.34375.8120117 1.8444824 1.1450195.0407104.0251465.0713501.0441895.1107788.0688477-3.3536377.9145508-6.3745117 3.0095215-9.0462036 5.3652344-2.9234619 2.5766602-5.4968262 5.4765625-8.3029785 8.1166992-2.7784424 2.6816406-5.5892334 5.347168-8.0476074 8.1362305-2.3864746 2.8305664-4.6812744 5.4448242-6.5330811 8.1162109-.9177246 1.3291016-1.7242432 2.6547852-2.3067627 4.0073242-.2672729.6123047-.4821777 1.2558594-.6154785 1.8994141-.1609497-.2988281-.34729-.6447754-.5783691-1.0732422-.2811279-.4853516-.6083984-1.0668945-.9793701-1.7719727-.7589111-1.3964844-1.741333-3.262207-2.7697754-5.8515625-.5407715-1.4257813-1.2399902-3.2631836-1.7918701-5.2822266-.5611572-2.0151367-1.0166016-4.190918-1.317749-6.2060547-.6098633-4.0327148-.5227051-7.3950195-.864624-7.4248047-.291626-.0375977-.970829 3.3359375-.7648964 7.5800781.0999794 2.1137695.404789 4.4228516.8782997 6.5688477.463501 2.1494141 1.1369629 4.1137695 1.7088623 5.6171875 1.0852051 2.7319336 2.1832275 4.6743164 3.0845947 6.0820313.4423828.7109375.8482666 1.2827148 1.213501 1.7441406.3582764.4658203.6500244.8374023.9241943 1.109375.5935059.6157227.9332886.840332 1.1655273.8913574.010376.0725098.0158081.1467285.0297852.2185059.1281738.6455078.4191895 1.3515625 1.0412598 1.7167969.619873.3569336 1.2677002.2895508 1.7545166.168457 1.0095215-.246582 1.7293701-.6982422 2.3071289-1.0625 1.1396484-.7583008 1.668457-1.2954102 1.6268311-1.3510742-.0517578-.0732422-.6791992.3398438-1.8590088.9462891-.5876465.2890625-1.3363037.652832-2.2042236.7915039-.4277344.0791016-.8936768.0551758-1.2056885-.1689453-.3168945-.2148438-.493042-.6538086-.5704346-1.1791992-.144165-1.0976563.1975098-2.2802734.791748-3.5063477.5933838-1.2202148 1.4146729-2.4570313 2.3515625-3.706543 1.8687744-2.4907227 4.2772217-5.0654297 6.6953125-7.7729492 2.4718018-2.6484375 5.305542-5.2084961 8.1550293-7.8422852.9314575-.840332 1.8377686-1.7111816 2.7371216-2.5852051.0209961.1960449.1221313.4602051.3103638.8933105.1988525.4750977.5159912 1.159668.6958008 2.2456055.1599121 1.0668945.2148438 2.6137695-.6375732 4.3295898-.4605713.9458008-1.3134766 2.0742188-2.519165 2.9921875-1.1842041.9243164-2.7261963 1.637207-4.159668 1.9248047-1.4351807.3061523-2.7280273.0063477-3.5356445-.5219727-.8208008-.503418-1.1436768-1.0947266-1.3034668-1.0288086-.1361084.0283203-.1074219.8261719.7246094 1.7192383.4085693.4345703 1.005127.8613281 1.7668457 1.1342773.7572021.2749023 1.6444092.3803711 2.5444336.3222656 1.6646729-.1174316 3.3710327-.7036133 4.84729-1.6083984-.1997681.1904297-.3995972.3811035-.5944824.5654297-4.1876221 3.9018555-7.1864014 6.3774414-9.1773682 8.0869141-4.0161133 3.3847656-4.0544434 3.6992188-3.8533936 3.9692383.180542.2426758.5546875.4003906 4.864624-2.6821289 2.1397705-1.5605469 5.2722168-3.9243164 9.611084-7.8051758 2.1520989-1.9526364 4.6224358-4.3027341 7.2105706-7.2968747zm-27.498291 64.6699219c.00177-.0019531.0032349-.0043945.0050049-.0065918.1029663.5266113.3433838 1.3439941.6230469 2.6374512.1574707.8061523.3122559 1.7983398.1673584 2.9643555-.072876.5786133-.2312012 1.1933594-.5289307 1.7753906-.288208.5727539-.760376 1.1123047-1.4350586 1.6914063-.6595459.5664063-1.4593506 1.1333008-2.362793 1.6376953-.453125.2509766-.9244385.487793-1.418335.6689453-.5560303.1967773-1.1320801.4003906-1.7290039.6113281-2.3973389.809082-5.1766396 1.6025391-8.4077187 2.1875-1.7662354.3442383-3.8104248.5874023-6.0236816.7763672-2.2163086.140625-4.6066895.203125-7.0662842.0654297-2.4577637-.1469727-4.9794922-.4555664-7.456543-.9243164-2.4735107-.4848633-4.8914795-1.1577148-7.1655254-1.8959961-1.1196289-.3793945-2.1621094-.8061523-3.0220947-1.3911133-.8619385-.5786133-1.5096436-1.3266602-1.9511719-2.1855469-.8883057-1.7275391-.9934082-3.6103516-.8759766-5.1367188.1223145-1.5444336.4124756-2.800293.5749512-3.6738281.0212402-.1083984.0359497-.192627.0540161-.2890625.119751.2792969.2592163.5683594.4187622.8371582.6199951 1.0700684 1.4799805 2.0600586 2.5899658 2.9401855 2.25 1.8598633 5.5200176 2.6599121 9.0100079 3.0200195 3.4799805.3498535 7.4099731.7897949 12 .9199219 2.5.0498047 5.4000244-.0200195 8.5100098-.4599609 3.0999756-.4501953 6.4199867-1.3200684 9.5800209-2.8601074 1.5199585-.7299805 3.1399536-1.5100098 4.6199951-2.6699219.4499512-.3601074.8999634-.7600098 1.2899781-1.2399902zm-14.0999794-12.3000489c.4199829-.4699707 1.0799561-.7800293 1.7799683-.9001465.7000122-.119873 1.3800049-.0598145 2.0599976.1101074.1600342.0400391.3300171.0900879.489994.1398926.1199951.0500488.2399902.0900879.3600464.1501465.2199707.1101074.4199829.2399902.5799561.3898926.6199951.5500488.8900146 1.3000488.9200439 1.9399414 0 .1601563 0 .3100586-.0200195.4702148-.0100098.0898438-.0200195.1899414-.039978.2797852-.0100098.1000977-.0200195.2001953-.0400391.2900391-.0599976.3701172-.1099854.7202148-.1699829 1.0400391-.0200195.1101074-.039978.2299805-.0599976.3300781-.210022 1.1000977-.3500366 1.8598633-.460022 2.4099121-.1199951.7399902-.0899658 1.0800781.0300293 1.2600098-.3600464.0500488-.7700195.0900879-1.2300453.1201172-1.0899658.0698242-2.8199463-.0400391-4.3099976-.25-.1799927-.0300293-.3599854-.0500488-.5299683-.0800781.0200195-.3100586-.0200195-.8598633-.1000366-1.5600586-.0999756-.9699707-.2599487-2.2700195-.1299438-3.619873.0099487-.1901855.039978-.380127.0699463-.5700684.0400391-.2800293.1000366-.5600586.1800537-.8100586.1399536-.4499512.3399658-.8498536.6199951-1.1398927zm-.1999512-66.6716308c-.2116699.1323242-.5240479.3383789-1.0991211.4594727-.2980957.050293-.5998535.0688477-.9906006-.0209961-.40979-.0942383-.8878174-.2871094-1.4520264-.6337891-.5953369-.3642578-1.4971924-1.0068359-2.3469238-1.6313477-.8404541-.6235352-1.5913086-1.3603516-1.9338379-2.137207-.0324707-.0727539-.0452881-.1489258-.071106-.2231445.0696411-.1914063.0280151-.2919922-.0408325-.3740234-.0259399-.0307617-.0535889-.0595703-.0883789-.0810547-.104248-.5817871-.0435181-1.1542969.1092529-1.5507813.1390381-.394043.3401489-.6508789.4314575-.8266602 2.9334106 2.6044922 5.6706543 4.8017578 7.8486938 6.4267578.1264038.0942383.2398682.1762695.3623657.2668457-.2210081.0126954-.4310301.1130372-.7289427.3259278zm18.6762733-13.0976563c-.5512695.1049805-1.3569336.3188477-2.4799805.8183594-1.1148682.5063477-2.5715332 1.2773438-4.2612305 2.6269531-1.8867188 1.4389648-4.3399658 4.2983398-5.7397461 7.0336914-.9764404 1.7858887-1.56427 3.427002-1.7789345 4.3757324-.7376709-.6691895-1.9391479-1.7004395-3.4827881-3.0505371-2.6868896-2.3481445-6.3415527-5.6508789-10.1450195-9.5249023-1.8897705-1.925293-3.8702393-3.9731445-4.9147949-6.4052734-.5244141-1.2036133-.7509766-2.4833984-.6401367-3.7377939.1219482-1.2587891.5634766-2.4921875 1.1937256-3.621582 1.2854004-2.2524414 3.2003174-4.152832 5.1582031-5.4291992 1.9750977-1.2832031 4.088501-1.8447266 5.8155518-1.6064453 1.5795898.1958008 2.9691162 1.0058594 4.1782227 1.9643555 1.2132568.9628906 2.2683105 2.0629883 3.3012733 3.0874023 2.0588379 2.0405273 3.8304443 3.796875 5.3551025 5.3081055 3.0635986 3.0083017 5.1660156 5.0092783 6.6204834 6.328126.9503784.8618164 1.6204224 1.4282227 2.1046143 1.7978516-.0890503.0092771-.1783447.0183103-.2845459.035156zm17.0247803 19.4804688c1.6494751-1.6115723 3.2769165-3.2124023 4.9459229-4.6342773 2.7972412-2.4003906 5.8397217-4.3662109 8.9277344-4.9702148l.5717773-.1137695c.0917969-.012207.0651855-.0029297.0952148.0009766.0341797.0083008.071167.0595703.0666504.0664063l-.0013428.0073242-.0032959.0102539-.0584717.1318359-.1204834.2700195c-.1629639.3574219-.3114014.7163086-.4803467 1.0610352-.6442871 1.3920898-1.3237305 2.6801758-1.9898682 3.8647461-2.4383545 4.3237305-5.0895996 7.824707-7.5760498 10.7460938-.9993896 1.1750488-1.9779663 2.2475586-2.9278564 3.2429199.0966187-.1650391.2097778-.3322754.2883301-.4934082 1.1595459-2.3457031 1.0019531-4.4326172.6555176-5.8208008-.3736572-1.4208984-.984375-2.2568359-1.4395752-2.7348633-.425476-.4367677-.7369385-.5910646-.9538574-.6342775z"/><path d="m97.3972626 62.9621582c-.6203613.1538086.3330078 6.1489258 1.0117188 8.8847656 1.2385254 4.9921875 1.767334 4.9716797 2.3878174 4.8178711.6203613-.1542969 1.0974121-.3833008-.1411133-5.3754883-.678711-2.7353515-2.6380616-8.480957-3.2584229-8.3271484z"/><path d="m109.4452362 62.9299316c-1.8880615-1.5229492-6.2650146-4.3876953-6.6662598-3.8901367-.4013672.4975586 3.3249512 4.1689453 5.2130127 5.6918945 3.4454346 2.7788086 3.8427734 2.4335938 4.2441406 1.9360352.4012452-.4975586.6545411-.9589844-2.7908935-3.737793z"/><path d="m115.0373993 53.5397949c-2.28125-.5419922-7.296875-1.2006836-7.4445801-.5786133s4.628418 2.2885742 6.90979 2.8305664c4.1633301.9887695 4.3701172.5053711 4.5178223-.1166992s.1804199-1.1469726-3.9830322-2.1352539z"/><path d="m24.0143261 65.677002c.2091064-1.4702148.5184326-3.0161133.8717041-4.4150391.7037354-2.8007813 1.6170654-4.9833984 1.4592285-5.0566406-.1290283-.065918-1.3187256 2.0161133-2.2446289 4.8261719-.4630127 1.4008789-.8653564 2.9711914-1.1391602 4.4760742-.2801514 1.5043945-.404541 2.9423828-.4724121 4.059082-.166748 4.0908203.3093262 6.1635742.5302734 7.1928711.2735596 1.0302734.4222412 1.0429688.5794678 1.0146484s.2924805-.0986328.2298584-1.1367188c-.0114746-1.0390625-.3452148-3.0546875-.1835938-7.0136719.0662843-1.0820312.1540528-2.4765624.3692628-3.9467772z"/><path d="m17.6068554 62.9240723c-.3148193-.0551758-1.1369629 3.1430664-1.401123 4.6542969-.4820566 2.7578125-.2369394 2.8598633.0778809 2.9150391.3148193.0551758.5800781.0419922 1.0622559-2.7158203.26416-1.5107423.5758055-4.79834.2609862-4.8535157z"/></g></g><g><g><g><path d="m64.782608 18.9420433c-.1140137.1118164-.2353516.1948242-.7304688-.1538086-.503788-.3398438-1.3593788-1.1342773-3.104496-2.6083984-.9553223-.8085938-2.473999-2.0629883-3.7961426-3.0761719-1.315918-1.0195313-2.4180908-1.8193359-2.3359375-1.9609375.0778809-.1347656 1.3358154.4204102 2.7946777 1.2832031 1.4627686.8549805 3.1022949 2.0385742 4.0810547 2.8671875 1.7885742 1.5107422 2.5754433 2.4204102 2.9382362 2.9145508.3543703.5048828.2672121.6220703.1530763.734375z" fill="#fff"/></g></g></g><g><g><g><path d="m69.266983 23.6896019c-.3306885.0898438-.508667.1010742-.8001709-.2944336-.0855713-.112793-.2243652-.2954102-.3670654-.4833984-.1429443-.184082-.3197021-.3505859-.3031006-.5107422.013916-.1557617.286377-.2807617.6418457-.234375.352417.0366211.734375.2641602.9066162.4746094.3195801.3837891.3328857.6772461.2783203.8188477-.0621337.1499023-.2027587.1860351-.3564453.2294921z" fill="#fff"/></g></g></g><g><g><g><path d="m63.0063591 107.1822815c-.159668-.0004883-.3048096-.0126953-.4127197-.1665039-.1185303-.152832-.175415-.4462891-.3482666-1.0019531-.0942383-.3041992-.24646-.7871094-.4290771-1.2021484-.173584-.4160156-.3675537-.769043-.262085-.8925781.0997314-.1196289.5178223.0361328.9204102.40625.4068604.3613281.7504883.9345703.8720703 1.3325195.2260742.7275391.1530762 1.137207.0648193 1.3276367-.100586.1953125-.2454834.1967773-.4051514.1967773z" fill="#fff"/></g></g></g></g></g></svg>