<svg id="Layer_1" enable-background="new 0 0 135 135" height="512" viewBox="0 0 135 135" width="512" xmlns="http://www.w3.org/2000/svg"><g id="Drawing_Pin"><g><g><g><g><g><g><path d="m55.3886833 100.054306c5.2659569-8.6820221 11.7485619-16.6249161 19.1991234-23.5239716-3.6500168-.3603668-7.2856522-.865448-10.8957901-1.5129089-4.1064224-.7364731-6.1478729-2.3095245-6.5482101 2.5359039-.3139572 3.7999268-.5930824 7.6030731-.8895874 11.4044113-.2068978 2.6525041.4857864 8.8686372-.8655358 11.0965653z" fill="#ffcb05"/></g></g><g><g><path d="m96.89534 36.5363808c2.7691422.5463943 5.6082764 1.0006638 8.4048004.6178894 10.1442108-1.3885231 5.6360321-10.494482.2449341-14.8001614-9.0865555-7.2571173-20.5861359-11.6881485-32.1342621-12.760786-4.7930527-.4451971-11.5131836 1.4177017-11.4531784 7.3524933.0371132 3.6702652 3.3468018 6.4727821 6.0921707 8.401638 7.4451294 5.2308254 16.8124847 8.2040405 25.5564575 10.4261703 1.0905304.2771416 2.1847458.5448494 3.2890778.7627564z" fill="#ffcb05"/></g></g></g><g><path d="m123.0501099 98.8332825c-.0012207-.0014648-.0024414-.0024414-.0036621-.0039063 0 0 .0002441-.0002441.0002441-.0004883.1099854-.2797852.0999756-.6398926-2.9599609-1.8598633-1.5400391-.5900879-3.8400879-1.3901367-7.3500977-2.2700195-3.5-.8598633-8.2099609-1.8100586-14.5300293-2.2800293-1.7299805-.130127-3.7199707-.1999512-5.8498535-.2199707-2.1201172-.0300293-4.380127-.0200195-6.6900635-.1298828-2.289917-.1201172-4.6400146-.3500977-6.8800049-.9001465-2.25-.5400391-4.4199219-1.3898926-6.4699707-2.3000488-1.8900146-.8498535-3.7199707-1.7199707-5.4000244-2.5 3.6900635-4.4299316 5.75-6.5 6.6800537-7.6999512.1699219-.2199707.3099365-.3999023.4199219-.5600586 1.4699707.1201172 2.8800049.1799316 4.1899414.1901855 1.3200684.0097656 2.6000977-.0200195 3.8400879-.1000977 1.2199707-.0500488 2.5100098-.1999512 3.6699219-.4499512 2.3601074-.4899902 4.4700928-1.3500977 6.3000488-2.4001465 1.8200684-1.079834 3.3601074-2.3598633 4.5600586-3.7797852 1.1999512-1.3701172 2.1099854-2.9902344 2.5400391-4.5400391.9099121-3.1201134.4799805-5.9501915-.3901367-8.0200157-.8898926-2.0700684-2.1499023-3.5100098-3.3898926-4.3500977-1.2399902-.8398438-2.3200684-1.1499023-3.1000977-1.3398438-.3977051-.0895996-.7358398-.1494141-1.0150146-.1894531.4293213-.6335449.8612061-1.2631836 1.2932129-1.8720703 1.2637939-1.7895508 2.5324707-3.4042969 3.520752-4.6557617 1.8233643-2.269043 3.3060303-3.8925781 4.4405518-5.1074219 1.1278076-1.2216797 1.9020996-2.0429688 2.3986816-2.6298828.4978027-.581543.7128906-.9384766.7780762-1.1806641.5490723-.0014648 1.1237793-.0246582 1.7310791-.0869141 1.3269043-.171875 2.8409424-.4453125 4.2736816-1.3632813.7061768-.4570313 1.3709717-1.1152344 1.7983398-1.9584961.4287109-.8432617.5743408-1.8256836.5219727-2.7758789-.1201172-1.9194336-.9448242-3.7172852-1.9935303-5.371582-1.0706787-1.6494141-2.4234619-3.1938477-4.0496826-4.5058594-6.2802735-5.1650387-14.4038087-9.2231451-22.5404054-11.351563-2.0288086-.5527344-4.0622559-.9667969-6.057373-1.2944336-.9985352-.1606445-1.9870605-.3032227-2.9660645-.4038086-.9490967-.1318359-2.0205078-.1899414-3.0073242-.1591797-1.9962158.0825195-3.9202881.4692383-5.6473389 1.2680664-1.7293663.7539063-3.2388878 2.0703125-4.0833702 3.6772461-.2001953.3588867-.3190918.7548828-.4725342 1.1289063-.1143799.3852539-.1829834.7788086-.2683105 1.1645508-.0799561.7695322-.1289063 1.5395517-.0043945 2.3076181.2255859 1.5327148.9189453 2.8491211 1.7086182 3.9291992.706543.9326172 1.475338 1.7197266 2.2645226 2.4182129-.0284424.2006836-.0527344.4294434-.0682373.723877-.0183105.3935547-.0408936.8793945-.0688477 1.480957-.0106201.6005859-.0318604 1.315918-.0795898 2.168457-.0743408 1.7026367-.2008057 3.9594727-.6668663 6.909668-.2786865 1.6113281-.6365967 3.6884766-1.2177734 5.8554688-.149292.5668945-.3117676 1.1398926-.4829102 1.7138672-.3199463-.1599121-.7498779-.3398438-1.2999268-.5300293-1.3199463-.4299316-3.3798828-.8498535-5.8999023-.5100098-2.5.3200684-5.5100098 1.4001465-7.9899902 3.8000488-1.2199707 1.1999512-2.25 2.7099609-2.9899902 4.420166-.7199707 1.7197266-1.1500244 3.6398926-1.1900635 5.619873-.0299072 1.9799805.3299561 4.0400391 1.1800537 5.9499512.8599854 1.9199219 2.1499023 3.5800743 3.5699463 5.0600548 2.710083 2.7600098 5.9200439 4.9899902 9.3599854 6.5898438-.1699219 1.2202148-.3199463 3.6000977-.5699463 6.3100586-.1099854 1.1699219-.2401123 2.4001465-.3800049 3.630127-.0001221.0012207-.0003662.0026855-.0004883.0041504-.300293.1865234-.6801758.4462891-1.1831055.8144531-1.9099121 1.340332-5.6210938 4.0917969-14.2731934 7.1264648-4.6809082 1.7226563-12.4742451 3.9199219-18.4559345 7.3061523-2.9957275 1.6489258-5.4523926 3.6000977-7.0040283 5.2124023-1.5552979 1.6176758-2.2647705 2.8149414-2.1585693 2.8974609.1416016.1176758 1.0804443-.8720703 2.7651367-2.2314453 1.6859131-1.3574219 4.1707764-3.019043 7.1523438-4.4262695 5.930542-2.8935547 13.6591816-4.8125 18.4777851-6.5776367 8.6456299-3.019043 12.6395264-6.1550293 14.4200439-7.9257813-.2700195 2.1499023-.5500488 4.1799316-.7800293 5.7399902-.7900391 5.4001465-1.2900391 8.1398926-1.3699951 9.5900879-.0899658 1.4399414.1800537 1.5600586.4899902 1.619873.3099365.0700684.6099854.0800781 1.1199951-1.2800293.0600586-.1699219.1201172-.3598633.1899414-.5698242v-.0102539c.920166-1.0698242 2.2600098-2.8098145 3.7600098-4.7597656 2.2200928-2.8901367 4.8400841-6.2099609 6.8300743-8.6201172 1.6999512.9101563 3.5700684 1.9301758 5.5700684 2.9499512 2.0599365 1.0100098 4.289917 2 6.6799316 2.670166 2.3900146.6699219 4.8699951.9899902 7.2399902 1.1699219 2.3800049.1699219 4.6699219.2099609 6.7800293.2700195 2.1099854.0500488 4.0300293.1398926 5.7299805.2600098 6.1599121.4499512 10.7600098 1.3200684 14.2099609 2.0500488 3.4499512.7399902 5.7600098 1.369873 7.3300781 1.75.9975586.2495117 1.6962891.4089355 2.1960449.4892578-.2873535.1508789-.6413574.3540039-1.0961914.6342773-.9705811.5712891-2.3758545 1.456543-4.5756836 2.5161133-1.1037598.5302734-2.395752 1.0756836-3.9736328 1.6352539-1.5722656.5722656-3.4208984 1.1464844-5.5333252 1.9760742-1.15271.4619141-2.4798584 1.0307617-3.8375244 1.8525391-1.3569336.8066406-2.743042 1.8999023-3.9078369 3.1992188-2.3602295 2.581543-4.0117188 5.753418-5.8924561 8.1914063-1.9168701 2.4511719-4.0517578 4.3764648-5.7437744 5.5063477-1.5877686 1.0932617-2.7854004 1.4067383-2.8995361 1.5893555-.0350342-.0915527-.1069336-.2006836-.265625-.3520508-.1832275-.1748047-.4693604-.4003906-.9066162-.7001953-.4324951-.3105469-1.0258789-.6748047-1.8438721-1.0849609-1.6065674-.8769531-4.1125488-1.9663086-7.9624023-3.0605469-3.8486328-1.1010742-9.0743408-1.96875-15.9258995-2.737793-3.7524414-.4472656-8.564209-.909668-13.59375-1.8007813-5.0369873-.8828125-10.3172607-2.1538086-15.0559101-3.6210938-4.744751-1.4501953-8.9519043-3.059082-11.9731445-4.2919922-3.0231934-1.2299805-4.8815918-2.0429688-4.9594727-1.890625-.0682373.1318359 1.6540527 1.2177734 4.5859375 2.7104492 2.928833 1.4951172 7.0883789 3.3554688 11.8341064 5.0263672 4.7385273 1.6884766 10.0667744 3.1479492 15.1752949 4.1635742 5.1171875 1.0258789 9.9783936 1.5571289 13.7192383 2.003418 6.8359375.7675781 11.9106407 1.5512695 15.6533165 2.5019531 3.7387695.9438477 6.1923828 1.8286133 7.824585 2.4868164.8305664.3007813 1.4536133.5517578 1.9278564.7451172.4793701.1831055.8201904.2880859 1.0656738.3393555.4910889.1025391.5993652-.0126953.6779785-.1518555.0361328-.0639648.0605469-.1320801.0456543-.21875.2219238.0998535 1.5476074.0302734 3.3271484-.8754883 1.9488525-.9609375 4.3503418-2.7768555 6.550293-5.2382813 2.1906738-2.5078125 3.9711914-5.5390625 6.1868896-7.7763672 2.1506348-2.265625 4.8505859-3.4980469 7.0457764-4.362793 2.0006104-.7866211 3.8530273-1.3813477 5.4677734-2.0014648 1.6193848-.6064453 3.012085-1.2441406 4.1523438-1.8603516 2.2900391-1.2373047 3.6837158-2.3232422 4.5762939-3.0961914 1.7591553-1.5869139 1.5908203-1.9101561 1.3978272-2.1411131zm-74.0234337-33.2143555c-1.3499756-1.3398438-2.5400391-2.8300743-3.3100586-4.4499474-.7799072-1.6398926-1.1499023-3.4399414-1.1699219-5.1999512-.0200195-1.7700195.3200684-3.5100098.9199219-5.0700684.6101074-1.5598145 1.4899902-2.9499512 2.5400391-4.0700684 2.1500244-2.25 4.880127-3.3898926 7.2099609-3.8198242 2.3500977-.4501953 4.3200684-.2001953 5.6401367.0698242.5593262.1201172 1.0087891.2497559 1.338623.3398438-.465332 1.5341797-.9943848 3.0673828-1.5517578 4.4873047-1.5894775 4.0683594-3.432251 7.1552734-3.1477051 7.3476563.2369385.1743164 2.5992432-2.6323242 4.6397705-6.6748047 1.0189209-2.0126953 1.961544-4.309082 2.6724815-6.5405273.7215576-2.2294922 1.1644287-4.3964844 1.4553223-6.0854492.4885254-3.09375.5551758-5.46875.5134277-7.25-.010498-.8920898-.0615234-1.637207-.1350098-2.2597656-.0300293-.2858887-.0585938-.5395508-.0893555-.776123.4768066.3498535.951416.6782227 1.4156494.9924316 3.6220703 2.4389648 7.0270996 4.0039063 9.977417 5.2163086 5.9384766 2.3598633 10.1228027 3.3525391 12.9291992 4.027832 2.8088379.6567383 4.3292236.8354492 5.1148682.8852539.7901611.0410156.8743896-.0957031.9056396-.2524414s.0030518-.3193359-.7193604-.6293945c-.72229-.3198242-2.1363525-.7294922-4.8753662-1.5839844-2.7224121-.8676758-6.8105469-2.0161133-12.53479-4.4160156-2.8411865-1.2290039-6.1036377-2.7832031-9.522583-5.1230469-1.7064209-1.1616211-3.4799805-2.5043945-4.7904053-4.2583008-.636837-.8774414-1.1289024-1.8583984-1.2783165-2.9057617-.1401367-1.0322266-.0114746-2.2353525.5126953-3.1948252 1.0922813-2.2026367 4.31213-3.6210938 7.7656212-3.7460938.8791504-.0292969 1.7128906.0004883 2.6796875.1220703.9443359.0874023 1.8986816.215332 2.8637695.359375 1.9279785.2944336 3.8967285.668457 5.8647461 1.175293 7.8924561 1.9458008 15.8323975 5.7177744 22.0557861 10.567872 1.5209961 1.1601563 2.8135986 2.5566406 3.8411865 4.0390625 1.0098877 1.4804688 1.7834473 3.0913086 1.9291992 4.6508789.0684814.7729492-.0192871 1.5219727-.3127441 2.1611328-.2945557.6381836-.7731934 1.1650391-1.3394775 1.5683594-1.1434326.8129883-2.5322266 1.159668-3.7745361 1.3813477-2.519043.3969727-4.6420898.1425781-6.0870361.0063477-1.4522705-.159668-2.2624512-.2573242-2.2780762-.1743164-.0141602.0742188.7614746.3242188 2.2050781.6352539.7382813.145752 1.6640625.3254395 2.7524414.4296875-.0266113.0178223-.0469971.0292969-.074585.0478516-.6505127.4438477-1.5650635 1.1635742-2.8154297 2.3422852-1.2563477 1.1713867-2.8455811 2.8129883-4.7344971 5.1635742-1.0236816 1.2958984-2.2844238 3.0087891-3.4844971 4.9140625-1.2036133 1.9023438-2.366333 3.9780273-3.3452148 5.909668-1.9552002 3.8681641-3.2121582 7.137207-2.9379883 7.2739258.296875.1499023 2.0727539-2.8598633 4.3605957-6.4643555.5643311-.8874512 1.1619873-1.8093262 1.774292-2.7299805.0004883.0002441.0007324.0002441.0012207.0004883.3099365.130127.7199707.2802734 1.2399902.4902344.6899414.2900391 1.5899658.6699219 2.5300293 1.4299316.9299316.7399902 1.8999023 1.9599609 2.5699463 3.7399902.6600342 1.7399902.9500732 4.1201172.1400146 6.6799278-.3900146 1.2900391-1.1000977 2.5100098-2.1700439 3.7199707-1.0499268 1.2099609-2.4100342 2.3200684-4.0299072 3.2600098-1.6201172.9299316-3.5200195 1.6799316-5.630127 2.1101074-1.0699463.2199707-2.1298828.3500977-3.3399658.3999023-1.1900635.0800781-2.4200439.1000977-3.6800537.1000977-2.7799072-.0200195-5.9499512-.25-9.3199463-.8901367-3.3599854-.6499023-6.9100304-1.6899414-10.4000206-3.1899414-3.4399411-1.4499512-6.7600094-3.6298828-9.4799801-6.2900391zm8.8500976 29.4799805c-.6000977.9599609-1.1501465 1.880127-1.630127 2.7099609.3300781-1.5.7000732-3.4697266 1.0700684-6.0498047.3200684-2.1000977.5899658-5.0800781.7099609-8.0600586.0100098-.1499023.0100098-.3000488.0100098-.4599609.0400391-1.1201172.0600586-2.2399902.0400391-3.3000488-.0300293-2.5500488-.2199707-4.7900391-.4300537-6.0800781h.0100098c3.6099854 1.6201172 7.3099327 2.7600098 10.8199425 3.4602051 1.1900635.2397461 2.3500977.4199219 3.4799805.5598145-1.329834 1.0500488-3.5198975 3.0500488-6.829834 7.0100098-.130127.1601563-.2700195.3200684-.4101563.4899902-.2399902.2900391-.4799805.6000977-.7399864.9299316-1.9199219 2.460205-4.2600098 5.8000487-6.0998536 8.790039z"/><path d="m86.4271851 95.1277161c-.1517334-.0488281-.3070068-.0703125-.5085449.0708008-.2072754.1357422-.4443359.4360352-1.0272217.8369141-.5786133.3999023-1.5900879.8833008-3.3664551 1.2128906-.8717041.1665039-2.0595703.3095703-3.4156494.7680664-.6810303.2324219-1.4337158.5668945-2.1704102 1.1435547-.7299805.5581055-1.4056396 1.5195313-1.6717529 2.4970703-.3066406 1.0180664-.4157715 2.0888672-.7950439 2.581543-.1787109.2509766-.421875.4179688-.7808838.5024414-.3664551.090332-.8868408.0761719-1.4675293-.0009766-1.1530762-.1181641-2.5734863-.5419922-4.1871338-.1308594-1.5699463.434082-2.6472168 1.512207-3.456295 2.4819336-.8262939.9892578-1.430542 1.9931641-2.0576172 2.7587891-.6315918.7802734-1.2792969 1.4057617-1.895874 1.8032227-1.2333984.8383789-2.2611084.6640625-2.2827148.8520508-.013916.0625.2149658.2226563.6956787.2851563.4737549.0683594 1.2141113.0166016 2.0095215-.3413086.8037109-.3398438 1.6359863-.9516602 2.428833-1.7260742.8071289-.7871094 1.5026855-1.7211914 2.3175011-2.5351563.8012695-.8217773 1.7269287-1.53125 2.6923828-1.7128906.930542-.2001953 2.1071777.1420898 3.4208984.3745117.6593018.1118164 1.3969727.2089844 2.2210693.0581055.8280029-.1416016 1.6586914-.6308594 2.1516113-1.3017578.5106201-.6694336.6992188-1.3505859.8485107-1.8935547.1425781-.5507813.2346191-1.0102539.348999-1.3730469.1923828-.6474609.4801025-1.0229492.9064941-1.3876953.4285889-.3427734.947876-.6044922 1.4854736-.7993164 1.0911865-.3994141 2.1231689-.574707 3.1199951-.8222656 1.9742432-.4853516 3.3179932-1.2890625 4.010498-2.0917969.7021484-.8041992.7810059-1.4204102.7539063-1.7055664-.0338133-.3012697-.1766356-.3554689-.3282469-.4047853z"/><path d="m85.2503052 109.79422c-.1658936.5087891-.4782715.949707-.8742676 1.3217773-.795166.7514648-1.8643799 1.0786133-2.6357422 1.1245117-.7862549.074707-1.3100586-.0810547-1.3873291.0800781-.0701904.1157227.3475342.5888672 1.3024902.8168945.9317627.2441406 2.3953857.1577148 3.7145996-.7211914.6503906-.4282227 1.2681885-1.0732422 1.6408691-1.8574219.3635254-.7441406.5527344-1.4550781.7808838-2.0107422.2225342-.5688477.4726563-.9106445.7001953-1.043457.2097168-.144043.5444336-.1958008.9890137-.2119141.394165-.0166016.848999-.0014648 1.3393555-.0488281.5009766-.0483398.953125-.1655273 1.3618164-.3022461.8100586-.296875 1.4281006-.7050781 1.8966064-1.1142578.9351807-.8330078 1.3018799-1.6259766 1.463623-2.1582031.2816162-1.097168-.086792-1.2109375-.3664551-1.2910156-.3255615-.0981445-.5633545-.0786133-1.0897217.543457-.2744141.2993164-.6473389.7553711-1.3354492 1.2368164-.34375.2363281-.7713623.4677734-1.2894287.6328125-.545166.1699219-1.0142822.1811523-2.0716553.1879883-.5379639.0249023-1.4064941.0854492-2.2125244.6777344-.7988281.5839844-1.1893311 1.4799805-1.4008789 2.1933594-.2202147.7338867-.3345946 1.4047852-.5260008 1.9438477z"/><path d="m33.3347816 43.9050636c2.1452637.8505859 6.9401855 2.1933594 7.1757813 1.5991211.2354736-.5942383-4.1776123-2.9008789-6.322998-3.7509766-3.915163-1.5517578-4.1879902-1.1025391-4.4234638-.5083008-.2354737.5947266-.3446046 1.1088868 3.5706805 2.6601563z"/><path d="m41.7830238 42.4206886c.4610596-.4428711-2.5760498-4.3525391-4.1654053-6.0068359-2.9005127-3.019043-3.3348389-2.7231445-3.7957764-2.2802734-.4610596.4428711-.7740479.8647461 2.1264648 3.8842773 1.5893556 1.6542969 5.3737794 4.8457031 5.8347169 4.402832z"/><path d="m46.090641 40.1492043c.3197021-.0439453.4578857-1.1357422.5935059-2.4375.1276855-1.3046875.2750244-2.8227539.3341064-3.7880859.1062012-1.762207.1346436-2.6679688-.0107422-3.1606445-.1343994-.4912109-.4163818-.5605469-.7316895-.612793s-.6032715-.0839844-.8863525.3657227c-.2714844.4501953-.5683594 1.3886719-.682373 3.2773438-.0637207 1.034668.0480957 2.671875.3430176 4.0136719.2869873 1.3461912.7272949 2.385742 1.0405273 2.342285z"/><path d="m105.9237671 64.1697083c-.3171387.0356445-.6027832.1108398-.7677002.7172852-.0976563.3022461-.1556396.7392578-.2987061 1.3666992-.12854.6259766-.3118896 1.4550781-.7479248 2.4916992-.255127.5585938-.5717773 1.2900391-1.0356445 2.0078125-.456543.7192383-1.0245361 1.4350586-1.6140137 2.0424805-1.1734619 1.2241211-2.470459 1.9101563-2.3687744 2.2290039.0720215.2900391 1.6964111.1396484 3.3874512-.9477539.8343506-.5332031 1.6589355-1.2666016 2.3184814-2.0668945.6674805-.7963867 1.1333008-1.6694336 1.4451904-2.3642578.5415039-1.2871094.7039795-2.3530273.7341309-3.1474609.024292-.3979492.0054932-.7319336-.0383301-1.0112305-.0371094-.2783203-.0738525-.4995117-.1468506-.675293-.2607421-.7006837-.5502929-.6777345-.8673095-.6420899z"/><path d="m110.0095825 69.9138489c-.3114014.0698242-.5904541.1557617-.7728271.3173828-.1960449.1650391-.2701416.3789063-.3737793.8095703-.0579834.2353516-.0913086.640625-.18396 1.0595703-.0758057.4165039-.2393799.8442383-.0858154 1.1269531.1448975.2763672.7246094.3085938 1.3172607-.0488281.5942383-.3369141 1.0766602-1.0498047 1.1943359-1.5610352.2255859-.9384766-.0247803-1.4604492-.2523193-1.6484375-.2496338-.1967773-.5314941-.1254882-.8428955-.0551757z"/></g></g><g><g><g><path d="m63.0501328 80.4041138c.2807617.0478516.6518555.1694336-.0340576 2.5004883-.2003174.6328125-.6380615 1.5878906-1.1169434 2.3222656-.4741211.7392578-.9649658 1.2592773-1.098999 1.1772461-.1386719-.0839844.0955811-.7407227.3626709-1.5341797.2734375-.7924805.5640869-1.7290039.7521973-2.3222656.6403808-2.1728516.7890624-2.2080079 1.1351318-2.1435547z" fill="#fff"/></g></g></g></g><g><g><g><path d="m96.5484238 30.6956139c-.0072021.159668-.0695801.3007813-1.5761719.3105469-.3775635.0107422-.8422852-.0229492-1.4195557-.0625-.5782471-.0322266-1.2657471-.0986328-2.0817871-.2177734-1.6326904-.21875-3.7930908-.6005859-6.5627441-1.4423828-1.5092773-.4814453-3.44104-1.1479492-5.404541-2.0654297-1.9661865-.9077148-3.9727783-2.0244141-5.7215576-3.1694336-1.7553711-1.1381836-3.2253418-2.3344727-4.258667-3.2260742-1.0142822-.9169922-1.5979004-1.5273438-1.5479736-1.5834961.1188965-.1381836 2.6846924 2.0424805 6.2387695 4.1142578 1.7733154 1.0371094 3.7766113 2.0551758 5.7220459 2.8901367 1.942749.84375 3.8369141 1.4628906 5.3093262 1.9331055 2.7016602.8208008 4.8007813 1.2246094 6.387207 1.4956055.7928467.1450195 1.4605713.2446289 2.0223389.3173828.5606689.0795898 1.0123291.159668 1.3790283.2006836 1.4644775.1972655 1.5214843.3461913 1.5142822.505371z" fill="#fff"/></g></g></g><g><g><g><path d="m103.2600937 29.4021568c.1588135.0102539.3052979.0141602.3820801.246582.057373.2094727.0583496.7583008-.545166 1.3828125-.3216553.340332-1.0148926.6694336-1.6234131.6254883-.6199951-.0253906-.9945068-.371582-.9226074-.5048828.0670166-.1489258.4520264-.1435547.8189697-.3066406.3768311-.1479492.7224121-.4394531.9099121-.6337891.3442383-.3598633.4154053-.5830078.5543213-.6933594.1188965-.1162109.2669677-.1259765.4259033-.1162109z" fill="#fff"/></g></g></g></g></g></svg>