<svg id="Layer_1" enable-background="new 0 0 135 135" height="512" viewBox="0 0 135 135" width="512" xmlns="http://www.w3.org/2000/svg"><g id="User_Profile"><g><g><g><g><g><g><path d="m46.8340416 86.8667679c1.3825455-2.1699524 2.7735558-4.35112 4.535717-6.3154449 5.662899-6.3126144 15.2123871-9.8937607 24.0843811-9.031868s16.7174454 6.1329193 19.7867126 13.2938309c-.1024551-.3015518-29.7635422 6.7827682-32.5195427 7.4108276-2.6588287.6059113-5.3176613 1.2118301-7.97649 1.8177414-2.2146683.5046997-5.9875717 2.0648575-8.2062149 1.7889404-5.0213203-.6244736-1.1419639-6.7079926.2954369-8.9640274z" fill="#ffcb05"/></g></g><g><g><path d="m69.5476913 50.8246078c-.2122192-.8278542-.4631729-1.6632118-.9460754-2.3683167-.702858-1.0262642-1.8220367-1.6750107-2.9034042-2.2897224-2.8225784-1.6045265-6.1029472-3.2606239-9.1711273-2.1986847-1.404007.4859428-2.5646095 1.4973526-3.5670509 2.5939331-1.1783714 1.2890282-2.2096214 2.7645912-2.6761703 4.4488754-1.977684 7.1440659 5.493042 14.4261131 12.3530846 13.9962959 7.0155104-.4395598 8.3477476-8.5767211 6.9107435-14.1823806z" fill="#ffcb05"/></g></g></g><g><g><path d="m27.0998363 14.8116331c1.2844143.2477818 2.5688267.4955626 3.8532391.7433443.2548332.049161.5467587.0899973.7496281-.0718679.1510315-.1205053.2080116-.3209143.2565823-.5079231.5700531-2.1948442 1.14011-4.3896875 1.7101669-6.5845308 1.9560738 2.1250153 3.9121513 4.2500305 5.8682289 6.3750458.1076431-3.2525034.8180008-6.4840851 2.0842819-9.4818993 4.7756119 10.2593079 8.3050766 21.0979748 10.4861946 32.2021446-1.5038719-.2880325-3.00774-.5760651-4.5116119-.8640976.3096542 1.4688797.353138 2.993454.1277122 4.4775963.1050072-.6913376-6.465332-4.7631798-7.2744408-5.254158-1.5760117 8.0926208-3.470417 3.6855202-5.5226517-1.1655731-2.7834624-6.579569-5.6334876-13.0542089-7.8273296-19.8680812z" fill="#ffcb05"/></g></g></g><g><path d="m120.3773499 111.3393707c-.0247803-.097168-.0643311-.1870117-.2277832-.2407227.8852692-.3916397-.8336945-6.4810867-5.2978516-27.1655273-3.7692032-17.4226913-7.3119431-35.2001114-8.4941406-40.6328125-.604248-2.800293-1.0500488-4.6357422-1.25354-4.9936523.6850739-1.239933-6.6227417-9.91749-15.852417-14.934082-2.9851074-1.6826172-5.6342773-2.6914063-6.2536621-2.6918945.1359863-.1186523.1374512-.2280273.1176758-.3369141-.0400391-.3198242-.2199707-.5800781-3.5100098-.2998047-8.590477.8095798-20.7762718 3.1185532-28.6199913 4.9799805-1.9200439-6.4501953-6.3299561-19.5600586-7.25-20.5400391-.0300293-.7700193-.3399658-.8701169-.6800537-.9599607-.619873-.1601563-1.1398926-.2001953-2.1298828 3.7099607-.3901367 1.5400395-.8300781 4.3999028-.8200684 5.9501958-.2299805-.3701172-.5300293-.8100586-.9100342-1.340332-.9799805-1.3598633-3.2698975-3.8300781-4.1999512-4.2099614-.0799561-.4101563-.3299561-.5097656-.6199951-.6000977-.6101074-.199707-1.1201172-.2998047-2.1800537 2.9101567-.4699707 1.4301758-1.0599365 4.3100586-.9300537 5.4301758-.1098633-.1000977-.2600098-.2104492-.4599609-.3300781-.4199219-.2602539-1.0599365-.5800781-2.0100098-1.0102539-.2399902-.0996094-.5-.2099609-.7800293-.3300781-.1699219-.0698242-.3498535-.1396484-.5299072-.2099609-.2900391-.1098633-.5999756-.25-.9000244-.2797852-.5899658-.0698242-1.2600098.1601563-1.6999512.699707-.4400635.5400391-.630127 1.2900391-.2800293 2.1103516 1.7561741 4.1416912 3.3162022 7.8052635 6.4199219 14.1796875-9.0962868 2.5244255-15.7799072 4.3684349-15.7799072 4.7001953.0054932 0 .012085.0107422.0164795.0166016-.1512022-.1672859-.1032457.8523216 1.0124512 6.8564453 2.784174 14.8512268 8.2559433 39.5156708 11.5910645 54.0556641 7.3279991 31.8812714 8.3626785 35.8705292 9.1972656 35.6904297.3122559-.0673828.5549316-.3134766-.2441406-4.9511719-3.1962929-18.3579025-15.3778439-67.6389389-19.6643066-84.9882813-.9846191-3.8842773-1.6705322-6.3720703-1.8845215-6.6552734.0024414.003418.0018311.0019531.0056152.0058594.7347984.351017 16.3895016-3.2038422 16.4899902-3.2202148.8093262 1.6386719 1.5786133 3.137207 2.2183838 4.3364258.1454582 1.8592911 2.3390579 6.116951 3.6269531 7.9067383.2271729 1.0908203.6135254 1.6733398.87146 1.9575195.3879395.3808594.6540527.265625.9445801.1328125.9834633-.4462776.4668655-1.0744743.3303223-3.5029297-.1217461-2.0836334.1634445-3.3791313.4156494-4.5644531.0584373.7937088 1.3273621 2.5040627 3.3421631 3.3320313.8378906.3554688 1.5913086.4433594 1.7470703.1679688.1591797-.2802734-.2719727-.8544922-.7805176-1.4882813-.5038033-.6158943-2.2337646-2.7660789-2.9897461-2.9902344-.3344727-.1064453-.5812988.0458984-.8427734.2294922-.1726074.1210938-.3251953.2431641-.409668.4169922.0723877-.3920898.0900879-.6708984-.0393066-.7636719-.2451172-.1855469-1.1430664.5205078-1.8105469 1.7636719-.2512207.4448242-.4523926.9536133-.6049805 1.4726563-.2270508-.6977539-.4622803-1.3461914-.668457-1.8388672-1.3044434-3.1191406-1.8570557-3.409668-2.3703613-3.2680664h-.0001221c-2.2554321-6.4076538-5.0614319-13.0047474-7.5699463-18.7397461-.0700684-.1601563-.1401367-.3203125-.210083-.4702148l-.0899658-.1796875c-.0400391-.0102539-.0400391-.1103516.0200195-.1103516l.0499268-.0097656s.0699463.0200195.1400146.0400391l.2299805.0698242c.2900391.0898438.5600586.1699219.8100586.25 1.0100098.2900391 1.6999512.4501953 2.1799316.5302734.9699707.1396484 1.1000977-.0800781 1.1900635-.3300781.0299072-.0703125.0499268-.1401367.0499268-.2202148.6500244-.0698242 2.3000488-3.4897461 2.8500977-5.1801758.2399902-.7197266.3999023-1.2895508.5-1.7397461.5400391 1.3100586 1.6799316 3.25 2.4299316 4.2900391 2.0900879 2.8500977 2.5500488 2.6000977 3.0700684 2.2299805.3199463-.2402344.5899658-.4702148.2299805-1.3198242.8325081-.8778286 2.516716-5.3532858 3.0300293-8.6000977.7951469 5.2206426 6.8649292 27.4305649 8.9595947 31.5488281-.4458618-.229744-1.2862473-.6338463-1.7593994-.7998047-1.4511719-.5595703-1.7033691-.2480469-2.041748.3330078-.1604004.2763672-.3027344.5292969-.1816406.8369141.2719002.6542816 1.8780174 1.4714241 3.6157227 1.1669922.6512451-.1054688 1.133667-.359375 1.2358398-.6352539.0641785-.0061798.062027.0019455.1516113-.0209961.5799561-.1699219.9899902-.5400391-2.0100098-10.7597656 14.9437065-3.3120117 28.5476494-5.2355766 30.9899864-6.2900391.0006104 0 .0009766-.0004883.0014648-.0009766-.1529541.6762695-.0559082 2.8325195-.0698242 5.3984375.0003281 4.0867043-.2478027 12.8522263 1.0168457 16.6884766.3776855 1.0888672.6691895 1.0800781.984375 1.0273438.2631836-.043457.4981689-.1269531.5943604-.7954102 3.0054398-.2240486 17.5505524-3.7913551 18.8890381-4.3217773.239502-.0898438.4179688-.1762695.5512695-.2597656.1625443.0010834.28125-.0813446.40625-.1938477-.12043 2.0040627 1.9968491 15.4962921 2.3151855 17.4741211 4.1900787 26.3213806 10.7338791 53.6222229 12.4344482 55.1279297-2.1519012-.0304337-12.0201721 2.3524857-30.4881592 6.6494141-13.1983871 3.0823822-33.1448784 7.8753815-46.2148399 11.6494141-7.4022255 2.1613007-7.8523788 2.589447.2185059.8740234 18.1089134-3.9306564 58.2361717-12.4673691 73.2380371-17.0537109 3.8789022-1.1992197 3.9638631-1.5185557 3.8847616-1.828126zm-23.4604493-72.9550781c-3.3463135.800293-9.4973145 2.9731445-11.7250977 4.1181641.0300293-1.171875-.1206055-3.262207-.28125-7.2050781-.1289139-2.8929214-.6066818-11.7792263-1.9450684-14.3701172.9867325 1.0670338 6.6895523 4.0699329 13.9206543 10.6953125 3.0799561 2.8120117 4.776123 4.6347656 5.8634033 5.690918-1.1864012.0883788-3.0208739.3749999-5.8326415 1.0708007z"/><path d="m51.0343361 61.8813629c1.7455292 2.2580795 4.0747757 3.6406097 7.0878906 3.953125 8.6006432.8700104 16.4140739-7.1386871 14.1442833-15.0800781-1.9015656-6.7253876-9.3290329-10.0648193-14.0909386-7.9257813-1.447506-.0725365-2.9566536.3516769-4.2562256.9931641-6.8712806 3.4725838-7.3860969 12.1464691-2.8850097 18.0595703zm6.1915283-18.4858398c-.0665283.0541992-.1247559.1044922-.1732178.1489258-.3581543.3779297-.295166.5185547-.208252.6523438.3298264.5077133 1.0460434-.2272377 3.4233398-.2792969 7.4133034.043045 13.0461769 8.0781517 8.3969688 14.7773438-3.4240646 4.8925438-9.7136536 6.1341629-13.5331993 4.1367188-2.9459419-1.5314217-4.8738022-5.1730614-5.3364258-8.4150391-.7775725-5.4442064 2.6426432-9.7937623 7.4307863-11.0209962z"/><path d="m43.2721291 94.383316c-.1154785.6513672-.1296387 1.2236328-.1425781 1.6884766-.0285645.9306641-.0073242 1.4414063.0722656 1.4472656.2092285.0175781.3789063-2.0224609 1.3300781-5.1191406 7.1961975-22.7686615 35.8940086-29.7726898 52.7353477-7.7392578-9.9239807 1.5979309-52.5375481 12.7484665-52.3352013 13.5800781.151123.6210938 23.9206505-4.6328125 34.9394493-7.3164063 20.1088867-4.8955078 20.4069824-5.5019531 20.2556152-6.1230469-.0598145-.2460938-.1862793-.4560547-1.5618896-.3173828-.2001953-.5410156-.5487061-1.3266602-1.2701416-2.4082031-4.0254898-6.2448349-11.6248932-11.5048065-21.0053711-12.8457031-15.8896599-2.2285843-29.580555 9.3881149-32.6279259 22.9365234-.2270507.803711-.2736815 1.5673829-.3896483 2.2167969z"/><path d="m40.45084 117.6049957c.2270508 1.3710938 1.1745605 2.3222656 1.9367676 2.8339844 1.6574783 1.0926285 3.7160263 1.3224106 5.5817871 1.0800781.3007813-.0444336.4924316-.0927734.6152344-.144043.0976563.0854492.2955322.1054688.9094238-.3110352 2.571949-1.9646072 3.4257431-6.3764114 1.0803223-8.7871094-1.7797165-1.8433685-4.6417465-1.0819473-5.5952148 2.2480469-.0002441 0-.0002441 0-.0004883 0-.5446777-.5751953-1.7912598-1.0761719-3.0358887-.4443359-1.2172852.6533204-1.7309571 2.2294923-1.4919434 3.5244141zm1.9116211-2.821289c.7570801-.5078125 1.8178711-.2988281 2.322998.0830078.0712891.0493164.1165771.1005859.1737061.1518555-.112915.5244141-.1357422.8510742-.0780029.8696289.0570068.0180664.1745605-.2099609.3493652-.5849609.1672363.2260742.2407227.4077148.298584.3916016.0439453.0107422.0980225-.3183594-.1351318-.7451172.4212914-.9131088.9040298-1.8180923 1.7906494-2.3535156 2.4958878-1.5512695 5.0456276 2.347847 2.9008789 6.3583984-.5143089.9663544-1.112957 1.5477676-1.3596191 1.8916016-.7787132-.3662643-3.4930191.0250854-5.5876465-1.3642578-.614502-.4082031-1.3413086-1.1289063-1.5397949-2.0771484-.2270509-.9482424.0859374-2.1162111.8640136-2.6210939z"/><path d="m58.7753029 107.8618317c-1.0966797.6376953-1.9543457 1.5810547-2.5112305 2.6005859-1.9397392 3.7368393.8967209 7.6807098 5.0073242 8.0234375 2.2365456.141571 4.0233803-.7720718 4.8002892-1.7241211.4910889.1777344 1.8613281.1743164 2.4868164.2319336 1.1176758.0566101 1.299675.2410889 1.565918-.1757813.1260071-.1981659.1896362-.3911133-.2241211-.6489258-.3797989-1.3268509-1.9321213-2.4659042-2.2102051-2.28125 1.0861282-4.6223296-4.3071518-8.7969207-8.9147911-6.0258788zm9.6894493 7.9755859c-.6556396-.0087891-1.5678711.2045898-2.1171875.4384766.0064697-.0722656-.0205078-.1123047-.0568848-.1455078-.2149124-.1961899-.4736786.1832047-1.5185547.6953125-4.5951576 2.1533508-9.5462685-1.7022705-7.5009727-5.8427734.4421387-.8330078 1.1433105-1.6494141 2.0583496-2.2099609 1.7912598-1.2353516 4.4245605-1.0449219 6.0234337.3759766 1.4000626 1.1629181 2.1924667 2.9580002 1.8557129 4.8369141-.3278809 1.3867188-1.0183105 2.0742188-.9179688 2.1445313.029541.0263672.1989746-.1289063.4875488-.4433594.2817383-.3168945.6148682-.8510742.8666992-1.5888672.0632325.4033201.5375977 1.2343748.8198243 1.7392576z"/><path d="m83.9304504 104.992691c-.0030518-.152832-.0418701-.2905273-.6195068-.3789063-2.6831055-.2872009-6.2096024.8035583-8.6120605 2.1152344-1.4616699.7783203-2.5288086 1.5859375-2.451416 1.7177734.0185547.0322266.1015625.0253906.225708-.0053711.1949463.1425781.6143799.3232422 1.0999756.5649414.8257294.3951111 2.944603 1.4367599 3.8815918 1.375.009079.8730469.0794525 4.409935.9228516 4.6577148.0158691.034668.0389404.0654297.064209.0952148.1032715.1220703.2106934.2197266.71875-.0869141 2.2409821-1.5335388 4.081871-4.6108093 4.6906738-7.265625.3903809-1.5917969.3361816-2.9179688.1872559-2.9267578-.0324708-.0029295-.0687257.0537112-.1080324.1376955zm-2.9805908 6.5185547c-.9221191 1.3208008-1.6097412 2.0585938-2.0273438 2.5419922-.1115189-1.0467682-.4763947-3.1219406-1.0725098-3.9838867.0812225-.3724747.0444107-.5329819-1.8342285-1.230957-.7508621-.2787552-1.9180145-.6174545-2.71875-.684082.4766846-.1855469 1.0754395-.4291992 1.7404785-.6801758 5.0733795-1.9721985 8.2532578-1.7784042 8.7941895-2.2275391-.161377.4785156-.3894043 1.3417969-.7619629 2.2919922-.5424804 1.4492187-1.4553222 3.0292969-2.119873 3.9726562z"/><path d="m48.4828224 36.3149567c-.2453613-.1943359-.9504395.2197266-1.5603027 1.0087891-1.3806152 1.7254982-1.4876099 4.2043381-.8671875 5.0605469.2519531.3203125.5388184.28125.8547363.234375.3161621-.046875.5998535-.1113281.7717285-.4169922.2907028-.4701996.3700714-2.4696083.7163086-4.1689453.1489258-.8056642.3405762-1.5195313.0847168-1.7177735z"/><path d="m97.4969788 23.0288239c.6318359.0966797 1.9243164-4.9013672 2.2878418-7.2666016.6635742-4.3173828.1652832-4.4863281-.4665527-4.5839844-.6318359-.0966797-1.1577148-.0849609-1.8212891 4.2324219-.3635254 2.3652344-.631836 7.5205078 0 7.6181641z"/><path d="m105.6561584 23.4917145c1.1418457-.7734375 2.4626465-1.6953125 3.2749023-2.3154297 2.9880371-2.2216797 2.8508301-2.6025391 2.486084-3.1679688-.324707-.5087891-.7429199-1.0107422-3.8979492 1.3330078-.8544922.6523438-2.0783691 1.8320313-2.9711914 2.9453125-.8991699 1.1103516-1.4763184 2.1328125-1.2480469 2.3525391.2319337.2236328 1.2119141-.3808594 2.3562012-1.1474609z"/><path d="m109.0582581 28.7729645c-.0185547.6386719 3.9140625 1.2705078 5.7536621 1.3242188 3.3569336.0966797 3.4421387-.4199219 3.4604492-1.0585938.0185547-.6386719-.0368652-1.1591797-3.3937988-1.2558594-1.8395997-.0527344-5.802002.3515625-5.8203125.9902344z"/><path d="m23.1849709 104.7749176c-1.9759617-7.7778549-2.6081791-13.0618439-2.8723145-13.0351563-.1538086.0146484-.0849609 2.3085938.255127 5.1181641.6845989 5.8878555 2.3173447 11.8639069 3.5776367 14.7890625.4211426.9306641.5705566.9208984.7216797.8691406.1513672-.0507813.2751465-.1376953.0556641-1.125-.2016602-.993164-.7907716-2.875-1.737793-6.6162109z"/><path d="m14.9020119 99.9008942c-.1564941.0009766-.3015137.875-.2944336 1.9658203-.0027351 2.4440842.7432127 4.8233414 1.3244629 5.6738281.2368164.3271484.3764648.2871094.5251465.2285156.4706745-.1854858.2294979-.6987839-.347168-2.9941406-.8527212-3.3761673-.97046-4.8754501-1.2080078-4.8740234z"/></g></g><g><g><g><path d="m39.0536842 30.6394272c-.2818604.1503906-.5511475.1962891-2.4975586-3.4448242-1.0665283-1.9956055-3.1269531-6.3999023-2.8450928-6.550293.2818604-.1508789 2.7993164 4.0092773 3.8658447 6.0043945 1.9464112 3.6416016 1.7586671 3.8398438 1.4768067 3.9907227z" fill="#fff"/></g></g></g><g><g><g><path d="m41.1087379 34.6374741c-.3029785.1015625-.5535889.1689453-.798584-.559082-.1341553-.3984375-.1766357-1.3374023.1263428-1.4394531.3028564-.1015625.8364258.671875.9707031 1.0708008.2448731.7275389.0043946.8256835-.2984619.9277343z" fill="#fff"/></g></g></g><g><g><g><path d="m60.9620094 59.422142c-.019165.1582031-.0506592.300293-.6882324.300293-.161499.0078125-.3530273-.0273438-.5926514-.0712891-.2421875-.0371094-.5244141-.1069336-.8497314-.2290039-.6536865-.2246094-1.505127-.6210938-2.4411621-1.3979492-.4985352-.4375-1.114502-1.0405273-1.6113281-1.7998047-.5024414-.7529297-.9052734-1.6293945-1.137085-2.4658203-.4771729-1.6972656-.1616211-3.1044922-.0235596-3.0756836.1757813.0092773.1746826 1.3549805.798584 2.8129883.3052979.7255859.7371826 1.46875 1.2276611 2.1054688.4859619.6430664 1.0501709 1.1469727 1.4859619 1.5327148.8212891.6816406 1.543457 1.0498047 2.0938721 1.296875.2739258.1328125.5102539.2260742.7128906.2954102.2004395.0761719.3603516.152832.4951172.1933594.5333252.1943359.5488282.3442382.5296631.5024413z" fill="#fff"/></g></g></g><g><g><g><path d="m65.6365662 58.0173569c0 .3193359-.0101318.5786133-.4959717.5786133-.2661133 0-.8374023-.2592773-.8374023-.5786133 0-.3198242.5712891-.5786133.8374023-.5786133.4858398 0 .4959717.2587891.4959717.5786133z" fill="#fff"/></g></g></g><g><g><g><path d="m58.950779 79.9865952c.0848389.1352539.1417236.2709961-.2111816.6254883-.3364258.3740234-1.1241455.9223633-2.4365234 2.2475586-.7199707.7236328-1.777832 1.940918-2.539917 3.0810547-.7762451 1.128418-1.2895508 2.1401367-1.4458008 2.0820313-.1435547-.050293.1053467-1.1918945.7366943-2.4902344.6130371-1.3051758 1.6461182-2.7036133 2.4195557-3.4799805 1.4101563-1.4238281 2.3400879-1.9077148 2.8112793-2.1210938.4902343-.1938477.5809325-.0800782.6658935.0551758z" fill="#fff"/></g></g></g></g></g></svg>