<?xml version="1.0" encoding="utf-8"?>
<!-- Generator: Adobe Illustrator 25.0.1, SVG Export Plug-In . SVG Version: 6.00 Build 0)  -->
<svg version="1.0" id="Layer_1" xmlns="http://www.w3.org/2000/svg" xmlns:xlink="http://www.w3.org/1999/xlink" x="0px" y="0px"
	 viewBox="0 0 274.7 186.5" style="enable-background:new 0 0 274.7 186.5;" xml:space="preserve">
<style type="text/css">
	.st0{fill:none;stroke:#000000;stroke-width:3.2;}
	.st1{fill:#FFFFFF;}
	.st2{fill:none;stroke:#000000;stroke-width:0.73;}
	.st3{fill:none;stroke:#FFFFFF;stroke-width:7.000000e-02;}
	.st4{fill:none;stroke:#000000;stroke-width:0.97;}
</style>
<line class="st0" x1="123.9" y1="48.6" x2="123.9" y2="137.9"/>
<path d="M136,112.3c0,2.2,0,4-0.1,4.9c-0.1,0.6-0.2,1.2-0.6,1.2c-0.2,0-0.4,0.1-0.6,0.1c-0.1,0-0.2,0.1-0.2,0.1s0.1,0.2,0.4,0.2
	c0.6,0,2.1-0.1,2.2-0.1s1.5,0.1,2.8,0.1c0.2,0,0.4-0.1,0.4-0.2s0-0.1-0.2-0.1c-0.3,0-0.7,0-1-0.1c-0.6-0.1-0.8-0.6-0.9-1.2
	c-0.1-1-0.1-2.7-0.1-4.9v-1.9c0-0.2,0-0.2,0.2-0.2c0.4,0,2.8,0,3.4,0.1c0.5,0,1,0.3,1.2,0.8c0.1,0.3,0.1,0.5,0.1,0.8
	c0,0.1,0.1,0.2,0.2,0.2s0.2-0.2,0.2-0.4s0-1.1,0.1-1.5c0.1-0.8,0.2-1.1,0.2-1.3s0-0.2-0.1-0.2s-0.2,0.1-0.2,0.2
	c-0.2,0.3-0.5,0.4-1,0.4h-3.9c-0.1,0-0.2-0.1-0.2-0.2v-6.2c0-0.2,0.1-0.2,0.2-0.2l3.5,0.1c0.6,0,1.2,0.2,1.5,0.7
	c0.1,0.3,0.2,0.6,0.2,0.9c0,0.2,0,0.3,0.2,0.3s0.2-0.1,0.2-0.2c0-0.3,0.1-1.3,0.1-1.5c0.1-0.6,0.2-0.9,0.2-1.1s0-0.2-0.1-0.2
	s-0.2,0.1-0.3,0.1c-0.3,0.1-0.7,0.1-1,0.1H137c-0.1,0-1.5-0.1-2.6-0.1c-0.2,0-0.4,0-0.4,0.2s0.1,0.1,0.2,0.1c0.3,0,0.5,0,0.8,0.1
	c0.7,0.2,0.9,0.5,1,1.3s0,1.4,0,4.9L136,112.3 M151.3,108.3c0-3.5,0-4.2,0-4.9s0.2-1.2,0.8-1.3c0.2,0,0.4-0.1,0.6-0.1
	c0.1,0,0.2,0,0.2-0.1s-0.1-0.2-0.4-0.2c-0.6,0-2.1,0.1-2.2,0.1s-1.5-0.1-2.3-0.1c-0.2,0-0.4,0.1-0.4,0.2s0.1,0.1,0.2,0.1
	c0.2,0,0.5,0,0.7,0.1c0.5,0.1,0.7,0.5,0.8,1.3c0,0.8,0,1.3,0,4.9v4c0,2.2,0,4-0.1,4.9c-0.1,0.6-0.2,1.2-0.6,1.2
	c-0.2,0-0.5,0.1-0.7,0.1c-0.1,0-0.2,0.1-0.2,0.1s0.1,0.2,0.4,0.2c0.7,0,2.1-0.1,2.2-0.1c0.1,0,1.5,0.1,2.8,0.1
	c0.2,0,0.4-0.1,0.4-0.2s0-0.1-0.2-0.1c-0.3,0-0.7,0-1-0.1c-0.7-0.1-0.8-0.6-0.9-1.2c-0.1-1-0.1-2.7-0.1-4.9L151.3,108.3L151.3,108.3
	z M159.3,112.3c0,2.2,0,4-0.1,4.9c-0.1,0.6-0.2,1.2-0.7,1.2c-0.2,0.1-0.5,0.1-0.7,0.1c-0.1,0-0.2,0.1-0.2,0.1s0.1,0.2,0.4,0.2
	c0.7,0,2.1-0.1,2.1-0.1c0,0,1.5,0.1,2.8,0.1c0.2,0,0.4-0.1,0.4-0.2s0-0.1-0.2-0.1c-0.3,0-0.7,0-1-0.1c-0.6-0.1-0.8-0.6-0.9-1.2
	c-0.1-1-0.1-2.7-0.1-4.9v-0.5c0-0.1,0-0.2,0.2-0.2l2.8,0.1c0.1,0,0.2,0.1,0.3,0.1c0.4,0.6,1.5,2.1,2.5,3.3c1.3,1.7,2.1,2.8,3,3.3
	c0.8,0.4,1.6,0.5,2.4,0.4h1.6c0.4,0,0.5,0,0.5-0.2s-0.1-0.1-0.2-0.1c-0.3,0-0.6,0-0.9-0.1c-1.1-0.2-2.1-0.8-2.8-1.6
	c-1.3-1.4-2.9-3.4-4.7-5.8c2-1.9,2.7-3.6,2.7-5.2c0-1.2-0.6-2.3-1.6-3.1c-1.2-0.8-2.7-1.1-4.1-1c-0.7,0-2.4,0.1-2.7,0.1
	s-1.5-0.1-2.6-0.1c-0.2,0-0.4,0-0.4,0.2s0.1,0.1,0.2,0.1c0.3,0,0.5,0,0.8,0.1c0.8,0.2,0.9,0.5,1,1.3c0.1,0.8,0,1.3,0,4.9
	L159.3,112.3L159.3,112.3z M161.1,102.9c0-0.1,0.1-0.2,0.2-0.3c0.5-0.1,1-0.2,1.5-0.1c2.4,0,3.9,1.7,3.9,4.5
	c0.1,1.3-0.4,2.6-1.3,3.5c-0.5,0.3-1.1,0.5-1.7,0.4c-0.8,0-1.6-0.1-2.4-0.4c-0.1-0.1-0.2-0.2-0.2-0.3L161.1,102.9L161.1,102.9z
	 M176.3,112.3c0,2.2,0,4-0.1,4.9c-0.1,0.6-0.2,1.2-0.6,1.2c-0.2,0.1-0.5,0.1-0.7,0.1c-0.1,0-0.2,0.1-0.2,0.1s0.1,0.2,0.4,0.2
	c0.6,0,2.1-0.1,2.2-0.1c0.6,0,2.2,0.1,5.6,0.1c0.9,0,1.1,0,1.2-0.6s0.2-1.4,0.3-2.2c0-0.2,0-0.3-0.1-0.3s-0.2,0.1-0.2,0.3
	c-0.1,0.9-0.4,1.4-1,1.6c-0.7,0.2-1.4,0.3-2.2,0.2c-2.2,0-2.6-0.3-2.6-1.9v-5.9c0-0.1,0-0.1,0.1-0.2c0,0,0,0,0,0l0,0
	c0.4,0,2.6,0,3.2,0.1c0.9,0.1,1.1,0.5,1.2,0.8c0.1,0.2,0.1,0.5,0.1,0.8c0,0.1,0,0.2,0.2,0.2s0.1-0.2,0.1-0.4s0-1,0.1-1.4
	c0.1-0.8,0.2-1.1,0.2-1.3s0-0.2-0.1-0.2s-0.2,0.1-0.3,0.3c-0.3,0.2-0.7,0.3-1.1,0.3c-0.6,0-3.3,0-3.6,0c-0.1,0-0.1-0.1-0.1-0.2v-6.2
	c0-0.2,0-0.2,0.1-0.2c0.2,0,2.7,0,3.1,0.1c1.2,0.1,1.4,0.4,1.6,0.8c0.1,0.3,0.1,0.5,0.1,0.8c0,0.2,0,0.3,0.2,0.3s0.1-0.1,0.1-0.2
	c0.1-0.3,0.1-1.3,0.1-1.5c0.1-0.6,0.2-0.9,0.2-1.1s0-0.2-0.1-0.2s-0.2,0.1-0.3,0.1c-0.3,0.1-0.7,0.1-1,0.1h-5.1
	c-0.1,0-1.5-0.1-2.6-0.1c-0.2,0-0.4,0-0.4,0.2s0.1,0.1,0.2,0.1c0.3,0,0.5,0,0.8,0.1c0.7,0.2,0.9,0.5,1,1.3s0,1.4,0,4.9L176.3,112.3
	L176.3,112.3z M190.5,104.9c0.7,0.8,3.3,3.7,5.9,6.5c2.4,2.6,5.6,5.9,5.9,6.1c1.2,1.2,1.5,1.4,1.6,1.4s0.2-0.1,0.2-1.6v-13.2
	c0-1.4,0.1-1.8,0.8-2c0.2,0,0.4-0.1,0.5-0.1c0.2,0,0.2-0.1,0.2-0.2s-0.2-0.2-0.4-0.2c-0.9,0-1.7,0.1-1.9,0.1s-1.3-0.1-2.4-0.1
	c-0.3,0-0.4,0-0.4,0.2s0,0.2,0.2,0.2c0.4,0,0.7,0,1.1,0.1c0.7,0.2,0.9,0.7,0.9,2.2l0.2,11.5c-0.7-0.7-3.2-3.5-5.4-5.9
	c-3.5-3.7-6.9-7.4-7.2-7.7s-0.6-0.7-0.8-0.7s-0.2,0.2-0.2,1.1v13c0,2-0.1,2.7-0.6,2.9c-0.3,0.1-0.6,0.1-0.9,0.1
	c-0.1,0-0.2,0-0.2,0.1s0.1,0.2,0.4,0.2c1,0,1.9-0.1,2.2-0.1s1.1,0.1,2.4,0.1c0.3,0,0.4,0,0.4-0.2s-0.1-0.1-0.2-0.1
	c-0.4,0-0.8-0.1-1.1-0.1c-0.6-0.2-0.8-0.8-0.9-2.6L190.5,104.9z M211.7,117.8c3.4-5.2,6.9-10.4,10.1-15.6c0.1-0.1,0.1-0.2,0.1-0.3
	c0-0.1-0.1-0.2-0.4-0.2h-6.3c-0.7,0-1.8,0-3.9-0.1c-0.3,0-0.7-0.1-1-0.2c-0.1,0-0.2,0.1-0.2,0.4c-0.1,0.6-0.4,2.7-0.4,3
	s0,0.3,0.1,0.3s0.2-0.1,0.2-0.4c0.1-0.8,0.6-1.4,1.3-1.8c1-0.4,2.1-0.5,3.2-0.4h4.9c-3.1,5.1-6.6,10.2-9.9,15.3
	c-0.3,0.4-0.3,0.5-0.3,0.6s0.1,0.2,0.4,0.2c4,0,7.7,0.1,11.5,0.1c0.5,0,0.5,0,0.6-0.6c0.2-0.8,0.4-1.7,0.5-2.6c0-0.4,0-0.5-0.2-0.5
	s-0.2,0.1-0.2,0.4c-0.1,0.4-0.2,0.8-0.4,1.2c-0.5,0.7-1.2,1.1-3.6,1.1L211.7,117.8z M227.2,112.3c0,2.2,0,4-0.1,4.9
	c-0.1,0.6-0.2,1.2-0.6,1.2c-0.2,0.1-0.5,0.1-0.7,0.1c-0.1,0-0.2,0.1-0.2,0.1s0.1,0.2,0.4,0.2c0.7,0,2.1-0.1,2.2-0.1
	c0.6,0,2.2,0.1,5.6,0.1c0.9,0,1.1,0,1.2-0.6c0.1-0.7,0.2-1.5,0.3-2.2c0-0.2,0-0.3-0.1-0.3s-0.2,0.1-0.2,0.3c-0.2,0.9-0.4,1.4-1,1.6
	c-0.7,0.2-1.4,0.3-2.2,0.2c-2.2,0-2.6-0.3-2.6-1.9v-5.9c0-0.1,0-0.1,0.1-0.2c0,0,0,0,0,0l0,0c0.4,0,2.6,0,3.2,0.1
	c0.9,0.1,1.1,0.5,1.2,0.8c0.1,0.2,0.1,0.5,0.1,0.8c0,0.1,0,0.2,0.2,0.2s0.1-0.2,0.1-0.4s0.1-1,0.1-1.4c0.1-0.8,0.2-1.1,0.2-1.3
	s0-0.2-0.1-0.2s-0.2,0.1-0.4,0.3c-0.3,0.2-0.7,0.3-1.1,0.3c-0.6,0-3.3,0-3.6,0c-0.1,0-0.1-0.1-0.1-0.2v-6.2c0-0.2,0-0.2,0.1-0.2
	c0.2,0,2.7,0,3.1,0.1c1.2,0.1,1.4,0.4,1.6,0.8c0.1,0.3,0.1,0.5,0.1,0.8c0,0.2,0.1,0.3,0.2,0.3s0.1-0.1,0.2-0.2
	c0-0.3,0.1-1.3,0.1-1.5c0.1-0.6,0.2-0.9,0.2-1.1s0-0.2-0.1-0.2s-0.2,0.1-0.3,0.1c-0.3,0.1-0.7,0.1-1,0.1h-5.1
	c-0.1,0-1.5-0.1-2.6-0.1c-0.2,0-0.4,0-0.4,0.2s0.1,0.1,0.2,0.1c0.3,0,0.5,0,0.8,0.1c0.8,0.2,0.9,0.5,1,1.3s0.1,1.4,0.1,4.9
	L227.2,112.3L227.2,112.3z"/>
<path d="M135.3,90.7c0,1.4,0,2.5-0.1,3.1c-0.1,0.4-0.1,0.7-0.4,0.8c-0.1,0-0.3,0.1-0.4,0.1c-0.1,0-0.1,0-0.1,0.1s0.1,0.1,0.2,0.1
	h1.4c0.1,0,1.9,0.2,3.2,0.2c1.6,0.1,3.2-0.5,4.4-1.7c1-1.1,1.6-2.6,1.6-4.1c0-1.4-0.5-2.7-1.4-3.7c-1.7-1.8-4.4-1.7-5.8-1.7
	c-0.9,0-1.8,0-1.9,0s-1,0-1.6,0c-0.2,0-0.2,0-0.2,0.1s0.1,0.1,0.1,0.1c0.2,0,0.3,0,0.5,0.1c0.5,0.1,0.6,0.3,0.6,0.8s0,0.9,0,3.1
	L135.3,90.7L135.3,90.7z M136.6,87.9v-3.1c0-0.1,0.1-0.2,0.2-0.3c0.3-0.1,0.6-0.1,0.9-0.1c1.7-0.2,3.5,0.4,4.7,1.6
	c0.9,1,1.4,2.3,1.4,3.6c0.1,1.3-0.3,2.5-1.1,3.4c-0.9,0.9-2.2,1.4-3.4,1.3c-1.7,0-2.3-0.3-2.4-0.6c-0.1-0.4-0.2-0.7-0.2-1.1
	L136.6,87.9L136.6,87.9z M148.4,90.7c0,1.4,0,2.5-0.1,3.1c-0.1,0.4-0.1,0.7-0.4,0.8c-0.1,0-0.3,0.1-0.4,0.1c-0.1,0-0.1,0-0.1,0.1
	s0.1,0.1,0.2,0.1h1.4c0.4,0,1.4,0.1,3.6,0.1c0.6,0,0.7,0,0.8-0.4c0.1-0.5,0.2-0.9,0.2-1.4c0-0.1,0-0.2-0.1-0.2s-0.1,0.1-0.1,0.2
	c-0.1,0.6-0.3,0.9-0.7,1c-0.4,0.1-0.9,0.2-1.4,0.2c-1.4,0-1.6-0.2-1.7-1.2v-3.7c0-0.1,0-0.1,0.1-0.1l0,0c0.7,0,1.4,0,2.1,0.1
	c0.6,0.1,0.7,0.3,0.8,0.5c0,0.2,0.1,0.3,0.1,0.5c0,0.1,0,0.1,0.1,0.1c0,0,0,0,0,0c0.1,0,0.1-0.2,0.1-0.3c0-0.3,0-0.6,0.1-0.9
	c0-0.5,0.1-0.7,0.1-0.8s0-0.1-0.1-0.1c-0.1,0-0.1,0.1-0.2,0.2c-0.1,0.1-0.3,0.2-0.7,0.2c-0.4,0-2.1,0-2.3,0c-0.2,0-0.1,0-0.1-0.2v-4
	c0-0.1,0-0.2,0.1-0.2s1.7,0,2,0.1c0.8,0.1,0.9,0.3,1,0.5c0.1,0.2,0.1,0.3,0.1,0.5c0,0.1,0,0.2,0.1,0.2c0.1,0,0.1-0.1,0.1-0.2
	c0-0.1,0.1-0.8,0.1-1c0-0.4,0.1-0.6,0.1-0.6s0-0.1-0.1-0.1s-0.1,0.1-0.2,0.1c-0.2,0-0.4,0.1-0.6,0.1H149c-0.1,0-1-0.1-1.6-0.1
	c-0.2,0-0.2,0-0.2,0.1s0,0.1,0.1,0.1c0.2,0,0.3,0,0.5,0c0.5,0.1,0.6,0.3,0.6,0.8c0.1,0.5,0,0.9,0,3.1L148.4,90.7L148.4,90.7z
	 M164.1,93.6c0,0.2-0.1,0.4-0.3,0.5c-0.5,0.2-1.1,0.3-1.6,0.3c-1.4,0-2.8-0.5-3.8-1.5c-1-1.1-1.5-2.5-1.5-4
	c-0.3-2.3,1.3-4.3,3.6-4.6c0,0,0,0,0,0c0.3,0,0.6,0,0.9,0c1.9,0,3,0.7,3.4,1.2c0.2,0.3,0.3,0.6,0.3,0.9c0,0.1,0,0.2,0.1,0.2
	c0.1,0,0.1-0.1,0.1-0.3c0-0.7,0-1.3,0.1-2c0-0.1,0-0.1-0.2-0.1c-0.4,0-0.8-0.1-1.2-0.2c-0.7-0.1-1.5-0.2-2.2-0.2
	c-1.4-0.1-2.7,0.2-3.9,0.9c-1.6,1.1-2.5,2.9-2.4,4.8c0,1.5,0.6,3,1.7,4.1c2.3,1.7,5.2,2,7.8,0.9c0.2-0.1,0.2-0.1,0.2-0.8v-3.2
	c0-0.5,0.1-0.8,0.5-0.8c0.1,0,0.2,0,0.4,0c0.1,0,0.1,0,0.1-0.1s-0.1-0.1-0.2-0.1c-0.4,0-1.4,0-1.4,0c-0.1,0-1,0-1.6,0
	c-0.1,0-0.2,0-0.2,0.1s0.1,0.1,0.1,0.1c0.2,0,0.3,0,0.5,0c0.6,0.2,0.6,0.3,0.6,1.5L164.1,93.6L164.1,93.6z M170.9,88.1V85
	c0-0.5,0.1-0.8,0.6-0.8c0.2,0,0.3,0,0.5,0c0.1,0,0.1,0,0.1-0.1S172,84,171.8,84h-1.6c-0.1,0-1,0-1.6,0c-0.2,0-0.2,0-0.2,0.1
	s0.1,0.1,0.1,0.1c0.2,0,0.3,0,0.5,0c0.5,0.1,0.6,0.3,0.6,0.8s0,0.9,0,3.1v2.5c0,1.4,0,2.5-0.1,3.1c-0.1,0.4-0.1,0.7-0.4,0.8
	c-0.1,0-0.3,0-0.4,0.1c-0.1,0-0.1,0-0.1,0.1s0.1,0.1,0.2,0.1c0.4,0,1.3,0,1.4,0c0.8,0,1.8,0.1,3.9,0.1c0.8,0,0.8-0.1,0.9-0.4
	c0.1-0.5,0.2-1,0.2-1.4c0-0.2,0-0.2-0.1-0.2S175,92.9,175,93c-0.1,0.3-0.2,0.6-0.4,0.9c-0.4,0.4-1,0.4-1.7,0.4
	c-1.1,0-1.5-0.1-1.7-0.3s-0.3-1.2-0.3-3.3L170.9,88.1L170.9,88.1z M179.4,88.1c0-2.2,0-2.7,0-3.1s0.1-0.8,0.5-0.8c0.1,0,0.2,0,0.4,0
	c0,0,0.1,0,0.1-0.1s-0.1-0.1-0.2-0.1h-1.4h-1.5c-0.2,0-0.2,0-0.2,0.1s0.1,0.1,0.1,0.1c0.2,0,0.3,0,0.4,0.1c0.3,0.1,0.4,0.3,0.5,0.8
	s0,0.9,0,3.1v2.5c0,1.4,0,2.5-0.1,3.1c-0.1,0.4-0.1,0.7-0.4,0.8c-0.1,0-0.3,0-0.4,0.1c-0.1,0-0.1,0-0.1,0.1s0.1,0.1,0.2,0.1
	c0.4,0,1.3,0,1.4,0s1,0,1.8,0c0.1,0,0.2,0,0.2-0.1s0-0.1-0.1-0.1s-0.4,0-0.6-0.1c-0.4-0.1-0.5-0.4-0.6-0.8c-0.1-0.6-0.1-1.8-0.1-3.1
	L179.4,88.1L179.4,88.1z M190.2,95c0.8,0,1.5-0.2,2.2-0.6c0.8-0.6,1.2-1.5,1.2-2.4c0-1.2-0.4-2.1-2.1-3.4l-0.4-0.3
	c-1.4-1.1-1.8-1.6-1.8-2.4c0-0.9,0.7-1.7,1.6-1.7h0.2c1.3,0,1.7,0.6,1.8,0.8c0.1,0.2,0.2,0.5,0.2,0.7c0,0.1,0,0.2,0.1,0.2
	s0.1-0.1,0.1-0.3c0-1,0.1-1.5,0.1-1.5s0-0.1-0.1-0.1c-0.2,0-0.3,0-0.5-0.1c-0.4-0.1-0.9-0.2-1.3-0.2c-1.8,0-3,1-3,2.6
	c0,1,0.3,1.9,1.9,3.1l0.6,0.5c1.2,1,1.7,1.6,1.7,2.6c0,1.1-0.8,1.9-1.9,1.9c0,0,0,0,0,0h-0.1c-1,0.1-1.9-0.5-2.1-1.5
	c0-0.2-0.1-0.4-0.1-0.5c0-0.1,0-0.2-0.1-0.2s-0.1,0.1-0.1,0.2s-0.1,0.8-0.1,1.5c0,0.4,0,0.5,0.2,0.6C188.9,94.9,189.5,95,190.2,95
	L190.2,95z M200.6,84.6h1.8c1.4,0,1.7,0.4,1.8,0.8v0.2c0,0.2,0,0.2,0.1,0.2s0.1-0.1,0.1-0.2s0.1-1.2,0.1-1.6c0-0.1,0-0.2-0.1-0.2
	c-0.5,0.1-0.9,0.1-1.4,0.1h-5.4c-0.4,0-0.8,0-1.1-0.1c-0.2,0-0.4-0.1-0.6-0.2c-0.1,0-0.1,0.2-0.1,0.3s-0.3,1.3-0.3,1.5
	s0,0.1,0.1,0.1s0.1,0,0.1-0.2c0.1-0.2,0.2-0.3,0.2-0.4c0.2-0.3,0.6-0.4,1.5-0.4h2.1v6.1c0,1.4,0,2.5-0.1,3.1
	c-0.1,0.4-0.1,0.7-0.4,0.8c-0.1,0-0.3,0-0.4,0.1c-0.1,0-0.1,0-0.1,0.1s0.1,0.1,0.2,0.1h1.4c0.1,0,1,0,1.8,0c0.2,0,0.2,0,0.2-0.1
	s0-0.1-0.1-0.1s-0.4,0-0.6-0.1c-0.4-0.1-0.5-0.4-0.6-0.8c-0.1-0.6-0.1-1.7-0.1-3.1L200.6,84.6L200.6,84.6z M206.6,90.2
	c0,2.1,0.6,3.1,1.3,3.8c0.8,0.7,1.9,1,3,1c1.1,0,2.2-0.3,3-1.1c1.1-1,1.3-2.8,1.3-4.3V85c0-0.5,0.1-0.8,0.5-0.8c0.1,0,0.2,0,0.4-0.1
	c0.1,0,0.1,0,0.1-0.1s-0.1-0.1-0.2-0.1c-0.4,0-1.1,0-1.2,0s-0.9,0-1.5,0c-0.2,0-0.2,0-0.2,0.1s0.1,0.1,0.1,0.1c0.2,0,0.3,0,0.5,0
	c0.5,0.1,0.6,0.3,0.6,0.8s0,0.9,0,3.1v1.8c0.1,1.2-0.2,2.5-0.8,3.5c-0.6,0.6-1.4,1-2.3,1c-0.8,0.1-1.6-0.2-2.2-0.8
	c-0.6-0.6-1.1-1.5-1.1-3.6v-2c0-2.2,0-2.7,0-3.1s0.1-0.8,0.5-0.8c0.1,0,0.2,0,0.4-0.1c0.1,0,0.1,0,0.1-0.1s-0.1-0.1-0.2-0.1
	c-0.4,0-1.3,0-1.4,0s-1,0-1.7,0c-0.2,0-0.2,0-0.2,0.1s0.1,0.1,0.1,0.1c0.2,0,0.3,0,0.5,0.1c0.5,0.1,0.6,0.3,0.6,0.8s0,0.9,0,3.1
	L206.6,90.2z M219.4,90.7c0,1.4,0,2.5-0.1,3.1c-0.1,0.4-0.1,0.7-0.4,0.8c-0.1,0-0.3,0-0.4,0.1c-0.1,0-0.1,0-0.1,0.1s0.1,0.1,0.2,0.1
	h1.4c0.1,0,1.9,0.2,3.2,0.2c1.6,0.1,3.2-0.5,4.4-1.7c1-1.1,1.6-2.6,1.6-4.1c0-1.4-0.5-2.7-1.4-3.7c-1.7-1.8-4.4-1.7-5.8-1.7
	c-0.9,0-1.8,0-1.9,0s-1,0-1.6,0c-0.2,0-0.2,0-0.2,0.1s0.1,0.1,0.1,0.1c0.2,0,0.3,0,0.5,0.1c0.5,0.1,0.6,0.3,0.6,0.8s0,0.9,0,3.1
	L219.4,90.7L219.4,90.7z M220.6,87.9v-3.1c0-0.1,0.1-0.2,0.2-0.3c0.3-0.1,0.6-0.1,0.9-0.1c1.7-0.2,3.5,0.4,4.7,1.6
	c0.9,1,1.4,2.3,1.4,3.6c0.1,1.3-0.4,2.5-1.2,3.4c-0.9,0.9-2.1,1.4-3.4,1.3c-1.7,0-2.3-0.3-2.5-0.6c-0.1-0.4-0.2-0.7-0.2-1.1
	L220.6,87.9L220.6,87.9z M233.7,88.1c0-2.2,0-2.7,0-3.1s0.1-0.8,0.5-0.8c0.1,0,0.2,0,0.4-0.1c0.1,0,0.1,0,0.1-0.1s-0.1-0.1-0.2-0.1
	c-0.4,0-1.3,0-1.4,0s-1,0-1.5,0c-0.2,0-0.2,0-0.2,0.1s0.1,0.1,0.1,0.1c0.2,0,0.3,0,0.4,0.1c0.3,0.1,0.5,0.3,0.5,0.8s0,0.9,0,3.1v2.5
	c0,1.4,0,2.5-0.1,3.1c-0.1,0.4-0.1,0.7-0.4,0.8c-0.1,0-0.3,0-0.4,0.1c-0.1,0-0.1,0-0.1,0.1s0.1,0.1,0.2,0.1h1.4c0.1,0,1,0,1.8,0
	c0.2,0,0.2,0,0.2-0.1s0-0.1-0.1-0.1s-0.4,0-0.6-0.1c-0.4-0.1-0.5-0.4-0.6-0.8c-0.1-0.6-0.1-1.7-0.1-3.1L233.7,88.1L233.7,88.1z"/>
<path d="M134.6,72.7c0,2.2,0.6,3.3,1.3,4c0.9,0.7,2,1.1,3.1,1.1c1.2,0,2.3-0.4,3.1-1.1c1.2-1.1,1.4-2.9,1.4-4.6v-1.6
	c0-2.4,0-2.8,0-3.3s0.2-0.8,0.6-0.9c0.1,0,0.3,0,0.4,0c0.1,0,0.1,0,0.1-0.1s-0.1-0.1-0.2-0.1c-0.5,0-1.2,0-1.3,0s-0.9,0-1.6,0
	c-0.2,0-0.2,0-0.2,0.1s0.1,0.1,0.1,0.1c0.2,0,0.3,0,0.5,0c0.5,0.1,0.6,0.3,0.6,0.9v5.2c0.1,1.3-0.2,2.6-0.9,3.7
	c-0.6,0.7-1.5,1.1-2.4,1.1c-0.9,0.1-1.7-0.2-2.3-0.8c-0.6-0.6-1.1-1.6-1.1-3.8v-2.1c0-2.4,0-2.8,0-3.3s0.2-0.8,0.6-0.9
	c0.1,0,0.3,0,0.4,0c0.1,0,0.1,0,0.1-0.1s-0.1-0.1-0.2-0.1c-0.5,0-1.4,0-1.5,0s-1.1,0-1.8,0c-0.2,0-0.2,0-0.2,0.1s0.1,0.1,0.1,0.1
	c0.2,0,0.3,0,0.5,0c0.5,0.1,0.6,0.3,0.6,0.9s0,0.9,0,3.3v2.2H134.6z M148.3,68.2c0.5,0.6,2.2,2.5,4,4.4c1.6,1.7,3.8,4,4,4.1
	c0.8,0.8,1,1,1.1,1s0.1-0.1,0.1-1.1v-8.9c0-0.9,0.1-1.2,0.6-1.4c0.1,0,0.2,0,0.4,0c0.1,0,0.2,0,0.2-0.1s-0.1-0.1-0.3-0.1
	c-0.6,0-1.1,0-1.3,0s-0.9,0-1.6,0c-0.2,0-0.3,0-0.3,0.1s0,0.1,0.1,0.1c0.3,0,0.5,0,0.8,0.1c0.5,0.1,0.6,0.5,0.6,1.4l0.2,7.7
	c-0.5-0.5-2.1-2.4-3.6-4c-2.4-2.5-4.6-5-4.9-5.2s-0.4-0.5-0.5-0.5c-0.1,0-0.2,0.2-0.2,0.8v8.7c0,1.4-0.1,1.8-0.5,1.9
	c-0.2,0.1-0.4,0.1-0.7,0.1c-0.1,0-0.1,0-0.1,0.1s0.1,0.1,0.2,0.1c0.7,0,1.3,0,1.5,0s0.8,0,1.6,0c0.2,0,0.3,0,0.3-0.1s0-0.1-0.1-0.1
	c-0.3,0-0.5,0-0.8-0.1c-0.4-0.1-0.6-0.5-0.6-1.8L148.3,68.2L148.3,68.2z M163.8,70.4v-3.3c0-0.5,0.2-0.8,0.6-0.9c0.1,0,0.3,0,0.4,0
	c0.1,0,0.1,0,0.1-0.1s-0.1-0.1-0.2-0.1c-0.5,0-1.4,0-1.5,0c-0.1,0-1,0-1.5,0c-0.2,0-0.2,0-0.2,0.1s0.1,0.1,0.1,0.1
	c0.2,0,0.3,0,0.5,0.1c0.3,0.1,0.5,0.3,0.5,0.8s0,0.9,0,3.3v2.7c0,1.5,0,2.7-0.1,3.3c-0.1,0.4-0.1,0.8-0.4,0.8
	c-0.2,0-0.3,0.1-0.5,0.1c-0.1,0-0.1,0-0.1,0.1s0.1,0.1,0.2,0.1c0.4,0,1.4,0,1.5,0c0.1,0,1,0,1.9,0c0.2,0,0.2,0,0.2-0.1
	s0-0.1-0.1-0.1c-0.1,0-0.4,0-0.7-0.1c-0.5-0.1-0.6-0.4-0.6-0.8c-0.1-0.6-0.1-1.8-0.1-3.3L163.8,70.4L163.8,70.4z M169.6,67.9
	c-0.2-0.4-0.3-0.8-0.4-1.3c0-0.1,0.1-0.3,0.2-0.3c0.2-0.1,0.4-0.1,0.6-0.1c0.1,0,0.2,0,0.2-0.1S170,66,169.7,66c-0.6,0-1.3,0-1.4,0
	s-1.1,0-1.8,0c-0.2,0-0.4,0-0.4,0.1s0,0.1,0.1,0.1c0.2,0,0.4,0,0.6,0.1c0.5,0.2,0.8,0.3,1.1,1.2l3.7,9.3c0.3,0.7,0.4,0.9,0.6,0.9
	s0.2-0.2,0.6-1.2c0.4-0.7,1-2.4,2-4.6c0.8-1.9,1.5-3.7,1.7-4.1c0.4-1,0.6-1.3,0.8-1.4c0.2-0.1,0.5-0.2,0.7-0.2c0.1,0,0.2,0,0.2-0.1
	S178.2,66,178,66c-0.4,0-1.1,0-1.2,0s-0.9,0-1.5,0c-0.2,0-0.3,0-0.3,0.1s0.1,0.1,0.2,0.1c0.2,0,0.4,0,0.6,0.1
	c0.1,0.1,0.2,0.2,0.2,0.3c0,0.2-0.1,0.4-0.1,0.6c-0.3,1.1-2.4,6.4-3.3,8.4L169.6,67.9L169.6,67.9z M180.5,73.1c0,1.5,0,2.7-0.1,3.3
	c-0.1,0.4-0.1,0.8-0.4,0.8c-0.2,0-0.3,0.1-0.5,0.1c-0.1,0-0.1,0-0.1,0.1s0.1,0.1,0.2,0.1c0.5,0,1.4,0,1.5,0c0.4,0,1.5,0.1,3.8,0.1
	c0.6,0,0.7,0,0.8-0.4c0.1-0.5,0.2-1,0.2-1.5c0-0.1,0-0.2-0.1-0.2s-0.1,0.1-0.1,0.2c-0.1,0.6-0.3,0.9-0.7,1.1c-0.5,0.1-1,0.2-1.5,0.2
	c-1.5,0-1.7-0.2-1.8-1.2v-4c0,0,0-0.1,0.1-0.1c0,0,0,0,0,0l0,0c0.3,0,1.8,0,2.2,0.1c0.6,0,0.7,0.3,0.8,0.5c0.1,0.2,0.1,0.3,0.1,0.5
	c0,0.1,0,0.1,0.1,0.1s0.1-0.2,0.1-0.3s0-0.7,0.1-1c0-0.5,0.1-0.8,0.1-0.9s0-0.1-0.1-0.1s-0.1,0.1-0.2,0.2c-0.2,0.1-0.5,0.2-0.7,0.2
	c-0.4,0-2.2,0-2.4,0s-0.1,0-0.1-0.2v-4.1c0-0.1,0-0.2,0.1-0.2s1.8,0,2.1,0c0.8,0.1,1,0.3,1.1,0.5c0.1,0.2,0.1,0.4,0.1,0.6
	c0,0.1,0,0.2,0.1,0.2s0.1-0.1,0.1-0.2s0.1-0.9,0.1-1c0.1-0.4,0.1-0.6,0.1-0.7s0-0.1-0.1-0.1s-0.1,0.1-0.2,0.1
	c-0.2,0-0.4,0.1-0.6,0.1h-3.5c-0.1,0-1,0-1.7,0c-0.2,0-0.2,0-0.2,0.1s0.1,0.1,0.1,0.1c0.2,0,0.3,0,0.5,0c0.5,0.1,0.6,0.3,0.6,0.9
	L180.5,73.1L180.5,73.1z M189.8,73.1c0,1.5,0,2.7-0.1,3.3c-0.1,0.4-0.1,0.8-0.4,0.8c-0.1,0-0.3,0.1-0.4,0.1c-0.1,0-0.1,0-0.1,0.1
	s0.1,0.1,0.2,0.1c0.5,0,1.4,0,1.4,0s1,0,1.9,0c0.2,0,0.2,0,0.2-0.1s0-0.1-0.1-0.1c-0.2,0-0.5,0-0.7-0.1c-0.4-0.1-0.6-0.4-0.6-0.8
	c-0.1-0.6-0.1-1.8-0.1-3.3v-0.4c0-0.1,0-0.1,0.1-0.1h1.9c0.1,0,0.2,0,0.2,0.1c0.3,0.4,1,1.4,1.7,2.2c0.5,0.9,1.2,1.6,2.1,2.2
	c0.5,0.2,1.1,0.3,1.6,0.3h1.1c0.3,0,0.4,0,0.4-0.1s-0.1-0.1-0.1-0.1c-0.2,0-0.4,0-0.6,0c-0.7-0.1-1.4-0.5-1.9-1.1
	c-0.9-0.9-1.9-2.3-3.2-3.9c1.1-0.8,1.8-2.1,1.8-3.5c0-0.8-0.4-1.6-1.1-2.1c-0.8-0.5-1.8-0.7-2.8-0.7c-0.5,0-1.6,0-1.8,0s-1,0-1.7,0
	c-0.2,0-0.2,0-0.2,0.1s0.1,0.1,0.1,0.1c0.2,0,0.3,0,0.5,0c0.5,0.1,0.6,0.3,0.6,0.9s0,0.9,0,3.3L189.8,73.1L189.8,73.1z M191,66.8
	c0-0.1,0-0.2,0.1-0.2c0.3-0.1,0.7-0.1,1-0.1c1.6,0,2.6,1.1,2.6,3c0.1,0.9-0.3,1.8-0.9,2.3c-0.3,0.2-0.7,0.3-1.1,0.3
	c-0.5,0-1.1-0.1-1.6-0.2c-0.1,0-0.1-0.1-0.1-0.2L191,66.8L191,66.8z M202.2,77.8c0.8,0,1.6-0.2,2.3-0.7c0.8-0.6,1.3-1.5,1.3-2.5
	c0-1.2-0.4-2.2-2.2-3.6l-0.4-0.3c-1.4-1.2-1.9-1.7-1.9-2.6c0-1,0.7-1.8,1.6-1.8c0,0,0,0,0.1,0h0.2c0.7-0.1,1.5,0.2,1.9,0.8
	c0.1,0.2,0.2,0.5,0.2,0.8c0,0.1,0,0.2,0.1,0.2s0.1-0.1,0.1-0.3c0-1,0.1-1.5,0.1-1.6s0-0.1-0.2-0.1c-0.2,0-0.4,0-0.5-0.1
	c-0.5-0.1-0.9-0.2-1.4-0.2c-1.9,0-3.2,1.1-3.2,2.8c0,1,0.4,2,2,3.3l0.7,0.6c1.3,1.1,1.8,1.7,1.8,2.7c0,1.1-0.9,2-2,2h-0.1
	c-1,0.2-2-0.5-2.3-1.5c0-0.2-0.1-0.4-0.1-0.6c0-0.1,0-0.2-0.1-0.2s-0.1,0.1-0.1,0.2s-0.1,0.8-0.1,1.6c0,0.4,0,0.5,0.2,0.6
	C200.8,77.5,201.5,77.7,202.2,77.8L202.2,77.8z M211.1,70.4c0-2.4,0-2.8,0-3.3s0.2-0.8,0.6-0.9c0.1,0,0.3,0,0.4,0
	c0.1,0,0.1,0,0.1-0.1s-0.1-0.1-0.2-0.1c-0.4,0-1.4,0-1.5,0s-1,0-1.5,0c-0.2,0-0.2,0-0.2,0.1s0.1,0.1,0.1,0.1c0.2,0,0.4,0,0.6,0
	c0.3,0.1,0.5,0.3,0.5,0.8s0,0.9,0,3.3v2.7c0,1.5,0,2.7-0.1,3.3c-0.1,0.4-0.1,0.8-0.4,0.8c-0.1,0-0.3,0.1-0.4,0.1
	c-0.1,0-0.1,0-0.1,0.1s0.1,0.1,0.2,0.1c0.5,0,1.4,0,1.5,0s1,0,1.9,0c0.2,0,0.2,0,0.2-0.1s0-0.1-0.1-0.1s-0.4,0-0.7-0.1
	c-0.5-0.1-0.6-0.4-0.6-0.8c-0.1-0.6-0.1-1.8-0.1-3.3L211.1,70.4L211.1,70.4z M219.8,66.7h1.9c1.5,0,1.8,0.4,1.9,0.8v0.2
	c0,0.2,0,0.3,0.1,0.3s0.1-0.1,0.1-0.2s0-1.2,0-1.7c0-0.1,0-0.2-0.1-0.2c-0.5,0.1-1,0.2-1.5,0.2h-5.7c-0.4,0-0.8,0-1.2-0.1
	c-0.2,0-0.4-0.1-0.6-0.2c-0.1,0-0.1,0.2-0.2,0.3s-0.3,1.4-0.3,1.6s0,0.1,0.1,0.1s0.1,0,0.1-0.2c0.1-0.2,0.2-0.3,0.3-0.5
	c0.2-0.4,0.6-0.5,1.6-0.5h2.2v6.4c0,1.5,0,2.7-0.1,3.3c-0.1,0.4-0.1,0.8-0.4,0.8c-0.2,0-0.3,0.1-0.5,0.1c-0.1,0-0.1,0-0.1,0.1
	s0.1,0.1,0.2,0.1c0.4,0,1.4,0,1.5,0s1,0,1.9,0c0.2,0,0.2,0,0.2-0.1s0-0.1-0.1-0.1s-0.5,0-0.7-0.1c-0.5-0.1-0.6-0.4-0.6-0.8
	c-0.1-0.6-0.1-1.8-0.1-3.3L219.8,66.7L219.8,66.7z M230.4,64.9c0.1,0,0.1,0,0.1-0.1s-0.1-0.1-0.3-0.2c-0.5-0.3-1-0.7-1.5-1.1
	c-0.1-0.1-0.1-0.2-0.2-0.2c-0.1,0-0.1,0-0.2,0c-0.2,0.1-0.6,0.2-0.9,0.3c-0.1,0-0.2,0-0.2,0.1s0.1,0.1,0.4,0.3
	C228.6,64.3,229.5,64.6,230.4,64.9L230.4,64.9z M225.8,75.9c-0.3,0.8-0.6,1.3-1.3,1.4c-0.1,0-0.3,0-0.4,0c-0.1,0-0.1,0-0.1,0.1
	s0.1,0.1,0.3,0.1c0.7,0,1.6,0,1.7,0s0.8,0,1.2,0c0.1,0,0.2,0,0.2-0.1s0-0.1-0.1-0.1H227c-0.3,0-0.6-0.1-0.6-0.4c0-0.3,0.1-0.7,0.2-1
	l0.9-2.7c0-0.1,0.1-0.1,0.1-0.1h3.3c0.1,0,0.1,0,0.1,0.1l1.4,3.7c0.1,0.2,0,0.4-0.1,0.4s-0.1,0.1-0.1,0.1s0.2,0.1,0.5,0.1h2.4
	c0.2,0,0.3,0,0.3-0.1s-0.1-0.1-0.2-0.1c-0.2,0-0.4,0-0.6-0.1c-0.3-0.1-0.8-0.3-1.3-1.7c-0.9-2.3-3.3-8.6-3.6-9.2s-0.2-0.6-0.3-0.6
	s-0.2,0.1-0.3,0.6L225.8,75.9L225.8,75.9z M227.9,72.5c-0.1,0-0.1,0-0.1-0.1l1.4-4.1c0.1-0.2,0.2-0.2,0.2,0l1.4,4.1
	c0,0.1,0,0.1-0.1,0.1L227.9,72.5z"/>
<path class="st1" d="M69.9,53.3c1.1-0.7,2.2-1.1,3.5-1.3c1.9-0.4,3.9-0.3,5.8,0.2c1.4,0.4,2.7,0.9,3.9,1.6c0.3,0.2,0.5,0.5,0.5,0.9
	l-1.4,2.9c0,0-0.7,1.1-0.6,1.3c0.1,0.2,0.2,1.1,0.2,1.1c0.2,0.5,0.3,1,0.4,1.5c-0.3,1.7-0.8,3.4-1.4,5c-0.4,0.8-0.4,1.7-0.1,2.6
	c0.9,0.7,1.8,1.2,2.9,1.5c1,0.3,5.5,2.5,6.1,3.2s4.7,7.1,5,10s0.5,1.7,0.5,1.7l0.3,1.7c0,0,0.7,1.2,1,1.6c0.2,1.3,0.3,2.7,0.3,4
	l1.6,4l1.3,2.5c0.4,0.6,0.6,1.3,0.8,2.1c-0.3,0.7-0.6,1.3-1,1.9c0.1,0.7,0.2,1.4,0.2,2.1c-0.2,0.9-0.6,1.7-1.2,2.4
	c-0.4,0.4-0.8,0.8-1.1,1.2c0,0,0.1,1.6,0.1,2c-0.1,1.3-0.5,2.6-1.3,3.6c-0.2,0.2-0.2,1.5-0.2,1.5c-1.8,1.8-3.8,3.3-6,4.4
	c-3.1,1.6-6.5,2.7-10,3.1c-3.6,0.2-9,0.1-12.5-1.4s-6.6-2.9-8.8-5c-2.3-2.1-1-1.1-1-1.1l-0.4-5.8l-0.4-5.3c-0.9-0.5-1.6-1.2-2.1-2.1
	c-0.6-1.3-0.1-2.6,0.4-3.7c0.4-1.2,0.6-2.4,0.6-3.7c-0.1-1.9-0.1-3.7,0.1-5.6c0.4-2.4,0.8-5.9,1.9-8.3s2.5-5.1,3.5-6
	c0.8-0.7,1.7-1.3,2.6-1.9c0,0-0.8-0.9-0.8-1.5c0-0.7,0.1-1.4,0.4-2.1c0.3-0.4,0.5-0.9,0.6-1.3c0,0,1.4,0.7,1.8,0.8
	c0.4,0.2,0.8,0.5,1.2,0.8c0.4,0.4,0.6,0.7,0.8,0.7s1.8-1.4,1.8-1.4l1.7-1v-3.1l-0.5-3.6l0.4-2.8l-0.3-2.8L69.9,53.3L69.9,53.3z"/>
<path class="st2" d="M71.1,67c-2.1,0.4-4.2,1.1-6.2,2.1"/>
<path d="M45.5,108h-0.1c-0.1-0.3-0.3-0.7-0.4-1.1c0-0.2,0-0.4,0.2-0.5l0.3-0.1c0.1,0,0.1,0,0.1-0.1s-0.1,0-0.2,0
	c-0.1,0-0.5,0.2-0.6,0.2l-0.6,0.2c0,0-0.1,0-0.1,0c0,0,0,0,0,0c0,0,0.1,0,0.1,0c0.1,0,0.2,0.1,0.3,0.2l0.1,0.3l0.3,0.9
	c0,0,0,0.1-0.1,0.1l-2.3,0.8c0,0-0.1,0-0.2,0l-0.4-1.1c-0.1-0.2-0.1-0.4,0.1-0.6c0.1-0.1,0.2-0.1,0.3-0.2c0.1,0,0.1-0.1,0.1-0.1
	c0-0.1-0.1,0-0.2,0c-0.1,0-0.6,0.2-0.7,0.2c-0.1,0-0.4,0.1-0.4,0.1c-0.1,0-0.1,0-0.1,0.1c0,0,0.1,0.1,0.1,0.1
	c0.1,0.1,0.1,0.2,0.2,0.3c0.1,0.2,0.6,1.6,0.7,1.9c0.1,0.3,0.2,0.7,0.4,1c0,0.1,0.1,0.2,0.2,0.1s0-0.1,0-0.2c0-0.1-0.1-0.2-0.1-0.3
	c0-0.3,0.1-0.4,0.4-0.5s0.5-0.2,1.9-0.7l1.6-0.6c0.9-0.3,1.5-0.6,1.9-0.7s0.5-0.1,0.6,0c0.1,0.1,0.1,0.2,0.1,0.2
	c0,0.1,0.1,0.1,0.1,0.1s0.1-0.1,0-0.2c-0.1-0.3-0.3-0.7-0.4-0.9s-0.2-0.6-0.4-1.1c0-0.1-0.1-0.2-0.2-0.1c-0.1,0-0.1,0.1,0,0.2
	s0.1,0.2,0.1,0.4c0,0.1-0.1,0.3-0.4,0.5s-1,0.4-1.9,0.8L45.5,108L45.5,108z"/>
<path d="M43.1,103.8c-1.4,0.3-1.7,0.4-2,0.4c-0.3,0-0.5,0-0.6-0.2c0-0.1-0.1-0.2-0.1-0.3c0-0.1,0-0.1-0.1-0.1c-0.1,0-0.1,0.1,0,0.2
	c0.1,0.3,0.2,0.8,0.3,1s0.1,0.7,0.2,1c0,0.1,0,0.2,0.1,0.1s0.1-0.1,0-0.1c0-0.1,0-0.2,0-0.3c0-0.3,0.1-0.3,0.5-0.4s0.6-0.2,2-0.5
	l1.7-0.4c0.9-0.2,1.6-0.4,2-0.4s0.5,0,0.6,0.1c0,0.1,0.1,0.2,0.1,0.3c0,0.1,0.1,0.1,0.1,0.1s0.1-0.1,0.1-0.2
	c-0.1-0.3-0.2-0.8-0.2-0.9c-0.1-0.6-0.2-1.1-0.4-2.2c-0.1-0.4-0.2-0.4-0.4-0.4c-0.4,0-0.7,0.1-1.1,0.1c-0.1,0-0.2,0-0.1,0.1
	c0,0.1,0.1,0.1,0.2,0c0.2,0,0.4,0,0.6,0.1c0.3,0.1,0.4,0.4,0.5,0.8c0.1,0.6,0.1,0.8,0,1c-0.6,0.3-1.3,0.5-2,0.6L43.1,103.8
	L43.1,103.8z"/>
<path d="M46.7,97.1c-0.1-1.9-1.9-3.1-4.1-3s-3.5,1.4-3.4,3.3c0.1,2.3,2.3,3.1,4,3C44.8,100.4,46.8,99.3,46.7,97.1z M46.2,96.8
	c0.1,1.5-1.5,2.4-3.5,2.6c-2.4,0.1-3.1-0.8-3.1-1.7c-0.1-1.3,1.2-2.3,3.4-2.4C45.7,95.1,46.1,96.3,46.2,96.8L46.2,96.8z"/>
<path d="M43.8,92.3c0.9,0.1,1.6,0.2,2,0.3s0.5,0.1,0.5,0.3c0,0.1,0,0.2,0,0.3c0,0.1,0,0.1,0.1,0.1s0.1,0,0.1-0.1
	c0-0.3,0.1-0.8,0.1-0.9s0.1-0.6,0.2-1.1c0-0.1,0-0.2-0.1-0.2s-0.1,0-0.1,0.1c0,0.1-0.1,0.2-0.1,0.4c0,0.1-0.3,0.2-0.6,0.2
	c-0.3,0-1.2-0.1-2-0.3h-0.1c-0.1,0-0.1,0-0.1-0.1l0.1-0.7c0-0.1,0-0.1,0.1-0.1c0.2-0.1,0.9-0.3,1.4-0.6c0.6-0.2,1.1-0.5,1.6-0.9
	c0.2-0.2,0.3-0.5,0.3-0.8l0.1-0.7c0-0.1,0-0.1-0.1-0.2c-0.1,0-0.1,0-0.1,0.1c0,0.1,0,0.1-0.1,0.2c0,0.1-0.2,0.4-0.8,0.8
	c-0.6,0.3-1.6,0.8-2.8,1.3c-0.4-0.7-1.2-1.2-2-1.3c-0.5-0.1-1,0-1.4,0.3c-0.4,0.4-0.6,0.8-0.6,1.3c0,0.2-0.1,0.8-0.1,1.1
	s-0.1,0.6-0.2,1c0,0.1,0,0.2,0.1,0.2s0.1,0,0.1-0.1c0-0.1,0-0.2,0.1-0.3c0.1-0.2,0.3-0.3,0.6-0.2s0.6,0.1,2,0.3L43.8,92.3L43.8,92.3
	z M40.2,90.8c-0.1,0-0.1,0-0.1-0.1c0-0.1,0-0.3,0-0.4c0.1-0.4,0.6-1.1,1.9-0.9c0.5,0,1,0.3,1.4,0.7c0.1,0.2,0.1,0.4,0.1,0.6
	c0,0.2-0.1,0.4-0.2,0.6c0,0-0.1,0.1-0.2,0L40.2,90.8L40.2,90.8z"/>
<path d="M45.1,85.5c0.8,0.3,1.6,0.5,1.9,0.7c0.4,0.2,0.4,0.2,0.4,0.4c0,0.1,0,0.2-0.1,0.3c0,0.1,0,0.1,0,0.1s0.1,0,0.1-0.1
	c0.1-0.3,0.2-0.8,0.3-0.9c0.1-0.4,0.4-0.9,0.7-2c0.1-0.3,0.1-0.3-0.1-0.5c-0.3-0.2-0.7-0.3-1-0.4c-0.1,0-0.2,0-0.2,0s0,0.1,0.1,0.1
	c0.4,0.2,0.5,0.3,0.6,0.6c0,0.2,0,0.5-0.1,0.7c-0.2,0.8-0.4,0.8-1,0.6c-0.3-0.1-1.1-0.4-1.4-0.5l-0.7-0.2c-0.1,0-0.1,0-0.1-0.1
	c0-0.1,0.3-0.9,0.4-1c0.1-0.2,0.3-0.3,0.5-0.3c0.1,0,0.2,0,0.3,0.1c0.1,0,0.1,0,0.1,0s-0.1-0.1-0.1-0.1s-0.4-0.2-0.6-0.2
	c-0.5-0.2-0.6-0.3-0.6-0.3c0,0-0.1,0-0.1,0c0,0,0,0.1,0.1,0.2c0.1,0.1,0,0.2,0,0.4s-0.3,1-0.4,1.1s-0.1,0-0.1,0l-2.2-0.8
	c-0.1,0-0.1,0-0.1,0s0.3-0.9,0.4-1c0.2-0.3,0.3-0.4,0.5-0.4c0.1,0,0.2,0,0.3,0.1c0.1,0,0.1,0,0.2,0s0-0.1-0.1-0.1
	c-0.1,0-0.5-0.2-0.6-0.2c-0.4-0.2-0.5-0.2-0.6-0.3c0,0-0.1,0-0.1,0c0,0,0,0.1,0,0.1v0.3c0,0.1-0.5,1.6-0.6,1.8
	c-0.1,0.2-0.2,0.6-0.4,1c0,0.1,0,0.2,0,0.2s0.1,0,0.1-0.1l0.1-0.3c0.1-0.2,0.3-0.2,0.6-0.1c0.3,0.1,0.6,0.2,1.9,0.7L45.1,85.5
	L45.1,85.5z"/>
<path d="M44.6,79.4L44.6,79.4c0.2,0,1.7-0.2,3-0.5s2.8-0.5,3.6-0.7c0.1,0,0.2,0,0.3-0.1c0-0.1,0-0.1-0.2-0.2l-5.3-3
	c-0.5-0.2-0.6-0.4-0.6-0.6c0-0.1,0-0.1,0.1-0.2c0.1-0.1,0.1-0.1,0-0.2c0,0-0.1,0-0.2,0.1c-0.2,0.3-0.3,0.6-0.3,0.6
	c0,0-0.3,0.5-0.5,0.8c0,0.1-0.1,0.2,0,0.2c0.1,0,0.1,0,0.1-0.1c0.1-0.1,0.1-0.2,0.3-0.3c0.2-0.1,0.4-0.1,0.9,0.2l3.9,2l0,0
	c-0.2,0.1-1.9,0.3-2.7,0.5c-1.8,0.3-3.7,0.6-3.9,0.6c-0.2,0-0.4,0-0.4,0.1c0,0.1,0.1,0.2,0.2,0.2l5,2.8c0.7,0.4,1,0.6,0.9,0.8
	c0,0.1-0.1,0.2-0.1,0.3c0,0.1,0,0.1,0,0.2c0.1,0,0.1,0,0.2-0.1c0.2-0.3,0.3-0.7,0.4-0.8s0.2-0.4,0.5-0.8c0-0.1,0.1-0.2,0-0.2
	s-0.1,0-0.1,0.1c-0.1,0.1-0.1,0.2-0.2,0.3c-0.1,0.1-0.4,0.1-1.1-0.3L44.6,79.4L44.6,79.4z"/>
<path d="M51.4,73.5c0.7,0.6,1.3,1.1,1.5,1.3c0.3,0.3,0.3,0.4,0.3,0.5c0,0.1-0.1,0.2-0.2,0.2c-0.1,0.1,0,0.1,0,0.2
	c0.1,0,0.1,0,0.2-0.1c0.2-0.2,0.5-0.6,0.6-0.8s0.5-0.5,0.8-0.9c0-0.1,0.1-0.1,0-0.2s-0.1,0-0.1,0c-0.1,0.1-0.2,0.2-0.3,0.3
	c-0.2,0.2-0.4,0-0.6-0.1c-0.2-0.1-0.9-0.7-1.6-1.3l-3-2.5l0.6-0.7c0.5-0.5,0.8-0.5,1-0.3l0.1,0.1c0.1,0.1,0.2,0.1,0.2,0.1
	s0-0.1-0.1-0.2s-0.7-0.6-0.8-0.7c-0.2-0.1-0.2-0.1-0.2-0.1c-0.1,0.2-0.2,0.5-0.4,0.7l-1.9,2.3c-0.2,0.2-0.3,0.4-0.5,0.6
	C46.8,72,46.7,72,46.7,72c0,0.1,0,0.1,0.1,0.2c0.1,0.1,0.6,0.7,0.8,0.8s0.1,0.1,0.2,0s0-0.1,0-0.1c-0.1-0.1-0.1-0.2-0.2-0.3
	c-0.1-0.2,0-0.4,0.3-0.8l0.7-0.9L51.4,73.5L51.4,73.5z"/>
<path d="M54.4,70.3c0.6,0.7,1.1,1.3,1.4,1.6c0.2,0.3,0.2,0.4,0.2,0.5c0,0.1-0.1,0.1-0.2,0.2c-0.1,0.1-0.1,0.1,0,0.1s0.1,0,0.2,0
	c0.2-0.2,0.6-0.6,0.7-0.6s0.5-0.4,0.9-0.8c0.1-0.1,0.1-0.1,0-0.2s-0.1,0-0.1,0c-0.1,0.1-0.2,0.2-0.3,0.2c-0.2,0.1-0.4,0-0.5-0.1
	s-0.8-0.8-1.4-1.5L54,68.4c-1-1.1-1.2-1.3-1.4-1.5c-0.2-0.2-0.3-0.4-0.2-0.6c0-0.1,0.1-0.1,0.2-0.2c0,0,0.1-0.1,0-0.2
	c-0.1-0.1-0.1,0-0.2,0.1c-0.1,0.1-0.5,0.5-0.7,0.6L51,67.2c-0.1,0.1-0.1,0.2-0.1,0.2c0,0,0.1,0,0.2,0c0,0,0,0,0,0
	c0.1-0.1,0.2-0.1,0.2-0.2c0.2-0.1,0.3,0,0.6,0.2c0.2,0.2,0.4,0.4,1.4,1.5L54.4,70.3z"/>
<path d="M55.9,65.5L55.9,65.5c0.2,0.1,1.6,0.6,2.9,1s2.7,0.9,3.5,1.1c0.1,0,0.2,0,0.3,0c0.1,0,0-0.1-0.1-0.3l-3.2-5.1
	c-0.3-0.4-0.3-0.6-0.2-0.8c0.1-0.1,0.1-0.1,0.2-0.2c0.1,0,0.1-0.1,0.1-0.2c0-0.1-0.1,0-0.2,0c-0.3,0.2-0.5,0.4-0.6,0.4
	S58,61.8,57.6,62c-0.1,0.1-0.2,0.1-0.1,0.2s0.1,0.1,0.2,0c0.1-0.1,0.2-0.1,0.4-0.2c0.2,0,0.4,0.1,0.7,0.6l2.4,3.6l0,0l-2.6-0.9
	c-1.7-0.6-3.5-1.2-3.7-1.3s-0.3-0.1-0.4-0.1s0,0.2,0.1,0.3l3.1,4.9c0.5,0.7,0.6,1,0.5,1.1c-0.1,0.1-0.2,0.2-0.3,0.2
	c-0.1,0-0.1,0.1-0.1,0.1c0,0.1,0.1,0,0.2,0c0.3-0.2,0.6-0.4,0.7-0.5s0.4-0.2,0.8-0.5c0.1-0.1,0.1-0.1,0.1-0.2c0-0.1-0.1,0-0.1,0
	c-0.1,0.1-0.2,0.1-0.4,0.2c-0.2,0-0.4-0.1-0.8-0.7L55.9,65.5z"/>
<path d="M66.3,63.3C66.3,63.3,66.3,63.3,66.3,63.3l1.4,1.7c0.1,0.1,0.1,0.2,0,0.2c-0.1,0-0.1,0.1-0.1,0.1c0,0.1,0.1,0,0.2,0
	c0.6-0.2,1.1-0.4,1.4-0.5s0.3-0.1,0.3-0.2c0-0.1-0.1,0-0.1,0c-0.1,0-0.2,0.1-0.3,0.1c-0.2,0-0.4,0-1-0.8c-1-1.2-3.5-4.5-3.9-4.9
	c-0.1-0.2-0.2-0.2-0.3-0.2c-0.1,0-0.1,0.2-0.1,0.4l0.3,6.3c0,0.5,0,0.9-0.3,1c-0.1,0-0.1,0.1-0.2,0.1c-0.1,0-0.1,0-0.1,0.1
	s0.1,0.1,0.2,0c0.4-0.1,0.8-0.3,0.8-0.3c0.1,0,0.5-0.2,0.8-0.2c0.2-0.1,0.1-0.1,0.1-0.1c0-0.1,0-0.1-0.1,0h-0.1
	c-0.1,0.1-0.3,0-0.4-0.1c0,0,0,0,0,0c0,0,0,0,0-0.1c-0.1-0.2-0.1-0.4-0.1-0.6l-0.1-1.4c0-0.1,0-0.1,0-0.1L66.3,63.3z M64.6,63.4
	l-0.2-2.5v-0.1c0,0,0.1,0,0.1,0.1l1.5,2v0.1L64.6,63.4L64.6,63.4z"/>
<path d="M84.8,65.3c0.4,0.1,0.9,0.1,1.3,0c0.6-0.3,1-0.8,1.2-1.4c0.3-0.9,0.1-1.9-0.5-2.7l-0.2-0.3c-0.4-0.8-0.5-1.1-0.4-1.6
	c0.1-0.5,0.5-0.8,1-0.8h0.1c0.3,0.1,0.6,0.4,0.6,0.7c0.1,0.2,0.1,0.4,0,0.6v0.2c0,0,0.1,0,0.2-0.2c0.2-0.7,0.3-1,0.3-1.1
	s0-0.1-0.1-0.1c-0.3-0.2-0.6-0.4-0.9-0.4c-0.9-0.3-1.9,0.2-2.1,1.1c0,0,0,0,0,0c0,0,0,0.1,0,0.1c-0.2,0.9-0.1,1.8,0.4,2.5l0.2,0.4
	c0.3,0.5,0.4,1.1,0.3,1.7c-0.1,0.5-0.6,0.9-1.2,0.8c0,0-0.1,0-0.1,0l0,0c-0.5-0.2-0.9-0.7-0.8-1.2c0-0.2,0-0.3,0.1-0.5
	c0-0.1,0-0.2,0-0.2s-0.1,0.1-0.2,0.2c0,0.1-0.2,0.7-0.4,1.2c-0.1,0.2,0,0.2,0.1,0.4C84.1,64.9,84.4,65.1,84.8,65.3z"/>
<path d="M90.2,64.2c-0.4,0.8-0.7,1.5-0.9,1.8s-0.3,0.4-0.4,0.4c-0.1,0-0.2,0-0.3-0.1c0,0-0.1,0-0.1,0c0,0,0,0.1,0.1,0.2l0.9,0.4
	l1.1,0.5c0.1,0,0.2,0,0.2,0s0-0.1-0.1-0.1c-0.1-0.1-0.2-0.1-0.3-0.2c-0.2-0.1-0.1-0.3,0-0.6s0.5-1.1,0.8-1.9l1.7-3.6l0.9,0.4
	c0.6,0.3,0.7,0.6,0.6,0.9v0.1c-0.1,0.1-0.1,0.2,0,0.2c0.1,0,0.1,0,0.1-0.1c0-0.1,0.4-0.8,0.5-1s0.1-0.2,0-0.2
	c-0.2,0-0.5-0.1-0.7-0.2l-2.8-1.3c-0.2-0.1-0.4-0.2-0.7-0.4c-0.2-0.1-0.2-0.2-0.2-0.2c0,0-0.1,0-0.2,0.1s-0.6,0.8-0.7,0.9
	c-0.1,0.1,0,0.2,0,0.2s0.1,0,0.1-0.1c0.1-0.1,0.2-0.2,0.3-0.2c0.2-0.1,0.4-0.1,0.8,0.1l1.1,0.4L90.2,64.2L90.2,64.2z"/>
<path d="M94.7,66.1c-0.6,0.7-1,1.5-1,2.4c0.1,0.6,0.4,1.2,1,1.6c0.5,0.4,1.1,0.5,1.7,0.4c1-0.3,1.8-1,2.3-1.9l0.6-0.8
	c0.9-1.2,1.1-1.4,1.2-1.6c0.2-0.2,0.4-0.3,0.6-0.3c0.1,0,0.1,0.1,0.2,0.1c0.1,0,0.1,0.1,0.2,0s0-0.1-0.1-0.2
	c-0.2-0.2-0.6-0.4-0.7-0.5s-0.4-0.3-0.7-0.6c-0.1-0.1-0.1-0.1-0.2,0s0,0.1,0,0.2c0.1,0.1,0.1,0.1,0.2,0.2c0.2,0.2,0.1,0.4-0.1,0.7
	s-0.3,0.5-1.2,1.6l-0.8,0.9c-0.6,0.8-1.1,1.5-1.8,1.6c-0.4,0.1-0.8,0-1.2-0.2c-0.3-0.2-0.5-0.5-0.5-0.9c-0.1-0.5,0.1-1.1,1-2.3
	l0.8-1.1c0.9-1.2,1.1-1.4,1.2-1.6c0.2-0.2,0.4-0.3,0.6-0.3c0.1,0,0.1,0.1,0.2,0.1c0.1,0.1,0.1,0.1,0.2,0s0-0.1-0.1-0.2
	c-0.1-0.1-0.6-0.4-0.8-0.6c-0.1-0.1-0.6-0.4-0.9-0.7c-0.1-0.1-0.1-0.1-0.2,0s0,0.1,0,0.2c0.1,0.1,0.2,0.1,0.2,0.2
	c0.2,0.2,0.1,0.4-0.1,0.7c-0.2,0.3-0.3,0.5-1.2,1.6L94.7,66.1L94.7,66.1z"/>
<path d="M100,70.9c-0.5,0.5-1,0.9-1.6,1.3c-0.2,0.2-0.4,0.3-0.5,0.2c-0.1-0.1-0.1-0.1-0.2-0.2c-0.1-0.1-0.1-0.1-0.1,0
	c0,0.1,0,0.1,0,0.2c0.2,0.2,0.5,0.6,0.7,0.7c0.2,0.3,0.6,0.9,1,1.3c0.6,0.8,1.5,1.2,2.5,1.2c1-0.1,1.9-0.5,2.6-1.2
	c0.7-0.6,1.2-1.3,1.3-2.2c0.1-1.1-0.3-2.2-1.2-3c-0.3-0.3-0.6-0.7-0.8-0.9s-0.4-0.6-0.7-0.9c-0.1-0.1-0.1-0.1-0.2-0.1s0,0.1,0,0.2
	c0.1,0.1,0.1,0.2,0.2,0.2c0.1,0.2,0,0.4-0.2,0.6s-0.4,0.4-1.5,1.3L100,70.9L100,70.9z M102,70.4l1.5-1.2c0.1-0.1,0.1-0.1,0.2-0.1
	c0.1,0.1,0.3,0.2,0.4,0.3c0.6,0.6,0.8,1.5,0.7,2.3c-0.2,0.8-0.7,1.6-1.3,2.1c-0.6,0.6-1.4,1-2.2,1.1c-0.7,0-1.3-0.4-1.7-0.9
	c-0.4-0.5-0.4-0.8-0.4-1c0.1-0.2,0.3-0.4,0.5-0.6c0.1-0.1,0.7-0.6,1.5-1.3L102,70.4L102,70.4z"/>
<path d="M104.3,76.4c-0.8,0.5-1.4,0.9-1.8,1.1s-0.4,0.2-0.5,0.1c-0.1-0.1-0.1-0.1-0.2-0.2c0-0.1-0.1-0.1-0.1-0.1c0,0.1,0,0.1,0,0.2
	c0.2,0.3,0.4,0.6,0.5,0.8c0.2,0.4,0.4,0.7,0.6,1c0,0.1,0.1,0.1,0.2,0.1s0-0.1,0-0.2c-0.1-0.1-0.1-0.2-0.2-0.3
	c-0.1-0.2,0-0.3,0.2-0.5s1-0.7,1.8-1.1l1.5-0.9c1.2-0.8,1.5-0.9,1.8-1.1s0.5-0.2,0.6,0c0.1,0.1,0.1,0.1,0.2,0.2
	c0,0.1,0.1,0.1,0.2,0.1s0-0.1,0-0.2l-0.5-0.8c-0.1-0.1-0.3-0.6-0.5-0.9s-0.1-0.1-0.2-0.1s-0.1,0.1,0,0.2c0.1,0.1,0.1,0.2,0.1,0.3
	c0,0.2,0,0.3-0.3,0.5s-0.5,0.3-1.7,1.1L104.3,76.4z"/>
<path d="M104.4,82.6c0.8,1.8,2.8,2.3,4.9,1.4s2.9-2.5,2.1-4.3c-0.9-2.1-3.2-2.1-4.7-1.5S103.6,80.5,104.4,82.6z M105,82.7
	c-0.6-1.4,0.6-2.8,2.4-3.6c2.2-0.9,3.2-0.2,3.5,0.6c0.5,1.2-0.4,2.6-2.3,3.4C106,84.3,105.2,83.2,105,82.7z"/>
<path d="M108.7,86c-0.9,0.2-1.6,0.3-2,0.3s-0.5,0-0.6-0.1c0-0.1-0.1-0.2-0.1-0.3c0-0.1-0.1-0.1-0.1-0.1s-0.1,0.1-0.1,0.2
	c0,0.3,0.2,0.8,0.2,0.9s0.1,0.6,0.2,1.1c0,0.1,0.1,0.2,0.1,0.1s0.1,0,0.1-0.1c0-0.1,0-0.3,0-0.4c0-0.2,0.2-0.3,0.5-0.4
	s1.1-0.3,2-0.4h0.1c0.1,0,0.1,0,0.1,0l0.1,0.7c0,0,0,0.1,0,0.1c-0.1,0.1-0.7,0.6-1.2,1c-0.5,0.3-0.9,0.8-1.2,1.3
	c-0.1,0.3-0.1,0.6,0,0.8l0.1,0.7c0,0.1,0,0.1,0.1,0.1s0.1,0,0-0.1v-0.2c0-0.4,0.2-0.7,0.5-1c0.5-0.6,1.2-1.2,2.2-2.1
	c0.7,0.5,1.5,0.7,2.3,0.6c0.5-0.1,0.9-0.4,1.2-0.8c0.2-0.5,0.3-1,0.1-1.5c0-0.2-0.2-0.8-0.2-1.1s-0.1-0.6-0.2-1c0-0.1,0-0.2-0.1-0.2
	s-0.1,0.1-0.1,0.1c0,0.1,0,0.2,0,0.3c0,0.3-0.2,0.4-0.5,0.4s-0.6,0.1-2,0.4L108.7,86L108.7,86z M112.7,86.2c0.1,0,0.1,0,0.1,0
	c0.1,0.1,0.1,0.3,0.1,0.4c0.1,0.4-0.2,1.2-1.5,1.5c-0.5,0.1-1,0.1-1.5-0.2c-0.2-0.1-0.2-0.2-0.3-0.5c0-0.2,0-0.4,0-0.6
	c0-0.1,0.1-0.1,0.2-0.1L112.7,86.2L112.7,86.2z"/>
<path d="M110.2,93c-0.9-0.1-1.8,0.1-2.6,0.7c-0.5,0.4-0.7,1.1-0.6,1.7c0,0.6,0.2,1.2,0.7,1.6c0.8,0.6,1.9,0.9,2.9,0.8h3.1
	c0.3,0,0.5,0.1,0.5,0.3c0,0.1,0,0.2,0,0.2c0,0.1,0,0.1,0.1,0.1s0.1-0.1,0.1-0.2v-1.8c0-0.1,0-0.2-0.1-0.2s-0.1,0-0.1,0.1
	c0,0.1,0,0.2,0,0.3c-0.1,0.3-0.2,0.3-0.6,0.3s-0.6,0-2,0h-1.2c-0.8,0.1-1.7-0.1-2.4-0.5c-0.3-0.3-0.5-0.6-0.5-1.1
	c0-0.4,0.1-0.7,0.4-1c0.4-0.4,1-0.6,2.4-0.6h3.4c0.3,0,0.5,0.1,0.5,0.3c0,0.1,0,0.1,0,0.2c0,0.1,0,0.1,0.1,0.1s0.1-0.1,0.1-0.2v-0.9
	c0-0.2,0-0.7,0-1.1c0-0.1,0-0.2-0.1-0.2s-0.1,0-0.1,0.1c0,0.1,0,0.2,0,0.3c-0.1,0.3-0.2,0.3-0.6,0.3s-0.6,0-2,0h-1.4L110.2,93z"/>
<path d="M107.8,99.6c-0.3-0.1-0.6-0.3-0.6-0.5c0-0.1,0-0.2,0-0.2c0-0.1,0-0.1,0-0.1c-0.1,0-0.1,0-0.1,0.1c0,0,0,0,0,0
	c-0.1,0.2-0.1,0.6-0.2,0.8s-0.1,0.5-0.2,0.8c0,0.1,0,0.2,0.1,0.2s0.1,0,0.1-0.1c0-0.1,0.1-0.2,0.1-0.3c0.1-0.1,0.2-0.2,0.3-0.2
	l0.4,0.1l3.6,1.3l0,0l-2.3,0.3c-0.3,0-1.9,0.3-2.3,0.3c-0.3,0-0.5,0.1-0.5,0.1s0.1,0.1,0.5,0.4l3.9,2.7l0,0l-4.2-0.6
	c-0.3,0-0.4-0.1-0.4-0.1s0-0.1-0.1-0.1s-0.1,0-0.2,0.2s-0.4,1.3-0.4,1.5s0,0.2,0.1,0.2s0.1,0,0.1-0.1c0-0.2,0.1-0.3,0.2-0.4
	c0.2-0.2,0.4-0.2,1-0.1l6,0.7c0.2,0,0.3,0,0.3-0.1s0-0.1-0.2-0.2l-4.8-3.3l5.8-0.8c0.3,0,0.3-0.1,0.3-0.1s-0.1-0.1-0.2-0.2
	L107.8,99.6L107.8,99.6z"/>
<path d="M103.7,115.7c-0.6-0.7-1.4-1.1-2.3-1.1c-0.6,0-1.2,0.4-1.6,0.9c-0.4,0.4-0.6,1.1-0.5,1.7c0.3,1,0.9,1.9,1.7,2.4l0.8,0.6
	c1.1,1,1.3,1.1,1.5,1.3s0.3,0.4,0.2,0.6c0,0.1-0.1,0.1-0.2,0.2c-0.1,0.1-0.1,0.1,0,0.2s0.1,0,0.2-0.1c0.2-0.2,0.5-0.6,0.6-0.7
	s0.3-0.4,0.6-0.7c0.1-0.1,0.1-0.1,0-0.2s-0.1,0-0.2,0c-0.1,0.1-0.1,0.1-0.2,0.2c-0.2,0.2-0.4,0.1-0.6-0.1s-0.4-0.4-1.6-1.3l-0.9-0.8
	c-0.7-0.4-1.2-1.1-1.5-1.9c-0.1-0.4,0-0.8,0.3-1.2c0.2-0.3,0.6-0.5,0.9-0.5c0.5,0,1.1,0.2,2.2,1.1l1,0.9c1.1,1,1.3,1.1,1.6,1.3
	s0.3,0.4,0.2,0.6l-0.1,0.2c-0.1,0.1-0.1,0.1,0,0.2s0.1,0,0.2-0.1s0.5-0.6,0.6-0.7s0.5-0.5,0.8-0.8c0.1-0.1,0.1-0.1,0-0.2
	s-0.1,0-0.2,0c-0.1,0.1-0.1,0.1-0.2,0.2c-0.2,0.2-0.4,0.1-0.6-0.1s-0.4-0.4-1.6-1.3L103.7,115.7L103.7,115.7z"/>
<path d="M99.8,123.1L99.8,123.1c-0.2-0.1-1.6-0.5-2.9-0.8s-2.8-0.7-3.5-0.9c-0.1,0-0.3-0.1-0.3,0s0,0.1,0.1,0.3l3.6,4.9
	c0.3,0.4,0.4,0.6,0.3,0.8c0,0.1-0.1,0.1-0.2,0.2c-0.1,0.1-0.1,0.1-0.1,0.2s0.1,0,0.2,0c0.3-0.2,0.5-0.4,0.6-0.5
	c0.1-0.1,0.4-0.3,0.8-0.5c0.1-0.1,0.2-0.1,0.1-0.2c0-0.1-0.1-0.1-0.2,0c-0.1,0.1-0.2,0.2-0.4,0.2c-0.2,0-0.4-0.1-0.7-0.5l-2.7-3.4
	l0,0c0.2,0,1.9,0.5,2.7,0.7c1.7,0.4,3.6,1,3.8,1s0.3,0.1,0.4,0.1s0-0.2-0.1-0.3l-3.4-4.6c-0.5-0.6-0.6-0.9-0.5-1.1
	c0.1-0.1,0.2-0.2,0.2-0.2c0.1,0,0.1-0.1,0-0.1c0,0-0.1,0-0.2,0c-0.3,0.2-0.6,0.5-0.6,0.5c-0.1,0-0.4,0.2-0.8,0.6
	c-0.1,0.1-0.1,0.1-0.1,0.2s0.1,0,0.2,0c0.1-0.1,0.2-0.2,0.4-0.2c0.2,0,0.4,0.1,0.9,0.7L99.8,123.1L99.8,123.1z"/>
<path d="M92.6,124.7c-0.4-0.8-0.8-1.5-1-1.9c-0.2-0.4-0.2-0.4,0-0.5c0.1-0.1,0.1-0.1,0.2-0.2c0.1,0,0.1-0.1,0.1-0.1
	c0-0.1-0.1,0-0.2,0l-0.8,0.5c-0.2,0.1-0.6,0.3-1.1,0.5c-0.1,0-0.1,0.1-0.1,0.1s0.1,0.1,0.2,0l0.4-0.1c0.2-0.1,0.4,0,0.5,0.3
	s0.6,1,1,1.9l0.8,1.5c0.7,1.3,0.8,1.5,0.9,1.8s0.2,0.5,0,0.6c-0.1,0.1-0.1,0.1-0.2,0.1c-0.1,0-0.1,0.1-0.1,0.1s0.1,0,0.2,0
	c0.3-0.1,0.6-0.4,0.8-0.5c0.2-0.1,0.7-0.3,0.9-0.4s0.2-0.1,0.1-0.1c0,0-0.1-0.1-0.2,0c-0.1,0-0.2,0.1-0.3,0.1
	c-0.2,0-0.3-0.1-0.5-0.4c-0.2-0.3-0.3-0.5-1-1.8L92.6,124.7L92.6,124.7z"/>
<path d="M86.9,125c-0.3-0.4-0.4-0.5-0.5-0.5s-0.1,0.2-0.1,0.8s0,1.6,0,3.1c0,1.3,0,1.8,0,2.8c0,0.6,0,0.9-0.1,1
	c-0.1,0.1-0.2,0.2-0.3,0.2c0,0-0.1,0-0.1,0.1c0,0,0,0,0,0c0,0.1,0.1,0.1,0.2,0l0.6-0.3c0.1,0,0.4-0.1,0.8-0.2
	c0.1-0.1,0.2-0.1,0.2-0.2c0-0.1-0.1-0.1-0.2,0c-0.1,0-0.2,0-0.3,0c-0.1,0-0.1-0.1-0.1-0.1c0-0.1-0.1-0.2-0.1-0.4
	c0-0.6-0.1-3.9-0.1-5l0,0l2.7,3.7c0.2,0.2,0.3,0.4,0.4,0.6c0,0.1,0,0.1,0,0.2c-0.1,0.1-0.2,0.1-0.3,0.2c0,0-0.1,0-0.1,0.1
	c0,0,0,0,0,0c0,0.1,0.1,0.1,0.2,0c0.4-0.1,0.7-0.3,0.9-0.3s0.7-0.2,1.1-0.3c0.1,0,0.2-0.1,0.2-0.1c0-0.1,0-0.1-0.1-0.1
	c-0.1,0-0.2,0-0.3,0.1c-0.3,0-0.4-0.1-0.8-0.5L86.9,125L86.9,125z"/>
<path d="M82.6,128.4c-0.1-0.9-0.2-1.6-0.2-2s0-0.5,0.2-0.6c0.1,0,0.2-0.1,0.3-0.1c0.1,0,0.1,0,0.1-0.1c0-0.1-0.1-0.1-0.2-0.1
	c-0.3,0-0.8,0.1-1,0.2c-0.5,0-1,0.1-2.1,0.2c-0.3,0-0.3,0.1-0.4,0.3c0,0.4,0,0.7,0,1.1c0,0.1,0,0.2,0.1,0.2c0.1,0,0.1,0,0.1-0.2
	c0-0.4,0.1-0.6,0.2-0.8c0.2-0.1,0.5-0.2,0.7-0.2c0.8-0.1,0.9,0,1,0.7c0,0.3,0.2,1.2,0.2,1.5l0.1,0.8v0.1c-0.2,0-0.9,0.1-1.1,0.1
	c-0.2,0-0.4-0.1-0.5-0.3c0-0.1,0-0.2-0.1-0.3c0-0.1,0-0.1-0.1-0.1s0,0.1,0,0.2s0,0.4,0.1,0.6c0.1,0.2,0,0.5,0,0.7c0,0,0,0.1,0.1,0.1
	c0.1,0,0.1-0.1,0.1-0.1c0.1-0.1,0.2-0.2,0.3-0.2c0.2-0.1,1-0.2,1.2-0.2c0.2,0,0.1,0,0.1,0.1l0.3,2.4c0,0.1,0,0.1,0,0.1
	s-1,0.1-1.1,0.1c-0.4,0-0.5-0.1-0.6-0.3c0-0.1-0.1-0.2-0.1-0.3c0-0.1,0-0.1-0.1-0.1c-0.1,0,0,0.1,0,0.1s0,0.5,0,0.6s0,0.4,0,0.6
	c0,0,0,0.1,0.1,0.1c0,0,0.1,0,0.1-0.1l0.3-0.1l1.9-0.3c0.4,0,0.7-0.1,1.1-0.1c0.1,0,0.2,0,0.2-0.1c0-0.1-0.1-0.1-0.2-0.1h-0.3
	c-0.3,0-0.3-0.2-0.4-0.5c-0.1-0.3-0.1-0.6-0.3-2L82.6,128.4z"/>
<path d="M77.8,128.9c0-0.9,0.1-1.6,0.1-2s0.1-0.5,0.2-0.5h0.3c0.1,0,0.1,0,0.1-0.1s-0.1-0.1-0.2-0.1h-0.9c-0.1,0-0.7-0.1-1.1-0.1
	c-0.1,0-0.2,0-0.2,0.1s0,0.1,0.1,0.1h0.4c0.2,0.1,0.3,0.3,0.3,0.6c0,0.3,0,1.2-0.1,2.1v0.1c0,0.1,0,0.1-0.1,0.1h-0.7
	c-0.1,0-0.1,0-0.1-0.1c-0.1-0.1-0.4-0.8-0.7-1.4c-0.2-0.5-0.6-1-1-1.5c-0.2-0.2-0.5-0.2-0.8-0.2h-0.7c-0.1,0-0.2,0-0.2,0.1
	c0,0.1,0,0.1,0.1,0.1c0.1,0,0.1,0,0.2,0c0.1,0,0.4,0.1,0.8,0.7c0.4,0.6,0.9,1.5,1.6,2.6c-0.7,0.5-1.1,1.3-1.1,2.1
	c0,0.5,0.1,1,0.5,1.3c0.4,0.3,0.9,0.5,1.4,0.5h1.1c0.3,0,0.7,0.1,1.1,0.1c0.1,0,0.2,0,0.2-0.1s0-0.1-0.1-0.1H78
	c-0.2-0.1-0.3-0.2-0.3-0.6s0-0.6,0.1-2L77.8,128.9L77.8,128.9z M76.7,132.7c0,0.1,0,0.1-0.1,0.1c-0.1,0-0.3,0-0.4,0
	c-0.5,0-1.2-0.4-1.1-1.8c0-0.5,0.2-1,0.5-1.4c0.2-0.1,0.4-0.2,0.5-0.1c0.2,0,0.4,0,0.6,0.1c0.1,0,0.1,0.1,0.1,0.2L76.7,132.7
	L76.7,132.7z"/>
<path d="M71,125.6c-0.4-0.1-0.9-0.1-1.3,0.1c-0.6,0.3-0.9,0.8-1.1,1.5c-0.2,1,0.1,1.9,0.7,2.7l0.2,0.2c0.5,0.7,0.6,1.1,0.5,1.5
	c-0.1,0.5-0.5,0.8-1,0.8h-0.1c-0.3-0.1-0.6-0.3-0.7-0.6c-0.1-0.2-0.1-0.4-0.1-0.6c0-0.1,0-0.2,0-0.2s-0.1,0.1-0.1,0.3
	c-0.2,0.7-0.3,1-0.3,1.1c0,0.1,0,0.1,0.1,0.1c0.3,0.2,0.6,0.3,1,0.4c0.9,0.2,1.8-0.3,2.1-1.2c0-0.1,0-0.1,0-0.2
	c0.2-0.9,0-1.8-0.6-2.5l-0.3-0.4c-0.4-0.5-0.5-1.1-0.4-1.7c0.1-0.5,0.6-0.9,1.1-0.9c0,0,0.1,0,0.1,0l0,0c0.5,0.1,0.9,0.6,0.8,1.2
	c0,0.2,0,0.3,0,0.5c0,0.1,0,0.2,0,0.2s0.1-0.1,0.1-0.2s0.2-0.7,0.3-1.2c0-0.2,0-0.2-0.1-0.3C71.8,125.8,71.5,125.7,71,125.6
	L71,125.6z"/>
<path d="M66.4,127.1c0.3-0.9,0.6-1.6,0.8-1.9s0.2-0.4,0.4-0.4c0.1,0,0.2,0,0.3,0H68c0,0,0-0.1-0.1-0.1c-0.3-0.1-0.8-0.2-0.9-0.3
	l-1.1-0.4c-0.1,0-0.2,0-0.2,0c0,0,0,0.1,0.1,0.1c0.1,0.1,0.2,0.1,0.4,0.2c0.2,0.1,0.2,0.3,0.1,0.6c-0.1,0.3-0.4,1.1-0.7,2l-0.6,1.5
	c-0.5,1.4-0.6,1.6-0.7,1.9c-0.1,0.3-0.2,0.4-0.5,0.4c-0.1,0-0.2,0-0.2,0c-0.1,0-0.1,0-0.2,0s0,0.1,0.1,0.1c0.3,0.1,0.7,0.2,0.9,0.3
	s0.7,0.3,0.9,0.4c0.1,0,0.2,0.1,0.2,0c0-0.1,0-0.1-0.1-0.1c-0.1,0-0.2-0.1-0.2-0.1c-0.1-0.1-0.2-0.3-0.1-0.6
	c0.1-0.3,0.2-0.6,0.7-1.9L66.4,127.1L66.4,127.1z"/>
<path d="M62.1,125.3c0.4-0.8,0.8-1.5,1-1.8s0.3-0.4,0.4-0.4c0.1,0,0.2,0,0.3,0.1c0.1,0,0.1,0,0.2,0s0-0.1-0.1-0.2
	c-0.3-0.1-0.7-0.3-0.9-0.4c-0.2-0.1-0.6-0.4-1.1-0.6c-0.1,0-0.1,0-0.2,0s0,0.1,0.1,0.1l0.3,0.2c0.2,0.1,0.1,0.4,0,0.6
	c-0.1,0.2-0.5,1.1-0.9,1.9l-1.8,3.5l-0.9-0.5c-0.6-0.3-0.6-0.6-0.6-0.9v-0.1c0.1-0.1,0.1-0.2,0-0.2s-0.1,0-0.1,0.1s-0.4,0.8-0.5,1
	s-0.1,0.2,0,0.2c0.2,0.1,0.5,0.1,0.7,0.3l2.7,1.4c0.2,0.1,0.4,0.2,0.6,0.4c0.2,0.1,0.2,0.2,0.2,0.3s0.1,0,0.2-0.1
	c0.1-0.1,0.6-0.8,0.6-0.9c0.1-0.1,0.1-0.1,0-0.2c-0.1,0-0.1,0-0.1,0.1c-0.1,0.1-0.2,0.2-0.3,0.2c-0.2,0.1-0.4,0.1-0.8-0.1l-1-0.5
	L62.1,125.3L62.1,125.3z"/>
<path d="M56.5,121.3C56.5,121.3,56.5,121.3,56.5,121.3l0.8-2.1c0-0.1,0.1-0.1,0.2-0.1c0,0,0,0,0,0c0.1,0,0.1,0,0.1,0s0-0.1-0.1-0.2
	c-0.5-0.4-0.9-0.8-1.1-0.9c-0.2-0.2-0.3-0.2-0.3-0.2s0,0.1,0,0.1c0.1,0.1,0.2,0.1,0.2,0.2c0.1,0.1,0.2,0.4-0.1,1.2
	c-0.5,1.4-2,5.3-2.2,5.8c-0.1,0.2-0.1,0.3,0,0.4c0.1,0,0.2,0,0.4-0.2l5.3-3.5c0.4-0.3,0.7-0.4,1-0.3l0.2,0.1c0,0,0.1,0,0.1,0
	c0-0.1,0-0.1,0-0.2l-0.7-0.6c-0.2-0.1-0.4-0.4-0.6-0.5s-0.1-0.1-0.2,0c0,0.1,0,0.1,0,0.1l0.1,0.1c0.1,0.1,0.2,0.2,0.1,0.3
	c0,0,0,0,0,0c0,0,0,0.1,0,0.1c-0.1,0.2-0.3,0.3-0.5,0.4l-1.2,0.8c-0.1,0-0.1,0-0.1,0L56.5,121.3z M57.4,122.6L57.4,122.6l-2,1.5
	c0,0-0.1,0.1-0.1,0c0-0.1,0-0.1,0-0.1l0.9-2.3c0,0,0,0,0.1,0L57.4,122.6L57.4,122.6z"/>
<path d="M55,116.5c-0.3-0.3-0.7-0.6-1.1-0.7c-0.6-0.1-1.3,0.1-1.7,0.6c-0.7,0.7-1.1,1.6-1,2.6v0.3c0,0.9-0.2,1.2-0.5,1.5
	c-0.3,0.4-0.9,0.4-1.3,0.1c0,0,0,0,0,0c0,0-0.1-0.1-0.1-0.1c-0.2-0.2-0.3-0.6-0.2-0.9c0.1-0.2,0.2-0.4,0.3-0.6
	c0.1-0.1,0.1-0.1,0.1-0.2c0,0-0.1,0-0.3,0.1c-0.6,0.5-0.8,0.7-0.9,0.8c-0.1,0.1,0,0.1,0,0.2c0.1,0.3,0.3,0.6,0.6,0.9
	c0.6,0.7,1.7,0.8,2.4,0.2c0,0,0,0,0,0c0,0,0.1-0.1,0.1-0.1c0.7-0.6,1-1.5,0.9-2.4v-0.5c0-0.6,0.2-1.2,0.6-1.6c0.4-0.4,1.1-0.4,1.5,0
	l0,0c0.4,0.4,0.4,1.1,0,1.5c-0.1,0.1-0.2,0.3-0.3,0.4c-0.1,0-0.1,0.1-0.1,0.2c0.1,0,0.1,0,0.2-0.1s0.6-0.5,1-0.8
	c0.2-0.1,0.2-0.2,0.1-0.3C55.4,117.2,55.2,116.8,55,116.5L55,116.5z"/>
<path class="st1" d="M75.9,61c0,0.1-0.1,0.2-0.1,0.2h0.9c0.1,0,0-0.1,0-0.2C76.4,61,76.2,61,75.9,61L75.9,61L75.9,61z"/>
<path class="st3" d="M75.9,61c0,0.1-0.1,0.2-0.1,0.2h0.9c0.1,0,0-0.1,0-0.2C76.4,61,76.2,61,75.9,61L75.9,61L75.9,61z"/>
<path class="st2" d="M63.3,69.8c-13.9,7.6-18.9,25.1-11.2,38.9c5,9,14.4,14.7,24.7,14.8c15.8-0.2,28.5-13.2,28.3-29
	c-0.2-14.1-10.5-25.9-24.4-28"/>
<path class="st4" d="M84.5,53"/>
<path d="M100.8,99.7C99.5,98,98.5,96.1,98,94c-0.5-1.3-0.7-2.6-0.8-4c0-0.8-0.2-1.7-0.6-2.4c-0.6-0.8-1-1.8-1-2.8
	c0-0.6-0.1-1.2-0.3-1.8c-1-3.6-3-6.7-5-9.8c-0.1-0.2-0.3-0.4-0.5-0.5c-2-1-4.1-1.9-6.1-2.9c-0.5-0.2-1.1-0.4-1.6-0.7
	c-0.7-0.2-1.2-1-1-1.7c0.4-1.4,0.8-2.9,1.2-4.3c0.3-1,0.7-1.9,0.2-2.9c-0.4-0.8-0.4-1.7,0-2.5c0.4-0.9,0.9-1.7,1.3-2.6
	c0.6-1.2,0.4-1.2-0.6-1.9c-0.7-0.4-1.4-0.8-2.1-1.1c-6.4-2.3-10.2,0.1-11.5,0.8c0.1,0.5,0.2,0.9,0.3,1.4c0.4,1.2,0.7,2.3,1,3.5
	c-0.7,4.3-0.5,4.3-0.1,7.8c0.1,0.9,0.1,2.6,0.1,2.6l-3.4,2.2c-0.3-0.5-0.8-0.9-1.3-1.1c-0.3-0.1-0.6-0.2-0.9-0.4
	c-0.6-0.4-0.8-0.5-1.6-1c-0.2,2-2.1,3.6-0.7,5.5c-1.4,1-2.5,2.2-3.5,3.6c-0.8,1.2-1.4,2.5-1.9,3.9c-1.8,4.1-2.6,8.6-2.3,13.1
	c0.3,1.9,0.1,3.8-0.7,5.5c-0.9,1.6-0.5,3.6,1,4.7c0.5,0.4,0.8,1,1,1.7c0.4,3.1,0.6,6.2,1,9.3c0.1,0.8-0.1,0.6,0.9,1.8
	c0,0,0.5,0.3-0.1-0.3S58,115,58,114.4c-0.2-2.2-0.4-4.4-0.6-6.5c-0.1-0.7-0.2-1.3-0.2-1.9c0.2,0.1,0.3,0.1,0.3,0.1
	c0.2,0.6,0.3,1.3,0.5,2c0.8,3.8,2,7.4,3.7,10.8c0.4,0.6,1,1,1.6,1.2c1.2,0.2,2.4,0.2,3.6,0.2c0.9,0,1.6-0.6,1.8-1.4
	c0.1-1.1,0.3-2.2,0.5-3.2c0.2,0,0.6,2.3,0.7,2.4c-0.2,1.8-0.4,2.7-0.6,4.5c0.1,0,0.2,0.1,0.3,0.1c0.3-0.7,0.4-1.9,0.7-2.6
	c0.3,0.3,0.4,0.6,0.3,1v1.9c0.2-0.1,0.2-1.3,0.3-1.4c0.2,0.6,0.6,1.2,1,1.7c-1.4-3.3-1.8-6.1-2.8-9.5c1.7-0.2,3.2-1,4.3-2.3
	c0.7-0.9,1.3-1.8,1.9-2.8l1.5-2.1c0.5,0.8,0.9,1.6,1.4,2.4c-1.4,4.9-2.5,9.7-4.2,14.6h0.2c0.3-0.4,1.1-3,1.4-3.5
	c0.2,0.4-0.3,3.1-0.8,3.5H76c0.1-2.1,0.2-3.8,0.3-5.9c0.1,0,0.5-1.5,0.6-1.5c0,2.1-0.3,5.3-0.3,7.4c0.1,0,0.7,0,0.7-0.1
	c0.1-0.5,0-1,0.1-1.5c0.2-2.6-0.2-5.4,0-8.1c0.2,0,0.7-2.2,0.8-2.2c0,3.2,0.2,8.7,0.2,11.9c0.1,0,0.3-0.1,0.4-0.1
	c0.1-0.2,0.1-0.4,0.1-0.6c0.1-0.4,0.1-0.9,0.2-1.4c0.1-1.1,0.1-2.3,0-3.4c0-1.9-0.4-4.2-0.5-6.1V110c0.1,0,1.3-1.2,1.3,1
	c0.2,4.2,0.3,8.2,0.5,12.4c0.2,0,0.3,0,0.5,0c0.1-0.3,0.1-0.6,0.1-0.9c-0.1-4-0.1-8-0.2-12.1c0-0.9,0.2-1.1,1.1-0.9
	c0.7,0.1,1.5,0.2,2.4,0.3v12.9h0.4V112H85c1.1,3.1,1.3,6.4,1.6,9.7l0.5-0.2c0-0.9,0.6-3.5,0.7-4.3v1.4l0.3,2.4l0.3,0.1
	c0.1-0.2,0.2-0.5,0.2-0.8c-0.1-1.4-0.4-2.8-0.5-4.1c-0.1-0.6-0.1-2.1-0.1-2.6c0.6,0.8,1,1.7,1.3,2.7c0.2,1.4,0.3,2.5,0.5,4.1
	c0.2-0.4,0.4-0.5,0.4-0.8c0.1-1.2,0.2-2.4,0.3-3.7c0.3-4.2,0.6-8.5,0.9-12.7c0-0.3,0-0.5,0-0.8c0-0.9-0.6-1.7-1.5-1.8
	c-1.2-0.2-2.5-0.2-3.7-0.3c0,0.1,0-0.1,0.1-0.2c1.4-1.6,3.8-1.7,5.4-0.3c0.3,0.3,0.6,0.6,0.8,0.9c0.4,0.6,0.7,1.2,0.9,1.9
	c0.6,2.4,1.3,4.8,1.8,7.2c0.5,2.6,0.6,4.4,0.8,6.1c0.2-0.1,0.3-0.3,0.4-0.4c0.4-0.8,0.8-1.6,1.2-2.5c0.3-0.9,0.5-1.8,0.5-2.7
	c-0.1-0.7,0.1-1.4,0.6-2c0.3-0.4,0.6-0.9,0.9-1.3c0.6-0.8,0.9-1.9,0.6-2.9c-0.2-0.5-0.1-1,0.3-1.4C101,101.9,101.6,100.7,100.8,99.7
	L100.8,99.7z M92,99l0.8,0.2c0.3,0.1,0.6,0.2,0.8,0.3c0.8,0.2,1.1-0.2,1-1c-0.1-1-1-1.7-2-1.7c-0.7,0-3.2-0.1-3.8-0.1
	c1.3-1.2,3.9-2.1,9.4,1.9c-0.3,0-1-0.2-1.4-0.2c0.7,1,0.5,1.2,1.1,2.2c0.4,0.6,0.7,1.2,1,1.8c1,2.4,0.7,4-1.2,6
	c-0.8-1.3-0.9-3-0.1-4.3c0.2-0.4,0.4-0.9,0.4-1.4c0.2-1-0.4-1.9-1.4-2.1c0,0,0,0,0,0c-0.5,1.5-0.5,3.2-0.2,4.7
	c0.3,1.9,0.7,3.8,0.9,5.7c0.2,1.2-0.3,2.5-1.2,3.3C95.3,108.9,95.2,103.6,92,99L92,99z M96.7,102.4H97c0.6,0.7,0,1.4-0.3,2.1V102.4z
	 M89.1,95.2c0.1,0.1,0.2,0.2,0.3,0.3l0,0c0.2-0.1,0.5-0.2,0.7-0.4c1-1.4,2.5-0.8,3.8-0.8c0,0.1,0,0.2,0.1,0.3l-4.5,0.9l0,0
	c-0.4,0.3-0.8,0.6-1.4,1.1c0.4-2,3.4-4.5,4.9-4.1c-0.7,0.4-1.4,0.8-2,1.3C90.2,94.3,89.7,94.7,89.1,95.2L89.1,95.2z M86.7,98.8
	c1.2-2.7,8.7-1.8,6.9,0.1c-0.8-0.4-1.7-0.7-2.7-0.8C89.4,98.2,88,98.4,86.7,98.8L86.7,98.8z M85.2,100.6c-0.3,0.6-0.6,0.6-1.2,0.5
	c-1.6-0.4-3.3-0.1-4.6,0.8c-0.3,0.2-0.6,0.5-0.8,0.7c0.8,1.1,1.9,0.1,2.9,0.8c-0.3,0.7-0.5,1.4-0.9,2c-0.2,0.3-0.6,0.4-1,0.3
	c-2.1-0.9-4.2-1.9-6.4-3L81.1,88l8.2,4c-0.7,1.3-1.2,2.6-1.8,3.8C86.7,97.4,85.9,99,85.2,100.6L85.2,100.6z M85.8,84.6
	c0-1.8,0-2.1,0-3.9c0.1,0,0.5-1.2,0.6-1.2c0.3,1.5,0.4,3.9-0.4,8.9C85.9,88.3,85.9,84.6,85.8,84.6L85.8,84.6z M80.5,76.6v-3.2
	c1.1,0.8,1.3,7.2,0.4,9.6c-0.2-1.1-0.3-2-0.4-2.9c-0.1-0.9-0.4-1.7-0.7-2.6c-0.8,1.2-1.2,2.5-1.2,3.9c-0.4,2.5-0.2,5,0.6,7.4
	c0,0.3-2.1,3.9-2.2,4.5c0-0.6-0.7-0.4-0.6-1.2c0.2-2.9,0.9-7.4,1-9.7c0-1.6,0.3-3.1,0.2-4.8c0-0.6-0.1-1.2-0.3-1.8
	c-0.1-0.2-0.4-0.4-0.6-0.6c-0.2,0.3-0.4,0.6-0.5,0.8c-0.1,1.5-0.2,2.9-0.3,4.4c-0.1,2.3-0.4,4.7-0.8,7c-0.3-2.6,0.4-11.5,1.2-14h3.2
	c0.2,1,0.4,1.9,0.6,2.9L80.5,76.6z M79.5,67.1c0.9,1.2-0.5,1.9-0.6,3l-0.2-0.1c-0.5,0.3-0.9,0.7-1.3,1.2C77,71.6,76.7,72,75.9,72
	c-0.6,0.1-1.1,0.2-1.6,0.4c-0.2-1-0.5-1.9-0.7-2.9l-0.2-0.1c-0.1,0.4-0.2,0.8-0.2,1.3c0,0.4,0,0.9,0,1.4l-0.3,0.1
	c-0.2-0.5-0.4-1-0.6-1.5c-0.2-0.5-0.1-0.9-0.3-1.2c-0.8-1.2,0.1-2.2,0.2-3.3l0.5-0.3c0.7-0.2,1.4-0.2,2.1,0c0.4,0.8,0.8,1.2,1.2,1.9
	s0.5,1.5,0.8,2.2c0.1-0.1,0.2-0.1,0.2-0.2c-0.2-1.5-0.8-2.9-1.6-4.2c-0.4-0.4-1-0.5-1.6-0.4c-0.2,0-0.4,0-0.6,0
	c-0.2,0-0.9,0.2-1,0.4c-0.2,0.6-0.5,1.2-0.8,1.8c0-0.4,0.1-0.8,0.2-1.1c0.3-0.6,0.6-1.6,1-1.7c1.2-0.3,2.7-0.6,3.5,0.9
	c0.5,0.9,1.1,1.8,1.6,2.6c0.7-1.6,1.4-3.4,2.3-5.4c0.4,1.4,0.4,2.8-0.2,4.2c0,0-0.1,0.1-0.1,0.2L79.5,67.1z M81.8,57.3
	c-0.1,0.7-0.3,1.1-1.1,0.9c-3-0.6-6.1-0.8-9.2-0.6l0,0c0-0.1,0-0.1,0-0.2c0-0.3-0.2-0.5-0.2-0.9C73.2,55.8,79.3,56.3,81.8,57.3
	L81.8,57.3z M81.1,56.2L80.8,56c0.3-0.7,0.6-1.3,0.8-1.9C82.3,55.1,82,55.7,81.1,56.2L81.1,56.2z M80.1,54.2h0.3
	c0,0.6,0,1.2-0.1,1.9L79.2,56C79.5,55.3,79.8,54.8,80.1,54.2L80.1,54.2z M78.4,55.9c-0.8-1-0.7-1.5,0.3-2.5
	C79.7,54.3,79.2,55.1,78.4,55.9L78.4,55.9z M76.3,55.6l0.7-2.2h0.2l0.3,2.2H76.3z M75.3,55.6c-0.9-0.7-0.8-1.3,0.4-2.7
	c0.7,0.7,0.7,1.8,0,2.4C75.5,55.4,75.4,55.5,75.3,55.6L75.3,55.6z M73.1,55.6c0.1-0.6,0.2-1.3,0.3-1.9h0.2c0.2,0.7,0.5,1.2,0.7,1.9
	L73.1,55.6z M71.9,53.4c0.6,0.7,1.2,1.3,0.4,2.3C71.4,55.3,71.3,54.9,71.9,53.4z M71.2,61.3c0.3,0,1.1-0.3,1.2,0s0,0.5-0.2,0.5h-0.8
	C71.3,61.7,71.1,61.3,71.2,61.3z M71.2,65c-0.1-0.6,0-1.3-0.1-1.9l-0.1-0.7C73.5,61.7,72.1,64.2,71.2,65L71.2,65z M71.2,60
	c0.4,0,0.8,0.1,1.2,0.3C72.2,60.5,71,60.1,71.2,60z M71.2,59.6c0.1-0.4,0.1-0.9,0.3-1.5c2.5-0.1,5,0,7.4,0.4c0.2,0,0.6,0.5,0.7,0.9
	c0.3,2.7-0.8,5.1-2.1,7.3l-3-3.6l-0.2,0.1c0,0.2,0.1,0.4,0.2,0.6L72.9,64c0.1-0.9,0.2-1.8,0.2-2.8C73.1,60.2,72.8,59.9,71.2,59.6
	L71.2,59.6z M81.5,60.6c-0.2,0.6-0.6,1.4-1.4,1.6c0-0.6,0.2-1.8,0.2-3.5c0.5,0.1,0.8,0.2,1.4,0.3C81.8,59.6,81.7,60.2,81.5,60.6
	L81.5,60.6z M74.5,79.8c0.1-0.5,0.2-1,0.2-1.4c0.1-0.4,0.1-1,0.2-1.5c0.1-0.5,0.3-1,0.5-1.4c-0.2,4.5-1,8.9-0.2,13.4l0.3,0.1
	c0.2-0.7,0.3-1.4,0.5-2.1c0.2-2.4,0.4-4.8,0.6-7.2c0.1-0.9,0.3-1.8,0.5-2.7c0.1,5.8-0.4,11.7-1.6,17.4c-0.6-4.8-1.7-8.5-2.3-12.7
	c-0.4-2-0.8-4.1-1-6.1c-1.4,0.9-0.4,4.5-0.8,5.5c-0.4-0.8-1.8-2.7-1.3-4.7c0.3-1.5,0.8-2.9,1.4-4.3c1.2,0.5,1.2,1.4,1.2,3
	c0,0.4,0.1,0.8,0.1,1.2h0.2c0.1-0.7,0-1.7,0.1-2.5c0.6,0,1.4-0.2,2-0.2C74.8,75.3,73.6,77.7,74.5,79.8L74.5,79.8z M63.9,99.5
	c-3.5-4.7-3.5-5.7-1.5-7.9c0.2,1.3,0.2,2.6,0.3,3.9c0.3,1.6,1.5,2.9,3,3.3c0.9,0.1,1.7,0.2,2.6,0.3c0.9-0.2,1.9-0.3,2.9-0.4
	c1.3-0.3,0.7,0.2,2-0.1c-2.4,1.9-5.3,2.8-8.3,2.8c-0.3,0-0.5-0.2-0.7-0.4c-0.4-0.5-0.8-1.1-1.4-1.8L63.9,99.5L63.9,99.5z M69.6,89.5
	c0.3-0.6,1.4-0.3,1.7,0.7c0.7,2.2,1.9,6.8,1.5,7.9C71.3,95.5,70.6,92.3,69.6,89.5L69.6,89.5z M69.7,91.5l1.6,4.8l-3.4,0.4
	C66.9,94.4,69.1,93.3,69.7,91.5L69.7,91.5z M63.1,94.4c-0.1-1.5,0.1-3.1,0.6-4.6c0.8-2.6,1.9-5.2,3-7.9l0.8,2.2
	c-1,0.5-1.6,1.6-1.5,2.7c0,1.6-0.4,3.2-1,4.7c-0.3,0.8-0.5,1.6-0.6,2.4c-0.3,1.7,1.3,3.6,3,3.4c1-0.1,2.1-0.2,3.1-0.2
	c0.4,0,0.7,0,1.1,0.1v0.4c-1.5,0.7-3.2,0.9-4.8,0.7C64.2,97.8,63.2,96.8,63.1,94.4L63.1,94.4z M69.2,83.7c0.2-0.1,0.8,0.2,1.1,0.4
	c-1.3-0.2-2,0.9-3,1.2l0.1,0.3l2.2-0.9c0.6,0.2,0.5-0.1,0.9,0.7c-0.3,0.1-1.1,0.2-1.7,0.4s-1,0.6-1.3,0.7v0.3c0.4,0,0.8-0.1,1.2-0.3
	c0.9-0.4,1.5-0.4,1.9,0.2c0.2,0.2,0.2,0.9,0.4,1.3c-0.7-1.1-1.7-0.9-2.6-0.5c-0.2,0.1-0.3,0.3-0.5,0.4c0.2,0.2,0.7-0.1,0.9-0.1
	c0.3,0,0.7,0,1,0c0.7-0.1,1,0.9,1.3,1.1c-0.3,0.1-0.9-0.4-1.6-0.2c-0.5,0.4-0.8,0.9-0.8,1.5c0.6,1,0,1.7-0.5,2.4
	c-0.9,1.1-1.5,2.4-1.7,3.8c-1.3-0.4-1.9-2-1-4.3c0.4-1,0.7-2,0.9-3c0-0.3-0.1-0.6-0.1-1C66.3,85.5,66.8,84.6,69.2,83.7L69.2,83.7z
	 M69.6,80.3c0-0.5,0.1-1.1,0.4-1.6c0.5,1.9,0.5,1.3,1.7,3.4c0.2,0,0.4-0.5,0.4-0.9c-0.1-2.2-0.1-1.9-0.2-4.1c1.2,6,1.9,12,2,18.1
	l-0.3,0.1c-0.2-0.3-0.4-0.6-0.6-1c-0.4-1.6-0.8-3.2-1.1-4.8c-0.2-1.1-0.3-2.1-0.5-3.2c-0.2-0.8-0.3-1.6-0.5-2.4
	c-0.1-0.3-0.2-0.5-0.4-0.6C69.1,82.6,69.4,81.4,69.6,80.3L69.6,80.3z M73.4,96.3c0.8-0.3,1.6-1.1,2.1-1.3c0,0.1,0.5-1,1-1.2
	c0.5-0.2,0.6,0,0.7,0c-0.3,0.2-1.4,3.1-2.3,4.5c-0.3,0.4-0.7,1.3-0.8,1.3s-0.3-0.5-0.4-0.4C73.4,99.1,73.8,96.5,73.4,96.3L73.4,96.3
	z M74,88c0.1,1,1,5.7,1.1,6.8c-0.1,0-0.7,0.5-0.8,0.5c-0.1-1-0.1-1.5-0.2-2.5C74.2,92.6,73.9,87.9,74,88L74,88z M82.1,76
	c1.8,1.9,1.4,9.8,0.9,12.3c-0.5-0.3-1.1-0.6-1.7-0.8c-0.6-0.1-1,0.1-1.7,1c-0.5-3.2-0.4-6.4,0.2-9.6c0.1,0,0.3,1.2,0.4,1.2
	c0.1,2.2,0.4,4.3,0.5,6.4l0.3,0.1c0.2-0.5,0.4-1,0.5-1.5C81.7,82.7,81.8,78.4,82.1,76L82.1,76z M89.1,101.3c1,0.5,1.6,1.5,1.5,2.7
	c-0.1,2.2-0.3,4.5-0.5,6.7c0,0.5-0.1,1.1-0.2,1.6C89,108.6,90.5,104.9,89.1,101.3L89.1,101.3z M88,101.1c0.9,0.9,1.4,2.1,1.2,3.4
	c0,2.3-0.1,4.6-0.1,6.8c0,1.2,0.1,2.4,0.1,3.6c-0.3-0.9-0.5-1.7-0.7-2.6c-0.1-2.3-0.1-4.6-0.1-6.8c0-0.8,0.2-1.5,0.1-2.3
	C88.4,102.5,88.2,101.7,88,101.1L88,101.1z M87.2,106.3c1,4-0.1,9.8-0.3,13.8c-0.2-1.7-0.4-3.4-0.7-5c-0.2-1.5-0.6-3-1.2-4.4
	C84.7,109.4,86.2,107,87.2,106.3L87.2,106.3z M77.6,106.6l0.8,0.6c2.3-0.5,3.1-2.2,3.6-4.2l-0.8-0.1c0-0.3,0-0.6,0-0.9l-1.6,0.9
	c0.8-1.7,2.6-1.8,7.1-0.3l-0.4-1c1-0.2,1.4,0.1,1.5,1c0.2,1.2-0.2,2.4-1,3.2c-0.7,0.7-1.3,1.5-1.8,2.4c-0.1,0.3-0.5,0.5-0.8,0.3
	c0,0,0,0,0,0h-0.1c-0.4-0.2-1,0.2-1.5,0.3L81,109c0-0.1,0-0.2-0.1-0.4l2.3-0.5v-0.2c-0.6,0.1-1.2,0.2-1.8,0.3
	c-0.6,0.2-1.2,0.3-1.8,0.4c0.6-0.7,1.5-1.2,2.5-1.2c0.7-0.1,0.9-0.4,0.5-1.4c-0.1,1.1-0.8,1.1-1.4,1.1c-0.5,0.1-0.9,0.3-1.4,0.5
	c-0.6,0.2-1.2,0.2-1.8,0.4C77.8,107.6,77.8,107.2,77.6,106.6L77.6,106.6z M72.4,103.4c0.1-0.1,0.1-0.2,0.1-0.4l6.5,3.2
	C78.2,106.6,74.7,105.2,72.4,103.4L72.4,103.4z M69.7,112.8c0.7-1.5,1.3-2.9,2.1-4.2c0.2-0.3,1-0.2,1.5-0.3c0.1,0.5,0.4,1,0.2,1.4
	c-0.3,0.8-0.7,1.6-1.2,2.3l-0.4-0.2l1-1.6c-0.9,0-1.5,0-1.8,1C71.1,111.7,71.4,112.9,69.7,112.8L69.7,112.8z M68.3,113.1
	c0.1,0.4,0.1,0.8,0.1,0.8l-2.1,2.2l0.6,0.6c0.3-0.6,0.6-1.3,1-1.9l0.3,0.3c0.3,1.9-1.1,3.7-3,3.9c0,0,0,0,0,0
	c-0.5-0.1-0.9-0.5-1.1-1c-0.2-1.1-0.4-2.3-0.4-3.4c0.1-0.5-0.2-1-0.6-1.3c-0.5-0.3-0.8-0.8-1.1-1.3c-0.5-1-0.8-2-1.2-3l0.2-0.2
	c0.4,0.3,0.8,0.7,1.2,1.1c0.4,0.5,0.7,1.1,1.1,1.7c1,1.5,1.9,1.7,3.3,0.6c1.6-1.4,3.1-2.8,4.4-4.4c0.8-0.9,2.1-1.4,3.4-1.2
	c0.4,0.1,0.8,0.3,1.2,0.6c-0.2,0.3-0.4,0.7-0.5,1c-0.4-0.2-0.9-0.4-1.3-0.6c-1.2-0.3-2.4,0.3-2.9,1.5c-0.4,1-1.2,1.8-2.1,2.2
	c-1,0.6-1.7,1.4-2.2,2.4c-0.7,1.6-1.4,3.2-1.9,4.8c1.4,0.6,2.8-0.3,3-2.3l-2,2.3c0.1-3,1.9-6.1,4.1-6.8l-1,1.6L68.3,113.1
	L68.3,113.1z M65.4,112.2c-0.2,0.1-0.8-0.1-1.1-0.4c-0.6-0.6-1.1-1.3-1.6-2c1.2,0.2,2,1.4,3.2,0.8c0.9-0.5,1.8-1,2.7-1.4l0.2,0.3
	C67.7,110.3,66.6,111.3,65.4,112.2L65.4,112.2z M62.9,113.9c0.3,0.2,0.2,0.8,0.3,1.2c0.1,0.4,0,0.8,0,1.5c-2.3-2.4-3.3-6.4-4.3-9.2
	c0.1,0,0.8,0.6,0.9,0.5c0.4,0.8,0.3,2.1,0.8,2.9C61.3,111.9,61.9,113.4,62.9,113.9L62.9,113.9z M58.1,106.9c0.5,1.3,2.3,6.7,3,8
	c0.5,1,0.8,2.1,2,2.5c0.1,0,0.2,0.3,0.3,0.5c0.5,1.6,1.5,2.1,3,1.4c0.7-0.4,1.3-0.8,2-1.2c-0.2,0.9-0.9,1.6-1.8,1.7
	c-3.4,0.4-4.2,0-5.4-3.1c-0.7-1.9-2.1-6.4-2.7-8.4C58.5,108.3,58.1,106.9,58.1,106.9L58.1,106.9z M64.3,73.5
	c0.3,1.2,0.8,1.8,0.3,2.9c-0.9,2.3-2.1,5-2.8,7.3c-1.6,4.9-3,9.8-4.5,14.7c0,0.1,0,0.3,0,0.4l0.7-0.2c0.9,3.4,2.9,4.9,5.4,3.8
	l-1.5-1.9l-0.3,0.2l0.9,1.5c-2,0.1-3.8-1.5-3.9-3.5c0,0,0,0,0,0c0-0.2,0-0.5,0-0.7c0.1-0.8,0.6-1.1,0.9-2c-0.4,0.1-1.2,1.6-1.7,1.8
	c1.1-4.1,6-13.7,8-18.4c0.1,0.1,0.3,1.1,0.4,1.1c-0.1,0.4-0.3,1.2-0.4,1.5c-1.3,3.1-2.5,7.2-4.5,10.1c-0.9,1.3-1,3-0.1,4.3
	c0.3,0.5,0.5,1,0.5,1.5l-0.6-0.5c-1.4,1.2-1.5,2.9-0.3,3.7c-0.1-0.9-0.2-1.8-0.2-2.8l0.5-0.2c0.4,0.5,0.8,1,1.2,1.6
	c1.3,2.2,2.3,2.7,4.8,2.1c1.6-0.5,3.1-1,4.7-1.7c0.5-0.2,1-0.4,1.4-0.6l0.2,0.3c-0.8,0.5-1.6,0.9-2.4,1.2c-2.4,0.7-4.8,1.3-7.2,2
	c-0.4,0.1-0.9,0.3-1.4,0.4c-0.4,0.5-0.4,0.5,1,0.3c2.1-0.6,4.5-1.2,6.6-1.9c1.3-0.6,2.6-1.2,4-1.6l-0.9,1.9c0,0-1.1,0.4-2.3,0.8
	c-1.5,0.8-2.9,1.8-4.2,3c-0.6,0.6-2.6,0.8-3.2,0.1c-1.8-2.1-3.9-3.8-6.2-5.2c-0.4-0.2-0.9-0.4-1.3-0.6c0.6,4,4.2,6.4,10,6.7
	c-0.3,0.8-0.6,1.3-1.6,0.7l-0.2,0.2c0.3,0.5,0.5,1,0.9,1.7c1.8-2.9,3.7-5.5,6.8-6.7l0.9,1.7c-1.9,0.9-4.4,1.1-6.1,3.3
	c0.4-0.1,0.7-0.1,0.8-0.3c1.1-1.3,2.7-1.6,4.2-2.1c0.3-0.1,0.6-0.2,0.8-0.3c1.1-0.7,2.1-0.3,3.1,0.5c-0.8,0.1-1.4,0.2-2.1,0.3
	c-2.3,0.5-4.4,1.6-6.2,3.1c-1,1-2.5,1.1-3.6,0.3c-3.4-1.7-6.3-4.2-8.7-7.1c-0.3-0.4-0.3-0.9-0.2-1.3c1.3-4.4,2.5-8.8,4.8-12.8
	c0.7-1.3,0.9-2.7,0.6-4.1c-0.1-0.5-0.6-0.9-0.9-1.3c-0.4,0.4-0.9,0.7-1,1.2c-0.2,0.9-0.3,1.9-0.2,2.8c0,2.7-1.1,5-1.9,7.8
	c-0.6-7.6,2-16.4,7-20.3C63.4,74,63.9,73.7,64.3,73.5z M59,83.3c0.8,1.8,0.3,3.3-0.4,4.8C58.5,86.5,58,85,59,83.3z M57.4,102
	c1.3,0,4,2.4,5.2,3.9C60.7,106.1,57.8,103.9,57.4,102L57.4,102z M65.5,79.1c-0.5,1.1-1.1,2.2-1.6,3.3c-1.2,2.9-2.4,5.8-3.6,8.7
	c-0.2,0.5-0.4,1-0.6,1.4l-0.3-0.1L65,76.7C65.7,77.4,65.9,78.3,65.5,79.1L65.5,79.1z M64.9,72.1c-0.2,0.5-0.8,0.7-1.3,0.6
	c-0.7-0.2-0.5-1-0.4-1.5c0.1-0.4,0.2-0.4,0.3-0.4C63.9,71.3,64.3,71.8,64.9,72.1L64.9,72.1z M65.1,71.6c-0.8-0.6-2.1-1-0.9-2.3
	C66,69.5,65.6,70.4,65.1,71.6L65.1,71.6z M66.2,73.6c0.6,2,1.2,4,1.8,6.1c0.2,0.7,0.5,1.4,0.8,2.1c0.3,0.6,0.1,1.3-0.4,1.8
	c-1.6-3.3-2.7-6.8-3.3-10.5C65.8,72.7,66.1,73.1,66.2,73.6L66.2,73.6z M67.2,71.6c-0.2,0.2-0.5,0.4-0.8,0.5c-0.3,0-0.5-0.1-0.7-0.3
	c0.1-0.4,0.1-0.8,0.2-1.2c0.1,0-0.1-0.7,0-0.7C66.3,70.3,67.6,70.8,67.2,71.6L67.2,71.6z M70,69.9c-0.6,1.6-1.7,5.2-2.2,6.8
	c-0.1,0-0.2-1.4-0.3-1.4l-0.8-2.4c1.1-0.6,1.6-1.8,2.3-2.7C69.1,70.2,69.8,69.7,70,69.9L70,69.9z M71.2,71.6c-1.2,2.4-1.9,5.1-2,7.8
	c-0.1,0.3-0.2,0.5-0.3,0.7c-0.3-1.2-0.8-2-0.4-3.1c0.6-1.6,0.9-3.4,1.4-5c0.2-0.9,0.6-1.7,1-2.7C71.5,69.9,71.6,70.9,71.2,71.6
	L71.2,71.6z M70.9,61.1l0.1-0.6l1.2,0.3c-0.3,0-0.5,0-0.8,0C71.2,60.8,71,60.9,70.9,61.1L70.9,61.1z M70.3,53.4l1,0.3
	c-0.1,0.1-0.1,0.2-0.1,0.3c-0.1,0.5,0,1.1,0.3,1.5c0.2,0.2-0.4,0.2-0.4,0.2C70.7,55.1,70.4,54.3,70.3,53.4L70.3,53.4z M83.5,54.1
	l-0.9,0.2c-0.1-0.2-0.3-0.4-0.5-0.6c-0.2-0.2-0.4-0.4-0.6-0.5c0,0.3-0.1,0.7-0.3,0.9c-0.2-0.3-0.4-0.7-0.6-1c-0.1,0.2-0.6,0.8-0.8,1
	c-0.8-1.2-0.8-1.3-1.9-0.3c-0.2-0.4-0.4-1.1-0.6-1.5c-0.3,0.3-0.5,0.9-0.9,1.3c-0.2-0.2-0.4-0.9-0.8-1.4c-0.4,0.6-0.8,1.2-1.2,1.9
	c-0.2-0.5-0.6-1-0.8-1.4c0-0.1-0.5,0.6-0.8,1.3c-0.1,0.2-1-1.2-1-1.3c-0.1,0.3-0.2,0.6-0.3,0.9L70.8,53c0.4-0.2,0.8-0.4,1.1-0.6
	c3.1-0.9,6.4-0.8,9.3,0.5l0.2,0.1h0.1l0.5,0.3c0,0,0.8,0.4,1.2,0.6C83.3,53.9,83.4,54,83.5,54.1z M81.9,56.3c0,0,0.8-0.9,0.8-1.6
	l0.9-0.3c-0.3,0.7-0.7,1.4-1.2,2.1L81.9,56.3z M80.7,62.8c1,0.2,1.1-1.3,1.3-1.8c0.6,0.7-0.8,1.8-0.9,2.8
	C80.5,63.9,80.7,63.2,80.7,62.8L80.7,62.8z M82.5,71.5c-1.6,0.3-3.4,0.4-5.2,0.7c1.2-0.8,2.3-1.8,3.2-3c0.3,0.7,0.3,1.1,1.6,0.9
	C82.3,70.1,82.3,71.2,82.5,71.5L82.5,71.5z M83.8,72.6c-2.4,0.5-7.3,1-7.8,0.1c2.2-0.3,4.8-0.5,7-0.8c-0.1-0.7-0.1-1.1-0.1-1.5h0.3
	C83.2,71.1,83.6,71.9,83.8,72.6L83.8,72.6z M95.4,87c-0.9-1.2-1.7-2.5-2.3-3.9c0.2-0.1,0.9,0.1,0.9,0.3l1.3,2.4
	C95.2,85.9,95.5,87,95.4,87z M96.6,91.7c0,0.2-0.1,0.3-0.1,0.5c-1.7-0.9-2.9-2.9-5.2-2.6c0.5-0.3,1-0.6,1.5-0.8s1.1-0.5,1.8-0.8
	c-0.8-1.3-2-0.5-2.9-0.9c-0.4-1.2-0.6-1.3-1.9-0.8c-1.2,0.5-2.1,1.4-2.6,2.6c-0.2,0.4-0.3,0.8-0.5,1.2h-0.3c0-0.4,0-0.8,0-1.2
	c0.3-2,0.6-4,0.8-6c0.2-1.5-0.1-3-0.8-4.3l-0.4-0.1c-0.3,0.9-0.5,1.9-0.6,2.8c-0.1,1.8,0.1,3.7,0.1,5.6c0,0.8-0.1,1.5-0.2,2.3
	c-1.3-0.1-1.3-1-1.4-1.8c-0.4-3.8,0.1-5.6-0.4-9.4c-0.2-1.5-2.2-4.2-2.2-4.5c0.6-0.5,3,0.4,3-1.2c0.3,0.8,0.7,1.5,1,2.4
	c0.6-0.9,0.1-1.5-0.3-2.1c-0.4-0.6-0.8-1.2-1.3-1.8c0.2,0,0.4,0,0.6,0c4,1.3,7.1,4.4,8.4,8.3c0.5,1.5,1.2,3,1.6,4.6
	c-0.1-0.2-0.2-0.6-0.4-0.7c-0.3-0.1-0.7-0.3-1-0.3c0,0.3-0.2,0.7-0.1,0.9c0.7,1.2,1,2.8,2.3,3.6S96.9,89.9,96.6,91.7z M99.6,102.5
	c-0.3-0.5-0.5-0.9-0.8-1.3c-0.2-0.4-0.4-0.8-0.6-1.3c1-0.7,0.2-1.4,0.1-2.1l0,0l0,0c-0.8-0.4-1.5-0.9-2.3-1.2s-1.6-0.6-2.4-0.9
	c0-0.1,0-0.2,0-0.4l2.4,0.2c-0.6-1.7-2.1-1.7-3.6-2c0.2-0.1,0.4-0.3,0.6-0.4c0.2-0.1,0.4-0.2,0.6-0.2c-0.4-1.3-0.5-1.3-3.8-0.1
	c-0.1-2-2.1-1.6-3.1-2.7c1.1-0.9,1.4-2.8,3.5-3.2c-0.1,0.5-0.2,0.9-0.3,1.5l2.8-0.8l0.1,0.3l-3.9,2.6c0.1,0.2,0.1,0.3,0.2,0.4
	c0.4,0,0.9-0.1,1.3-0.2c0.9-0.6,2.1-0.5,2.9,0.3c0.9,0.7,1.9,1.3,2.8,2.1c0.6,0.7,1.1,1.5,1.5,2.3c-0.1,0.1-0.2,0.1-0.3,0.2
	c-0.2-0.6-0.5-1.1-0.8-1.7c-0.2-0.2-0.6-0.3-0.8-0.5c0,0.3,0,0.6,0.2,0.9c0.6,0.9,1.3,1.8,1.9,2.6c0.2,0.3,0.4,0.6,0.5,0.8h0.1l0,0
	C100.1,99.3,100.5,100.5,99.6,102.5L99.6,102.5z M74,60.9c0.4,0.2,0.8,0.1,1,0.2c-0.1,0-0.4,0.3-0.5,0.3c0.1,0.5,0.2,1,0.4,1.4
	c0.4,0.6,1.1,0.8,1.8,0.5l-1.8-1c1-0.5,2,0.4,2.6-0.8c-0.2-0.5-1.5-0.5-1.7-1c0.7-0.1,1.3-0.1,2,0c-0.8-1-2.2-1.3-3.4-0.6
	C74.3,60,74.2,60.5,74,60.9L74,60.9z M75,61.5L75,61.5c0.2-0.1,0.3-0.1,0.4-0.2c0.4,0,0.8,0.1,1.1,0.2v0.1c0,0.1,0,0.4-0.1,0.4h-1.4
	v-0.1c0-0.1,0-0.2-0.1-0.2L75,61.5L75,61.5z M74.6,60.5c0-0.5,1.2-0.6,1.2-0.5s-0.8,0.3-1.1,0.4L74.6,60.5z M74.7,66.3
	c-0.4-0.3-1.5,0-2.2-0.1l0.1,0.3c1.1-0.1,0.2,0.9,1.1,0.8C73.4,66.6,74.2,66.8,74.7,66.3L74.7,66.3z M74.2,68.3
	c-0.3-0.1-0.5,0-1-0.2c0,0.5,0.2,0.7,0.7,0.7C74,68.6,74.1,68.4,74.2,68.3z"/>
<path d="M109.2,113c-0.4-0.5-0.9-1-1.4-1.4c-0.6-0.2-1.1-0.2-1.7-0.2v-0.1c0.3,0,0.6,0,0.9,0c0.4,0,1.2-0.3,1.2-0.7
	s-0.4-0.7-0.6-0.8c-0.6-0.2-1.1-0.2-1.7-0.1c0,0,1.5,0.4,1.4,0.8s-1,0.5-1,0.5l-0.2-0.3v0.3l-0.4-0.4l0.6-0.1l-0.2-0.4l-0.7,0.2
	l0.6,0.9l-0.1,0.1c-0.1-0.2-0.3-0.5-0.5-0.7c-0.4-0.1-0.8-0.1-1.2,0l0,0c0,0,0.5,0.8,0.7,0.9c0.3,0,0.5,0,0.8,0l-0.1,0.1l-1.1,0.1
	l0.3,0.7h0.4l-0.3-0.5h0.5l-0.2,0.2h0.4c0,0,0.4,0.9,0.2,1.1s-1.5-0.6-1.5-0.6c0.3,0.5,0.7,1,1.1,1.3c0.3,0.2,0.7,0.2,1.1,0
	c0.3-0.3,0-1.1-0.2-1.4c-0.2-0.3-0.4-0.5-0.6-0.7l0.1-0.1c0.4,0.4,0.9,0.8,1.4,1.1c0.7,0.2,1.3,0.2,2,0.2"/>
<path d="M45.7,115.1c0.4-0.5,0.9-1,1.4-1.4c0.6-0.2,1.1-0.2,1.7-0.2l0-0.1c-0.3,0-0.6,0-0.9,0c-0.4,0-1.2-0.3-1.2-0.7
	c0-0.4,0.4-0.7,0.6-0.8c0.6-0.2,1.1-0.2,1.7-0.1c0,0-1.5,0.4-1.4,0.8c0,0.3,1,0.5,1,0.5l0.2-0.3v0.3l0.4-0.4l-0.6-0.1l0.2-0.4
	l0.7,0.2l-0.6,0.9l0.1,0.1c0.1-0.2,0.3-0.5,0.5-0.7c0.4-0.1,0.8-0.1,1.2,0l0,0c0,0-0.5,0.8-0.7,0.9c-0.3,0-0.5,0-0.8,0l0.1,0.1h1.1
	l-0.3,0.7l-0.4-0.1l0.3-0.5h-0.5l0.2,0.2H49c0,0-0.4,0.9-0.2,1.1s1.5-0.6,1.5-0.6c-0.3,0.5-0.7,0.9-1.1,1.3c-0.3,0.2-0.7,0.2-1.1,0
	c-0.3-0.3,0-1.1,0.2-1.4c0.2-0.3,0.4-0.5,0.6-0.7v-0.1c-0.4,0.4-0.8,0.9-1.3,1.2C47,114.9,46.3,115,45.7,115.1"/>
</svg>
